G04 #@! TF.GenerationSoftware,KiCad,Pcbnew,5.0.2-bee76a0~70~ubuntu16.04.1*
G04 #@! TF.CreationDate,2019-02-03T15:20:27+01:00*
G04 #@! TF.ProjectId,valve_reporter,76616c76-655f-4726-9570-6f727465722e,rev?*
G04 #@! TF.SameCoordinates,Original*
G04 #@! TF.FileFunction,Soldermask,Top*
G04 #@! TF.FilePolarity,Negative*
%FSLAX46Y46*%
G04 Gerber Fmt 4.6, Leading zero omitted, Abs format (unit mm)*
G04 Created by KiCad (PCBNEW 5.0.2-bee76a0~70~ubuntu16.04.1) date Son 03 Feb 2019 15:20:27 CET*
%MOMM*%
%LPD*%
G01*
G04 APERTURE LIST*
%ADD10C,0.100000*%
G04 APERTURE END LIST*
D10*
G36*
X173566190Y-131830483D02*
X174094138Y-132049166D01*
X174569283Y-132366648D01*
X174973352Y-132770717D01*
X175290834Y-133245862D01*
X175509517Y-133773810D01*
X175621000Y-134334275D01*
X175621000Y-134905725D01*
X175509517Y-135466190D01*
X175290834Y-135994138D01*
X174973352Y-136469283D01*
X174569283Y-136873352D01*
X174094138Y-137190834D01*
X173566190Y-137409517D01*
X173005725Y-137521000D01*
X172434275Y-137521000D01*
X171873810Y-137409517D01*
X171345862Y-137190834D01*
X170870717Y-136873352D01*
X170466648Y-136469283D01*
X170149166Y-135994138D01*
X169930483Y-135466190D01*
X169819000Y-134905725D01*
X169819000Y-134334275D01*
X169930483Y-133773810D01*
X170149166Y-133245862D01*
X170466648Y-132770717D01*
X170870717Y-132366648D01*
X171345862Y-132049166D01*
X171873810Y-131830483D01*
X172434275Y-131719000D01*
X173005725Y-131719000D01*
X173566190Y-131830483D01*
X173566190Y-131830483D01*
G37*
G36*
X87206190Y-131830483D02*
X87734138Y-132049166D01*
X88209283Y-132366648D01*
X88613352Y-132770717D01*
X88930834Y-133245862D01*
X89149517Y-133773810D01*
X89261000Y-134334275D01*
X89261000Y-134905725D01*
X89149517Y-135466190D01*
X88930834Y-135994138D01*
X88613352Y-136469283D01*
X88209283Y-136873352D01*
X87734138Y-137190834D01*
X87206190Y-137409517D01*
X86645725Y-137521000D01*
X86074275Y-137521000D01*
X85513810Y-137409517D01*
X84985862Y-137190834D01*
X84510717Y-136873352D01*
X84106648Y-136469283D01*
X83789166Y-135994138D01*
X83570483Y-135466190D01*
X83459000Y-134905725D01*
X83459000Y-134334275D01*
X83570483Y-133773810D01*
X83789166Y-133245862D01*
X84106648Y-132770717D01*
X84510717Y-132366648D01*
X84985862Y-132049166D01*
X85513810Y-131830483D01*
X86074275Y-131719000D01*
X86645725Y-131719000D01*
X87206190Y-131830483D01*
X87206190Y-131830483D01*
G37*
G36*
X97295562Y-134803681D02*
X97330477Y-134814273D01*
X97362665Y-134831478D01*
X97390873Y-134854627D01*
X97414022Y-134882835D01*
X97431227Y-134915023D01*
X97441819Y-134949938D01*
X97446000Y-134992395D01*
X97446000Y-136133605D01*
X97441819Y-136176062D01*
X97431227Y-136210977D01*
X97414022Y-136243165D01*
X97390873Y-136271373D01*
X97362665Y-136294522D01*
X97330477Y-136311727D01*
X97295562Y-136322319D01*
X97253105Y-136326500D01*
X95786895Y-136326500D01*
X95744438Y-136322319D01*
X95709523Y-136311727D01*
X95677335Y-136294522D01*
X95649127Y-136271373D01*
X95625978Y-136243165D01*
X95608773Y-136210977D01*
X95598181Y-136176062D01*
X95594000Y-136133605D01*
X95594000Y-134992395D01*
X95598181Y-134949938D01*
X95608773Y-134915023D01*
X95625978Y-134882835D01*
X95649127Y-134854627D01*
X95677335Y-134831478D01*
X95709523Y-134814273D01*
X95744438Y-134803681D01*
X95786895Y-134799500D01*
X97253105Y-134799500D01*
X97295562Y-134803681D01*
X97295562Y-134803681D01*
G37*
G36*
X101105562Y-134713181D02*
X101140477Y-134723773D01*
X101172665Y-134740978D01*
X101200873Y-134764127D01*
X101224022Y-134792335D01*
X101241227Y-134824523D01*
X101251819Y-134859438D01*
X101256000Y-134901895D01*
X101256000Y-136043105D01*
X101251819Y-136085562D01*
X101241227Y-136120477D01*
X101224022Y-136152665D01*
X101200873Y-136180873D01*
X101172665Y-136204022D01*
X101140477Y-136221227D01*
X101105562Y-136231819D01*
X101063105Y-136236000D01*
X99596895Y-136236000D01*
X99554438Y-136231819D01*
X99519523Y-136221227D01*
X99487335Y-136204022D01*
X99459127Y-136180873D01*
X99435978Y-136152665D01*
X99418773Y-136120477D01*
X99408181Y-136085562D01*
X99404000Y-136043105D01*
X99404000Y-134901895D01*
X99408181Y-134859438D01*
X99418773Y-134824523D01*
X99435978Y-134792335D01*
X99459127Y-134764127D01*
X99487335Y-134740978D01*
X99519523Y-134723773D01*
X99554438Y-134713181D01*
X99596895Y-134709000D01*
X101063105Y-134709000D01*
X101105562Y-134713181D01*
X101105562Y-134713181D01*
G37*
G36*
X106185562Y-134713181D02*
X106220477Y-134723773D01*
X106252665Y-134740978D01*
X106280873Y-134764127D01*
X106304022Y-134792335D01*
X106321227Y-134824523D01*
X106331819Y-134859438D01*
X106336000Y-134901895D01*
X106336000Y-136043105D01*
X106331819Y-136085562D01*
X106321227Y-136120477D01*
X106304022Y-136152665D01*
X106280873Y-136180873D01*
X106252665Y-136204022D01*
X106220477Y-136221227D01*
X106185562Y-136231819D01*
X106143105Y-136236000D01*
X104676895Y-136236000D01*
X104634438Y-136231819D01*
X104599523Y-136221227D01*
X104567335Y-136204022D01*
X104539127Y-136180873D01*
X104515978Y-136152665D01*
X104498773Y-136120477D01*
X104488181Y-136085562D01*
X104484000Y-136043105D01*
X104484000Y-134901895D01*
X104488181Y-134859438D01*
X104498773Y-134824523D01*
X104515978Y-134792335D01*
X104539127Y-134764127D01*
X104567335Y-134740978D01*
X104599523Y-134723773D01*
X104634438Y-134713181D01*
X104676895Y-134709000D01*
X106143105Y-134709000D01*
X106185562Y-134713181D01*
X106185562Y-134713181D01*
G37*
G36*
X92092005Y-133241089D02*
X92283274Y-133320315D01*
X92455416Y-133435337D01*
X92601803Y-133581724D01*
X92716825Y-133753866D01*
X92796051Y-133945135D01*
X92836440Y-134148184D01*
X92836440Y-134355216D01*
X92796051Y-134558265D01*
X92716825Y-134749534D01*
X92601803Y-134921676D01*
X92455416Y-135068063D01*
X92283274Y-135183085D01*
X92092005Y-135262311D01*
X91888956Y-135302700D01*
X91681924Y-135302700D01*
X91478875Y-135262311D01*
X91287606Y-135183085D01*
X91115464Y-135068063D01*
X90969077Y-134921676D01*
X90854055Y-134749534D01*
X90774829Y-134558265D01*
X90734440Y-134355216D01*
X90734440Y-134148184D01*
X90774829Y-133945135D01*
X90854055Y-133753866D01*
X90969077Y-133581724D01*
X91115464Y-133435337D01*
X91287606Y-133320315D01*
X91478875Y-133241089D01*
X91681924Y-133200700D01*
X91888956Y-133200700D01*
X92092005Y-133241089D01*
X92092005Y-133241089D01*
G37*
G36*
X97295562Y-131828681D02*
X97330477Y-131839273D01*
X97362665Y-131856478D01*
X97390873Y-131879627D01*
X97414022Y-131907835D01*
X97431227Y-131940023D01*
X97441819Y-131974938D01*
X97446000Y-132017395D01*
X97446000Y-133158605D01*
X97441819Y-133201062D01*
X97431227Y-133235977D01*
X97414022Y-133268165D01*
X97390873Y-133296373D01*
X97362665Y-133319522D01*
X97330477Y-133336727D01*
X97295562Y-133347319D01*
X97253105Y-133351500D01*
X95786895Y-133351500D01*
X95744438Y-133347319D01*
X95709523Y-133336727D01*
X95677335Y-133319522D01*
X95649127Y-133296373D01*
X95625978Y-133268165D01*
X95608773Y-133235977D01*
X95598181Y-133201062D01*
X95594000Y-133158605D01*
X95594000Y-132017395D01*
X95598181Y-131974938D01*
X95608773Y-131940023D01*
X95625978Y-131907835D01*
X95649127Y-131879627D01*
X95677335Y-131856478D01*
X95709523Y-131839273D01*
X95744438Y-131828681D01*
X95786895Y-131824500D01*
X97253105Y-131824500D01*
X97295562Y-131828681D01*
X97295562Y-131828681D01*
G37*
G36*
X106185562Y-131738181D02*
X106220477Y-131748773D01*
X106252665Y-131765978D01*
X106280873Y-131789127D01*
X106304022Y-131817335D01*
X106321227Y-131849523D01*
X106331819Y-131884438D01*
X106336000Y-131926895D01*
X106336000Y-133068105D01*
X106331819Y-133110562D01*
X106321227Y-133145477D01*
X106304022Y-133177665D01*
X106280873Y-133205873D01*
X106252665Y-133229022D01*
X106220477Y-133246227D01*
X106185562Y-133256819D01*
X106143105Y-133261000D01*
X104676895Y-133261000D01*
X104634438Y-133256819D01*
X104599523Y-133246227D01*
X104567335Y-133229022D01*
X104539127Y-133205873D01*
X104515978Y-133177665D01*
X104498773Y-133145477D01*
X104488181Y-133110562D01*
X104484000Y-133068105D01*
X104484000Y-131926895D01*
X104488181Y-131884438D01*
X104498773Y-131849523D01*
X104515978Y-131817335D01*
X104539127Y-131789127D01*
X104567335Y-131765978D01*
X104599523Y-131748773D01*
X104634438Y-131738181D01*
X104676895Y-131734000D01*
X106143105Y-131734000D01*
X106185562Y-131738181D01*
X106185562Y-131738181D01*
G37*
G36*
X101105562Y-131738181D02*
X101140477Y-131748773D01*
X101172665Y-131765978D01*
X101200873Y-131789127D01*
X101224022Y-131817335D01*
X101241227Y-131849523D01*
X101251819Y-131884438D01*
X101256000Y-131926895D01*
X101256000Y-133068105D01*
X101251819Y-133110562D01*
X101241227Y-133145477D01*
X101224022Y-133177665D01*
X101200873Y-133205873D01*
X101172665Y-133229022D01*
X101140477Y-133246227D01*
X101105562Y-133256819D01*
X101063105Y-133261000D01*
X99596895Y-133261000D01*
X99554438Y-133256819D01*
X99519523Y-133246227D01*
X99487335Y-133229022D01*
X99459127Y-133205873D01*
X99435978Y-133177665D01*
X99418773Y-133145477D01*
X99408181Y-133110562D01*
X99404000Y-133068105D01*
X99404000Y-131926895D01*
X99408181Y-131884438D01*
X99418773Y-131849523D01*
X99435978Y-131817335D01*
X99459127Y-131789127D01*
X99487335Y-131765978D01*
X99519523Y-131748773D01*
X99554438Y-131738181D01*
X99596895Y-131734000D01*
X101063105Y-131734000D01*
X101105562Y-131738181D01*
X101105562Y-131738181D01*
G37*
G36*
X111463190Y-126877483D02*
X111991138Y-127096166D01*
X112466283Y-127413648D01*
X112870352Y-127817717D01*
X113187834Y-128292862D01*
X113406517Y-128820810D01*
X113518000Y-129381275D01*
X113518000Y-129952725D01*
X113406517Y-130513190D01*
X113187834Y-131041138D01*
X112870352Y-131516283D01*
X112466283Y-131920352D01*
X111991138Y-132237834D01*
X111463190Y-132456517D01*
X110902725Y-132568000D01*
X110331275Y-132568000D01*
X109770810Y-132456517D01*
X109242862Y-132237834D01*
X108767717Y-131920352D01*
X108363648Y-131516283D01*
X108046166Y-131041138D01*
X107827483Y-130513190D01*
X107716000Y-129952725D01*
X107716000Y-129381275D01*
X107827483Y-128820810D01*
X108046166Y-128292862D01*
X108363648Y-127817717D01*
X108767717Y-127413648D01*
X109242862Y-127096166D01*
X109770810Y-126877483D01*
X110331275Y-126766000D01*
X110902725Y-126766000D01*
X111463190Y-126877483D01*
X111463190Y-126877483D01*
G37*
G36*
X136799690Y-126813983D02*
X137327638Y-127032666D01*
X137802783Y-127350148D01*
X138206852Y-127754217D01*
X138524334Y-128229362D01*
X138743017Y-128757310D01*
X138854500Y-129317775D01*
X138854500Y-129889225D01*
X138743017Y-130449690D01*
X138524334Y-130977638D01*
X138206852Y-131452783D01*
X137802783Y-131856852D01*
X137327638Y-132174334D01*
X136799690Y-132393017D01*
X136239225Y-132504500D01*
X135667775Y-132504500D01*
X135107310Y-132393017D01*
X134579362Y-132174334D01*
X134104217Y-131856852D01*
X133700148Y-131452783D01*
X133382666Y-130977638D01*
X133163983Y-130449690D01*
X133052500Y-129889225D01*
X133052500Y-129317775D01*
X133163983Y-128757310D01*
X133382666Y-128229362D01*
X133700148Y-127754217D01*
X134104217Y-127350148D01*
X134579362Y-127032666D01*
X135107310Y-126813983D01*
X135667775Y-126702500D01*
X136239225Y-126702500D01*
X136799690Y-126813983D01*
X136799690Y-126813983D01*
G37*
G36*
X143015562Y-128966181D02*
X143050477Y-128976773D01*
X143082665Y-128993978D01*
X143110873Y-129017127D01*
X143134022Y-129045335D01*
X143151227Y-129077523D01*
X143161819Y-129112438D01*
X143166000Y-129154895D01*
X143166000Y-130296105D01*
X143161819Y-130338562D01*
X143151227Y-130373477D01*
X143134022Y-130405665D01*
X143110873Y-130433873D01*
X143082665Y-130457022D01*
X143050477Y-130474227D01*
X143015562Y-130484819D01*
X142973105Y-130489000D01*
X141506895Y-130489000D01*
X141464438Y-130484819D01*
X141429523Y-130474227D01*
X141397335Y-130457022D01*
X141369127Y-130433873D01*
X141345978Y-130405665D01*
X141328773Y-130373477D01*
X141318181Y-130338562D01*
X141314000Y-130296105D01*
X141314000Y-129154895D01*
X141318181Y-129112438D01*
X141328773Y-129077523D01*
X141345978Y-129045335D01*
X141369127Y-129017127D01*
X141397335Y-128993978D01*
X141429523Y-128976773D01*
X141464438Y-128966181D01*
X141506895Y-128962000D01*
X142973105Y-128962000D01*
X143015562Y-128966181D01*
X143015562Y-128966181D01*
G37*
G36*
X146825562Y-128966181D02*
X146860477Y-128976773D01*
X146892665Y-128993978D01*
X146920873Y-129017127D01*
X146944022Y-129045335D01*
X146961227Y-129077523D01*
X146971819Y-129112438D01*
X146976000Y-129154895D01*
X146976000Y-130296105D01*
X146971819Y-130338562D01*
X146961227Y-130373477D01*
X146944022Y-130405665D01*
X146920873Y-130433873D01*
X146892665Y-130457022D01*
X146860477Y-130474227D01*
X146825562Y-130484819D01*
X146783105Y-130489000D01*
X145316895Y-130489000D01*
X145274438Y-130484819D01*
X145239523Y-130474227D01*
X145207335Y-130457022D01*
X145179127Y-130433873D01*
X145155978Y-130405665D01*
X145138773Y-130373477D01*
X145128181Y-130338562D01*
X145124000Y-130296105D01*
X145124000Y-129154895D01*
X145128181Y-129112438D01*
X145138773Y-129077523D01*
X145155978Y-129045335D01*
X145179127Y-129017127D01*
X145207335Y-128993978D01*
X145239523Y-128976773D01*
X145274438Y-128966181D01*
X145316895Y-128962000D01*
X146783105Y-128962000D01*
X146825562Y-128966181D01*
X146825562Y-128966181D01*
G37*
G36*
X158255562Y-128780681D02*
X158290477Y-128791273D01*
X158322665Y-128808478D01*
X158350873Y-128831627D01*
X158374022Y-128859835D01*
X158391227Y-128892023D01*
X158401819Y-128926938D01*
X158406000Y-128969395D01*
X158406000Y-130110605D01*
X158401819Y-130153062D01*
X158391227Y-130187977D01*
X158374022Y-130220165D01*
X158350873Y-130248373D01*
X158322665Y-130271522D01*
X158290477Y-130288727D01*
X158255562Y-130299319D01*
X158213105Y-130303500D01*
X156746895Y-130303500D01*
X156704438Y-130299319D01*
X156669523Y-130288727D01*
X156637335Y-130271522D01*
X156609127Y-130248373D01*
X156585978Y-130220165D01*
X156568773Y-130187977D01*
X156558181Y-130153062D01*
X156554000Y-130110605D01*
X156554000Y-128969395D01*
X156558181Y-128926938D01*
X156568773Y-128892023D01*
X156585978Y-128859835D01*
X156609127Y-128831627D01*
X156637335Y-128808478D01*
X156669523Y-128791273D01*
X156704438Y-128780681D01*
X156746895Y-128776500D01*
X158213105Y-128776500D01*
X158255562Y-128780681D01*
X158255562Y-128780681D01*
G37*
G36*
X150411000Y-129909000D02*
X149309000Y-129909000D01*
X149309000Y-128807000D01*
X150411000Y-128807000D01*
X150411000Y-129909000D01*
X150411000Y-129909000D01*
G37*
G36*
X162476000Y-129889000D02*
X161374000Y-129889000D01*
X161374000Y-128787000D01*
X162476000Y-128787000D01*
X162476000Y-129889000D01*
X162476000Y-129889000D01*
G37*
G36*
X153341565Y-127259389D02*
X153532834Y-127338615D01*
X153704976Y-127453637D01*
X153851363Y-127600024D01*
X153966385Y-127772166D01*
X154045611Y-127963435D01*
X154086000Y-128166484D01*
X154086000Y-128373516D01*
X154045611Y-128576565D01*
X153966385Y-128767834D01*
X153851363Y-128939976D01*
X153704976Y-129086363D01*
X153532834Y-129201385D01*
X153341565Y-129280611D01*
X153138516Y-129321000D01*
X152931484Y-129321000D01*
X152728435Y-129280611D01*
X152537166Y-129201385D01*
X152365024Y-129086363D01*
X152218637Y-128939976D01*
X152103615Y-128767834D01*
X152024389Y-128576565D01*
X151984000Y-128373516D01*
X151984000Y-128166484D01*
X152024389Y-127963435D01*
X152103615Y-127772166D01*
X152218637Y-127600024D01*
X152365024Y-127453637D01*
X152537166Y-127338615D01*
X152728435Y-127259389D01*
X152931484Y-127219000D01*
X153138516Y-127219000D01*
X153341565Y-127259389D01*
X153341565Y-127259389D01*
G37*
G36*
X171431000Y-128251000D02*
X168929000Y-128251000D01*
X168929000Y-125749000D01*
X171431000Y-125749000D01*
X171431000Y-128251000D01*
X171431000Y-128251000D01*
G37*
G36*
X103176565Y-125989389D02*
X103367834Y-126068615D01*
X103539976Y-126183637D01*
X103686363Y-126330024D01*
X103801385Y-126502166D01*
X103880611Y-126693435D01*
X103921000Y-126896484D01*
X103921000Y-127103516D01*
X103880611Y-127306565D01*
X103801385Y-127497834D01*
X103686363Y-127669976D01*
X103539976Y-127816363D01*
X103367834Y-127931385D01*
X103176565Y-128010611D01*
X102973516Y-128051000D01*
X102766484Y-128051000D01*
X102563435Y-128010611D01*
X102372166Y-127931385D01*
X102200024Y-127816363D01*
X102053637Y-127669976D01*
X101938615Y-127497834D01*
X101859389Y-127306565D01*
X101819000Y-127103516D01*
X101819000Y-126896484D01*
X101859389Y-126693435D01*
X101938615Y-126502166D01*
X102053637Y-126330024D01*
X102200024Y-126183637D01*
X102372166Y-126068615D01*
X102563435Y-125989389D01*
X102766484Y-125949000D01*
X102973516Y-125949000D01*
X103176565Y-125989389D01*
X103176565Y-125989389D01*
G37*
G36*
X146825562Y-125991181D02*
X146860477Y-126001773D01*
X146892665Y-126018978D01*
X146920873Y-126042127D01*
X146944022Y-126070335D01*
X146961227Y-126102523D01*
X146971819Y-126137438D01*
X146976000Y-126179895D01*
X146976000Y-127321105D01*
X146971819Y-127363562D01*
X146961227Y-127398477D01*
X146944022Y-127430665D01*
X146920873Y-127458873D01*
X146892665Y-127482022D01*
X146860477Y-127499227D01*
X146825562Y-127509819D01*
X146783105Y-127514000D01*
X145316895Y-127514000D01*
X145274438Y-127509819D01*
X145239523Y-127499227D01*
X145207335Y-127482022D01*
X145179127Y-127458873D01*
X145155978Y-127430665D01*
X145138773Y-127398477D01*
X145128181Y-127363562D01*
X145124000Y-127321105D01*
X145124000Y-126179895D01*
X145128181Y-126137438D01*
X145138773Y-126102523D01*
X145155978Y-126070335D01*
X145179127Y-126042127D01*
X145207335Y-126018978D01*
X145239523Y-126001773D01*
X145274438Y-125991181D01*
X145316895Y-125987000D01*
X146783105Y-125987000D01*
X146825562Y-125991181D01*
X146825562Y-125991181D01*
G37*
G36*
X143015562Y-125991181D02*
X143050477Y-126001773D01*
X143082665Y-126018978D01*
X143110873Y-126042127D01*
X143134022Y-126070335D01*
X143151227Y-126102523D01*
X143161819Y-126137438D01*
X143166000Y-126179895D01*
X143166000Y-127321105D01*
X143161819Y-127363562D01*
X143151227Y-127398477D01*
X143134022Y-127430665D01*
X143110873Y-127458873D01*
X143082665Y-127482022D01*
X143050477Y-127499227D01*
X143015562Y-127509819D01*
X142973105Y-127514000D01*
X141506895Y-127514000D01*
X141464438Y-127509819D01*
X141429523Y-127499227D01*
X141397335Y-127482022D01*
X141369127Y-127458873D01*
X141345978Y-127430665D01*
X141328773Y-127398477D01*
X141318181Y-127363562D01*
X141314000Y-127321105D01*
X141314000Y-126179895D01*
X141318181Y-126137438D01*
X141328773Y-126102523D01*
X141345978Y-126070335D01*
X141369127Y-126042127D01*
X141397335Y-126018978D01*
X141429523Y-126001773D01*
X141464438Y-125991181D01*
X141506895Y-125987000D01*
X142973105Y-125987000D01*
X143015562Y-125991181D01*
X143015562Y-125991181D01*
G37*
G36*
X150411000Y-127409000D02*
X149309000Y-127409000D01*
X149309000Y-126307000D01*
X150411000Y-126307000D01*
X150411000Y-127409000D01*
X150411000Y-127409000D01*
G37*
G36*
X162476000Y-127389000D02*
X161374000Y-127389000D01*
X161374000Y-126287000D01*
X162476000Y-126287000D01*
X162476000Y-127389000D01*
X162476000Y-127389000D01*
G37*
G36*
X158255562Y-125805681D02*
X158290477Y-125816273D01*
X158322665Y-125833478D01*
X158350873Y-125856627D01*
X158374022Y-125884835D01*
X158391227Y-125917023D01*
X158401819Y-125951938D01*
X158406000Y-125994395D01*
X158406000Y-127135605D01*
X158401819Y-127178062D01*
X158391227Y-127212977D01*
X158374022Y-127245165D01*
X158350873Y-127273373D01*
X158322665Y-127296522D01*
X158290477Y-127313727D01*
X158255562Y-127324319D01*
X158213105Y-127328500D01*
X156746895Y-127328500D01*
X156704438Y-127324319D01*
X156669523Y-127313727D01*
X156637335Y-127296522D01*
X156609127Y-127273373D01*
X156585978Y-127245165D01*
X156568773Y-127212977D01*
X156558181Y-127178062D01*
X156554000Y-127135605D01*
X156554000Y-125994395D01*
X156558181Y-125951938D01*
X156568773Y-125917023D01*
X156585978Y-125884835D01*
X156609127Y-125856627D01*
X156637335Y-125833478D01*
X156669523Y-125816273D01*
X156704438Y-125805681D01*
X156746895Y-125801500D01*
X158213105Y-125801500D01*
X158255562Y-125805681D01*
X158255562Y-125805681D01*
G37*
G36*
X89160701Y-123449389D02*
X89294072Y-123475918D01*
X89539939Y-123577759D01*
X89760464Y-123725110D01*
X89761215Y-123725612D01*
X89949388Y-123913785D01*
X89949390Y-123913788D01*
X90097241Y-124135061D01*
X90199082Y-124380928D01*
X90251000Y-124641938D01*
X90251000Y-124908062D01*
X90199082Y-125169072D01*
X90097241Y-125414939D01*
X89949890Y-125635464D01*
X89949388Y-125636215D01*
X89761215Y-125824388D01*
X89761212Y-125824390D01*
X89539939Y-125972241D01*
X89294072Y-126074082D01*
X89163567Y-126100041D01*
X89033063Y-126126000D01*
X88766937Y-126126000D01*
X88636433Y-126100041D01*
X88505928Y-126074082D01*
X88260061Y-125972241D01*
X88038788Y-125824390D01*
X88038785Y-125824388D01*
X87850612Y-125636215D01*
X87850110Y-125635464D01*
X87702759Y-125414939D01*
X87600918Y-125169072D01*
X87549000Y-124908062D01*
X87549000Y-124641938D01*
X87600918Y-124380928D01*
X87702759Y-124135061D01*
X87850610Y-123913788D01*
X87850612Y-123913785D01*
X88038785Y-123725612D01*
X88039536Y-123725110D01*
X88260061Y-123577759D01*
X88505928Y-123475918D01*
X88639299Y-123449389D01*
X88766937Y-123424000D01*
X89033063Y-123424000D01*
X89160701Y-123449389D01*
X89160701Y-123449389D01*
G37*
G36*
X103176565Y-123449389D02*
X103367834Y-123528615D01*
X103539976Y-123643637D01*
X103686363Y-123790024D01*
X103801385Y-123962166D01*
X103880611Y-124153435D01*
X103921000Y-124356484D01*
X103921000Y-124563516D01*
X103880611Y-124766565D01*
X103801385Y-124957834D01*
X103686363Y-125129976D01*
X103539976Y-125276363D01*
X103367834Y-125391385D01*
X103176565Y-125470611D01*
X102973516Y-125511000D01*
X102766484Y-125511000D01*
X102563435Y-125470611D01*
X102372166Y-125391385D01*
X102200024Y-125276363D01*
X102053637Y-125129976D01*
X101938615Y-124957834D01*
X101859389Y-124766565D01*
X101819000Y-124563516D01*
X101819000Y-124356484D01*
X101859389Y-124153435D01*
X101938615Y-123962166D01*
X102053637Y-123790024D01*
X102200024Y-123643637D01*
X102372166Y-123528615D01*
X102563435Y-123449389D01*
X102766484Y-123409000D01*
X102973516Y-123409000D01*
X103176565Y-123449389D01*
X103176565Y-123449389D01*
G37*
G36*
X170363635Y-122261019D02*
X170544903Y-122297075D01*
X170772571Y-122391378D01*
X170976542Y-122527668D01*
X170977469Y-122528287D01*
X171151713Y-122702531D01*
X171151715Y-122702534D01*
X171288622Y-122907429D01*
X171382925Y-123135097D01*
X171418981Y-123316364D01*
X171431000Y-123376786D01*
X171431000Y-123623214D01*
X171418981Y-123683635D01*
X171382925Y-123864903D01*
X171288622Y-124092571D01*
X171152332Y-124296542D01*
X171151713Y-124297469D01*
X170977469Y-124471713D01*
X170977466Y-124471715D01*
X170772571Y-124608622D01*
X170544903Y-124702925D01*
X170363635Y-124738981D01*
X170303214Y-124751000D01*
X170056786Y-124751000D01*
X169996365Y-124738981D01*
X169815097Y-124702925D01*
X169587429Y-124608622D01*
X169382534Y-124471715D01*
X169382531Y-124471713D01*
X169208287Y-124297469D01*
X169207668Y-124296542D01*
X169071378Y-124092571D01*
X168977075Y-123864903D01*
X168941019Y-123683635D01*
X168929000Y-123623214D01*
X168929000Y-123376786D01*
X168941019Y-123316364D01*
X168977075Y-123135097D01*
X169071378Y-122907429D01*
X169208285Y-122702534D01*
X169208287Y-122702531D01*
X169382531Y-122528287D01*
X169383458Y-122527668D01*
X169587429Y-122391378D01*
X169815097Y-122297075D01*
X169996365Y-122261019D01*
X170056786Y-122249000D01*
X170303214Y-122249000D01*
X170363635Y-122261019D01*
X170363635Y-122261019D01*
G37*
G36*
X158255562Y-121595681D02*
X158290477Y-121606273D01*
X158322665Y-121623478D01*
X158350873Y-121646627D01*
X158374022Y-121674835D01*
X158391227Y-121707023D01*
X158401819Y-121741938D01*
X158406000Y-121784395D01*
X158406000Y-122925605D01*
X158401819Y-122968062D01*
X158391227Y-123002977D01*
X158374022Y-123035165D01*
X158350873Y-123063373D01*
X158322665Y-123086522D01*
X158290477Y-123103727D01*
X158255562Y-123114319D01*
X158213105Y-123118500D01*
X156746895Y-123118500D01*
X156704438Y-123114319D01*
X156669523Y-123103727D01*
X156637335Y-123086522D01*
X156609127Y-123063373D01*
X156585978Y-123035165D01*
X156568773Y-123002977D01*
X156558181Y-122968062D01*
X156554000Y-122925605D01*
X156554000Y-121784395D01*
X156558181Y-121741938D01*
X156568773Y-121707023D01*
X156585978Y-121674835D01*
X156609127Y-121646627D01*
X156637335Y-121623478D01*
X156669523Y-121606273D01*
X156704438Y-121595681D01*
X156746895Y-121591500D01*
X158213105Y-121591500D01*
X158255562Y-121595681D01*
X158255562Y-121595681D01*
G37*
G36*
X143015562Y-121528181D02*
X143050477Y-121538773D01*
X143082665Y-121555978D01*
X143110873Y-121579127D01*
X143134022Y-121607335D01*
X143151227Y-121639523D01*
X143161819Y-121674438D01*
X143166000Y-121716895D01*
X143166000Y-122858105D01*
X143161819Y-122900562D01*
X143151227Y-122935477D01*
X143134022Y-122967665D01*
X143110873Y-122995873D01*
X143082665Y-123019022D01*
X143050477Y-123036227D01*
X143015562Y-123046819D01*
X142973105Y-123051000D01*
X141506895Y-123051000D01*
X141464438Y-123046819D01*
X141429523Y-123036227D01*
X141397335Y-123019022D01*
X141369127Y-122995873D01*
X141345978Y-122967665D01*
X141328773Y-122935477D01*
X141318181Y-122900562D01*
X141314000Y-122858105D01*
X141314000Y-121716895D01*
X141318181Y-121674438D01*
X141328773Y-121639523D01*
X141345978Y-121607335D01*
X141369127Y-121579127D01*
X141397335Y-121555978D01*
X141429523Y-121538773D01*
X141464438Y-121528181D01*
X141506895Y-121524000D01*
X142973105Y-121524000D01*
X143015562Y-121528181D01*
X143015562Y-121528181D01*
G37*
G36*
X146825562Y-121528181D02*
X146860477Y-121538773D01*
X146892665Y-121555978D01*
X146920873Y-121579127D01*
X146944022Y-121607335D01*
X146961227Y-121639523D01*
X146971819Y-121674438D01*
X146976000Y-121716895D01*
X146976000Y-122858105D01*
X146971819Y-122900562D01*
X146961227Y-122935477D01*
X146944022Y-122967665D01*
X146920873Y-122995873D01*
X146892665Y-123019022D01*
X146860477Y-123036227D01*
X146825562Y-123046819D01*
X146783105Y-123051000D01*
X145316895Y-123051000D01*
X145274438Y-123046819D01*
X145239523Y-123036227D01*
X145207335Y-123019022D01*
X145179127Y-122995873D01*
X145155978Y-122967665D01*
X145138773Y-122935477D01*
X145128181Y-122900562D01*
X145124000Y-122858105D01*
X145124000Y-121716895D01*
X145128181Y-121674438D01*
X145138773Y-121639523D01*
X145155978Y-121607335D01*
X145179127Y-121579127D01*
X145207335Y-121555978D01*
X145239523Y-121538773D01*
X145274438Y-121528181D01*
X145316895Y-121524000D01*
X146783105Y-121524000D01*
X146825562Y-121528181D01*
X146825562Y-121528181D01*
G37*
G36*
X103921000Y-122971000D02*
X101819000Y-122971000D01*
X101819000Y-120869000D01*
X103921000Y-120869000D01*
X103921000Y-122971000D01*
X103921000Y-122971000D01*
G37*
G36*
X150411000Y-122601000D02*
X149309000Y-122601000D01*
X149309000Y-121499000D01*
X150411000Y-121499000D01*
X150411000Y-122601000D01*
X150411000Y-122601000D01*
G37*
G36*
X162476000Y-122601000D02*
X161374000Y-122601000D01*
X161374000Y-121499000D01*
X162476000Y-121499000D01*
X162476000Y-122601000D01*
X162476000Y-122601000D01*
G37*
G36*
X153341565Y-119893389D02*
X153532834Y-119972615D01*
X153704976Y-120087637D01*
X153851363Y-120234024D01*
X153966385Y-120406166D01*
X154045611Y-120597435D01*
X154086000Y-120800484D01*
X154086000Y-121007516D01*
X154045611Y-121210565D01*
X153966385Y-121401834D01*
X153851363Y-121573976D01*
X153704976Y-121720363D01*
X153532834Y-121835385D01*
X153341565Y-121914611D01*
X153138516Y-121955000D01*
X152931484Y-121955000D01*
X152728435Y-121914611D01*
X152537166Y-121835385D01*
X152365024Y-121720363D01*
X152218637Y-121573976D01*
X152103615Y-121401834D01*
X152024389Y-121210565D01*
X151984000Y-121007516D01*
X151984000Y-120800484D01*
X152024389Y-120597435D01*
X152103615Y-120406166D01*
X152218637Y-120234024D01*
X152365024Y-120087637D01*
X152537166Y-119972615D01*
X152728435Y-119893389D01*
X152931484Y-119853000D01*
X153138516Y-119853000D01*
X153341565Y-119893389D01*
X153341565Y-119893389D01*
G37*
G36*
X109542143Y-119963243D02*
X109690103Y-120024531D01*
X109757131Y-120069318D01*
X109820295Y-120111522D01*
X109823259Y-120113503D01*
X109936499Y-120226743D01*
X110025471Y-120359899D01*
X110086759Y-120507859D01*
X110118001Y-120664926D01*
X110118001Y-120825076D01*
X110086759Y-120982143D01*
X110076249Y-121007516D01*
X110025472Y-121130101D01*
X109936500Y-121263258D01*
X109823258Y-121376500D01*
X109785341Y-121401835D01*
X109690103Y-121465471D01*
X109542143Y-121526759D01*
X109385076Y-121558001D01*
X109224926Y-121558001D01*
X109067859Y-121526759D01*
X108919899Y-121465471D01*
X108824661Y-121401835D01*
X108786744Y-121376500D01*
X108673502Y-121263258D01*
X108584530Y-121130101D01*
X108533753Y-121007516D01*
X108523243Y-120982143D01*
X108492001Y-120825076D01*
X108492001Y-120664926D01*
X108523243Y-120507859D01*
X108584531Y-120359899D01*
X108673503Y-120226743D01*
X108786743Y-120113503D01*
X108789708Y-120111522D01*
X108852871Y-120069318D01*
X108919899Y-120024531D01*
X109067859Y-119963243D01*
X109224926Y-119932001D01*
X109385076Y-119932001D01*
X109542143Y-119963243D01*
X109542143Y-119963243D01*
G37*
G36*
X137482143Y-119963243D02*
X137630103Y-120024531D01*
X137697131Y-120069318D01*
X137760295Y-120111522D01*
X137763259Y-120113503D01*
X137876499Y-120226743D01*
X137965471Y-120359899D01*
X138026759Y-120507859D01*
X138058001Y-120664926D01*
X138058001Y-120825076D01*
X138026759Y-120982143D01*
X138016249Y-121007516D01*
X137965472Y-121130101D01*
X137876500Y-121263258D01*
X137763258Y-121376500D01*
X137725341Y-121401835D01*
X137630103Y-121465471D01*
X137482143Y-121526759D01*
X137325076Y-121558001D01*
X137164926Y-121558001D01*
X137007859Y-121526759D01*
X136859899Y-121465471D01*
X136764661Y-121401835D01*
X136726744Y-121376500D01*
X136613502Y-121263258D01*
X136524530Y-121130101D01*
X136473753Y-121007516D01*
X136463243Y-120982143D01*
X136432001Y-120825076D01*
X136432001Y-120664926D01*
X136463243Y-120507859D01*
X136524531Y-120359899D01*
X136613503Y-120226743D01*
X136726743Y-120113503D01*
X136729708Y-120111522D01*
X136792871Y-120069318D01*
X136859899Y-120024531D01*
X137007859Y-119963243D01*
X137164926Y-119932001D01*
X137325076Y-119932001D01*
X137482143Y-119963243D01*
X137482143Y-119963243D01*
G37*
G36*
X170363635Y-118761019D02*
X170544903Y-118797075D01*
X170772571Y-118891378D01*
X170915318Y-118986759D01*
X170977469Y-119028287D01*
X171151713Y-119202531D01*
X171151715Y-119202534D01*
X171288622Y-119407429D01*
X171382925Y-119635097D01*
X171417338Y-119808105D01*
X171426269Y-119853000D01*
X171431000Y-119876787D01*
X171431000Y-120123213D01*
X171382925Y-120364903D01*
X171288622Y-120592571D01*
X171152332Y-120796542D01*
X171151713Y-120797469D01*
X170977469Y-120971713D01*
X170977466Y-120971715D01*
X170772571Y-121108622D01*
X170544903Y-121202925D01*
X170363636Y-121238981D01*
X170303214Y-121251000D01*
X170056786Y-121251000D01*
X169996364Y-121238981D01*
X169815097Y-121202925D01*
X169587429Y-121108622D01*
X169382534Y-120971715D01*
X169382531Y-120971713D01*
X169208287Y-120797469D01*
X169207668Y-120796542D01*
X169071378Y-120592571D01*
X168977075Y-120364903D01*
X168929000Y-120123213D01*
X168929000Y-119876787D01*
X168933732Y-119853000D01*
X168942662Y-119808105D01*
X168977075Y-119635097D01*
X169071378Y-119407429D01*
X169208285Y-119202534D01*
X169208287Y-119202531D01*
X169382531Y-119028287D01*
X169444682Y-118986759D01*
X169587429Y-118891378D01*
X169815097Y-118797075D01*
X169996365Y-118761019D01*
X170056786Y-118749000D01*
X170303214Y-118749000D01*
X170363635Y-118761019D01*
X170363635Y-118761019D01*
G37*
G36*
X89163567Y-118449959D02*
X89294072Y-118475918D01*
X89539939Y-118577759D01*
X89760464Y-118725110D01*
X89761215Y-118725612D01*
X89949388Y-118913785D01*
X89949390Y-118913788D01*
X90097241Y-119135061D01*
X90199082Y-119380928D01*
X90199082Y-119380929D01*
X90251000Y-119641937D01*
X90251000Y-119908063D01*
X90233203Y-119997535D01*
X90199082Y-120169072D01*
X90097241Y-120414939D01*
X90035153Y-120507859D01*
X89949388Y-120636215D01*
X89761215Y-120824388D01*
X89761212Y-120824390D01*
X89539939Y-120972241D01*
X89294072Y-121074082D01*
X89163567Y-121100041D01*
X89033063Y-121126000D01*
X88766937Y-121126000D01*
X88636433Y-121100041D01*
X88505928Y-121074082D01*
X88260061Y-120972241D01*
X88038788Y-120824390D01*
X88038785Y-120824388D01*
X87850612Y-120636215D01*
X87764847Y-120507859D01*
X87702759Y-120414939D01*
X87600918Y-120169072D01*
X87566797Y-119997535D01*
X87549000Y-119908063D01*
X87549000Y-119641937D01*
X87600918Y-119380929D01*
X87600918Y-119380928D01*
X87702759Y-119135061D01*
X87850610Y-118913788D01*
X87850612Y-118913785D01*
X88038785Y-118725612D01*
X88039536Y-118725110D01*
X88260061Y-118577759D01*
X88505928Y-118475918D01*
X88636433Y-118449959D01*
X88766937Y-118424000D01*
X89033063Y-118424000D01*
X89163567Y-118449959D01*
X89163567Y-118449959D01*
G37*
G36*
X158255562Y-118620681D02*
X158290477Y-118631273D01*
X158322665Y-118648478D01*
X158350873Y-118671627D01*
X158374022Y-118699835D01*
X158391227Y-118732023D01*
X158401819Y-118766938D01*
X158406000Y-118809395D01*
X158406000Y-119950605D01*
X158401819Y-119993062D01*
X158391227Y-120027977D01*
X158374022Y-120060165D01*
X158350873Y-120088373D01*
X158322665Y-120111522D01*
X158290477Y-120128727D01*
X158255562Y-120139319D01*
X158213105Y-120143500D01*
X156746895Y-120143500D01*
X156704438Y-120139319D01*
X156669523Y-120128727D01*
X156637335Y-120111522D01*
X156609127Y-120088373D01*
X156585978Y-120060165D01*
X156568773Y-120027977D01*
X156558181Y-119993062D01*
X156554000Y-119950605D01*
X156554000Y-118809395D01*
X156558181Y-118766938D01*
X156568773Y-118732023D01*
X156585978Y-118699835D01*
X156609127Y-118671627D01*
X156637335Y-118648478D01*
X156669523Y-118631273D01*
X156704438Y-118620681D01*
X156746895Y-118616500D01*
X158213105Y-118616500D01*
X158255562Y-118620681D01*
X158255562Y-118620681D01*
G37*
G36*
X162476000Y-120101000D02*
X161374000Y-120101000D01*
X161374000Y-118999000D01*
X162476000Y-118999000D01*
X162476000Y-120101000D01*
X162476000Y-120101000D01*
G37*
G36*
X150411000Y-120101000D02*
X149309000Y-120101000D01*
X149309000Y-118999000D01*
X150411000Y-118999000D01*
X150411000Y-120101000D01*
X150411000Y-120101000D01*
G37*
G36*
X143015562Y-118553181D02*
X143050477Y-118563773D01*
X143082665Y-118580978D01*
X143110873Y-118604127D01*
X143134022Y-118632335D01*
X143151227Y-118664523D01*
X143161819Y-118699438D01*
X143166000Y-118741895D01*
X143166000Y-119883105D01*
X143161819Y-119925562D01*
X143151227Y-119960477D01*
X143134022Y-119992665D01*
X143110873Y-120020873D01*
X143082665Y-120044022D01*
X143050477Y-120061227D01*
X143015562Y-120071819D01*
X142973105Y-120076000D01*
X141506895Y-120076000D01*
X141464438Y-120071819D01*
X141429523Y-120061227D01*
X141397335Y-120044022D01*
X141369127Y-120020873D01*
X141345978Y-119992665D01*
X141328773Y-119960477D01*
X141318181Y-119925562D01*
X141314000Y-119883105D01*
X141314000Y-118741895D01*
X141318181Y-118699438D01*
X141328773Y-118664523D01*
X141345978Y-118632335D01*
X141369127Y-118604127D01*
X141397335Y-118580978D01*
X141429523Y-118563773D01*
X141464438Y-118553181D01*
X141506895Y-118549000D01*
X142973105Y-118549000D01*
X143015562Y-118553181D01*
X143015562Y-118553181D01*
G37*
G36*
X146825562Y-118553181D02*
X146860477Y-118563773D01*
X146892665Y-118580978D01*
X146920873Y-118604127D01*
X146944022Y-118632335D01*
X146961227Y-118664523D01*
X146971819Y-118699438D01*
X146976000Y-118741895D01*
X146976000Y-119883105D01*
X146971819Y-119925562D01*
X146961227Y-119960477D01*
X146944022Y-119992665D01*
X146920873Y-120020873D01*
X146892665Y-120044022D01*
X146860477Y-120061227D01*
X146825562Y-120071819D01*
X146783105Y-120076000D01*
X145316895Y-120076000D01*
X145274438Y-120071819D01*
X145239523Y-120061227D01*
X145207335Y-120044022D01*
X145179127Y-120020873D01*
X145155978Y-119992665D01*
X145138773Y-119960477D01*
X145128181Y-119925562D01*
X145124000Y-119883105D01*
X145124000Y-118741895D01*
X145128181Y-118699438D01*
X145138773Y-118664523D01*
X145155978Y-118632335D01*
X145179127Y-118604127D01*
X145207335Y-118580978D01*
X145239523Y-118563773D01*
X145274438Y-118553181D01*
X145316895Y-118549000D01*
X146783105Y-118549000D01*
X146825562Y-118553181D01*
X146825562Y-118553181D01*
G37*
G36*
X137482143Y-117423243D02*
X137630103Y-117484531D01*
X137697131Y-117529318D01*
X137763258Y-117573502D01*
X137876500Y-117686744D01*
X137919434Y-117751000D01*
X137965471Y-117819899D01*
X138026759Y-117967859D01*
X138058001Y-118124926D01*
X138058001Y-118285076D01*
X138026759Y-118442143D01*
X137965471Y-118590103D01*
X137926466Y-118648478D01*
X137882435Y-118714376D01*
X137876499Y-118723259D01*
X137763259Y-118836499D01*
X137630103Y-118925471D01*
X137482143Y-118986759D01*
X137325076Y-119018001D01*
X137164926Y-119018001D01*
X137007859Y-118986759D01*
X136859899Y-118925471D01*
X136726743Y-118836499D01*
X136613503Y-118723259D01*
X136607568Y-118714376D01*
X136563536Y-118648478D01*
X136524531Y-118590103D01*
X136463243Y-118442143D01*
X136432001Y-118285076D01*
X136432001Y-118124926D01*
X136463243Y-117967859D01*
X136524531Y-117819899D01*
X136570568Y-117751000D01*
X136613502Y-117686744D01*
X136726744Y-117573502D01*
X136792871Y-117529318D01*
X136859899Y-117484531D01*
X137007859Y-117423243D01*
X137164926Y-117392001D01*
X137325076Y-117392001D01*
X137482143Y-117423243D01*
X137482143Y-117423243D01*
G37*
G36*
X109542143Y-117423243D02*
X109690103Y-117484531D01*
X109757131Y-117529318D01*
X109823258Y-117573502D01*
X109936500Y-117686744D01*
X109979434Y-117751000D01*
X110025471Y-117819899D01*
X110086759Y-117967859D01*
X110118001Y-118124926D01*
X110118001Y-118285076D01*
X110086759Y-118442143D01*
X110025471Y-118590103D01*
X109986466Y-118648478D01*
X109942435Y-118714376D01*
X109936499Y-118723259D01*
X109823259Y-118836499D01*
X109690103Y-118925471D01*
X109542143Y-118986759D01*
X109385076Y-119018001D01*
X109224926Y-119018001D01*
X109067859Y-118986759D01*
X108919899Y-118925471D01*
X108786743Y-118836499D01*
X108673503Y-118723259D01*
X108667568Y-118714376D01*
X108623536Y-118648478D01*
X108584531Y-118590103D01*
X108523243Y-118442143D01*
X108492001Y-118285076D01*
X108492001Y-118124926D01*
X108523243Y-117967859D01*
X108584531Y-117819899D01*
X108630568Y-117751000D01*
X108673502Y-117686744D01*
X108786744Y-117573502D01*
X108852871Y-117529318D01*
X108919899Y-117484531D01*
X109067859Y-117423243D01*
X109224926Y-117392001D01*
X109385076Y-117392001D01*
X109542143Y-117423243D01*
X109542143Y-117423243D01*
G37*
G36*
X170363636Y-115261019D02*
X170544903Y-115297075D01*
X170772571Y-115391378D01*
X170976542Y-115527668D01*
X170977469Y-115528287D01*
X171151713Y-115702531D01*
X171151715Y-115702534D01*
X171288622Y-115907429D01*
X171382925Y-116135097D01*
X171431000Y-116376787D01*
X171431000Y-116623213D01*
X171382925Y-116864903D01*
X171288622Y-117092571D01*
X171152332Y-117296542D01*
X171151713Y-117297469D01*
X170977469Y-117471713D01*
X170977466Y-117471715D01*
X170772571Y-117608622D01*
X170544903Y-117702925D01*
X170363636Y-117738981D01*
X170303214Y-117751000D01*
X170056786Y-117751000D01*
X169996364Y-117738981D01*
X169815097Y-117702925D01*
X169587429Y-117608622D01*
X169382534Y-117471715D01*
X169382531Y-117471713D01*
X169208287Y-117297469D01*
X169207668Y-117296542D01*
X169071378Y-117092571D01*
X168977075Y-116864903D01*
X168929000Y-116623213D01*
X168929000Y-116376787D01*
X168977075Y-116135097D01*
X169071378Y-115907429D01*
X169208285Y-115702534D01*
X169208287Y-115702531D01*
X169382531Y-115528287D01*
X169383458Y-115527668D01*
X169587429Y-115391378D01*
X169815097Y-115297075D01*
X169996364Y-115261019D01*
X170056786Y-115249000D01*
X170303214Y-115249000D01*
X170363636Y-115261019D01*
X170363636Y-115261019D01*
G37*
G36*
X101865562Y-114648181D02*
X101900477Y-114658773D01*
X101932665Y-114675978D01*
X101960873Y-114699127D01*
X101984022Y-114727335D01*
X102001227Y-114759523D01*
X102011819Y-114794438D01*
X102016000Y-114836895D01*
X102016000Y-116303105D01*
X102011819Y-116345562D01*
X102001227Y-116380477D01*
X101984022Y-116412665D01*
X101960873Y-116440873D01*
X101932665Y-116464022D01*
X101900477Y-116481227D01*
X101865562Y-116491819D01*
X101823105Y-116496000D01*
X100681895Y-116496000D01*
X100639438Y-116491819D01*
X100604523Y-116481227D01*
X100572335Y-116464022D01*
X100544127Y-116440873D01*
X100520978Y-116412665D01*
X100503773Y-116380477D01*
X100493181Y-116345562D01*
X100489000Y-116303105D01*
X100489000Y-114836895D01*
X100493181Y-114794438D01*
X100503773Y-114759523D01*
X100520978Y-114727335D01*
X100544127Y-114699127D01*
X100572335Y-114675978D01*
X100604523Y-114658773D01*
X100639438Y-114648181D01*
X100681895Y-114644000D01*
X101823105Y-114644000D01*
X101865562Y-114648181D01*
X101865562Y-114648181D01*
G37*
G36*
X104840562Y-114648181D02*
X104875477Y-114658773D01*
X104907665Y-114675978D01*
X104935873Y-114699127D01*
X104959022Y-114727335D01*
X104976227Y-114759523D01*
X104986819Y-114794438D01*
X104991000Y-114836895D01*
X104991000Y-116303105D01*
X104986819Y-116345562D01*
X104976227Y-116380477D01*
X104959022Y-116412665D01*
X104935873Y-116440873D01*
X104907665Y-116464022D01*
X104875477Y-116481227D01*
X104840562Y-116491819D01*
X104798105Y-116496000D01*
X103656895Y-116496000D01*
X103614438Y-116491819D01*
X103579523Y-116481227D01*
X103547335Y-116464022D01*
X103519127Y-116440873D01*
X103495978Y-116412665D01*
X103478773Y-116380477D01*
X103468181Y-116345562D01*
X103464000Y-116303105D01*
X103464000Y-114836895D01*
X103468181Y-114794438D01*
X103478773Y-114759523D01*
X103495978Y-114727335D01*
X103519127Y-114699127D01*
X103547335Y-114675978D01*
X103579523Y-114658773D01*
X103614438Y-114648181D01*
X103656895Y-114644000D01*
X104798105Y-114644000D01*
X104840562Y-114648181D01*
X104840562Y-114648181D01*
G37*
G36*
X137482143Y-114883243D02*
X137630103Y-114944531D01*
X137684683Y-114981000D01*
X137762664Y-115033105D01*
X137763259Y-115033503D01*
X137876499Y-115146743D01*
X137955933Y-115265624D01*
X137965472Y-115279901D01*
X137976119Y-115305605D01*
X138026759Y-115427859D01*
X138058001Y-115584926D01*
X138058001Y-115745076D01*
X138026759Y-115902143D01*
X138024569Y-115907429D01*
X137965472Y-116050101D01*
X137876500Y-116183258D01*
X137763258Y-116296500D01*
X137712187Y-116330624D01*
X137630103Y-116385471D01*
X137482143Y-116446759D01*
X137325076Y-116478001D01*
X137164926Y-116478001D01*
X137007859Y-116446759D01*
X136859899Y-116385471D01*
X136777815Y-116330624D01*
X136726744Y-116296500D01*
X136613502Y-116183258D01*
X136524530Y-116050101D01*
X136465433Y-115907429D01*
X136463243Y-115902143D01*
X136432001Y-115745076D01*
X136432001Y-115584926D01*
X136463243Y-115427859D01*
X136513883Y-115305605D01*
X136524530Y-115279901D01*
X136534070Y-115265624D01*
X136613503Y-115146743D01*
X136726743Y-115033503D01*
X136727339Y-115033105D01*
X136805319Y-114981000D01*
X136859899Y-114944531D01*
X137007859Y-114883243D01*
X137164926Y-114852001D01*
X137325076Y-114852001D01*
X137482143Y-114883243D01*
X137482143Y-114883243D01*
G37*
G36*
X109542143Y-114883243D02*
X109690103Y-114944531D01*
X109744683Y-114981000D01*
X109822664Y-115033105D01*
X109823259Y-115033503D01*
X109936499Y-115146743D01*
X110015933Y-115265624D01*
X110025472Y-115279901D01*
X110036119Y-115305605D01*
X110086759Y-115427859D01*
X110118001Y-115584926D01*
X110118001Y-115745076D01*
X110086759Y-115902143D01*
X110084569Y-115907429D01*
X110025472Y-116050101D01*
X109936500Y-116183258D01*
X109823258Y-116296500D01*
X109772187Y-116330624D01*
X109690103Y-116385471D01*
X109542143Y-116446759D01*
X109385076Y-116478001D01*
X109224926Y-116478001D01*
X109067859Y-116446759D01*
X108919899Y-116385471D01*
X108837815Y-116330624D01*
X108786744Y-116296500D01*
X108673502Y-116183258D01*
X108584530Y-116050101D01*
X108525433Y-115907429D01*
X108523243Y-115902143D01*
X108492001Y-115745076D01*
X108492001Y-115584926D01*
X108523243Y-115427859D01*
X108573883Y-115305605D01*
X108584530Y-115279901D01*
X108594070Y-115265624D01*
X108673503Y-115146743D01*
X108786743Y-115033503D01*
X108787339Y-115033105D01*
X108865319Y-114981000D01*
X108919899Y-114944531D01*
X109067859Y-114883243D01*
X109224926Y-114852001D01*
X109385076Y-114852001D01*
X109542143Y-114883243D01*
X109542143Y-114883243D01*
G37*
G36*
X89163567Y-113449959D02*
X89294072Y-113475918D01*
X89539939Y-113577759D01*
X89760464Y-113725110D01*
X89761215Y-113725612D01*
X89949388Y-113913785D01*
X89949390Y-113913788D01*
X90097241Y-114135061D01*
X90199082Y-114380928D01*
X90251000Y-114641938D01*
X90251000Y-114908062D01*
X90199082Y-115169072D01*
X90097241Y-115414939D01*
X89949890Y-115635464D01*
X89949388Y-115636215D01*
X89761215Y-115824388D01*
X89761212Y-115824390D01*
X89539939Y-115972241D01*
X89294072Y-116074082D01*
X89163567Y-116100041D01*
X89033063Y-116126000D01*
X88766937Y-116126000D01*
X88636433Y-116100041D01*
X88505928Y-116074082D01*
X88260061Y-115972241D01*
X88038788Y-115824390D01*
X88038785Y-115824388D01*
X87850612Y-115636215D01*
X87850110Y-115635464D01*
X87702759Y-115414939D01*
X87600918Y-115169072D01*
X87549000Y-114908062D01*
X87549000Y-114641938D01*
X87600918Y-114380928D01*
X87702759Y-114135061D01*
X87850610Y-113913788D01*
X87850612Y-113913785D01*
X88038785Y-113725612D01*
X88039536Y-113725110D01*
X88260061Y-113577759D01*
X88505928Y-113475918D01*
X88636433Y-113449959D01*
X88766937Y-113424000D01*
X89033063Y-113424000D01*
X89163567Y-113449959D01*
X89163567Y-113449959D01*
G37*
G36*
X158255562Y-113975681D02*
X158290477Y-113986273D01*
X158322665Y-114003478D01*
X158350873Y-114026627D01*
X158374022Y-114054835D01*
X158391227Y-114087023D01*
X158401819Y-114121938D01*
X158406000Y-114164395D01*
X158406000Y-115305605D01*
X158401819Y-115348062D01*
X158391227Y-115382977D01*
X158374022Y-115415165D01*
X158350873Y-115443373D01*
X158322665Y-115466522D01*
X158290477Y-115483727D01*
X158255562Y-115494319D01*
X158213105Y-115498500D01*
X156746895Y-115498500D01*
X156704438Y-115494319D01*
X156669523Y-115483727D01*
X156637335Y-115466522D01*
X156609127Y-115443373D01*
X156585978Y-115415165D01*
X156568773Y-115382977D01*
X156558181Y-115348062D01*
X156554000Y-115305605D01*
X156554000Y-114164395D01*
X156558181Y-114121938D01*
X156568773Y-114087023D01*
X156585978Y-114054835D01*
X156609127Y-114026627D01*
X156637335Y-114003478D01*
X156669523Y-113986273D01*
X156704438Y-113975681D01*
X156746895Y-113971500D01*
X158213105Y-113971500D01*
X158255562Y-113975681D01*
X158255562Y-113975681D01*
G37*
G36*
X146825562Y-113908181D02*
X146860477Y-113918773D01*
X146892665Y-113935978D01*
X146920873Y-113959127D01*
X146944022Y-113987335D01*
X146961227Y-114019523D01*
X146971819Y-114054438D01*
X146976000Y-114096895D01*
X146976000Y-115238105D01*
X146971819Y-115280562D01*
X146961227Y-115315477D01*
X146944022Y-115347665D01*
X146920873Y-115375873D01*
X146892665Y-115399022D01*
X146860477Y-115416227D01*
X146825562Y-115426819D01*
X146783105Y-115431000D01*
X145316895Y-115431000D01*
X145274438Y-115426819D01*
X145239523Y-115416227D01*
X145207335Y-115399022D01*
X145179127Y-115375873D01*
X145155978Y-115347665D01*
X145138773Y-115315477D01*
X145128181Y-115280562D01*
X145124000Y-115238105D01*
X145124000Y-114096895D01*
X145128181Y-114054438D01*
X145138773Y-114019523D01*
X145155978Y-113987335D01*
X145179127Y-113959127D01*
X145207335Y-113935978D01*
X145239523Y-113918773D01*
X145274438Y-113908181D01*
X145316895Y-113904000D01*
X146783105Y-113904000D01*
X146825562Y-113908181D01*
X146825562Y-113908181D01*
G37*
G36*
X143015562Y-113778181D02*
X143050477Y-113788773D01*
X143082665Y-113805978D01*
X143110873Y-113829127D01*
X143134022Y-113857335D01*
X143151227Y-113889523D01*
X143161819Y-113924438D01*
X143166000Y-113966895D01*
X143166000Y-115108105D01*
X143161819Y-115150562D01*
X143151227Y-115185477D01*
X143134022Y-115217665D01*
X143110873Y-115245873D01*
X143082665Y-115269022D01*
X143050477Y-115286227D01*
X143015562Y-115296819D01*
X142973105Y-115301000D01*
X141506895Y-115301000D01*
X141464438Y-115296819D01*
X141429523Y-115286227D01*
X141397335Y-115269022D01*
X141369127Y-115245873D01*
X141345978Y-115217665D01*
X141328773Y-115185477D01*
X141318181Y-115150562D01*
X141314000Y-115108105D01*
X141314000Y-113966895D01*
X141318181Y-113924438D01*
X141328773Y-113889523D01*
X141345978Y-113857335D01*
X141369127Y-113829127D01*
X141397335Y-113805978D01*
X141429523Y-113788773D01*
X141464438Y-113778181D01*
X141506895Y-113774000D01*
X142973105Y-113774000D01*
X143015562Y-113778181D01*
X143015562Y-113778181D01*
G37*
G36*
X150411000Y-114981000D02*
X149309000Y-114981000D01*
X149309000Y-113879000D01*
X150411000Y-113879000D01*
X150411000Y-114981000D01*
X150411000Y-114981000D01*
G37*
G36*
X162476000Y-114811000D02*
X161374000Y-114811000D01*
X161374000Y-113709000D01*
X162476000Y-113709000D01*
X162476000Y-114811000D01*
X162476000Y-114811000D01*
G37*
G36*
X170363636Y-111761019D02*
X170544903Y-111797075D01*
X170772571Y-111891378D01*
X170903706Y-111979000D01*
X170977469Y-112028287D01*
X171151713Y-112202531D01*
X171151715Y-112202534D01*
X171288622Y-112407429D01*
X171382925Y-112635097D01*
X171431000Y-112876787D01*
X171431000Y-113123213D01*
X171382925Y-113364903D01*
X171288622Y-113592571D01*
X171164601Y-113778181D01*
X171151713Y-113797469D01*
X170977469Y-113971713D01*
X170977466Y-113971715D01*
X170772571Y-114108622D01*
X170544903Y-114202925D01*
X170363635Y-114238981D01*
X170303214Y-114251000D01*
X170056786Y-114251000D01*
X169996365Y-114238981D01*
X169815097Y-114202925D01*
X169587429Y-114108622D01*
X169382534Y-113971715D01*
X169382531Y-113971713D01*
X169208287Y-113797469D01*
X169195399Y-113778181D01*
X169071378Y-113592571D01*
X168977075Y-113364903D01*
X168929000Y-113123213D01*
X168929000Y-112876787D01*
X168977075Y-112635097D01*
X169071378Y-112407429D01*
X169208285Y-112202534D01*
X169208287Y-112202531D01*
X169382531Y-112028287D01*
X169456294Y-111979000D01*
X169587429Y-111891378D01*
X169815097Y-111797075D01*
X169996364Y-111761019D01*
X170056786Y-111749000D01*
X170303214Y-111749000D01*
X170363636Y-111761019D01*
X170363636Y-111761019D01*
G37*
G36*
X153341565Y-112019389D02*
X153532834Y-112098615D01*
X153704976Y-112213637D01*
X153851363Y-112360024D01*
X153966385Y-112532166D01*
X154045611Y-112723435D01*
X154086000Y-112926484D01*
X154086000Y-113133516D01*
X154045611Y-113336565D01*
X153966385Y-113527834D01*
X153851363Y-113699976D01*
X153704976Y-113846363D01*
X153532834Y-113961385D01*
X153341565Y-114040611D01*
X153138516Y-114081000D01*
X152931484Y-114081000D01*
X152728435Y-114040611D01*
X152537166Y-113961385D01*
X152365024Y-113846363D01*
X152218637Y-113699976D01*
X152103615Y-113527834D01*
X152024389Y-113336565D01*
X151984000Y-113133516D01*
X151984000Y-112926484D01*
X152024389Y-112723435D01*
X152103615Y-112532166D01*
X152218637Y-112360024D01*
X152365024Y-112213637D01*
X152537166Y-112098615D01*
X152728435Y-112019389D01*
X152931484Y-111979000D01*
X153138516Y-111979000D01*
X153341565Y-112019389D01*
X153341565Y-112019389D01*
G37*
G36*
X137482143Y-112343243D02*
X137630103Y-112404531D01*
X137697131Y-112449318D01*
X137760295Y-112491522D01*
X137763259Y-112493503D01*
X137876499Y-112606743D01*
X137965471Y-112739899D01*
X138026759Y-112887859D01*
X138058001Y-113044926D01*
X138058001Y-113205076D01*
X138026759Y-113362143D01*
X137965471Y-113510103D01*
X137953623Y-113527835D01*
X137876500Y-113643258D01*
X137763258Y-113756500D01*
X137714958Y-113788773D01*
X137630103Y-113845471D01*
X137482143Y-113906759D01*
X137325076Y-113938001D01*
X137164926Y-113938001D01*
X137007859Y-113906759D01*
X136859899Y-113845471D01*
X136775044Y-113788773D01*
X136726744Y-113756500D01*
X136613502Y-113643258D01*
X136536379Y-113527835D01*
X136524531Y-113510103D01*
X136463243Y-113362143D01*
X136432001Y-113205076D01*
X136432001Y-113044926D01*
X136463243Y-112887859D01*
X136524531Y-112739899D01*
X136613503Y-112606743D01*
X136726743Y-112493503D01*
X136729708Y-112491522D01*
X136792871Y-112449318D01*
X136859899Y-112404531D01*
X137007859Y-112343243D01*
X137164926Y-112312001D01*
X137325076Y-112312001D01*
X137482143Y-112343243D01*
X137482143Y-112343243D01*
G37*
G36*
X109542143Y-112343243D02*
X109690103Y-112404531D01*
X109757131Y-112449318D01*
X109820295Y-112491522D01*
X109823259Y-112493503D01*
X109936499Y-112606743D01*
X110025471Y-112739899D01*
X110086759Y-112887859D01*
X110118001Y-113044926D01*
X110118001Y-113205076D01*
X110086759Y-113362143D01*
X110025471Y-113510103D01*
X110013623Y-113527835D01*
X109936500Y-113643258D01*
X109823258Y-113756500D01*
X109774958Y-113788773D01*
X109690103Y-113845471D01*
X109542143Y-113906759D01*
X109385076Y-113938001D01*
X109224926Y-113938001D01*
X109067859Y-113906759D01*
X108919899Y-113845471D01*
X108835044Y-113788773D01*
X108786744Y-113756500D01*
X108673502Y-113643258D01*
X108596379Y-113527835D01*
X108584531Y-113510103D01*
X108523243Y-113362143D01*
X108492001Y-113205076D01*
X108492001Y-113044926D01*
X108523243Y-112887859D01*
X108584531Y-112739899D01*
X108673503Y-112606743D01*
X108786743Y-112493503D01*
X108789708Y-112491522D01*
X108852871Y-112449318D01*
X108919899Y-112404531D01*
X109067859Y-112343243D01*
X109224926Y-112312001D01*
X109385076Y-112312001D01*
X109542143Y-112343243D01*
X109542143Y-112343243D01*
G37*
G36*
X158255562Y-111000681D02*
X158290477Y-111011273D01*
X158322665Y-111028478D01*
X158350873Y-111051627D01*
X158374022Y-111079835D01*
X158391227Y-111112023D01*
X158401819Y-111146938D01*
X158406000Y-111189395D01*
X158406000Y-112330605D01*
X158401819Y-112373062D01*
X158391227Y-112407977D01*
X158374022Y-112440165D01*
X158350873Y-112468373D01*
X158322665Y-112491522D01*
X158290477Y-112508727D01*
X158255562Y-112519319D01*
X158213105Y-112523500D01*
X156746895Y-112523500D01*
X156704438Y-112519319D01*
X156669523Y-112508727D01*
X156637335Y-112491522D01*
X156609127Y-112468373D01*
X156585978Y-112440165D01*
X156568773Y-112407977D01*
X156558181Y-112373062D01*
X156554000Y-112330605D01*
X156554000Y-111189395D01*
X156558181Y-111146938D01*
X156568773Y-111112023D01*
X156585978Y-111079835D01*
X156609127Y-111051627D01*
X156637335Y-111028478D01*
X156669523Y-111011273D01*
X156704438Y-111000681D01*
X156746895Y-110996500D01*
X158213105Y-110996500D01*
X158255562Y-111000681D01*
X158255562Y-111000681D01*
G37*
G36*
X150411000Y-112481000D02*
X149309000Y-112481000D01*
X149309000Y-111379000D01*
X150411000Y-111379000D01*
X150411000Y-112481000D01*
X150411000Y-112481000D01*
G37*
G36*
X146825562Y-110933181D02*
X146860477Y-110943773D01*
X146892665Y-110960978D01*
X146920873Y-110984127D01*
X146944022Y-111012335D01*
X146961227Y-111044523D01*
X146971819Y-111079438D01*
X146976000Y-111121895D01*
X146976000Y-112263105D01*
X146971819Y-112305562D01*
X146961227Y-112340477D01*
X146944022Y-112372665D01*
X146920873Y-112400873D01*
X146892665Y-112424022D01*
X146860477Y-112441227D01*
X146825562Y-112451819D01*
X146783105Y-112456000D01*
X145316895Y-112456000D01*
X145274438Y-112451819D01*
X145239523Y-112441227D01*
X145207335Y-112424022D01*
X145179127Y-112400873D01*
X145155978Y-112372665D01*
X145138773Y-112340477D01*
X145128181Y-112305562D01*
X145124000Y-112263105D01*
X145124000Y-111121895D01*
X145128181Y-111079438D01*
X145138773Y-111044523D01*
X145155978Y-111012335D01*
X145179127Y-110984127D01*
X145207335Y-110960978D01*
X145239523Y-110943773D01*
X145274438Y-110933181D01*
X145316895Y-110929000D01*
X146783105Y-110929000D01*
X146825562Y-110933181D01*
X146825562Y-110933181D01*
G37*
G36*
X143015562Y-110803181D02*
X143050477Y-110813773D01*
X143082665Y-110830978D01*
X143110873Y-110854127D01*
X143134022Y-110882335D01*
X143151227Y-110914523D01*
X143161819Y-110949438D01*
X143166000Y-110991895D01*
X143166000Y-112133105D01*
X143161819Y-112175562D01*
X143151227Y-112210477D01*
X143134022Y-112242665D01*
X143110873Y-112270873D01*
X143082665Y-112294022D01*
X143050477Y-112311227D01*
X143015562Y-112321819D01*
X142973105Y-112326000D01*
X141506895Y-112326000D01*
X141464438Y-112321819D01*
X141429523Y-112311227D01*
X141397335Y-112294022D01*
X141369127Y-112270873D01*
X141345978Y-112242665D01*
X141328773Y-112210477D01*
X141318181Y-112175562D01*
X141314000Y-112133105D01*
X141314000Y-110991895D01*
X141318181Y-110949438D01*
X141328773Y-110914523D01*
X141345978Y-110882335D01*
X141369127Y-110854127D01*
X141397335Y-110830978D01*
X141429523Y-110813773D01*
X141464438Y-110803181D01*
X141506895Y-110799000D01*
X142973105Y-110799000D01*
X143015562Y-110803181D01*
X143015562Y-110803181D01*
G37*
G36*
X162476000Y-112311000D02*
X161374000Y-112311000D01*
X161374000Y-111209000D01*
X162476000Y-111209000D01*
X162476000Y-112311000D01*
X162476000Y-112311000D01*
G37*
G36*
X109542143Y-109803243D02*
X109690103Y-109864531D01*
X109751196Y-109905352D01*
X109820295Y-109951522D01*
X109823259Y-109953503D01*
X109936499Y-110066743D01*
X110025471Y-110199899D01*
X110086759Y-110347859D01*
X110118001Y-110504926D01*
X110118001Y-110665076D01*
X110086759Y-110822143D01*
X110025471Y-110970103D01*
X109986466Y-111028478D01*
X109942435Y-111094376D01*
X109936499Y-111103259D01*
X109823259Y-111216499D01*
X109690103Y-111305471D01*
X109542143Y-111366759D01*
X109385076Y-111398001D01*
X109224926Y-111398001D01*
X109067859Y-111366759D01*
X108919899Y-111305471D01*
X108786743Y-111216499D01*
X108673503Y-111103259D01*
X108667568Y-111094376D01*
X108623536Y-111028478D01*
X108584531Y-110970103D01*
X108523243Y-110822143D01*
X108492001Y-110665076D01*
X108492001Y-110504926D01*
X108523243Y-110347859D01*
X108584531Y-110199899D01*
X108673503Y-110066743D01*
X108786743Y-109953503D01*
X108789708Y-109951522D01*
X108858806Y-109905352D01*
X108919899Y-109864531D01*
X109067859Y-109803243D01*
X109224926Y-109772001D01*
X109385076Y-109772001D01*
X109542143Y-109803243D01*
X109542143Y-109803243D01*
G37*
G36*
X137482143Y-109803243D02*
X137630103Y-109864531D01*
X137691196Y-109905352D01*
X137760295Y-109951522D01*
X137763259Y-109953503D01*
X137876499Y-110066743D01*
X137965471Y-110199899D01*
X138026759Y-110347859D01*
X138058001Y-110504926D01*
X138058001Y-110665076D01*
X138026759Y-110822143D01*
X137965471Y-110970103D01*
X137926466Y-111028478D01*
X137882435Y-111094376D01*
X137876499Y-111103259D01*
X137763259Y-111216499D01*
X137630103Y-111305471D01*
X137482143Y-111366759D01*
X137325076Y-111398001D01*
X137164926Y-111398001D01*
X137007859Y-111366759D01*
X136859899Y-111305471D01*
X136726743Y-111216499D01*
X136613503Y-111103259D01*
X136607568Y-111094376D01*
X136563536Y-111028478D01*
X136524531Y-110970103D01*
X136463243Y-110822143D01*
X136432001Y-110665076D01*
X136432001Y-110504926D01*
X136463243Y-110347859D01*
X136524531Y-110199899D01*
X136613503Y-110066743D01*
X136726743Y-109953503D01*
X136729708Y-109951522D01*
X136798806Y-109905352D01*
X136859899Y-109864531D01*
X137007859Y-109803243D01*
X137164926Y-109772001D01*
X137325076Y-109772001D01*
X137482143Y-109803243D01*
X137482143Y-109803243D01*
G37*
G36*
X89103973Y-108438105D02*
X89294072Y-108475918D01*
X89539939Y-108577759D01*
X89759394Y-108724395D01*
X89761215Y-108725612D01*
X89949388Y-108913785D01*
X89949390Y-108913788D01*
X90097241Y-109135061D01*
X90199082Y-109380928D01*
X90199082Y-109380929D01*
X90251000Y-109641937D01*
X90251000Y-109908063D01*
X90225041Y-110038567D01*
X90199082Y-110169072D01*
X90097241Y-110414939D01*
X90037112Y-110504927D01*
X89949388Y-110636215D01*
X89761215Y-110824388D01*
X89761212Y-110824390D01*
X89539939Y-110972241D01*
X89294072Y-111074082D01*
X89192047Y-111094376D01*
X89033063Y-111126000D01*
X88766937Y-111126000D01*
X88607953Y-111094376D01*
X88505928Y-111074082D01*
X88260061Y-110972241D01*
X88038788Y-110824390D01*
X88038785Y-110824388D01*
X87850612Y-110636215D01*
X87762888Y-110504927D01*
X87702759Y-110414939D01*
X87600918Y-110169072D01*
X87574959Y-110038567D01*
X87549000Y-109908063D01*
X87549000Y-109641937D01*
X87600918Y-109380929D01*
X87600918Y-109380928D01*
X87702759Y-109135061D01*
X87850610Y-108913788D01*
X87850612Y-108913785D01*
X88038785Y-108725612D01*
X88040606Y-108724395D01*
X88260061Y-108577759D01*
X88505928Y-108475918D01*
X88696027Y-108438105D01*
X88766937Y-108424000D01*
X89033063Y-108424000D01*
X89103973Y-108438105D01*
X89103973Y-108438105D01*
G37*
G36*
X170363635Y-108261019D02*
X170544903Y-108297075D01*
X170772571Y-108391378D01*
X170976542Y-108527668D01*
X170977469Y-108528287D01*
X171151713Y-108702531D01*
X171151715Y-108702534D01*
X171288622Y-108907429D01*
X171382925Y-109135097D01*
X171418981Y-109316364D01*
X171431000Y-109376786D01*
X171431000Y-109623214D01*
X171427143Y-109642605D01*
X171382925Y-109864903D01*
X171288622Y-110092571D01*
X171237506Y-110169071D01*
X171151713Y-110297469D01*
X170977469Y-110471713D01*
X170977466Y-110471715D01*
X170772571Y-110608622D01*
X170544903Y-110702925D01*
X170363635Y-110738981D01*
X170303214Y-110751000D01*
X170056786Y-110751000D01*
X169996365Y-110738981D01*
X169815097Y-110702925D01*
X169587429Y-110608622D01*
X169382534Y-110471715D01*
X169382531Y-110471713D01*
X169208287Y-110297469D01*
X169122494Y-110169071D01*
X169071378Y-110092571D01*
X168977075Y-109864903D01*
X168932857Y-109642605D01*
X168929000Y-109623214D01*
X168929000Y-109376786D01*
X168941019Y-109316364D01*
X168977075Y-109135097D01*
X169071378Y-108907429D01*
X169208285Y-108702534D01*
X169208287Y-108702531D01*
X169382531Y-108528287D01*
X169383458Y-108527668D01*
X169587429Y-108391378D01*
X169815097Y-108297075D01*
X169996365Y-108261019D01*
X170056786Y-108249000D01*
X170303214Y-108249000D01*
X170363635Y-108261019D01*
X170363635Y-108261019D01*
G37*
G36*
X105423562Y-108460681D02*
X105458477Y-108471273D01*
X105490665Y-108488478D01*
X105518873Y-108511627D01*
X105542022Y-108539835D01*
X105559227Y-108572023D01*
X105569819Y-108606938D01*
X105574000Y-108649395D01*
X105574000Y-109790605D01*
X105569819Y-109833062D01*
X105559227Y-109867977D01*
X105542022Y-109900165D01*
X105518873Y-109928373D01*
X105490665Y-109951522D01*
X105458477Y-109968727D01*
X105423562Y-109979319D01*
X105381105Y-109983500D01*
X103914895Y-109983500D01*
X103872438Y-109979319D01*
X103837523Y-109968727D01*
X103805335Y-109951522D01*
X103777127Y-109928373D01*
X103753978Y-109900165D01*
X103736773Y-109867977D01*
X103726181Y-109833062D01*
X103722000Y-109790605D01*
X103722000Y-108649395D01*
X103726181Y-108606938D01*
X103736773Y-108572023D01*
X103753978Y-108539835D01*
X103777127Y-108511627D01*
X103805335Y-108488478D01*
X103837523Y-108471273D01*
X103872438Y-108460681D01*
X103914895Y-108456500D01*
X105381105Y-108456500D01*
X105423562Y-108460681D01*
X105423562Y-108460681D01*
G37*
G36*
X101359562Y-108387681D02*
X101394477Y-108398273D01*
X101426665Y-108415478D01*
X101454873Y-108438627D01*
X101478022Y-108466835D01*
X101495227Y-108499023D01*
X101505819Y-108533938D01*
X101510000Y-108576395D01*
X101510000Y-109717605D01*
X101505819Y-109760062D01*
X101495227Y-109794977D01*
X101478022Y-109827165D01*
X101454873Y-109855373D01*
X101426665Y-109878522D01*
X101394477Y-109895727D01*
X101359562Y-109906319D01*
X101317105Y-109910500D01*
X99850895Y-109910500D01*
X99808438Y-109906319D01*
X99773523Y-109895727D01*
X99741335Y-109878522D01*
X99713127Y-109855373D01*
X99689978Y-109827165D01*
X99672773Y-109794977D01*
X99662181Y-109760062D01*
X99658000Y-109717605D01*
X99658000Y-108576395D01*
X99662181Y-108533938D01*
X99672773Y-108499023D01*
X99689978Y-108466835D01*
X99713127Y-108438627D01*
X99741335Y-108415478D01*
X99773523Y-108398273D01*
X99808438Y-108387681D01*
X99850895Y-108383500D01*
X101317105Y-108383500D01*
X101359562Y-108387681D01*
X101359562Y-108387681D01*
G37*
G36*
X109542143Y-107263243D02*
X109690103Y-107324531D01*
X109823259Y-107413503D01*
X109936499Y-107526743D01*
X110025471Y-107659899D01*
X110086759Y-107807859D01*
X110118001Y-107964926D01*
X110118001Y-108125076D01*
X110086759Y-108282143D01*
X110025471Y-108430103D01*
X109991755Y-108480562D01*
X109936500Y-108563258D01*
X109823258Y-108676500D01*
X109784295Y-108702534D01*
X109690103Y-108765471D01*
X109542143Y-108826759D01*
X109385076Y-108858001D01*
X109224926Y-108858001D01*
X109067859Y-108826759D01*
X108919899Y-108765471D01*
X108825707Y-108702534D01*
X108786744Y-108676500D01*
X108673502Y-108563258D01*
X108618247Y-108480562D01*
X108584531Y-108430103D01*
X108523243Y-108282143D01*
X108492001Y-108125076D01*
X108492001Y-107964926D01*
X108523243Y-107807859D01*
X108584531Y-107659899D01*
X108673503Y-107526743D01*
X108786743Y-107413503D01*
X108919899Y-107324531D01*
X109067859Y-107263243D01*
X109224926Y-107232001D01*
X109385076Y-107232001D01*
X109542143Y-107263243D01*
X109542143Y-107263243D01*
G37*
G36*
X137482143Y-107263243D02*
X137630103Y-107324531D01*
X137763259Y-107413503D01*
X137876499Y-107526743D01*
X137965471Y-107659899D01*
X138026759Y-107807859D01*
X138058001Y-107964926D01*
X138058001Y-108125076D01*
X138026759Y-108282143D01*
X137965471Y-108430103D01*
X137931755Y-108480562D01*
X137876500Y-108563258D01*
X137763258Y-108676500D01*
X137724295Y-108702534D01*
X137630103Y-108765471D01*
X137482143Y-108826759D01*
X137325076Y-108858001D01*
X137164926Y-108858001D01*
X137007859Y-108826759D01*
X136859899Y-108765471D01*
X136765707Y-108702534D01*
X136726744Y-108676500D01*
X136613502Y-108563258D01*
X136558247Y-108480562D01*
X136524531Y-108430103D01*
X136463243Y-108282143D01*
X136432001Y-108125076D01*
X136432001Y-107964926D01*
X136463243Y-107807859D01*
X136524531Y-107659899D01*
X136613503Y-107526743D01*
X136726743Y-107413503D01*
X136859899Y-107324531D01*
X137007859Y-107263243D01*
X137164926Y-107232001D01*
X137325076Y-107232001D01*
X137482143Y-107263243D01*
X137482143Y-107263243D01*
G37*
G36*
X146825562Y-107108181D02*
X146860477Y-107118773D01*
X146892665Y-107135978D01*
X146920873Y-107159127D01*
X146944022Y-107187335D01*
X146961227Y-107219523D01*
X146971819Y-107254438D01*
X146976000Y-107296895D01*
X146976000Y-108438105D01*
X146971819Y-108480562D01*
X146961227Y-108515477D01*
X146944022Y-108547665D01*
X146920873Y-108575873D01*
X146892665Y-108599022D01*
X146860477Y-108616227D01*
X146825562Y-108626819D01*
X146783105Y-108631000D01*
X145316895Y-108631000D01*
X145274438Y-108626819D01*
X145239523Y-108616227D01*
X145207335Y-108599022D01*
X145179127Y-108575873D01*
X145155978Y-108547665D01*
X145138773Y-108515477D01*
X145128181Y-108480562D01*
X145124000Y-108438105D01*
X145124000Y-107296895D01*
X145128181Y-107254438D01*
X145138773Y-107219523D01*
X145155978Y-107187335D01*
X145179127Y-107159127D01*
X145207335Y-107135978D01*
X145239523Y-107118773D01*
X145274438Y-107108181D01*
X145316895Y-107104000D01*
X146783105Y-107104000D01*
X146825562Y-107108181D01*
X146825562Y-107108181D01*
G37*
G36*
X143015562Y-106848181D02*
X143050477Y-106858773D01*
X143082665Y-106875978D01*
X143110873Y-106899127D01*
X143134022Y-106927335D01*
X143151227Y-106959523D01*
X143161819Y-106994438D01*
X143166000Y-107036895D01*
X143166000Y-108178105D01*
X143161819Y-108220562D01*
X143151227Y-108255477D01*
X143134022Y-108287665D01*
X143110873Y-108315873D01*
X143082665Y-108339022D01*
X143050477Y-108356227D01*
X143015562Y-108366819D01*
X142973105Y-108371000D01*
X141506895Y-108371000D01*
X141464438Y-108366819D01*
X141429523Y-108356227D01*
X141397335Y-108339022D01*
X141369127Y-108315873D01*
X141345978Y-108287665D01*
X141328773Y-108255477D01*
X141318181Y-108220562D01*
X141314000Y-108178105D01*
X141314000Y-107036895D01*
X141318181Y-106994438D01*
X141328773Y-106959523D01*
X141345978Y-106927335D01*
X141369127Y-106899127D01*
X141397335Y-106875978D01*
X141429523Y-106858773D01*
X141464438Y-106848181D01*
X141506895Y-106844000D01*
X142973105Y-106844000D01*
X143015562Y-106848181D01*
X143015562Y-106848181D01*
G37*
G36*
X158255562Y-106773181D02*
X158290477Y-106783773D01*
X158322665Y-106800978D01*
X158350873Y-106824127D01*
X158374022Y-106852335D01*
X158391227Y-106884523D01*
X158401819Y-106919438D01*
X158406000Y-106961895D01*
X158406000Y-108103105D01*
X158401819Y-108145562D01*
X158391227Y-108180477D01*
X158374022Y-108212665D01*
X158350873Y-108240873D01*
X158322665Y-108264022D01*
X158290477Y-108281227D01*
X158255562Y-108291819D01*
X158213105Y-108296000D01*
X156746895Y-108296000D01*
X156704438Y-108291819D01*
X156669523Y-108281227D01*
X156637335Y-108264022D01*
X156609127Y-108240873D01*
X156585978Y-108212665D01*
X156568773Y-108180477D01*
X156558181Y-108145562D01*
X156554000Y-108103105D01*
X156554000Y-106961895D01*
X156558181Y-106919438D01*
X156568773Y-106884523D01*
X156585978Y-106852335D01*
X156609127Y-106824127D01*
X156637335Y-106800978D01*
X156669523Y-106783773D01*
X156704438Y-106773181D01*
X156746895Y-106769000D01*
X158213105Y-106769000D01*
X158255562Y-106773181D01*
X158255562Y-106773181D01*
G37*
G36*
X150411000Y-108051000D02*
X149309000Y-108051000D01*
X149309000Y-106949000D01*
X150411000Y-106949000D01*
X150411000Y-108051000D01*
X150411000Y-108051000D01*
G37*
G36*
X162476000Y-107826000D02*
X161374000Y-107826000D01*
X161374000Y-106724000D01*
X162476000Y-106724000D01*
X162476000Y-107826000D01*
X162476000Y-107826000D01*
G37*
G36*
X170363635Y-104761019D02*
X170544903Y-104797075D01*
X170772571Y-104891378D01*
X170926155Y-104994000D01*
X170977469Y-105028287D01*
X171151713Y-105202531D01*
X171151715Y-105202534D01*
X171288622Y-105407429D01*
X171382925Y-105635097D01*
X171431000Y-105876787D01*
X171431000Y-106123213D01*
X171382925Y-106364903D01*
X171288622Y-106592571D01*
X171189708Y-106740605D01*
X171151713Y-106797469D01*
X170977469Y-106971713D01*
X170977466Y-106971715D01*
X170772571Y-107108622D01*
X170544903Y-107202925D01*
X170363636Y-107238981D01*
X170303214Y-107251000D01*
X170056786Y-107251000D01*
X169996364Y-107238981D01*
X169815097Y-107202925D01*
X169587429Y-107108622D01*
X169382534Y-106971715D01*
X169382531Y-106971713D01*
X169208287Y-106797469D01*
X169170292Y-106740605D01*
X169071378Y-106592571D01*
X168977075Y-106364903D01*
X168929000Y-106123213D01*
X168929000Y-105876787D01*
X168977075Y-105635097D01*
X169071378Y-105407429D01*
X169208285Y-105202534D01*
X169208287Y-105202531D01*
X169382531Y-105028287D01*
X169433845Y-104994000D01*
X169587429Y-104891378D01*
X169815097Y-104797075D01*
X169996365Y-104761019D01*
X170056786Y-104749000D01*
X170303214Y-104749000D01*
X170363635Y-104761019D01*
X170363635Y-104761019D01*
G37*
G36*
X153341565Y-105034389D02*
X153532834Y-105113615D01*
X153704976Y-105228637D01*
X153851363Y-105375024D01*
X153966385Y-105547166D01*
X154045611Y-105738435D01*
X154086000Y-105941484D01*
X154086000Y-106148516D01*
X154045611Y-106351565D01*
X153966385Y-106542834D01*
X153851363Y-106714976D01*
X153704976Y-106861363D01*
X153532834Y-106976385D01*
X153341565Y-107055611D01*
X153138516Y-107096000D01*
X152931484Y-107096000D01*
X152728435Y-107055611D01*
X152537166Y-106976385D01*
X152365024Y-106861363D01*
X152218637Y-106714976D01*
X152103615Y-106542834D01*
X152024389Y-106351565D01*
X151984000Y-106148516D01*
X151984000Y-105941484D01*
X152024389Y-105738435D01*
X152103615Y-105547166D01*
X152218637Y-105375024D01*
X152365024Y-105228637D01*
X152537166Y-105113615D01*
X152728435Y-105034389D01*
X152931484Y-104994000D01*
X153138516Y-104994000D01*
X153341565Y-105034389D01*
X153341565Y-105034389D01*
G37*
G36*
X105423562Y-105485681D02*
X105458477Y-105496273D01*
X105490665Y-105513478D01*
X105518873Y-105536627D01*
X105542022Y-105564835D01*
X105559227Y-105597023D01*
X105569819Y-105631938D01*
X105574000Y-105674395D01*
X105574000Y-106815605D01*
X105569819Y-106858062D01*
X105559227Y-106892977D01*
X105542022Y-106925165D01*
X105518873Y-106953373D01*
X105490665Y-106976522D01*
X105458477Y-106993727D01*
X105423562Y-107004319D01*
X105381105Y-107008500D01*
X103914895Y-107008500D01*
X103872438Y-107004319D01*
X103837523Y-106993727D01*
X103805335Y-106976522D01*
X103777127Y-106953373D01*
X103753978Y-106925165D01*
X103736773Y-106892977D01*
X103726181Y-106858062D01*
X103722000Y-106815605D01*
X103722000Y-105674395D01*
X103726181Y-105631938D01*
X103736773Y-105597023D01*
X103753978Y-105564835D01*
X103777127Y-105536627D01*
X103805335Y-105513478D01*
X103837523Y-105496273D01*
X103872438Y-105485681D01*
X103914895Y-105481500D01*
X105381105Y-105481500D01*
X105423562Y-105485681D01*
X105423562Y-105485681D01*
G37*
G36*
X101359562Y-105412681D02*
X101394477Y-105423273D01*
X101426665Y-105440478D01*
X101454873Y-105463627D01*
X101478022Y-105491835D01*
X101495227Y-105524023D01*
X101505819Y-105558938D01*
X101510000Y-105601395D01*
X101510000Y-106742605D01*
X101505819Y-106785062D01*
X101495227Y-106819977D01*
X101478022Y-106852165D01*
X101454873Y-106880373D01*
X101426665Y-106903522D01*
X101394477Y-106920727D01*
X101359562Y-106931319D01*
X101317105Y-106935500D01*
X99850895Y-106935500D01*
X99808438Y-106931319D01*
X99773523Y-106920727D01*
X99741335Y-106903522D01*
X99713127Y-106880373D01*
X99689978Y-106852165D01*
X99672773Y-106819977D01*
X99662181Y-106785062D01*
X99658000Y-106742605D01*
X99658000Y-105601395D01*
X99662181Y-105558938D01*
X99672773Y-105524023D01*
X99689978Y-105491835D01*
X99713127Y-105463627D01*
X99741335Y-105440478D01*
X99773523Y-105423273D01*
X99808438Y-105412681D01*
X99850895Y-105408500D01*
X101317105Y-105408500D01*
X101359562Y-105412681D01*
X101359562Y-105412681D01*
G37*
G36*
X109542143Y-104723243D02*
X109690103Y-104784531D01*
X109708876Y-104797075D01*
X109823258Y-104873502D01*
X109936500Y-104986744D01*
X109964258Y-105028287D01*
X110025471Y-105119899D01*
X110086759Y-105267859D01*
X110118001Y-105424926D01*
X110118001Y-105585076D01*
X110086759Y-105742143D01*
X110083755Y-105749395D01*
X110025472Y-105890101D01*
X109936500Y-106023258D01*
X109823258Y-106136500D01*
X109757131Y-106180684D01*
X109690103Y-106225471D01*
X109542143Y-106286759D01*
X109385076Y-106318001D01*
X109224926Y-106318001D01*
X109067859Y-106286759D01*
X108919899Y-106225471D01*
X108852871Y-106180684D01*
X108786744Y-106136500D01*
X108673502Y-106023258D01*
X108584530Y-105890101D01*
X108526247Y-105749395D01*
X108523243Y-105742143D01*
X108492001Y-105585076D01*
X108492001Y-105424926D01*
X108523243Y-105267859D01*
X108584531Y-105119899D01*
X108645744Y-105028287D01*
X108673502Y-104986744D01*
X108786744Y-104873502D01*
X108901126Y-104797075D01*
X108919899Y-104784531D01*
X109067859Y-104723243D01*
X109224926Y-104692001D01*
X109385076Y-104692001D01*
X109542143Y-104723243D01*
X109542143Y-104723243D01*
G37*
G36*
X137482143Y-104723243D02*
X137630103Y-104784531D01*
X137648876Y-104797075D01*
X137763258Y-104873502D01*
X137876500Y-104986744D01*
X137904258Y-105028287D01*
X137965471Y-105119899D01*
X138026759Y-105267859D01*
X138058001Y-105424926D01*
X138058001Y-105585076D01*
X138026759Y-105742143D01*
X138023755Y-105749395D01*
X137965472Y-105890101D01*
X137876500Y-106023258D01*
X137763258Y-106136500D01*
X137697131Y-106180684D01*
X137630103Y-106225471D01*
X137482143Y-106286759D01*
X137325076Y-106318001D01*
X137164926Y-106318001D01*
X137007859Y-106286759D01*
X136859899Y-106225471D01*
X136792871Y-106180684D01*
X136726744Y-106136500D01*
X136613502Y-106023258D01*
X136524530Y-105890101D01*
X136466247Y-105749395D01*
X136463243Y-105742143D01*
X136432001Y-105585076D01*
X136432001Y-105424926D01*
X136463243Y-105267859D01*
X136524531Y-105119899D01*
X136585744Y-105028287D01*
X136613502Y-104986744D01*
X136726744Y-104873502D01*
X136841126Y-104797075D01*
X136859899Y-104784531D01*
X137007859Y-104723243D01*
X137164926Y-104692001D01*
X137325076Y-104692001D01*
X137482143Y-104723243D01*
X137482143Y-104723243D01*
G37*
G36*
X90251000Y-106126000D02*
X87549000Y-106126000D01*
X87549000Y-103424000D01*
X90251000Y-103424000D01*
X90251000Y-106126000D01*
X90251000Y-106126000D01*
G37*
G36*
X146825562Y-104133181D02*
X146860477Y-104143773D01*
X146892665Y-104160978D01*
X146920873Y-104184127D01*
X146944022Y-104212335D01*
X146961227Y-104244523D01*
X146971819Y-104279438D01*
X146976000Y-104321895D01*
X146976000Y-105463105D01*
X146971819Y-105505562D01*
X146961227Y-105540477D01*
X146944022Y-105572665D01*
X146920873Y-105600873D01*
X146892665Y-105624022D01*
X146860477Y-105641227D01*
X146825562Y-105651819D01*
X146783105Y-105656000D01*
X145316895Y-105656000D01*
X145274438Y-105651819D01*
X145239523Y-105641227D01*
X145207335Y-105624022D01*
X145179127Y-105600873D01*
X145155978Y-105572665D01*
X145138773Y-105540477D01*
X145128181Y-105505562D01*
X145124000Y-105463105D01*
X145124000Y-104321895D01*
X145128181Y-104279438D01*
X145138773Y-104244523D01*
X145155978Y-104212335D01*
X145179127Y-104184127D01*
X145207335Y-104160978D01*
X145239523Y-104143773D01*
X145274438Y-104133181D01*
X145316895Y-104129000D01*
X146783105Y-104129000D01*
X146825562Y-104133181D01*
X146825562Y-104133181D01*
G37*
G36*
X150411000Y-105551000D02*
X149309000Y-105551000D01*
X149309000Y-104449000D01*
X150411000Y-104449000D01*
X150411000Y-105551000D01*
X150411000Y-105551000D01*
G37*
G36*
X143015562Y-103873181D02*
X143050477Y-103883773D01*
X143082665Y-103900978D01*
X143110873Y-103924127D01*
X143134022Y-103952335D01*
X143151227Y-103984523D01*
X143161819Y-104019438D01*
X143166000Y-104061895D01*
X143166000Y-105203105D01*
X143161819Y-105245562D01*
X143151227Y-105280477D01*
X143134022Y-105312665D01*
X143110873Y-105340873D01*
X143082665Y-105364022D01*
X143050477Y-105381227D01*
X143015562Y-105391819D01*
X142973105Y-105396000D01*
X141506895Y-105396000D01*
X141464438Y-105391819D01*
X141429523Y-105381227D01*
X141397335Y-105364022D01*
X141369127Y-105340873D01*
X141345978Y-105312665D01*
X141328773Y-105280477D01*
X141318181Y-105245562D01*
X141314000Y-105203105D01*
X141314000Y-104061895D01*
X141318181Y-104019438D01*
X141328773Y-103984523D01*
X141345978Y-103952335D01*
X141369127Y-103924127D01*
X141397335Y-103900978D01*
X141429523Y-103883773D01*
X141464438Y-103873181D01*
X141506895Y-103869000D01*
X142973105Y-103869000D01*
X143015562Y-103873181D01*
X143015562Y-103873181D01*
G37*
G36*
X162476000Y-105326000D02*
X161374000Y-105326000D01*
X161374000Y-104224000D01*
X162476000Y-104224000D01*
X162476000Y-105326000D01*
X162476000Y-105326000D01*
G37*
G36*
X158255562Y-103798181D02*
X158290477Y-103808773D01*
X158322665Y-103825978D01*
X158350873Y-103849127D01*
X158374022Y-103877335D01*
X158391227Y-103909523D01*
X158401819Y-103944438D01*
X158406000Y-103986895D01*
X158406000Y-105128105D01*
X158401819Y-105170562D01*
X158391227Y-105205477D01*
X158374022Y-105237665D01*
X158350873Y-105265873D01*
X158322665Y-105289022D01*
X158290477Y-105306227D01*
X158255562Y-105316819D01*
X158213105Y-105321000D01*
X156746895Y-105321000D01*
X156704438Y-105316819D01*
X156669523Y-105306227D01*
X156637335Y-105289022D01*
X156609127Y-105265873D01*
X156585978Y-105237665D01*
X156568773Y-105205477D01*
X156558181Y-105170562D01*
X156554000Y-105128105D01*
X156554000Y-103986895D01*
X156558181Y-103944438D01*
X156568773Y-103909523D01*
X156585978Y-103877335D01*
X156609127Y-103849127D01*
X156637335Y-103825978D01*
X156669523Y-103808773D01*
X156704438Y-103798181D01*
X156746895Y-103794000D01*
X158213105Y-103794000D01*
X158255562Y-103798181D01*
X158255562Y-103798181D01*
G37*
G36*
X137482143Y-102183243D02*
X137630103Y-102244531D01*
X137763259Y-102333503D01*
X137876499Y-102446743D01*
X137965471Y-102579899D01*
X138026759Y-102727859D01*
X138058001Y-102884926D01*
X138058001Y-103045076D01*
X138026759Y-103202143D01*
X137965471Y-103350103D01*
X137920684Y-103417131D01*
X137876500Y-103483258D01*
X137763258Y-103596500D01*
X137745116Y-103608622D01*
X137630103Y-103685471D01*
X137482143Y-103746759D01*
X137325076Y-103778001D01*
X137164926Y-103778001D01*
X137007859Y-103746759D01*
X136859899Y-103685471D01*
X136744886Y-103608622D01*
X136726744Y-103596500D01*
X136613502Y-103483258D01*
X136569318Y-103417131D01*
X136524531Y-103350103D01*
X136463243Y-103202143D01*
X136432001Y-103045076D01*
X136432001Y-102884926D01*
X136463243Y-102727859D01*
X136524531Y-102579899D01*
X136613503Y-102446743D01*
X136726743Y-102333503D01*
X136859899Y-102244531D01*
X137007859Y-102183243D01*
X137164926Y-102152001D01*
X137325076Y-102152001D01*
X137482143Y-102183243D01*
X137482143Y-102183243D01*
G37*
G36*
X109542143Y-102183243D02*
X109690103Y-102244531D01*
X109823259Y-102333503D01*
X109936499Y-102446743D01*
X110025471Y-102579899D01*
X110086759Y-102727859D01*
X110118001Y-102884926D01*
X110118001Y-103045076D01*
X110086759Y-103202143D01*
X110025471Y-103350103D01*
X109980684Y-103417131D01*
X109936500Y-103483258D01*
X109823258Y-103596500D01*
X109805116Y-103608622D01*
X109690103Y-103685471D01*
X109542143Y-103746759D01*
X109385076Y-103778001D01*
X109224926Y-103778001D01*
X109067859Y-103746759D01*
X108919899Y-103685471D01*
X108804886Y-103608622D01*
X108786744Y-103596500D01*
X108673502Y-103483258D01*
X108629318Y-103417131D01*
X108584531Y-103350103D01*
X108523243Y-103202143D01*
X108492001Y-103045076D01*
X108492001Y-102884926D01*
X108523243Y-102727859D01*
X108584531Y-102579899D01*
X108673503Y-102446743D01*
X108786743Y-102333503D01*
X108919899Y-102244531D01*
X109067859Y-102183243D01*
X109224926Y-102152001D01*
X109385076Y-102152001D01*
X109542143Y-102183243D01*
X109542143Y-102183243D01*
G37*
G36*
X170363636Y-101261019D02*
X170544903Y-101297075D01*
X170772571Y-101391378D01*
X170976542Y-101527668D01*
X170977469Y-101528287D01*
X171151713Y-101702531D01*
X171151715Y-101702534D01*
X171288622Y-101907429D01*
X171382925Y-102135097D01*
X171431000Y-102376787D01*
X171431000Y-102623213D01*
X171382925Y-102864903D01*
X171288622Y-103092571D01*
X171197421Y-103229062D01*
X171151713Y-103297469D01*
X170977469Y-103471713D01*
X170977466Y-103471715D01*
X170772571Y-103608622D01*
X170544903Y-103702925D01*
X170363636Y-103738981D01*
X170303214Y-103751000D01*
X170056786Y-103751000D01*
X169996365Y-103738981D01*
X169815097Y-103702925D01*
X169587429Y-103608622D01*
X169382534Y-103471715D01*
X169382531Y-103471713D01*
X169208287Y-103297469D01*
X169162579Y-103229062D01*
X169071378Y-103092571D01*
X168977075Y-102864903D01*
X168929000Y-102623213D01*
X168929000Y-102376787D01*
X168977075Y-102135097D01*
X169071378Y-101907429D01*
X169208285Y-101702534D01*
X169208287Y-101702531D01*
X169382531Y-101528287D01*
X169383458Y-101527668D01*
X169587429Y-101391378D01*
X169815097Y-101297075D01*
X169996364Y-101261019D01*
X170056786Y-101249000D01*
X170303214Y-101249000D01*
X170363636Y-101261019D01*
X170363636Y-101261019D01*
G37*
G36*
X98819562Y-101856681D02*
X98854477Y-101867273D01*
X98886665Y-101884478D01*
X98914873Y-101907627D01*
X98938022Y-101935835D01*
X98955227Y-101968023D01*
X98965819Y-102002938D01*
X98970000Y-102045395D01*
X98970000Y-103186605D01*
X98965819Y-103229062D01*
X98955227Y-103263977D01*
X98938022Y-103296165D01*
X98914873Y-103324373D01*
X98886665Y-103347522D01*
X98854477Y-103364727D01*
X98819562Y-103375319D01*
X98777105Y-103379500D01*
X97310895Y-103379500D01*
X97268438Y-103375319D01*
X97233523Y-103364727D01*
X97201335Y-103347522D01*
X97173127Y-103324373D01*
X97149978Y-103296165D01*
X97132773Y-103263977D01*
X97122181Y-103229062D01*
X97118000Y-103186605D01*
X97118000Y-102045395D01*
X97122181Y-102002938D01*
X97132773Y-101968023D01*
X97149978Y-101935835D01*
X97173127Y-101907627D01*
X97201335Y-101884478D01*
X97233523Y-101867273D01*
X97268438Y-101856681D01*
X97310895Y-101852500D01*
X98777105Y-101852500D01*
X98819562Y-101856681D01*
X98819562Y-101856681D01*
G37*
G36*
X106710500Y-102037000D02*
X104608500Y-102037000D01*
X104608500Y-101285000D01*
X106710500Y-101285000D01*
X106710500Y-102037000D01*
X106710500Y-102037000D01*
G37*
G36*
X109542143Y-99643243D02*
X109690103Y-99704531D01*
X109823259Y-99793503D01*
X109936499Y-99906743D01*
X110025471Y-100039899D01*
X110086759Y-100187859D01*
X110118001Y-100344926D01*
X110118001Y-100505076D01*
X110086759Y-100662143D01*
X110049953Y-100751000D01*
X110025472Y-100810101D01*
X109936500Y-100943258D01*
X109823258Y-101056500D01*
X109767883Y-101093500D01*
X109690103Y-101145471D01*
X109542143Y-101206759D01*
X109385076Y-101238001D01*
X109224926Y-101238001D01*
X109067859Y-101206759D01*
X108919899Y-101145471D01*
X108842119Y-101093500D01*
X108786744Y-101056500D01*
X108673502Y-100943258D01*
X108584530Y-100810101D01*
X108560049Y-100751000D01*
X108523243Y-100662143D01*
X108492001Y-100505076D01*
X108492001Y-100344926D01*
X108523243Y-100187859D01*
X108584531Y-100039899D01*
X108673503Y-99906743D01*
X108786743Y-99793503D01*
X108919899Y-99704531D01*
X109067859Y-99643243D01*
X109224926Y-99612001D01*
X109385076Y-99612001D01*
X109542143Y-99643243D01*
X109542143Y-99643243D01*
G37*
G36*
X137482143Y-99643243D02*
X137630103Y-99704531D01*
X137763259Y-99793503D01*
X137876499Y-99906743D01*
X137965471Y-100039899D01*
X138026759Y-100187859D01*
X138058001Y-100344926D01*
X138058001Y-100505076D01*
X138026759Y-100662143D01*
X137989953Y-100751000D01*
X137965472Y-100810101D01*
X137876500Y-100943258D01*
X137763258Y-101056500D01*
X137707883Y-101093500D01*
X137630103Y-101145471D01*
X137482143Y-101206759D01*
X137325076Y-101238001D01*
X137164926Y-101238001D01*
X137007859Y-101206759D01*
X136859899Y-101145471D01*
X136782119Y-101093500D01*
X136726744Y-101056500D01*
X136613502Y-100943258D01*
X136524530Y-100810101D01*
X136500049Y-100751000D01*
X136463243Y-100662143D01*
X136432001Y-100505076D01*
X136432001Y-100344926D01*
X136463243Y-100187859D01*
X136524531Y-100039899D01*
X136613503Y-99906743D01*
X136726743Y-99793503D01*
X136859899Y-99704531D01*
X137007859Y-99643243D01*
X137164926Y-99612001D01*
X137325076Y-99612001D01*
X137482143Y-99643243D01*
X137482143Y-99643243D01*
G37*
G36*
X158890562Y-99570681D02*
X158925477Y-99581273D01*
X158957665Y-99598478D01*
X158985873Y-99621627D01*
X159009022Y-99649835D01*
X159026227Y-99682023D01*
X159036819Y-99716938D01*
X159041000Y-99759395D01*
X159041000Y-100900605D01*
X159036819Y-100943062D01*
X159026227Y-100977977D01*
X159009022Y-101010165D01*
X158985873Y-101038373D01*
X158957665Y-101061522D01*
X158925477Y-101078727D01*
X158890562Y-101089319D01*
X158848105Y-101093500D01*
X157381895Y-101093500D01*
X157339438Y-101089319D01*
X157304523Y-101078727D01*
X157272335Y-101061522D01*
X157244127Y-101038373D01*
X157220978Y-101010165D01*
X157203773Y-100977977D01*
X157193181Y-100943062D01*
X157189000Y-100900605D01*
X157189000Y-99759395D01*
X157193181Y-99716938D01*
X157203773Y-99682023D01*
X157220978Y-99649835D01*
X157244127Y-99621627D01*
X157272335Y-99598478D01*
X157304523Y-99581273D01*
X157339438Y-99570681D01*
X157381895Y-99566500D01*
X158848105Y-99566500D01*
X158890562Y-99570681D01*
X158890562Y-99570681D01*
G37*
G36*
X103290500Y-101087000D02*
X101188500Y-101087000D01*
X101188500Y-100335000D01*
X103290500Y-100335000D01*
X103290500Y-101087000D01*
X103290500Y-101087000D01*
G37*
G36*
X162476000Y-100881000D02*
X161374000Y-100881000D01*
X161374000Y-99779000D01*
X162476000Y-99779000D01*
X162476000Y-100881000D01*
X162476000Y-100881000D01*
G37*
G36*
X146825562Y-99358181D02*
X146860477Y-99368773D01*
X146892665Y-99385978D01*
X146920873Y-99409127D01*
X146944022Y-99437335D01*
X146961227Y-99469523D01*
X146971819Y-99504438D01*
X146976000Y-99546895D01*
X146976000Y-100688105D01*
X146971819Y-100730562D01*
X146961227Y-100765477D01*
X146944022Y-100797665D01*
X146920873Y-100825873D01*
X146892665Y-100849022D01*
X146860477Y-100866227D01*
X146825562Y-100876819D01*
X146783105Y-100881000D01*
X145316895Y-100881000D01*
X145274438Y-100876819D01*
X145239523Y-100866227D01*
X145207335Y-100849022D01*
X145179127Y-100825873D01*
X145155978Y-100797665D01*
X145138773Y-100765477D01*
X145128181Y-100730562D01*
X145124000Y-100688105D01*
X145124000Y-99546895D01*
X145128181Y-99504438D01*
X145138773Y-99469523D01*
X145155978Y-99437335D01*
X145179127Y-99409127D01*
X145207335Y-99385978D01*
X145239523Y-99368773D01*
X145274438Y-99358181D01*
X145316895Y-99354000D01*
X146783105Y-99354000D01*
X146825562Y-99358181D01*
X146825562Y-99358181D01*
G37*
G36*
X143015562Y-99228181D02*
X143050477Y-99238773D01*
X143082665Y-99255978D01*
X143110873Y-99279127D01*
X143134022Y-99307335D01*
X143151227Y-99339523D01*
X143161819Y-99374438D01*
X143166000Y-99416895D01*
X143166000Y-100558105D01*
X143161819Y-100600562D01*
X143151227Y-100635477D01*
X143134022Y-100667665D01*
X143110873Y-100695873D01*
X143082665Y-100719022D01*
X143050477Y-100736227D01*
X143015562Y-100746819D01*
X142973105Y-100751000D01*
X141506895Y-100751000D01*
X141464438Y-100746819D01*
X141429523Y-100736227D01*
X141397335Y-100719022D01*
X141369127Y-100695873D01*
X141345978Y-100667665D01*
X141328773Y-100635477D01*
X141318181Y-100600562D01*
X141314000Y-100558105D01*
X141314000Y-99416895D01*
X141318181Y-99374438D01*
X141328773Y-99339523D01*
X141345978Y-99307335D01*
X141369127Y-99279127D01*
X141397335Y-99255978D01*
X141429523Y-99238773D01*
X141464438Y-99228181D01*
X141506895Y-99224000D01*
X142973105Y-99224000D01*
X143015562Y-99228181D01*
X143015562Y-99228181D01*
G37*
G36*
X98819562Y-98881681D02*
X98854477Y-98892273D01*
X98886665Y-98909478D01*
X98914873Y-98932627D01*
X98938022Y-98960835D01*
X98955227Y-98993023D01*
X98965819Y-99027938D01*
X98970000Y-99070395D01*
X98970000Y-100211605D01*
X98965819Y-100254062D01*
X98955227Y-100288977D01*
X98938022Y-100321165D01*
X98914873Y-100349373D01*
X98886665Y-100372522D01*
X98854477Y-100389727D01*
X98819562Y-100400319D01*
X98777105Y-100404500D01*
X97310895Y-100404500D01*
X97268438Y-100400319D01*
X97233523Y-100389727D01*
X97201335Y-100372522D01*
X97173127Y-100349373D01*
X97149978Y-100321165D01*
X97132773Y-100288977D01*
X97122181Y-100254062D01*
X97118000Y-100211605D01*
X97118000Y-99070395D01*
X97122181Y-99027938D01*
X97132773Y-98993023D01*
X97149978Y-98960835D01*
X97173127Y-98932627D01*
X97201335Y-98909478D01*
X97233523Y-98892273D01*
X97268438Y-98881681D01*
X97310895Y-98877500D01*
X98777105Y-98877500D01*
X98819562Y-98881681D01*
X98819562Y-98881681D01*
G37*
G36*
X150411000Y-100261000D02*
X149309000Y-100261000D01*
X149309000Y-99159000D01*
X150411000Y-99159000D01*
X150411000Y-100261000D01*
X150411000Y-100261000D01*
G37*
G36*
X170336434Y-97755608D02*
X170544903Y-97797075D01*
X170772571Y-97891378D01*
X170882867Y-97965076D01*
X170977469Y-98028287D01*
X171151713Y-98202531D01*
X171151715Y-98202534D01*
X171288622Y-98407429D01*
X171382925Y-98635097D01*
X171431000Y-98876787D01*
X171431000Y-99123213D01*
X171382925Y-99364903D01*
X171288622Y-99592571D01*
X171154364Y-99793502D01*
X171151713Y-99797469D01*
X170977469Y-99971713D01*
X170977466Y-99971715D01*
X170772571Y-100108622D01*
X170544903Y-100202925D01*
X170363636Y-100238981D01*
X170303214Y-100251000D01*
X170056786Y-100251000D01*
X169996365Y-100238981D01*
X169815097Y-100202925D01*
X169587429Y-100108622D01*
X169382534Y-99971715D01*
X169382531Y-99971713D01*
X169208287Y-99797469D01*
X169205636Y-99793502D01*
X169071378Y-99592571D01*
X168977075Y-99364903D01*
X168929000Y-99123213D01*
X168929000Y-98876787D01*
X168977075Y-98635097D01*
X169071378Y-98407429D01*
X169208285Y-98202534D01*
X169208287Y-98202531D01*
X169382531Y-98028287D01*
X169477133Y-97965076D01*
X169587429Y-97891378D01*
X169815097Y-97797075D01*
X170023566Y-97755608D01*
X170056786Y-97749000D01*
X170303214Y-97749000D01*
X170336434Y-97755608D01*
X170336434Y-97755608D01*
G37*
G36*
X106710500Y-100137000D02*
X104608500Y-100137000D01*
X104608500Y-99385000D01*
X106710500Y-99385000D01*
X106710500Y-100137000D01*
X106710500Y-100137000D01*
G37*
G36*
X153214565Y-97414389D02*
X153405834Y-97493615D01*
X153577976Y-97608637D01*
X153724363Y-97755024D01*
X153839385Y-97927166D01*
X153918611Y-98118435D01*
X153959000Y-98321484D01*
X153959000Y-98528516D01*
X153918611Y-98731565D01*
X153839385Y-98922834D01*
X153724363Y-99094976D01*
X153577976Y-99241363D01*
X153405834Y-99356385D01*
X153214565Y-99435611D01*
X153011516Y-99476000D01*
X152804484Y-99476000D01*
X152601435Y-99435611D01*
X152410166Y-99356385D01*
X152238024Y-99241363D01*
X152091637Y-99094976D01*
X151976615Y-98922834D01*
X151897389Y-98731565D01*
X151857000Y-98528516D01*
X151857000Y-98321484D01*
X151897389Y-98118435D01*
X151976615Y-97927166D01*
X152091637Y-97755024D01*
X152238024Y-97608637D01*
X152410166Y-97493615D01*
X152601435Y-97414389D01*
X152804484Y-97374000D01*
X153011516Y-97374000D01*
X153214565Y-97414389D01*
X153214565Y-97414389D01*
G37*
G36*
X109542143Y-97103243D02*
X109690103Y-97164531D01*
X109823259Y-97253503D01*
X109936499Y-97366743D01*
X110025471Y-97499899D01*
X110086759Y-97647859D01*
X110118001Y-97804926D01*
X110118001Y-97965076D01*
X110086759Y-98122143D01*
X110053461Y-98202531D01*
X110025472Y-98270101D01*
X109936500Y-98403258D01*
X109823258Y-98516500D01*
X109757131Y-98560684D01*
X109690103Y-98605471D01*
X109542143Y-98666759D01*
X109385076Y-98698001D01*
X109224926Y-98698001D01*
X109067859Y-98666759D01*
X108919899Y-98605471D01*
X108852871Y-98560684D01*
X108786744Y-98516500D01*
X108673502Y-98403258D01*
X108584530Y-98270101D01*
X108556541Y-98202531D01*
X108523243Y-98122143D01*
X108492001Y-97965076D01*
X108492001Y-97804926D01*
X108523243Y-97647859D01*
X108584531Y-97499899D01*
X108673503Y-97366743D01*
X108786743Y-97253503D01*
X108919899Y-97164531D01*
X109067859Y-97103243D01*
X109224926Y-97072001D01*
X109385076Y-97072001D01*
X109542143Y-97103243D01*
X109542143Y-97103243D01*
G37*
G36*
X137482143Y-97103243D02*
X137630103Y-97164531D01*
X137763259Y-97253503D01*
X137876499Y-97366743D01*
X137965471Y-97499899D01*
X138026759Y-97647859D01*
X138058001Y-97804926D01*
X138058001Y-97965076D01*
X138026759Y-98122143D01*
X137993461Y-98202531D01*
X137965472Y-98270101D01*
X137876500Y-98403258D01*
X137763258Y-98516500D01*
X137697131Y-98560684D01*
X137630103Y-98605471D01*
X137482143Y-98666759D01*
X137325076Y-98698001D01*
X137164926Y-98698001D01*
X137007859Y-98666759D01*
X136859899Y-98605471D01*
X136792871Y-98560684D01*
X136726744Y-98516500D01*
X136613502Y-98403258D01*
X136524530Y-98270101D01*
X136496541Y-98202531D01*
X136463243Y-98122143D01*
X136432001Y-97965076D01*
X136432001Y-97804926D01*
X136463243Y-97647859D01*
X136524531Y-97499899D01*
X136613503Y-97366743D01*
X136726743Y-97253503D01*
X136859899Y-97164531D01*
X137007859Y-97103243D01*
X137164926Y-97072001D01*
X137325076Y-97072001D01*
X137482143Y-97103243D01*
X137482143Y-97103243D01*
G37*
G36*
X162476000Y-98381000D02*
X161374000Y-98381000D01*
X161374000Y-97279000D01*
X162476000Y-97279000D01*
X162476000Y-98381000D01*
X162476000Y-98381000D01*
G37*
G36*
X158890562Y-96595681D02*
X158925477Y-96606273D01*
X158957665Y-96623478D01*
X158985873Y-96646627D01*
X159009022Y-96674835D01*
X159026227Y-96707023D01*
X159036819Y-96741938D01*
X159041000Y-96784395D01*
X159041000Y-97925605D01*
X159036819Y-97968062D01*
X159026227Y-98002977D01*
X159009022Y-98035165D01*
X158985873Y-98063373D01*
X158957665Y-98086522D01*
X158925477Y-98103727D01*
X158890562Y-98114319D01*
X158848105Y-98118500D01*
X157381895Y-98118500D01*
X157339438Y-98114319D01*
X157304523Y-98103727D01*
X157272335Y-98086522D01*
X157244127Y-98063373D01*
X157220978Y-98035165D01*
X157203773Y-98002977D01*
X157193181Y-97968062D01*
X157189000Y-97925605D01*
X157189000Y-96784395D01*
X157193181Y-96741938D01*
X157203773Y-96707023D01*
X157220978Y-96674835D01*
X157244127Y-96646627D01*
X157272335Y-96623478D01*
X157304523Y-96606273D01*
X157339438Y-96595681D01*
X157381895Y-96591500D01*
X158848105Y-96591500D01*
X158890562Y-96595681D01*
X158890562Y-96595681D01*
G37*
G36*
X146825562Y-96383181D02*
X146860477Y-96393773D01*
X146892665Y-96410978D01*
X146920873Y-96434127D01*
X146944022Y-96462335D01*
X146961227Y-96494523D01*
X146971819Y-96529438D01*
X146976000Y-96571895D01*
X146976000Y-97713105D01*
X146971819Y-97755562D01*
X146961227Y-97790477D01*
X146944022Y-97822665D01*
X146920873Y-97850873D01*
X146892665Y-97874022D01*
X146860477Y-97891227D01*
X146825562Y-97901819D01*
X146783105Y-97906000D01*
X145316895Y-97906000D01*
X145274438Y-97901819D01*
X145239523Y-97891227D01*
X145207335Y-97874022D01*
X145179127Y-97850873D01*
X145155978Y-97822665D01*
X145138773Y-97790477D01*
X145128181Y-97755562D01*
X145124000Y-97713105D01*
X145124000Y-96571895D01*
X145128181Y-96529438D01*
X145138773Y-96494523D01*
X145155978Y-96462335D01*
X145179127Y-96434127D01*
X145207335Y-96410978D01*
X145239523Y-96393773D01*
X145274438Y-96383181D01*
X145316895Y-96379000D01*
X146783105Y-96379000D01*
X146825562Y-96383181D01*
X146825562Y-96383181D01*
G37*
G36*
X143015562Y-96253181D02*
X143050477Y-96263773D01*
X143082665Y-96280978D01*
X143110873Y-96304127D01*
X143134022Y-96332335D01*
X143151227Y-96364523D01*
X143161819Y-96399438D01*
X143166000Y-96441895D01*
X143166000Y-97583105D01*
X143161819Y-97625562D01*
X143151227Y-97660477D01*
X143134022Y-97692665D01*
X143110873Y-97720873D01*
X143082665Y-97744022D01*
X143050477Y-97761227D01*
X143015562Y-97771819D01*
X142973105Y-97776000D01*
X141506895Y-97776000D01*
X141464438Y-97771819D01*
X141429523Y-97761227D01*
X141397335Y-97744022D01*
X141369127Y-97720873D01*
X141345978Y-97692665D01*
X141328773Y-97660477D01*
X141318181Y-97625562D01*
X141314000Y-97583105D01*
X141314000Y-96441895D01*
X141318181Y-96399438D01*
X141328773Y-96364523D01*
X141345978Y-96332335D01*
X141369127Y-96304127D01*
X141397335Y-96280978D01*
X141429523Y-96263773D01*
X141464438Y-96253181D01*
X141506895Y-96249000D01*
X142973105Y-96249000D01*
X143015562Y-96253181D01*
X143015562Y-96253181D01*
G37*
G36*
X150411000Y-97761000D02*
X149309000Y-97761000D01*
X149309000Y-96659000D01*
X150411000Y-96659000D01*
X150411000Y-97761000D01*
X150411000Y-97761000D01*
G37*
G36*
X170363636Y-94261019D02*
X170544903Y-94297075D01*
X170772571Y-94391378D01*
X170976542Y-94527668D01*
X170977469Y-94528287D01*
X171151713Y-94702531D01*
X171151715Y-94702534D01*
X171288622Y-94907429D01*
X171382925Y-95135097D01*
X171408750Y-95264927D01*
X171426065Y-95351974D01*
X171431000Y-95376787D01*
X171431000Y-95623213D01*
X171382925Y-95864903D01*
X171288622Y-96092571D01*
X171162732Y-96280978D01*
X171151713Y-96297469D01*
X170977469Y-96471713D01*
X170977466Y-96471715D01*
X170772571Y-96608622D01*
X170544903Y-96702925D01*
X170363636Y-96738981D01*
X170303214Y-96751000D01*
X170056786Y-96751000D01*
X169996365Y-96738981D01*
X169815097Y-96702925D01*
X169587429Y-96608622D01*
X169382534Y-96471715D01*
X169382531Y-96471713D01*
X169208287Y-96297469D01*
X169197268Y-96280978D01*
X169071378Y-96092571D01*
X168977075Y-95864903D01*
X168929000Y-95623213D01*
X168929000Y-95376787D01*
X168933936Y-95351974D01*
X168951250Y-95264927D01*
X168977075Y-95135097D01*
X169071378Y-94907429D01*
X169208285Y-94702534D01*
X169208287Y-94702531D01*
X169382531Y-94528287D01*
X169383458Y-94527668D01*
X169587429Y-94391378D01*
X169815097Y-94297075D01*
X169996365Y-94261019D01*
X170056786Y-94249000D01*
X170303214Y-94249000D01*
X170363636Y-94261019D01*
X170363636Y-94261019D01*
G37*
G36*
X109542143Y-94563243D02*
X109690103Y-94624531D01*
X109757131Y-94669318D01*
X109806839Y-94702531D01*
X109823259Y-94713503D01*
X109936499Y-94826743D01*
X110025471Y-94959899D01*
X110086759Y-95107859D01*
X110118001Y-95264926D01*
X110118001Y-95425076D01*
X110086759Y-95582143D01*
X110025471Y-95730103D01*
X109936499Y-95863259D01*
X109823259Y-95976499D01*
X109690103Y-96065471D01*
X109542143Y-96126759D01*
X109385076Y-96158001D01*
X109224926Y-96158001D01*
X109067859Y-96126759D01*
X108919899Y-96065471D01*
X108786743Y-95976499D01*
X108673503Y-95863259D01*
X108584531Y-95730103D01*
X108523243Y-95582143D01*
X108492001Y-95425076D01*
X108492001Y-95264926D01*
X108523243Y-95107859D01*
X108584531Y-94959899D01*
X108673503Y-94826743D01*
X108786743Y-94713503D01*
X108803164Y-94702531D01*
X108852871Y-94669318D01*
X108919899Y-94624531D01*
X109067859Y-94563243D01*
X109224926Y-94532001D01*
X109385076Y-94532001D01*
X109542143Y-94563243D01*
X109542143Y-94563243D01*
G37*
G36*
X137482143Y-94563243D02*
X137630103Y-94624531D01*
X137697131Y-94669318D01*
X137746839Y-94702531D01*
X137763259Y-94713503D01*
X137876499Y-94826743D01*
X137965471Y-94959899D01*
X138026759Y-95107859D01*
X138058001Y-95264926D01*
X138058001Y-95425076D01*
X138026759Y-95582143D01*
X137965471Y-95730103D01*
X137876499Y-95863259D01*
X137763259Y-95976499D01*
X137630103Y-96065471D01*
X137482143Y-96126759D01*
X137325076Y-96158001D01*
X137164926Y-96158001D01*
X137007859Y-96126759D01*
X136859899Y-96065471D01*
X136726743Y-95976499D01*
X136613503Y-95863259D01*
X136524531Y-95730103D01*
X136463243Y-95582143D01*
X136432001Y-95425076D01*
X136432001Y-95264926D01*
X136463243Y-95107859D01*
X136524531Y-94959899D01*
X136613503Y-94826743D01*
X136726743Y-94713503D01*
X136743164Y-94702531D01*
X136792871Y-94669318D01*
X136859899Y-94624531D01*
X137007859Y-94563243D01*
X137164926Y-94532001D01*
X137325076Y-94532001D01*
X137482143Y-94563243D01*
X137482143Y-94563243D01*
G37*
G36*
X89416689Y-92968706D02*
X89560040Y-92982825D01*
X89805280Y-93057218D01*
X89805282Y-93057219D01*
X90031296Y-93178026D01*
X90229397Y-93340603D01*
X90391974Y-93538704D01*
X90512781Y-93764718D01*
X90512782Y-93764720D01*
X90587175Y-94009960D01*
X90612294Y-94265000D01*
X90587175Y-94520040D01*
X90528488Y-94713503D01*
X90512781Y-94765282D01*
X90391974Y-94991296D01*
X90229397Y-95189397D01*
X90031296Y-95351974D01*
X90031294Y-95351975D01*
X89805280Y-95472782D01*
X89560040Y-95547175D01*
X89416689Y-95561294D01*
X89368906Y-95566000D01*
X89241094Y-95566000D01*
X89193311Y-95561294D01*
X89049960Y-95547175D01*
X88804720Y-95472782D01*
X88578706Y-95351975D01*
X88578704Y-95351974D01*
X88380603Y-95189397D01*
X88218026Y-94991296D01*
X88097219Y-94765282D01*
X88081512Y-94713503D01*
X88022825Y-94520040D01*
X87997706Y-94265000D01*
X88022825Y-94009960D01*
X88097218Y-93764720D01*
X88097219Y-93764718D01*
X88218026Y-93538704D01*
X88380603Y-93340603D01*
X88578704Y-93178026D01*
X88804718Y-93057219D01*
X88804720Y-93057218D01*
X89049960Y-92982825D01*
X89193311Y-92968706D01*
X89241094Y-92964000D01*
X89368906Y-92964000D01*
X89416689Y-92968706D01*
X89416689Y-92968706D01*
G37*
G36*
X101616689Y-92968706D02*
X101760040Y-92982825D01*
X102005280Y-93057218D01*
X102005282Y-93057219D01*
X102231296Y-93178026D01*
X102429397Y-93340603D01*
X102591974Y-93538704D01*
X102712781Y-93764718D01*
X102712782Y-93764720D01*
X102787175Y-94009960D01*
X102812294Y-94265000D01*
X102787175Y-94520040D01*
X102728488Y-94713503D01*
X102712781Y-94765282D01*
X102591974Y-94991296D01*
X102429397Y-95189397D01*
X102231296Y-95351974D01*
X102231294Y-95351975D01*
X102005280Y-95472782D01*
X101760040Y-95547175D01*
X101616689Y-95561294D01*
X101568906Y-95566000D01*
X101441094Y-95566000D01*
X101393311Y-95561294D01*
X101249960Y-95547175D01*
X101004720Y-95472782D01*
X100778706Y-95351975D01*
X100778704Y-95351974D01*
X100580603Y-95189397D01*
X100418026Y-94991296D01*
X100297219Y-94765282D01*
X100281512Y-94713503D01*
X100222825Y-94520040D01*
X100197706Y-94265000D01*
X100222825Y-94009960D01*
X100297218Y-93764720D01*
X100297219Y-93764718D01*
X100418026Y-93538704D01*
X100580603Y-93340603D01*
X100778704Y-93178026D01*
X101004718Y-93057219D01*
X101004720Y-93057218D01*
X101249960Y-92982825D01*
X101393311Y-92968706D01*
X101441094Y-92964000D01*
X101568906Y-92964000D01*
X101616689Y-92968706D01*
X101616689Y-92968706D01*
G37*
G36*
X158890562Y-92204681D02*
X158925477Y-92215273D01*
X158957665Y-92232478D01*
X158985873Y-92255627D01*
X159009022Y-92283835D01*
X159026227Y-92316023D01*
X159036819Y-92350938D01*
X159041000Y-92393395D01*
X159041000Y-93534605D01*
X159036819Y-93577062D01*
X159026227Y-93611977D01*
X159009022Y-93644165D01*
X158985873Y-93672373D01*
X158957665Y-93695522D01*
X158925477Y-93712727D01*
X158890562Y-93723319D01*
X158848105Y-93727500D01*
X157381895Y-93727500D01*
X157339438Y-93723319D01*
X157304523Y-93712727D01*
X157272335Y-93695522D01*
X157244127Y-93672373D01*
X157220978Y-93644165D01*
X157203773Y-93611977D01*
X157193181Y-93577062D01*
X157189000Y-93534605D01*
X157189000Y-92393395D01*
X157193181Y-92350938D01*
X157203773Y-92316023D01*
X157220978Y-92283835D01*
X157244127Y-92255627D01*
X157272335Y-92232478D01*
X157304523Y-92215273D01*
X157339438Y-92204681D01*
X157381895Y-92200500D01*
X158848105Y-92200500D01*
X158890562Y-92204681D01*
X158890562Y-92204681D01*
G37*
G36*
X143015562Y-92198181D02*
X143050477Y-92208773D01*
X143082665Y-92225978D01*
X143110873Y-92249127D01*
X143134022Y-92277335D01*
X143151227Y-92309523D01*
X143161819Y-92344438D01*
X143166000Y-92386895D01*
X143166000Y-93528105D01*
X143161819Y-93570562D01*
X143151227Y-93605477D01*
X143134022Y-93637665D01*
X143110873Y-93665873D01*
X143082665Y-93689022D01*
X143050477Y-93706227D01*
X143015562Y-93716819D01*
X142973105Y-93721000D01*
X141506895Y-93721000D01*
X141464438Y-93716819D01*
X141429523Y-93706227D01*
X141397335Y-93689022D01*
X141369127Y-93665873D01*
X141345978Y-93637665D01*
X141328773Y-93605477D01*
X141318181Y-93570562D01*
X141314000Y-93528105D01*
X141314000Y-92386895D01*
X141318181Y-92344438D01*
X141328773Y-92309523D01*
X141345978Y-92277335D01*
X141369127Y-92249127D01*
X141397335Y-92225978D01*
X141429523Y-92208773D01*
X141464438Y-92198181D01*
X141506895Y-92194000D01*
X142973105Y-92194000D01*
X143015562Y-92198181D01*
X143015562Y-92198181D01*
G37*
G36*
X147079562Y-92168181D02*
X147114477Y-92178773D01*
X147146665Y-92195978D01*
X147174873Y-92219127D01*
X147198022Y-92247335D01*
X147215227Y-92279523D01*
X147225819Y-92314438D01*
X147230000Y-92356895D01*
X147230000Y-93498105D01*
X147225819Y-93540562D01*
X147215227Y-93575477D01*
X147198022Y-93607665D01*
X147174873Y-93635873D01*
X147146665Y-93659022D01*
X147114477Y-93676227D01*
X147079562Y-93686819D01*
X147037105Y-93691000D01*
X145570895Y-93691000D01*
X145528438Y-93686819D01*
X145493523Y-93676227D01*
X145461335Y-93659022D01*
X145433127Y-93635873D01*
X145409978Y-93607665D01*
X145392773Y-93575477D01*
X145382181Y-93540562D01*
X145378000Y-93498105D01*
X145378000Y-92356895D01*
X145382181Y-92314438D01*
X145392773Y-92279523D01*
X145409978Y-92247335D01*
X145433127Y-92219127D01*
X145461335Y-92195978D01*
X145493523Y-92178773D01*
X145528438Y-92168181D01*
X145570895Y-92164000D01*
X147037105Y-92164000D01*
X147079562Y-92168181D01*
X147079562Y-92168181D01*
G37*
G36*
X109542143Y-92023243D02*
X109690103Y-92084531D01*
X109747995Y-92123213D01*
X109823258Y-92173502D01*
X109936500Y-92286744D01*
X109975050Y-92344438D01*
X110025471Y-92419899D01*
X110086759Y-92567859D01*
X110118001Y-92724926D01*
X110118001Y-92885076D01*
X110086759Y-93042143D01*
X110025471Y-93190103D01*
X110004826Y-93221000D01*
X109936500Y-93323258D01*
X109823258Y-93436500D01*
X109765086Y-93475369D01*
X109690103Y-93525471D01*
X109542143Y-93586759D01*
X109385076Y-93618001D01*
X109224926Y-93618001D01*
X109067859Y-93586759D01*
X108919899Y-93525471D01*
X108844916Y-93475369D01*
X108786744Y-93436500D01*
X108673502Y-93323258D01*
X108605176Y-93221000D01*
X108584531Y-93190103D01*
X108523243Y-93042143D01*
X108492001Y-92885076D01*
X108492001Y-92724926D01*
X108523243Y-92567859D01*
X108584531Y-92419899D01*
X108634952Y-92344438D01*
X108673502Y-92286744D01*
X108786744Y-92173502D01*
X108862007Y-92123213D01*
X108919899Y-92084531D01*
X109067859Y-92023243D01*
X109224926Y-91992001D01*
X109385076Y-91992001D01*
X109542143Y-92023243D01*
X109542143Y-92023243D01*
G37*
G36*
X137482143Y-92023243D02*
X137630103Y-92084531D01*
X137687995Y-92123213D01*
X137763258Y-92173502D01*
X137876500Y-92286744D01*
X137915050Y-92344438D01*
X137965471Y-92419899D01*
X138026759Y-92567859D01*
X138058001Y-92724926D01*
X138058001Y-92885076D01*
X138026759Y-93042143D01*
X137965471Y-93190103D01*
X137944826Y-93221000D01*
X137876500Y-93323258D01*
X137763258Y-93436500D01*
X137705086Y-93475369D01*
X137630103Y-93525471D01*
X137482143Y-93586759D01*
X137325076Y-93618001D01*
X137164926Y-93618001D01*
X137007859Y-93586759D01*
X136859899Y-93525471D01*
X136784916Y-93475369D01*
X136726744Y-93436500D01*
X136613502Y-93323258D01*
X136545176Y-93221000D01*
X136524531Y-93190103D01*
X136463243Y-93042143D01*
X136432001Y-92885076D01*
X136432001Y-92724926D01*
X136463243Y-92567859D01*
X136524531Y-92419899D01*
X136574952Y-92344438D01*
X136613502Y-92286744D01*
X136726744Y-92173502D01*
X136802007Y-92123213D01*
X136859899Y-92084531D01*
X137007859Y-92023243D01*
X137164926Y-91992001D01*
X137325076Y-91992001D01*
X137482143Y-92023243D01*
X137482143Y-92023243D01*
G37*
G36*
X150411000Y-93271000D02*
X149309000Y-93271000D01*
X149309000Y-92169000D01*
X150411000Y-92169000D01*
X150411000Y-93271000D01*
X150411000Y-93271000D01*
G37*
G36*
X170320809Y-90752500D02*
X170544903Y-90797075D01*
X170772571Y-90891378D01*
X170913392Y-90985472D01*
X170977469Y-91028287D01*
X171151713Y-91202531D01*
X171151715Y-91202534D01*
X171288622Y-91407429D01*
X171382925Y-91635097D01*
X171431000Y-91876787D01*
X171431000Y-92123213D01*
X171382925Y-92364903D01*
X171288622Y-92592571D01*
X171200185Y-92724926D01*
X171151713Y-92797469D01*
X170977469Y-92971713D01*
X170977466Y-92971715D01*
X170772571Y-93108622D01*
X170544903Y-93202925D01*
X170363635Y-93238981D01*
X170303214Y-93251000D01*
X170056786Y-93251000D01*
X169996365Y-93238981D01*
X169815097Y-93202925D01*
X169587429Y-93108622D01*
X169382534Y-92971715D01*
X169382531Y-92971713D01*
X169208287Y-92797469D01*
X169159815Y-92724926D01*
X169071378Y-92592571D01*
X168977075Y-92364903D01*
X168929000Y-92123213D01*
X168929000Y-91876787D01*
X168977075Y-91635097D01*
X169071378Y-91407429D01*
X169208285Y-91202534D01*
X169208287Y-91202531D01*
X169382531Y-91028287D01*
X169446608Y-90985472D01*
X169587429Y-90891378D01*
X169815097Y-90797075D01*
X170039191Y-90752500D01*
X170056786Y-90749000D01*
X170303214Y-90749000D01*
X170320809Y-90752500D01*
X170320809Y-90752500D01*
G37*
G36*
X162476000Y-93221000D02*
X161374000Y-93221000D01*
X161374000Y-92119000D01*
X162476000Y-92119000D01*
X162476000Y-93221000D01*
X162476000Y-93221000D01*
G37*
G36*
X153214565Y-90429389D02*
X153405834Y-90508615D01*
X153577976Y-90623637D01*
X153724363Y-90770024D01*
X153839385Y-90942166D01*
X153918611Y-91133435D01*
X153959000Y-91336484D01*
X153959000Y-91543516D01*
X153918611Y-91746565D01*
X153839385Y-91937834D01*
X153724363Y-92109976D01*
X153577976Y-92256363D01*
X153405834Y-92371385D01*
X153214565Y-92450611D01*
X153011516Y-92491000D01*
X152804484Y-92491000D01*
X152601435Y-92450611D01*
X152410166Y-92371385D01*
X152238024Y-92256363D01*
X152091637Y-92109976D01*
X151976615Y-91937834D01*
X151897389Y-91746565D01*
X151857000Y-91543516D01*
X151857000Y-91336484D01*
X151897389Y-91133435D01*
X151976615Y-90942166D01*
X152091637Y-90770024D01*
X152238024Y-90623637D01*
X152410166Y-90508615D01*
X152601435Y-90429389D01*
X152804484Y-90389000D01*
X153011516Y-90389000D01*
X153214565Y-90429389D01*
X153214565Y-90429389D01*
G37*
G36*
X109542143Y-89483243D02*
X109690103Y-89544531D01*
X109757131Y-89589318D01*
X109823258Y-89633502D01*
X109936500Y-89746744D01*
X109980684Y-89812871D01*
X110025471Y-89879899D01*
X110086759Y-90027859D01*
X110118001Y-90184926D01*
X110118001Y-90345076D01*
X110086759Y-90502143D01*
X110025471Y-90650103D01*
X109993886Y-90697373D01*
X109945341Y-90770027D01*
X109936499Y-90783259D01*
X109823259Y-90896499D01*
X109690103Y-90985471D01*
X109542143Y-91046759D01*
X109385076Y-91078001D01*
X109224926Y-91078001D01*
X109067859Y-91046759D01*
X108919899Y-90985471D01*
X108786743Y-90896499D01*
X108673503Y-90783259D01*
X108664662Y-90770027D01*
X108616116Y-90697373D01*
X108584531Y-90650103D01*
X108523243Y-90502143D01*
X108492001Y-90345076D01*
X108492001Y-90184926D01*
X108523243Y-90027859D01*
X108584531Y-89879899D01*
X108629318Y-89812871D01*
X108673502Y-89746744D01*
X108786744Y-89633502D01*
X108852871Y-89589318D01*
X108919899Y-89544531D01*
X109067859Y-89483243D01*
X109224926Y-89452001D01*
X109385076Y-89452001D01*
X109542143Y-89483243D01*
X109542143Y-89483243D01*
G37*
G36*
X137482143Y-89483243D02*
X137630103Y-89544531D01*
X137697131Y-89589318D01*
X137763258Y-89633502D01*
X137876500Y-89746744D01*
X137920684Y-89812871D01*
X137965471Y-89879899D01*
X138026759Y-90027859D01*
X138058001Y-90184926D01*
X138058001Y-90345076D01*
X138026759Y-90502143D01*
X137965471Y-90650103D01*
X137933886Y-90697373D01*
X137885341Y-90770027D01*
X137876499Y-90783259D01*
X137763259Y-90896499D01*
X137630103Y-90985471D01*
X137482143Y-91046759D01*
X137325076Y-91078001D01*
X137164926Y-91078001D01*
X137007859Y-91046759D01*
X136859899Y-90985471D01*
X136726743Y-90896499D01*
X136613503Y-90783259D01*
X136604662Y-90770027D01*
X136556116Y-90697373D01*
X136524531Y-90650103D01*
X136463243Y-90502143D01*
X136432001Y-90345076D01*
X136432001Y-90184926D01*
X136463243Y-90027859D01*
X136524531Y-89879899D01*
X136569318Y-89812871D01*
X136613502Y-89746744D01*
X136726744Y-89633502D01*
X136792871Y-89589318D01*
X136859899Y-89544531D01*
X137007859Y-89483243D01*
X137164926Y-89452001D01*
X137325076Y-89452001D01*
X137482143Y-89483243D01*
X137482143Y-89483243D01*
G37*
G36*
X150411000Y-90771000D02*
X149309000Y-90771000D01*
X149309000Y-89669000D01*
X150411000Y-89669000D01*
X150411000Y-90771000D01*
X150411000Y-90771000D01*
G37*
G36*
X158890562Y-89229681D02*
X158925477Y-89240273D01*
X158957665Y-89257478D01*
X158985873Y-89280627D01*
X159009022Y-89308835D01*
X159026227Y-89341023D01*
X159036819Y-89375938D01*
X159041000Y-89418395D01*
X159041000Y-90559605D01*
X159036819Y-90602062D01*
X159026227Y-90636977D01*
X159009022Y-90669165D01*
X158985873Y-90697373D01*
X158957665Y-90720522D01*
X158925477Y-90737727D01*
X158890562Y-90748319D01*
X158848105Y-90752500D01*
X157381895Y-90752500D01*
X157339438Y-90748319D01*
X157304523Y-90737727D01*
X157272335Y-90720522D01*
X157244127Y-90697373D01*
X157220978Y-90669165D01*
X157203773Y-90636977D01*
X157193181Y-90602062D01*
X157189000Y-90559605D01*
X157189000Y-89418395D01*
X157193181Y-89375938D01*
X157203773Y-89341023D01*
X157220978Y-89308835D01*
X157244127Y-89280627D01*
X157272335Y-89257478D01*
X157304523Y-89240273D01*
X157339438Y-89229681D01*
X157381895Y-89225500D01*
X158848105Y-89225500D01*
X158890562Y-89229681D01*
X158890562Y-89229681D01*
G37*
G36*
X143015562Y-89223181D02*
X143050477Y-89233773D01*
X143082665Y-89250978D01*
X143110873Y-89274127D01*
X143134022Y-89302335D01*
X143151227Y-89334523D01*
X143161819Y-89369438D01*
X143166000Y-89411895D01*
X143166000Y-90553105D01*
X143161819Y-90595562D01*
X143151228Y-90630475D01*
X143134022Y-90662665D01*
X143110873Y-90690873D01*
X143082665Y-90714022D01*
X143050477Y-90731227D01*
X143015562Y-90741819D01*
X142973105Y-90746000D01*
X141506895Y-90746000D01*
X141464438Y-90741819D01*
X141429523Y-90731227D01*
X141397335Y-90714022D01*
X141369127Y-90690873D01*
X141345978Y-90662665D01*
X141328772Y-90630475D01*
X141318181Y-90595562D01*
X141314000Y-90553105D01*
X141314000Y-89411895D01*
X141318181Y-89369438D01*
X141328773Y-89334523D01*
X141345978Y-89302335D01*
X141369127Y-89274127D01*
X141397335Y-89250978D01*
X141429523Y-89233773D01*
X141464438Y-89223181D01*
X141506895Y-89219000D01*
X142973105Y-89219000D01*
X143015562Y-89223181D01*
X143015562Y-89223181D01*
G37*
G36*
X162476000Y-90721000D02*
X161374000Y-90721000D01*
X161374000Y-89619000D01*
X162476000Y-89619000D01*
X162476000Y-90721000D01*
X162476000Y-90721000D01*
G37*
G36*
X147079562Y-89193181D02*
X147114477Y-89203773D01*
X147146665Y-89220978D01*
X147174873Y-89244127D01*
X147198022Y-89272335D01*
X147215227Y-89304523D01*
X147225819Y-89339438D01*
X147230000Y-89381895D01*
X147230000Y-90523105D01*
X147225819Y-90565562D01*
X147215227Y-90600477D01*
X147198022Y-90632665D01*
X147174873Y-90660873D01*
X147146665Y-90684022D01*
X147114477Y-90701227D01*
X147079562Y-90711819D01*
X147037105Y-90716000D01*
X145570895Y-90716000D01*
X145528438Y-90711819D01*
X145493523Y-90701227D01*
X145461335Y-90684022D01*
X145433127Y-90660873D01*
X145409978Y-90632665D01*
X145392773Y-90600477D01*
X145382181Y-90565562D01*
X145378000Y-90523105D01*
X145378000Y-89381895D01*
X145382181Y-89339438D01*
X145392773Y-89304523D01*
X145409978Y-89272335D01*
X145433127Y-89244127D01*
X145461335Y-89220978D01*
X145493523Y-89203773D01*
X145528438Y-89193181D01*
X145570895Y-89189000D01*
X147037105Y-89189000D01*
X147079562Y-89193181D01*
X147079562Y-89193181D01*
G37*
G36*
X170363636Y-87261019D02*
X170544903Y-87297075D01*
X170772571Y-87391378D01*
X170916963Y-87487858D01*
X170977469Y-87528287D01*
X171151713Y-87702531D01*
X171151715Y-87702534D01*
X171288622Y-87907429D01*
X171382925Y-88135097D01*
X171418981Y-88316365D01*
X171426965Y-88356499D01*
X171431000Y-88376787D01*
X171431000Y-88623213D01*
X171382925Y-88864903D01*
X171288622Y-89092571D01*
X171152332Y-89296542D01*
X171151713Y-89297469D01*
X170977469Y-89471713D01*
X170977466Y-89471715D01*
X170772571Y-89608622D01*
X170544903Y-89702925D01*
X170363635Y-89738981D01*
X170303214Y-89751000D01*
X170056786Y-89751000D01*
X169996365Y-89738981D01*
X169815097Y-89702925D01*
X169587429Y-89608622D01*
X169382534Y-89471715D01*
X169382531Y-89471713D01*
X169208287Y-89297469D01*
X169207668Y-89296542D01*
X169071378Y-89092571D01*
X168977075Y-88864903D01*
X168929000Y-88623213D01*
X168929000Y-88376787D01*
X168933036Y-88356499D01*
X168941019Y-88316365D01*
X168977075Y-88135097D01*
X169071378Y-87907429D01*
X169208285Y-87702534D01*
X169208287Y-87702531D01*
X169382531Y-87528287D01*
X169443037Y-87487858D01*
X169587429Y-87391378D01*
X169815097Y-87297075D01*
X169996365Y-87261019D01*
X170056786Y-87249000D01*
X170303214Y-87249000D01*
X170363636Y-87261019D01*
X170363636Y-87261019D01*
G37*
G36*
X104806000Y-89566000D02*
X102204000Y-89566000D01*
X102204000Y-86964000D01*
X104806000Y-86964000D01*
X104806000Y-89566000D01*
X104806000Y-89566000D01*
G37*
G36*
X109542143Y-86943243D02*
X109690103Y-87004531D01*
X109823259Y-87093503D01*
X109936499Y-87206743D01*
X110025471Y-87339899D01*
X110086759Y-87487859D01*
X110118001Y-87644926D01*
X110118001Y-87805076D01*
X110086759Y-87962143D01*
X110025471Y-88110103D01*
X109980684Y-88177131D01*
X109936500Y-88243258D01*
X109823258Y-88356500D01*
X109792896Y-88376787D01*
X109690103Y-88445471D01*
X109542143Y-88506759D01*
X109385076Y-88538001D01*
X109224926Y-88538001D01*
X109067859Y-88506759D01*
X108919899Y-88445471D01*
X108817106Y-88376787D01*
X108786744Y-88356500D01*
X108673502Y-88243258D01*
X108629318Y-88177131D01*
X108584531Y-88110103D01*
X108523243Y-87962143D01*
X108492001Y-87805076D01*
X108492001Y-87644926D01*
X108523243Y-87487859D01*
X108584531Y-87339899D01*
X108673503Y-87206743D01*
X108786743Y-87093503D01*
X108919899Y-87004531D01*
X109067859Y-86943243D01*
X109224926Y-86912001D01*
X109385076Y-86912001D01*
X109542143Y-86943243D01*
X109542143Y-86943243D01*
G37*
G36*
X137482143Y-86943243D02*
X137630103Y-87004531D01*
X137763259Y-87093503D01*
X137876499Y-87206743D01*
X137965471Y-87339899D01*
X138026759Y-87487859D01*
X138058001Y-87644926D01*
X138058001Y-87805076D01*
X138026759Y-87962143D01*
X137965471Y-88110103D01*
X137920684Y-88177131D01*
X137876500Y-88243258D01*
X137763258Y-88356500D01*
X137732896Y-88376787D01*
X137630103Y-88445471D01*
X137482143Y-88506759D01*
X137325076Y-88538001D01*
X137164926Y-88538001D01*
X137007859Y-88506759D01*
X136859899Y-88445471D01*
X136757106Y-88376787D01*
X136726744Y-88356500D01*
X136613502Y-88243258D01*
X136569318Y-88177131D01*
X136524531Y-88110103D01*
X136463243Y-87962143D01*
X136432001Y-87805076D01*
X136432001Y-87644926D01*
X136463243Y-87487859D01*
X136524531Y-87339899D01*
X136613503Y-87206743D01*
X136726743Y-87093503D01*
X136859899Y-87004531D01*
X137007859Y-86943243D01*
X137164926Y-86912001D01*
X137325076Y-86912001D01*
X137482143Y-86943243D01*
X137482143Y-86943243D01*
G37*
G36*
X146825562Y-85285681D02*
X146860477Y-85296273D01*
X146892665Y-85313478D01*
X146920873Y-85336627D01*
X146944022Y-85364835D01*
X146961227Y-85397023D01*
X146971819Y-85431938D01*
X146976000Y-85474395D01*
X146976000Y-86615605D01*
X146971819Y-86658062D01*
X146961227Y-86692977D01*
X146944022Y-86725165D01*
X146920873Y-86753373D01*
X146892665Y-86776522D01*
X146860477Y-86793727D01*
X146825562Y-86804319D01*
X146783105Y-86808500D01*
X145316895Y-86808500D01*
X145274438Y-86804319D01*
X145239523Y-86793727D01*
X145207335Y-86776522D01*
X145179127Y-86753373D01*
X145155978Y-86725165D01*
X145138773Y-86692977D01*
X145128181Y-86658062D01*
X145124000Y-86615605D01*
X145124000Y-85474395D01*
X145128181Y-85431938D01*
X145138773Y-85397023D01*
X145155978Y-85364835D01*
X145179127Y-85336627D01*
X145207335Y-85313478D01*
X145239523Y-85296273D01*
X145274438Y-85285681D01*
X145316895Y-85281500D01*
X146783105Y-85281500D01*
X146825562Y-85285681D01*
X146825562Y-85285681D01*
G37*
G36*
X143015562Y-85198181D02*
X143050477Y-85208773D01*
X143082665Y-85225978D01*
X143110873Y-85249127D01*
X143134022Y-85277335D01*
X143151227Y-85309523D01*
X143161818Y-85344437D01*
X143166000Y-85386895D01*
X143166000Y-86528105D01*
X143161819Y-86570562D01*
X143151227Y-86605477D01*
X143134022Y-86637665D01*
X143110873Y-86665873D01*
X143082665Y-86689022D01*
X143050477Y-86706227D01*
X143015562Y-86716819D01*
X142973105Y-86721000D01*
X141506895Y-86721000D01*
X141464438Y-86716819D01*
X141429523Y-86706227D01*
X141397335Y-86689022D01*
X141369127Y-86665873D01*
X141345978Y-86637665D01*
X141328773Y-86605477D01*
X141318181Y-86570562D01*
X141314000Y-86528105D01*
X141314000Y-85386895D01*
X141318182Y-85344437D01*
X141328773Y-85309523D01*
X141345978Y-85277335D01*
X141369127Y-85249127D01*
X141397335Y-85225978D01*
X141429523Y-85208773D01*
X141464438Y-85198181D01*
X141506895Y-85194000D01*
X142973105Y-85194000D01*
X143015562Y-85198181D01*
X143015562Y-85198181D01*
G37*
G36*
X158763562Y-85056181D02*
X158798477Y-85066773D01*
X158830665Y-85083978D01*
X158858873Y-85107127D01*
X158882022Y-85135335D01*
X158899227Y-85167523D01*
X158909819Y-85202438D01*
X158914000Y-85244895D01*
X158914000Y-86386105D01*
X158909819Y-86428562D01*
X158899227Y-86463477D01*
X158882022Y-86495665D01*
X158858873Y-86523873D01*
X158830665Y-86547022D01*
X158798477Y-86564227D01*
X158763562Y-86574819D01*
X158721105Y-86579000D01*
X157254895Y-86579000D01*
X157212438Y-86574819D01*
X157177523Y-86564227D01*
X157145335Y-86547022D01*
X157117127Y-86523873D01*
X157093978Y-86495665D01*
X157076773Y-86463477D01*
X157066181Y-86428562D01*
X157062000Y-86386105D01*
X157062000Y-85244895D01*
X157066181Y-85202438D01*
X157076773Y-85167523D01*
X157093978Y-85135335D01*
X157117127Y-85107127D01*
X157145335Y-85083978D01*
X157177523Y-85066773D01*
X157212438Y-85056181D01*
X157254895Y-85052000D01*
X158721105Y-85052000D01*
X158763562Y-85056181D01*
X158763562Y-85056181D01*
G37*
G36*
X170363635Y-83761019D02*
X170544903Y-83797075D01*
X170772571Y-83891378D01*
X170967214Y-84021435D01*
X170977469Y-84028287D01*
X171151713Y-84202531D01*
X171151715Y-84202534D01*
X171288622Y-84407429D01*
X171382925Y-84635097D01*
X171415706Y-84799899D01*
X171431000Y-84876786D01*
X171431000Y-85123214D01*
X171418981Y-85183636D01*
X171382925Y-85364903D01*
X171288622Y-85592571D01*
X171214663Y-85703258D01*
X171151713Y-85797469D01*
X170977469Y-85971713D01*
X170977466Y-85971715D01*
X170772571Y-86108622D01*
X170544903Y-86202925D01*
X170363635Y-86238981D01*
X170303214Y-86251000D01*
X170056786Y-86251000D01*
X169996365Y-86238981D01*
X169815097Y-86202925D01*
X169587429Y-86108622D01*
X169382534Y-85971715D01*
X169382531Y-85971713D01*
X169208287Y-85797469D01*
X169145337Y-85703258D01*
X169071378Y-85592571D01*
X168977075Y-85364903D01*
X168941019Y-85183636D01*
X168929000Y-85123214D01*
X168929000Y-84876786D01*
X168944294Y-84799899D01*
X168977075Y-84635097D01*
X169071378Y-84407429D01*
X169208285Y-84202534D01*
X169208287Y-84202531D01*
X169382531Y-84028287D01*
X169392786Y-84021435D01*
X169587429Y-83891378D01*
X169815097Y-83797075D01*
X169996365Y-83761019D01*
X170056786Y-83749000D01*
X170303214Y-83749000D01*
X170363635Y-83761019D01*
X170363635Y-83761019D01*
G37*
G36*
X150411000Y-86141000D02*
X149309000Y-86141000D01*
X149309000Y-85039000D01*
X150411000Y-85039000D01*
X150411000Y-86141000D01*
X150411000Y-86141000D01*
G37*
G36*
X162603000Y-86129000D02*
X161501000Y-86129000D01*
X161501000Y-85027000D01*
X162603000Y-85027000D01*
X162603000Y-86129000D01*
X162603000Y-86129000D01*
G37*
G36*
X137482143Y-84403243D02*
X137630103Y-84464531D01*
X137763259Y-84553503D01*
X137876499Y-84666743D01*
X137965471Y-84799899D01*
X138026759Y-84947859D01*
X138058001Y-85104926D01*
X138058001Y-85265076D01*
X138026759Y-85422143D01*
X137965471Y-85570103D01*
X137876499Y-85703259D01*
X137763259Y-85816499D01*
X137630103Y-85905471D01*
X137482143Y-85966759D01*
X137325076Y-85998001D01*
X137164926Y-85998001D01*
X137007859Y-85966759D01*
X136859899Y-85905471D01*
X136726743Y-85816499D01*
X136613503Y-85703259D01*
X136524531Y-85570103D01*
X136463243Y-85422143D01*
X136432001Y-85265076D01*
X136432001Y-85104926D01*
X136463243Y-84947859D01*
X136524531Y-84799899D01*
X136613503Y-84666743D01*
X136726743Y-84553503D01*
X136859899Y-84464531D01*
X137007859Y-84403243D01*
X137164926Y-84372001D01*
X137325076Y-84372001D01*
X137482143Y-84403243D01*
X137482143Y-84403243D01*
G37*
G36*
X109542143Y-84403243D02*
X109690103Y-84464531D01*
X109823259Y-84553503D01*
X109936499Y-84666743D01*
X110025471Y-84799899D01*
X110086759Y-84947859D01*
X110118001Y-85104926D01*
X110118001Y-85265076D01*
X110086759Y-85422143D01*
X110025471Y-85570103D01*
X109936499Y-85703259D01*
X109823259Y-85816499D01*
X109690103Y-85905471D01*
X109542143Y-85966759D01*
X109385076Y-85998001D01*
X109224926Y-85998001D01*
X109067859Y-85966759D01*
X108919899Y-85905471D01*
X108786743Y-85816499D01*
X108673503Y-85703259D01*
X108584531Y-85570103D01*
X108523243Y-85422143D01*
X108492001Y-85265076D01*
X108492001Y-85104926D01*
X108523243Y-84947859D01*
X108584531Y-84799899D01*
X108673503Y-84666743D01*
X108786743Y-84553503D01*
X108919899Y-84464531D01*
X109067859Y-84403243D01*
X109224926Y-84372001D01*
X109385076Y-84372001D01*
X109542143Y-84403243D01*
X109542143Y-84403243D01*
G37*
G36*
X153214565Y-83317389D02*
X153405834Y-83396615D01*
X153577976Y-83511637D01*
X153724363Y-83658024D01*
X153839385Y-83830166D01*
X153918611Y-84021435D01*
X153959000Y-84224484D01*
X153959000Y-84431516D01*
X153918611Y-84634565D01*
X153839385Y-84825834D01*
X153724363Y-84997976D01*
X153577976Y-85144363D01*
X153405834Y-85259385D01*
X153214565Y-85338611D01*
X153011516Y-85379000D01*
X152804484Y-85379000D01*
X152601435Y-85338611D01*
X152410166Y-85259385D01*
X152238024Y-85144363D01*
X152091637Y-84997976D01*
X151976615Y-84825834D01*
X151897389Y-84634565D01*
X151857000Y-84431516D01*
X151857000Y-84224484D01*
X151897389Y-84021435D01*
X151976615Y-83830166D01*
X152091637Y-83658024D01*
X152238024Y-83511637D01*
X152410166Y-83396615D01*
X152601435Y-83317389D01*
X152804484Y-83277000D01*
X153011516Y-83277000D01*
X153214565Y-83317389D01*
X153214565Y-83317389D01*
G37*
G36*
X146825562Y-82310681D02*
X146860477Y-82321273D01*
X146892665Y-82338478D01*
X146920873Y-82361627D01*
X146944022Y-82389835D01*
X146961227Y-82422023D01*
X146971819Y-82456938D01*
X146976000Y-82499395D01*
X146976000Y-83640605D01*
X146971819Y-83683062D01*
X146961227Y-83717977D01*
X146944022Y-83750165D01*
X146920873Y-83778373D01*
X146892665Y-83801522D01*
X146860477Y-83818727D01*
X146825562Y-83829319D01*
X146783105Y-83833500D01*
X145316895Y-83833500D01*
X145274438Y-83829319D01*
X145239523Y-83818727D01*
X145207335Y-83801522D01*
X145179127Y-83778373D01*
X145155978Y-83750165D01*
X145138773Y-83717977D01*
X145128181Y-83683062D01*
X145124000Y-83640605D01*
X145124000Y-82499395D01*
X145128181Y-82456938D01*
X145138773Y-82422023D01*
X145155978Y-82389835D01*
X145179127Y-82361627D01*
X145207335Y-82338478D01*
X145239523Y-82321273D01*
X145274438Y-82310681D01*
X145316895Y-82306500D01*
X146783105Y-82306500D01*
X146825562Y-82310681D01*
X146825562Y-82310681D01*
G37*
G36*
X143015562Y-82223181D02*
X143050477Y-82233773D01*
X143082665Y-82250978D01*
X143110873Y-82274127D01*
X143134022Y-82302335D01*
X143151227Y-82334523D01*
X143161818Y-82369437D01*
X143166000Y-82411895D01*
X143166000Y-83553105D01*
X143161819Y-83595562D01*
X143151227Y-83630477D01*
X143134022Y-83662665D01*
X143110873Y-83690873D01*
X143082665Y-83714022D01*
X143050477Y-83731227D01*
X143015562Y-83741819D01*
X142973105Y-83746000D01*
X141506895Y-83746000D01*
X141464438Y-83741819D01*
X141429523Y-83731227D01*
X141397335Y-83714022D01*
X141369127Y-83690873D01*
X141345978Y-83662665D01*
X141328773Y-83630477D01*
X141318181Y-83595562D01*
X141314000Y-83553105D01*
X141314000Y-82411895D01*
X141318182Y-82369437D01*
X141328773Y-82334523D01*
X141345978Y-82302335D01*
X141369127Y-82274127D01*
X141397335Y-82250978D01*
X141429523Y-82233773D01*
X141464438Y-82223181D01*
X141506895Y-82219000D01*
X142973105Y-82219000D01*
X143015562Y-82223181D01*
X143015562Y-82223181D01*
G37*
G36*
X150411000Y-83641000D02*
X149309000Y-83641000D01*
X149309000Y-82539000D01*
X150411000Y-82539000D01*
X150411000Y-83641000D01*
X150411000Y-83641000D01*
G37*
G36*
X162603000Y-83629000D02*
X161501000Y-83629000D01*
X161501000Y-82527000D01*
X162603000Y-82527000D01*
X162603000Y-83629000D01*
X162603000Y-83629000D01*
G37*
G36*
X158763562Y-82081181D02*
X158798477Y-82091773D01*
X158830665Y-82108978D01*
X158858873Y-82132127D01*
X158882022Y-82160335D01*
X158899227Y-82192523D01*
X158909819Y-82227438D01*
X158914000Y-82269895D01*
X158914000Y-83411105D01*
X158909819Y-83453562D01*
X158899227Y-83488477D01*
X158882022Y-83520665D01*
X158858873Y-83548873D01*
X158830665Y-83572022D01*
X158798477Y-83589227D01*
X158763562Y-83599819D01*
X158721105Y-83604000D01*
X157254895Y-83604000D01*
X157212438Y-83599819D01*
X157177523Y-83589227D01*
X157145335Y-83572022D01*
X157117127Y-83548873D01*
X157093978Y-83520665D01*
X157076773Y-83488477D01*
X157066181Y-83453562D01*
X157062000Y-83411105D01*
X157062000Y-82269895D01*
X157066181Y-82227438D01*
X157076773Y-82192523D01*
X157093978Y-82160335D01*
X157117127Y-82132127D01*
X157145335Y-82108978D01*
X157177523Y-82091773D01*
X157212438Y-82081181D01*
X157254895Y-82077000D01*
X158721105Y-82077000D01*
X158763562Y-82081181D01*
X158763562Y-82081181D01*
G37*
G36*
X89416689Y-80968706D02*
X89560040Y-80982825D01*
X89805280Y-81057218D01*
X89805282Y-81057219D01*
X90031296Y-81178026D01*
X90229397Y-81340603D01*
X90391974Y-81538704D01*
X90512781Y-81764718D01*
X90512782Y-81764720D01*
X90587175Y-82009960D01*
X90612294Y-82265000D01*
X90587175Y-82520040D01*
X90512782Y-82765280D01*
X90512781Y-82765282D01*
X90391974Y-82991296D01*
X90229397Y-83189397D01*
X90031296Y-83351974D01*
X89947777Y-83396616D01*
X89805280Y-83472782D01*
X89560040Y-83547175D01*
X89441480Y-83558852D01*
X89368906Y-83566000D01*
X89241094Y-83566000D01*
X89168520Y-83558852D01*
X89049960Y-83547175D01*
X88804720Y-83472782D01*
X88662223Y-83396616D01*
X88578704Y-83351974D01*
X88380603Y-83189397D01*
X88218026Y-82991296D01*
X88097219Y-82765282D01*
X88097218Y-82765280D01*
X88022825Y-82520040D01*
X87997706Y-82265000D01*
X88022825Y-82009960D01*
X88097218Y-81764720D01*
X88097219Y-81764718D01*
X88218026Y-81538704D01*
X88380603Y-81340603D01*
X88578704Y-81178026D01*
X88804718Y-81057219D01*
X88804720Y-81057218D01*
X89049960Y-80982825D01*
X89193311Y-80968706D01*
X89241094Y-80964000D01*
X89368906Y-80964000D01*
X89416689Y-80968706D01*
X89416689Y-80968706D01*
G37*
G36*
X101616689Y-80968706D02*
X101760040Y-80982825D01*
X102005280Y-81057218D01*
X102005282Y-81057219D01*
X102231296Y-81178026D01*
X102429397Y-81340603D01*
X102591974Y-81538704D01*
X102712781Y-81764718D01*
X102712782Y-81764720D01*
X102787175Y-82009960D01*
X102812294Y-82265000D01*
X102787175Y-82520040D01*
X102712782Y-82765280D01*
X102712781Y-82765282D01*
X102591974Y-82991296D01*
X102429397Y-83189397D01*
X102231296Y-83351974D01*
X102147777Y-83396616D01*
X102005280Y-83472782D01*
X101760040Y-83547175D01*
X101641480Y-83558852D01*
X101568906Y-83566000D01*
X101441094Y-83566000D01*
X101368520Y-83558852D01*
X101249960Y-83547175D01*
X101004720Y-83472782D01*
X100862223Y-83396616D01*
X100778704Y-83351974D01*
X100580603Y-83189397D01*
X100418026Y-82991296D01*
X100297219Y-82765282D01*
X100297218Y-82765280D01*
X100222825Y-82520040D01*
X100197706Y-82265000D01*
X100222825Y-82009960D01*
X100297218Y-81764720D01*
X100297219Y-81764718D01*
X100418026Y-81538704D01*
X100580603Y-81340603D01*
X100778704Y-81178026D01*
X101004718Y-81057219D01*
X101004720Y-81057218D01*
X101249960Y-80982825D01*
X101393311Y-80968706D01*
X101441094Y-80964000D01*
X101568906Y-80964000D01*
X101616689Y-80968706D01*
X101616689Y-80968706D01*
G37*
G36*
X170363636Y-80261019D02*
X170544903Y-80297075D01*
X170772571Y-80391378D01*
X170932141Y-80498000D01*
X170977469Y-80528287D01*
X171151713Y-80702531D01*
X171151715Y-80702534D01*
X171288622Y-80907429D01*
X171382925Y-81135097D01*
X171431000Y-81376787D01*
X171431000Y-81623213D01*
X171382925Y-81864903D01*
X171288622Y-82092571D01*
X171198506Y-82227438D01*
X171151713Y-82297469D01*
X170977469Y-82471713D01*
X170977466Y-82471715D01*
X170772571Y-82608622D01*
X170544903Y-82702925D01*
X170363635Y-82738981D01*
X170303214Y-82751000D01*
X170056786Y-82751000D01*
X169996365Y-82738981D01*
X169815097Y-82702925D01*
X169587429Y-82608622D01*
X169382534Y-82471715D01*
X169382531Y-82471713D01*
X169208287Y-82297469D01*
X169161494Y-82227438D01*
X169071378Y-82092571D01*
X168977075Y-81864903D01*
X168929000Y-81623213D01*
X168929000Y-81376787D01*
X168977075Y-81135097D01*
X169071378Y-80907429D01*
X169208285Y-80702534D01*
X169208287Y-80702531D01*
X169382531Y-80528287D01*
X169427859Y-80498000D01*
X169587429Y-80391378D01*
X169815097Y-80297075D01*
X169996364Y-80261019D01*
X170056786Y-80249000D01*
X170303214Y-80249000D01*
X170363636Y-80261019D01*
X170363636Y-80261019D01*
G37*
G36*
X111463190Y-74807483D02*
X111991138Y-75026166D01*
X112466283Y-75343648D01*
X112870352Y-75747717D01*
X113187834Y-76222862D01*
X113406517Y-76750810D01*
X113518000Y-77311275D01*
X113518000Y-77882725D01*
X113406517Y-78443190D01*
X113187834Y-78971138D01*
X112870352Y-79446283D01*
X112466283Y-79850352D01*
X111991138Y-80167834D01*
X111463190Y-80386517D01*
X110902725Y-80498000D01*
X110331275Y-80498000D01*
X109770810Y-80386517D01*
X109242862Y-80167834D01*
X108767717Y-79850352D01*
X108363648Y-79446283D01*
X108046166Y-78971138D01*
X107827483Y-78443190D01*
X107716000Y-77882725D01*
X107716000Y-77311275D01*
X107827483Y-76750810D01*
X108046166Y-76222862D01*
X108363648Y-75747717D01*
X108767717Y-75343648D01*
X109242862Y-75026166D01*
X109770810Y-74807483D01*
X110331275Y-74696000D01*
X110902725Y-74696000D01*
X111463190Y-74807483D01*
X111463190Y-74807483D01*
G37*
G36*
X136799690Y-74743983D02*
X137327638Y-74962666D01*
X137802783Y-75280148D01*
X138206852Y-75684217D01*
X138524334Y-76159362D01*
X138743017Y-76687310D01*
X138854500Y-77247775D01*
X138854500Y-77819225D01*
X138743017Y-78379690D01*
X138524334Y-78907638D01*
X138206852Y-79382783D01*
X137802783Y-79786852D01*
X137327638Y-80104334D01*
X136799690Y-80323017D01*
X136239225Y-80434500D01*
X135667775Y-80434500D01*
X135107310Y-80323017D01*
X134579362Y-80104334D01*
X134104217Y-79786852D01*
X133700148Y-79382783D01*
X133382666Y-78907638D01*
X133163983Y-78379690D01*
X133052500Y-77819225D01*
X133052500Y-77247775D01*
X133163983Y-76687310D01*
X133382666Y-76159362D01*
X133700148Y-75684217D01*
X134104217Y-75280148D01*
X134579362Y-74962666D01*
X135107310Y-74743983D01*
X135667775Y-74632500D01*
X136239225Y-74632500D01*
X136799690Y-74743983D01*
X136799690Y-74743983D01*
G37*
G36*
X164549452Y-74816523D02*
X164577949Y-74825167D01*
X164604207Y-74839203D01*
X164627226Y-74858094D01*
X164646117Y-74881113D01*
X164660153Y-74907371D01*
X164668797Y-74935868D01*
X164672320Y-74971640D01*
X164672320Y-79206360D01*
X164668797Y-79242132D01*
X164660153Y-79270629D01*
X164646117Y-79296887D01*
X164627226Y-79319906D01*
X164604207Y-79338797D01*
X164577949Y-79352833D01*
X164549452Y-79361477D01*
X164513680Y-79365000D01*
X161528960Y-79365000D01*
X161493188Y-79361477D01*
X161464691Y-79352833D01*
X161438433Y-79338797D01*
X161415414Y-79319906D01*
X161396523Y-79296887D01*
X161382487Y-79270629D01*
X161373843Y-79242132D01*
X161370320Y-79206360D01*
X161370320Y-74971640D01*
X161373843Y-74935868D01*
X161382487Y-74907371D01*
X161396523Y-74881113D01*
X161415414Y-74858094D01*
X161438433Y-74839203D01*
X161464691Y-74825167D01*
X161493188Y-74816523D01*
X161528960Y-74813000D01*
X164513680Y-74813000D01*
X164549452Y-74816523D01*
X164549452Y-74816523D01*
G37*
G36*
X159349452Y-74816523D02*
X159377949Y-74825167D01*
X159404207Y-74839203D01*
X159427226Y-74858094D01*
X159446117Y-74881113D01*
X159460153Y-74907371D01*
X159468797Y-74935868D01*
X159472320Y-74971640D01*
X159472320Y-79206360D01*
X159468797Y-79242132D01*
X159460153Y-79270629D01*
X159446117Y-79296887D01*
X159427226Y-79319906D01*
X159404207Y-79338797D01*
X159377949Y-79352833D01*
X159349452Y-79361477D01*
X159313680Y-79365000D01*
X156328960Y-79365000D01*
X156293188Y-79361477D01*
X156264691Y-79352833D01*
X156238433Y-79338797D01*
X156215414Y-79319906D01*
X156196523Y-79296887D01*
X156182487Y-79270629D01*
X156173843Y-79242132D01*
X156170320Y-79206360D01*
X156170320Y-74971640D01*
X156173843Y-74935868D01*
X156182487Y-74907371D01*
X156196523Y-74881113D01*
X156215414Y-74858094D01*
X156238433Y-74839203D01*
X156264691Y-74825167D01*
X156293188Y-74816523D01*
X156328960Y-74813000D01*
X159313680Y-74813000D01*
X159349452Y-74816523D01*
X159349452Y-74816523D01*
G37*
G36*
X173566190Y-70870483D02*
X174094138Y-71089166D01*
X174569283Y-71406648D01*
X174973352Y-71810717D01*
X175290834Y-72285862D01*
X175509517Y-72813810D01*
X175621000Y-73374275D01*
X175621000Y-73945725D01*
X175509517Y-74506190D01*
X175290834Y-75034138D01*
X174973352Y-75509283D01*
X174569283Y-75913352D01*
X174094138Y-76230834D01*
X173566190Y-76449517D01*
X173005725Y-76561000D01*
X172434275Y-76561000D01*
X171873810Y-76449517D01*
X171345862Y-76230834D01*
X170870717Y-75913352D01*
X170466648Y-75509283D01*
X170149166Y-75034138D01*
X169930483Y-74506190D01*
X169819000Y-73945725D01*
X169819000Y-73374275D01*
X169930483Y-72813810D01*
X170149166Y-72285862D01*
X170466648Y-71810717D01*
X170870717Y-71406648D01*
X171345862Y-71089166D01*
X171873810Y-70870483D01*
X172434275Y-70759000D01*
X173005725Y-70759000D01*
X173566190Y-70870483D01*
X173566190Y-70870483D01*
G37*
G36*
X87206190Y-70870483D02*
X87734138Y-71089166D01*
X88209283Y-71406648D01*
X88613352Y-71810717D01*
X88930834Y-72285862D01*
X89149517Y-72813810D01*
X89261000Y-73374275D01*
X89261000Y-73945725D01*
X89149517Y-74506190D01*
X88930834Y-75034138D01*
X88613352Y-75509283D01*
X88209283Y-75913352D01*
X87734138Y-76230834D01*
X87206190Y-76449517D01*
X86645725Y-76561000D01*
X86074275Y-76561000D01*
X85513810Y-76449517D01*
X84985862Y-76230834D01*
X84510717Y-75913352D01*
X84106648Y-75509283D01*
X83789166Y-75034138D01*
X83570483Y-74506190D01*
X83459000Y-73945725D01*
X83459000Y-73374275D01*
X83570483Y-72813810D01*
X83789166Y-72285862D01*
X84106648Y-71810717D01*
X84510717Y-71406648D01*
X84985862Y-71089166D01*
X85513810Y-70870483D01*
X86074275Y-70759000D01*
X86645725Y-70759000D01*
X87206190Y-70870483D01*
X87206190Y-70870483D01*
G37*
G36*
X103830562Y-74008181D02*
X103865477Y-74018773D01*
X103897665Y-74035978D01*
X103925873Y-74059127D01*
X103949022Y-74087335D01*
X103966227Y-74119523D01*
X103976819Y-74154438D01*
X103981000Y-74196895D01*
X103981000Y-75663105D01*
X103976819Y-75705562D01*
X103966227Y-75740477D01*
X103949022Y-75772665D01*
X103925873Y-75800873D01*
X103897665Y-75824022D01*
X103865477Y-75841227D01*
X103830562Y-75851819D01*
X103788105Y-75856000D01*
X102646895Y-75856000D01*
X102604438Y-75851819D01*
X102569523Y-75841227D01*
X102537335Y-75824022D01*
X102509127Y-75800873D01*
X102485978Y-75772665D01*
X102468773Y-75740477D01*
X102458181Y-75705562D01*
X102454000Y-75663105D01*
X102454000Y-74196895D01*
X102458181Y-74154438D01*
X102468773Y-74119523D01*
X102485978Y-74087335D01*
X102509127Y-74059127D01*
X102537335Y-74035978D01*
X102569523Y-74018773D01*
X102604438Y-74008181D01*
X102646895Y-74004000D01*
X103788105Y-74004000D01*
X103830562Y-74008181D01*
X103830562Y-74008181D01*
G37*
G36*
X100855562Y-74008181D02*
X100890477Y-74018773D01*
X100922665Y-74035978D01*
X100950873Y-74059127D01*
X100974022Y-74087335D01*
X100991227Y-74119523D01*
X101001819Y-74154438D01*
X101006000Y-74196895D01*
X101006000Y-75663105D01*
X101001819Y-75705562D01*
X100991227Y-75740477D01*
X100974022Y-75772665D01*
X100950873Y-75800873D01*
X100922665Y-75824022D01*
X100890477Y-75841227D01*
X100855562Y-75851819D01*
X100813105Y-75856000D01*
X99671895Y-75856000D01*
X99629438Y-75851819D01*
X99594523Y-75841227D01*
X99562335Y-75824022D01*
X99534127Y-75800873D01*
X99510978Y-75772665D01*
X99493773Y-75740477D01*
X99483181Y-75705562D01*
X99479000Y-75663105D01*
X99479000Y-74196895D01*
X99483181Y-74154438D01*
X99493773Y-74119523D01*
X99510978Y-74087335D01*
X99534127Y-74059127D01*
X99562335Y-74035978D01*
X99594523Y-74018773D01*
X99629438Y-74008181D01*
X99671895Y-74004000D01*
X100813105Y-74004000D01*
X100855562Y-74008181D01*
X100855562Y-74008181D01*
G37*
G36*
X95028062Y-72738181D02*
X95062977Y-72748773D01*
X95095165Y-72765978D01*
X95123373Y-72789127D01*
X95146522Y-72817335D01*
X95163727Y-72849523D01*
X95174319Y-72884438D01*
X95178500Y-72926895D01*
X95178500Y-74393105D01*
X95174319Y-74435562D01*
X95163727Y-74470477D01*
X95146522Y-74502665D01*
X95123373Y-74530873D01*
X95095165Y-74554022D01*
X95062977Y-74571227D01*
X95028062Y-74581819D01*
X94985605Y-74586000D01*
X93844395Y-74586000D01*
X93801938Y-74581819D01*
X93767023Y-74571227D01*
X93734835Y-74554022D01*
X93706627Y-74530873D01*
X93683478Y-74502665D01*
X93666273Y-74470477D01*
X93655681Y-74435562D01*
X93651500Y-74393105D01*
X93651500Y-72926895D01*
X93655681Y-72884438D01*
X93666273Y-72849523D01*
X93683478Y-72817335D01*
X93706627Y-72789127D01*
X93734835Y-72765978D01*
X93767023Y-72748773D01*
X93801938Y-72738181D01*
X93844395Y-72734000D01*
X94985605Y-72734000D01*
X95028062Y-72738181D01*
X95028062Y-72738181D01*
G37*
G36*
X92053062Y-72738181D02*
X92087977Y-72748773D01*
X92120165Y-72765978D01*
X92148373Y-72789127D01*
X92171522Y-72817335D01*
X92188727Y-72849523D01*
X92199319Y-72884438D01*
X92203500Y-72926895D01*
X92203500Y-74393105D01*
X92199319Y-74435562D01*
X92188727Y-74470477D01*
X92171522Y-74502665D01*
X92148373Y-74530873D01*
X92120165Y-74554022D01*
X92087977Y-74571227D01*
X92053062Y-74581819D01*
X92010605Y-74586000D01*
X90869395Y-74586000D01*
X90826938Y-74581819D01*
X90792023Y-74571227D01*
X90759835Y-74554022D01*
X90731627Y-74530873D01*
X90708478Y-74502665D01*
X90691273Y-74470477D01*
X90680681Y-74435562D01*
X90676500Y-74393105D01*
X90676500Y-72926895D01*
X90680681Y-72884438D01*
X90691273Y-72849523D01*
X90708478Y-72817335D01*
X90731627Y-72789127D01*
X90759835Y-72765978D01*
X90792023Y-72748773D01*
X90826938Y-72738181D01*
X90869395Y-72734000D01*
X92010605Y-72734000D01*
X92053062Y-72738181D01*
X92053062Y-72738181D01*
G37*
M02*
