M48
;DRILL file {KiCad (5.0.2)-1} date 1/30/2019 9:25:29 PM
;FORMAT={-:-/ absolute / metric / decimal}
FMAT,2
METRIC,TZ
T1C0.750
T2C0.762
T3C1.000
T4C1.200
T5C1.300
T6C3.200
%
G90
G05
T1
X101.409Y-100.711
X102.679Y-100.711
X103.95Y-100.711
T2
X109.305Y-85.185
X109.305Y-87.725
X109.305Y-90.265
X109.305Y-92.805
X109.305Y-95.345
X109.305Y-97.885
X109.305Y-100.425
X109.305Y-102.965
X109.305Y-105.505
X109.305Y-108.045
X109.305Y-110.585
X109.305Y-113.125
X109.305Y-115.665
X109.305Y-118.205
X109.305Y-120.745
X137.245Y-85.185
X137.245Y-87.725
X137.245Y-90.265
X137.245Y-92.805
X137.245Y-95.345
X137.245Y-97.885
X137.245Y-100.425
X137.245Y-102.965
X137.245Y-105.505
X137.245Y-108.045
X137.245Y-110.585
X137.245Y-113.125
X137.245Y-115.665
X137.245Y-118.205
X137.245Y-120.745
T3
X102.87Y-121.92
X102.87Y-124.46
X102.87Y-127.
T4
X170.18Y-81.5
X170.18Y-85.
X170.18Y-88.5
X170.18Y-92.
X170.18Y-95.5
X170.18Y-99.
X170.18Y-102.5
X170.18Y-106.
X170.18Y-109.5
X170.18Y-113.
X170.18Y-116.5
X170.18Y-120.
X170.18Y-123.5
X170.18Y-127.
T5
X88.9Y-104.775
X88.9Y-109.775
X88.9Y-114.775
X88.9Y-119.775
X88.9Y-124.775
X89.305Y-82.265
X89.305Y-94.265
X101.505Y-82.265
X101.505Y-94.265
X103.505Y-88.265
T6
X135.953Y-77.533
X135.953Y-129.603
X86.36Y-134.62
X110.617Y-129.667
X110.617Y-77.597
X172.72Y-73.66
X172.72Y-134.62
X86.36Y-73.66
T0
M30
