G04 #@! TF.GenerationSoftware,KiCad,Pcbnew,(5.0.2)-1*
G04 #@! TF.CreationDate,2019-01-31T17:24:24+01:00*
G04 #@! TF.ProjectId,valve_reporter,76616c76-655f-4726-9570-6f727465722e,rev?*
G04 #@! TF.SameCoordinates,Original*
G04 #@! TF.FileFunction,Paste,Top*
G04 #@! TF.FilePolarity,Positive*
%FSLAX46Y46*%
G04 Gerber Fmt 4.6, Leading zero omitted, Abs format (unit mm)*
G04 Created by KiCad (PCBNEW (5.0.2)-1) date 1/31/2019 5:24:24 PM*
%MOMM*%
%LPD*%
G01*
G04 APERTURE LIST*
%ADD10C,0.100000*%
%ADD11C,1.425000*%
%ADD12C,3.200000*%
%ADD13R,1.000000X1.000000*%
G04 APERTURE END LIST*
D10*
G04 #@! TO.C,C2*
G36*
X146699504Y-92376204D02*
X146723773Y-92379804D01*
X146747571Y-92385765D01*
X146770671Y-92394030D01*
X146792849Y-92404520D01*
X146813893Y-92417133D01*
X146833598Y-92431747D01*
X146851777Y-92448223D01*
X146868253Y-92466402D01*
X146882867Y-92486107D01*
X146895480Y-92507151D01*
X146905970Y-92529329D01*
X146914235Y-92552429D01*
X146920196Y-92576227D01*
X146923796Y-92600496D01*
X146925000Y-92625000D01*
X146925000Y-93550000D01*
X146923796Y-93574504D01*
X146920196Y-93598773D01*
X146914235Y-93622571D01*
X146905970Y-93645671D01*
X146895480Y-93667849D01*
X146882867Y-93688893D01*
X146868253Y-93708598D01*
X146851777Y-93726777D01*
X146833598Y-93743253D01*
X146813893Y-93757867D01*
X146792849Y-93770480D01*
X146770671Y-93780970D01*
X146747571Y-93789235D01*
X146723773Y-93795196D01*
X146699504Y-93798796D01*
X146675000Y-93800000D01*
X145425000Y-93800000D01*
X145400496Y-93798796D01*
X145376227Y-93795196D01*
X145352429Y-93789235D01*
X145329329Y-93780970D01*
X145307151Y-93770480D01*
X145286107Y-93757867D01*
X145266402Y-93743253D01*
X145248223Y-93726777D01*
X145231747Y-93708598D01*
X145217133Y-93688893D01*
X145204520Y-93667849D01*
X145194030Y-93645671D01*
X145185765Y-93622571D01*
X145179804Y-93598773D01*
X145176204Y-93574504D01*
X145175000Y-93550000D01*
X145175000Y-92625000D01*
X145176204Y-92600496D01*
X145179804Y-92576227D01*
X145185765Y-92552429D01*
X145194030Y-92529329D01*
X145204520Y-92507151D01*
X145217133Y-92486107D01*
X145231747Y-92466402D01*
X145248223Y-92448223D01*
X145266402Y-92431747D01*
X145286107Y-92417133D01*
X145307151Y-92404520D01*
X145329329Y-92394030D01*
X145352429Y-92385765D01*
X145376227Y-92379804D01*
X145400496Y-92376204D01*
X145425000Y-92375000D01*
X146675000Y-92375000D01*
X146699504Y-92376204D01*
X146699504Y-92376204D01*
G37*
D11*
X146050000Y-93087500D03*
D10*
G36*
X146699504Y-89401204D02*
X146723773Y-89404804D01*
X146747571Y-89410765D01*
X146770671Y-89419030D01*
X146792849Y-89429520D01*
X146813893Y-89442133D01*
X146833598Y-89456747D01*
X146851777Y-89473223D01*
X146868253Y-89491402D01*
X146882867Y-89511107D01*
X146895480Y-89532151D01*
X146905970Y-89554329D01*
X146914235Y-89577429D01*
X146920196Y-89601227D01*
X146923796Y-89625496D01*
X146925000Y-89650000D01*
X146925000Y-90575000D01*
X146923796Y-90599504D01*
X146920196Y-90623773D01*
X146914235Y-90647571D01*
X146905970Y-90670671D01*
X146895480Y-90692849D01*
X146882867Y-90713893D01*
X146868253Y-90733598D01*
X146851777Y-90751777D01*
X146833598Y-90768253D01*
X146813893Y-90782867D01*
X146792849Y-90795480D01*
X146770671Y-90805970D01*
X146747571Y-90814235D01*
X146723773Y-90820196D01*
X146699504Y-90823796D01*
X146675000Y-90825000D01*
X145425000Y-90825000D01*
X145400496Y-90823796D01*
X145376227Y-90820196D01*
X145352429Y-90814235D01*
X145329329Y-90805970D01*
X145307151Y-90795480D01*
X145286107Y-90782867D01*
X145266402Y-90768253D01*
X145248223Y-90751777D01*
X145231747Y-90733598D01*
X145217133Y-90713893D01*
X145204520Y-90692849D01*
X145194030Y-90670671D01*
X145185765Y-90647571D01*
X145179804Y-90623773D01*
X145176204Y-90599504D01*
X145175000Y-90575000D01*
X145175000Y-89650000D01*
X145176204Y-89625496D01*
X145179804Y-89601227D01*
X145185765Y-89577429D01*
X145194030Y-89554329D01*
X145204520Y-89532151D01*
X145217133Y-89511107D01*
X145231747Y-89491402D01*
X145248223Y-89473223D01*
X145266402Y-89456747D01*
X145286107Y-89442133D01*
X145307151Y-89429520D01*
X145329329Y-89419030D01*
X145352429Y-89410765D01*
X145376227Y-89404804D01*
X145400496Y-89401204D01*
X145425000Y-89400000D01*
X146675000Y-89400000D01*
X146699504Y-89401204D01*
X146699504Y-89401204D01*
G37*
D11*
X146050000Y-90112500D03*
G04 #@! TD*
D10*
G04 #@! TO.C,C3*
G36*
X146699504Y-96431204D02*
X146723773Y-96434804D01*
X146747571Y-96440765D01*
X146770671Y-96449030D01*
X146792849Y-96459520D01*
X146813893Y-96472133D01*
X146833598Y-96486747D01*
X146851777Y-96503223D01*
X146868253Y-96521402D01*
X146882867Y-96541107D01*
X146895480Y-96562151D01*
X146905970Y-96584329D01*
X146914235Y-96607429D01*
X146920196Y-96631227D01*
X146923796Y-96655496D01*
X146925000Y-96680000D01*
X146925000Y-97605000D01*
X146923796Y-97629504D01*
X146920196Y-97653773D01*
X146914235Y-97677571D01*
X146905970Y-97700671D01*
X146895480Y-97722849D01*
X146882867Y-97743893D01*
X146868253Y-97763598D01*
X146851777Y-97781777D01*
X146833598Y-97798253D01*
X146813893Y-97812867D01*
X146792849Y-97825480D01*
X146770671Y-97835970D01*
X146747571Y-97844235D01*
X146723773Y-97850196D01*
X146699504Y-97853796D01*
X146675000Y-97855000D01*
X145425000Y-97855000D01*
X145400496Y-97853796D01*
X145376227Y-97850196D01*
X145352429Y-97844235D01*
X145329329Y-97835970D01*
X145307151Y-97825480D01*
X145286107Y-97812867D01*
X145266402Y-97798253D01*
X145248223Y-97781777D01*
X145231747Y-97763598D01*
X145217133Y-97743893D01*
X145204520Y-97722849D01*
X145194030Y-97700671D01*
X145185765Y-97677571D01*
X145179804Y-97653773D01*
X145176204Y-97629504D01*
X145175000Y-97605000D01*
X145175000Y-96680000D01*
X145176204Y-96655496D01*
X145179804Y-96631227D01*
X145185765Y-96607429D01*
X145194030Y-96584329D01*
X145204520Y-96562151D01*
X145217133Y-96541107D01*
X145231747Y-96521402D01*
X145248223Y-96503223D01*
X145266402Y-96486747D01*
X145286107Y-96472133D01*
X145307151Y-96459520D01*
X145329329Y-96449030D01*
X145352429Y-96440765D01*
X145376227Y-96434804D01*
X145400496Y-96431204D01*
X145425000Y-96430000D01*
X146675000Y-96430000D01*
X146699504Y-96431204D01*
X146699504Y-96431204D01*
G37*
D11*
X146050000Y-97142500D03*
D10*
G36*
X146699504Y-99406204D02*
X146723773Y-99409804D01*
X146747571Y-99415765D01*
X146770671Y-99424030D01*
X146792849Y-99434520D01*
X146813893Y-99447133D01*
X146833598Y-99461747D01*
X146851777Y-99478223D01*
X146868253Y-99496402D01*
X146882867Y-99516107D01*
X146895480Y-99537151D01*
X146905970Y-99559329D01*
X146914235Y-99582429D01*
X146920196Y-99606227D01*
X146923796Y-99630496D01*
X146925000Y-99655000D01*
X146925000Y-100580000D01*
X146923796Y-100604504D01*
X146920196Y-100628773D01*
X146914235Y-100652571D01*
X146905970Y-100675671D01*
X146895480Y-100697849D01*
X146882867Y-100718893D01*
X146868253Y-100738598D01*
X146851777Y-100756777D01*
X146833598Y-100773253D01*
X146813893Y-100787867D01*
X146792849Y-100800480D01*
X146770671Y-100810970D01*
X146747571Y-100819235D01*
X146723773Y-100825196D01*
X146699504Y-100828796D01*
X146675000Y-100830000D01*
X145425000Y-100830000D01*
X145400496Y-100828796D01*
X145376227Y-100825196D01*
X145352429Y-100819235D01*
X145329329Y-100810970D01*
X145307151Y-100800480D01*
X145286107Y-100787867D01*
X145266402Y-100773253D01*
X145248223Y-100756777D01*
X145231747Y-100738598D01*
X145217133Y-100718893D01*
X145204520Y-100697849D01*
X145194030Y-100675671D01*
X145185765Y-100652571D01*
X145179804Y-100628773D01*
X145176204Y-100604504D01*
X145175000Y-100580000D01*
X145175000Y-99655000D01*
X145176204Y-99630496D01*
X145179804Y-99606227D01*
X145185765Y-99582429D01*
X145194030Y-99559329D01*
X145204520Y-99537151D01*
X145217133Y-99516107D01*
X145231747Y-99496402D01*
X145248223Y-99478223D01*
X145266402Y-99461747D01*
X145286107Y-99447133D01*
X145307151Y-99434520D01*
X145329329Y-99424030D01*
X145352429Y-99415765D01*
X145376227Y-99409804D01*
X145400496Y-99406204D01*
X145425000Y-99405000D01*
X146675000Y-99405000D01*
X146699504Y-99406204D01*
X146699504Y-99406204D01*
G37*
D11*
X146050000Y-100117500D03*
G04 #@! TD*
D10*
G04 #@! TO.C,C4*
G36*
X146699504Y-107156204D02*
X146723773Y-107159804D01*
X146747571Y-107165765D01*
X146770671Y-107174030D01*
X146792849Y-107184520D01*
X146813893Y-107197133D01*
X146833598Y-107211747D01*
X146851777Y-107228223D01*
X146868253Y-107246402D01*
X146882867Y-107266107D01*
X146895480Y-107287151D01*
X146905970Y-107309329D01*
X146914235Y-107332429D01*
X146920196Y-107356227D01*
X146923796Y-107380496D01*
X146925000Y-107405000D01*
X146925000Y-108330000D01*
X146923796Y-108354504D01*
X146920196Y-108378773D01*
X146914235Y-108402571D01*
X146905970Y-108425671D01*
X146895480Y-108447849D01*
X146882867Y-108468893D01*
X146868253Y-108488598D01*
X146851777Y-108506777D01*
X146833598Y-108523253D01*
X146813893Y-108537867D01*
X146792849Y-108550480D01*
X146770671Y-108560970D01*
X146747571Y-108569235D01*
X146723773Y-108575196D01*
X146699504Y-108578796D01*
X146675000Y-108580000D01*
X145425000Y-108580000D01*
X145400496Y-108578796D01*
X145376227Y-108575196D01*
X145352429Y-108569235D01*
X145329329Y-108560970D01*
X145307151Y-108550480D01*
X145286107Y-108537867D01*
X145266402Y-108523253D01*
X145248223Y-108506777D01*
X145231747Y-108488598D01*
X145217133Y-108468893D01*
X145204520Y-108447849D01*
X145194030Y-108425671D01*
X145185765Y-108402571D01*
X145179804Y-108378773D01*
X145176204Y-108354504D01*
X145175000Y-108330000D01*
X145175000Y-107405000D01*
X145176204Y-107380496D01*
X145179804Y-107356227D01*
X145185765Y-107332429D01*
X145194030Y-107309329D01*
X145204520Y-107287151D01*
X145217133Y-107266107D01*
X145231747Y-107246402D01*
X145248223Y-107228223D01*
X145266402Y-107211747D01*
X145286107Y-107197133D01*
X145307151Y-107184520D01*
X145329329Y-107174030D01*
X145352429Y-107165765D01*
X145376227Y-107159804D01*
X145400496Y-107156204D01*
X145425000Y-107155000D01*
X146675000Y-107155000D01*
X146699504Y-107156204D01*
X146699504Y-107156204D01*
G37*
D11*
X146050000Y-107867500D03*
D10*
G36*
X146699504Y-104181204D02*
X146723773Y-104184804D01*
X146747571Y-104190765D01*
X146770671Y-104199030D01*
X146792849Y-104209520D01*
X146813893Y-104222133D01*
X146833598Y-104236747D01*
X146851777Y-104253223D01*
X146868253Y-104271402D01*
X146882867Y-104291107D01*
X146895480Y-104312151D01*
X146905970Y-104334329D01*
X146914235Y-104357429D01*
X146920196Y-104381227D01*
X146923796Y-104405496D01*
X146925000Y-104430000D01*
X146925000Y-105355000D01*
X146923796Y-105379504D01*
X146920196Y-105403773D01*
X146914235Y-105427571D01*
X146905970Y-105450671D01*
X146895480Y-105472849D01*
X146882867Y-105493893D01*
X146868253Y-105513598D01*
X146851777Y-105531777D01*
X146833598Y-105548253D01*
X146813893Y-105562867D01*
X146792849Y-105575480D01*
X146770671Y-105585970D01*
X146747571Y-105594235D01*
X146723773Y-105600196D01*
X146699504Y-105603796D01*
X146675000Y-105605000D01*
X145425000Y-105605000D01*
X145400496Y-105603796D01*
X145376227Y-105600196D01*
X145352429Y-105594235D01*
X145329329Y-105585970D01*
X145307151Y-105575480D01*
X145286107Y-105562867D01*
X145266402Y-105548253D01*
X145248223Y-105531777D01*
X145231747Y-105513598D01*
X145217133Y-105493893D01*
X145204520Y-105472849D01*
X145194030Y-105450671D01*
X145185765Y-105427571D01*
X145179804Y-105403773D01*
X145176204Y-105379504D01*
X145175000Y-105355000D01*
X145175000Y-104430000D01*
X145176204Y-104405496D01*
X145179804Y-104381227D01*
X145185765Y-104357429D01*
X145194030Y-104334329D01*
X145204520Y-104312151D01*
X145217133Y-104291107D01*
X145231747Y-104271402D01*
X145248223Y-104253223D01*
X145266402Y-104236747D01*
X145286107Y-104222133D01*
X145307151Y-104209520D01*
X145329329Y-104199030D01*
X145352429Y-104190765D01*
X145376227Y-104184804D01*
X145400496Y-104181204D01*
X145425000Y-104180000D01*
X146675000Y-104180000D01*
X146699504Y-104181204D01*
X146699504Y-104181204D01*
G37*
D11*
X146050000Y-104892500D03*
G04 #@! TD*
D10*
G04 #@! TO.C,C5*
G36*
X146699504Y-110981204D02*
X146723773Y-110984804D01*
X146747571Y-110990765D01*
X146770671Y-110999030D01*
X146792849Y-111009520D01*
X146813893Y-111022133D01*
X146833598Y-111036747D01*
X146851777Y-111053223D01*
X146868253Y-111071402D01*
X146882867Y-111091107D01*
X146895480Y-111112151D01*
X146905970Y-111134329D01*
X146914235Y-111157429D01*
X146920196Y-111181227D01*
X146923796Y-111205496D01*
X146925000Y-111230000D01*
X146925000Y-112155000D01*
X146923796Y-112179504D01*
X146920196Y-112203773D01*
X146914235Y-112227571D01*
X146905970Y-112250671D01*
X146895480Y-112272849D01*
X146882867Y-112293893D01*
X146868253Y-112313598D01*
X146851777Y-112331777D01*
X146833598Y-112348253D01*
X146813893Y-112362867D01*
X146792849Y-112375480D01*
X146770671Y-112385970D01*
X146747571Y-112394235D01*
X146723773Y-112400196D01*
X146699504Y-112403796D01*
X146675000Y-112405000D01*
X145425000Y-112405000D01*
X145400496Y-112403796D01*
X145376227Y-112400196D01*
X145352429Y-112394235D01*
X145329329Y-112385970D01*
X145307151Y-112375480D01*
X145286107Y-112362867D01*
X145266402Y-112348253D01*
X145248223Y-112331777D01*
X145231747Y-112313598D01*
X145217133Y-112293893D01*
X145204520Y-112272849D01*
X145194030Y-112250671D01*
X145185765Y-112227571D01*
X145179804Y-112203773D01*
X145176204Y-112179504D01*
X145175000Y-112155000D01*
X145175000Y-111230000D01*
X145176204Y-111205496D01*
X145179804Y-111181227D01*
X145185765Y-111157429D01*
X145194030Y-111134329D01*
X145204520Y-111112151D01*
X145217133Y-111091107D01*
X145231747Y-111071402D01*
X145248223Y-111053223D01*
X145266402Y-111036747D01*
X145286107Y-111022133D01*
X145307151Y-111009520D01*
X145329329Y-110999030D01*
X145352429Y-110990765D01*
X145376227Y-110984804D01*
X145400496Y-110981204D01*
X145425000Y-110980000D01*
X146675000Y-110980000D01*
X146699504Y-110981204D01*
X146699504Y-110981204D01*
G37*
D11*
X146050000Y-111692500D03*
D10*
G36*
X146699504Y-113956204D02*
X146723773Y-113959804D01*
X146747571Y-113965765D01*
X146770671Y-113974030D01*
X146792849Y-113984520D01*
X146813893Y-113997133D01*
X146833598Y-114011747D01*
X146851777Y-114028223D01*
X146868253Y-114046402D01*
X146882867Y-114066107D01*
X146895480Y-114087151D01*
X146905970Y-114109329D01*
X146914235Y-114132429D01*
X146920196Y-114156227D01*
X146923796Y-114180496D01*
X146925000Y-114205000D01*
X146925000Y-115130000D01*
X146923796Y-115154504D01*
X146920196Y-115178773D01*
X146914235Y-115202571D01*
X146905970Y-115225671D01*
X146895480Y-115247849D01*
X146882867Y-115268893D01*
X146868253Y-115288598D01*
X146851777Y-115306777D01*
X146833598Y-115323253D01*
X146813893Y-115337867D01*
X146792849Y-115350480D01*
X146770671Y-115360970D01*
X146747571Y-115369235D01*
X146723773Y-115375196D01*
X146699504Y-115378796D01*
X146675000Y-115380000D01*
X145425000Y-115380000D01*
X145400496Y-115378796D01*
X145376227Y-115375196D01*
X145352429Y-115369235D01*
X145329329Y-115360970D01*
X145307151Y-115350480D01*
X145286107Y-115337867D01*
X145266402Y-115323253D01*
X145248223Y-115306777D01*
X145231747Y-115288598D01*
X145217133Y-115268893D01*
X145204520Y-115247849D01*
X145194030Y-115225671D01*
X145185765Y-115202571D01*
X145179804Y-115178773D01*
X145176204Y-115154504D01*
X145175000Y-115130000D01*
X145175000Y-114205000D01*
X145176204Y-114180496D01*
X145179804Y-114156227D01*
X145185765Y-114132429D01*
X145194030Y-114109329D01*
X145204520Y-114087151D01*
X145217133Y-114066107D01*
X145231747Y-114046402D01*
X145248223Y-114028223D01*
X145266402Y-114011747D01*
X145286107Y-113997133D01*
X145307151Y-113984520D01*
X145329329Y-113974030D01*
X145352429Y-113965765D01*
X145376227Y-113959804D01*
X145400496Y-113956204D01*
X145425000Y-113955000D01*
X146675000Y-113955000D01*
X146699504Y-113956204D01*
X146699504Y-113956204D01*
G37*
D11*
X146050000Y-114667500D03*
G04 #@! TD*
D10*
G04 #@! TO.C,C6*
G36*
X146699504Y-121576204D02*
X146723773Y-121579804D01*
X146747571Y-121585765D01*
X146770671Y-121594030D01*
X146792849Y-121604520D01*
X146813893Y-121617133D01*
X146833598Y-121631747D01*
X146851777Y-121648223D01*
X146868253Y-121666402D01*
X146882867Y-121686107D01*
X146895480Y-121707151D01*
X146905970Y-121729329D01*
X146914235Y-121752429D01*
X146920196Y-121776227D01*
X146923796Y-121800496D01*
X146925000Y-121825000D01*
X146925000Y-122750000D01*
X146923796Y-122774504D01*
X146920196Y-122798773D01*
X146914235Y-122822571D01*
X146905970Y-122845671D01*
X146895480Y-122867849D01*
X146882867Y-122888893D01*
X146868253Y-122908598D01*
X146851777Y-122926777D01*
X146833598Y-122943253D01*
X146813893Y-122957867D01*
X146792849Y-122970480D01*
X146770671Y-122980970D01*
X146747571Y-122989235D01*
X146723773Y-122995196D01*
X146699504Y-122998796D01*
X146675000Y-123000000D01*
X145425000Y-123000000D01*
X145400496Y-122998796D01*
X145376227Y-122995196D01*
X145352429Y-122989235D01*
X145329329Y-122980970D01*
X145307151Y-122970480D01*
X145286107Y-122957867D01*
X145266402Y-122943253D01*
X145248223Y-122926777D01*
X145231747Y-122908598D01*
X145217133Y-122888893D01*
X145204520Y-122867849D01*
X145194030Y-122845671D01*
X145185765Y-122822571D01*
X145179804Y-122798773D01*
X145176204Y-122774504D01*
X145175000Y-122750000D01*
X145175000Y-121825000D01*
X145176204Y-121800496D01*
X145179804Y-121776227D01*
X145185765Y-121752429D01*
X145194030Y-121729329D01*
X145204520Y-121707151D01*
X145217133Y-121686107D01*
X145231747Y-121666402D01*
X145248223Y-121648223D01*
X145266402Y-121631747D01*
X145286107Y-121617133D01*
X145307151Y-121604520D01*
X145329329Y-121594030D01*
X145352429Y-121585765D01*
X145376227Y-121579804D01*
X145400496Y-121576204D01*
X145425000Y-121575000D01*
X146675000Y-121575000D01*
X146699504Y-121576204D01*
X146699504Y-121576204D01*
G37*
D11*
X146050000Y-122287500D03*
D10*
G36*
X146699504Y-118601204D02*
X146723773Y-118604804D01*
X146747571Y-118610765D01*
X146770671Y-118619030D01*
X146792849Y-118629520D01*
X146813893Y-118642133D01*
X146833598Y-118656747D01*
X146851777Y-118673223D01*
X146868253Y-118691402D01*
X146882867Y-118711107D01*
X146895480Y-118732151D01*
X146905970Y-118754329D01*
X146914235Y-118777429D01*
X146920196Y-118801227D01*
X146923796Y-118825496D01*
X146925000Y-118850000D01*
X146925000Y-119775000D01*
X146923796Y-119799504D01*
X146920196Y-119823773D01*
X146914235Y-119847571D01*
X146905970Y-119870671D01*
X146895480Y-119892849D01*
X146882867Y-119913893D01*
X146868253Y-119933598D01*
X146851777Y-119951777D01*
X146833598Y-119968253D01*
X146813893Y-119982867D01*
X146792849Y-119995480D01*
X146770671Y-120005970D01*
X146747571Y-120014235D01*
X146723773Y-120020196D01*
X146699504Y-120023796D01*
X146675000Y-120025000D01*
X145425000Y-120025000D01*
X145400496Y-120023796D01*
X145376227Y-120020196D01*
X145352429Y-120014235D01*
X145329329Y-120005970D01*
X145307151Y-119995480D01*
X145286107Y-119982867D01*
X145266402Y-119968253D01*
X145248223Y-119951777D01*
X145231747Y-119933598D01*
X145217133Y-119913893D01*
X145204520Y-119892849D01*
X145194030Y-119870671D01*
X145185765Y-119847571D01*
X145179804Y-119823773D01*
X145176204Y-119799504D01*
X145175000Y-119775000D01*
X145175000Y-118850000D01*
X145176204Y-118825496D01*
X145179804Y-118801227D01*
X145185765Y-118777429D01*
X145194030Y-118754329D01*
X145204520Y-118732151D01*
X145217133Y-118711107D01*
X145231747Y-118691402D01*
X145248223Y-118673223D01*
X145266402Y-118656747D01*
X145286107Y-118642133D01*
X145307151Y-118629520D01*
X145329329Y-118619030D01*
X145352429Y-118610765D01*
X145376227Y-118604804D01*
X145400496Y-118601204D01*
X145425000Y-118600000D01*
X146675000Y-118600000D01*
X146699504Y-118601204D01*
X146699504Y-118601204D01*
G37*
D11*
X146050000Y-119312500D03*
G04 #@! TD*
D10*
G04 #@! TO.C,C7*
G36*
X146699504Y-125531204D02*
X146723773Y-125534804D01*
X146747571Y-125540765D01*
X146770671Y-125549030D01*
X146792849Y-125559520D01*
X146813893Y-125572133D01*
X146833598Y-125586747D01*
X146851777Y-125603223D01*
X146868253Y-125621402D01*
X146882867Y-125641107D01*
X146895480Y-125662151D01*
X146905970Y-125684329D01*
X146914235Y-125707429D01*
X146920196Y-125731227D01*
X146923796Y-125755496D01*
X146925000Y-125780000D01*
X146925000Y-126705000D01*
X146923796Y-126729504D01*
X146920196Y-126753773D01*
X146914235Y-126777571D01*
X146905970Y-126800671D01*
X146895480Y-126822849D01*
X146882867Y-126843893D01*
X146868253Y-126863598D01*
X146851777Y-126881777D01*
X146833598Y-126898253D01*
X146813893Y-126912867D01*
X146792849Y-126925480D01*
X146770671Y-126935970D01*
X146747571Y-126944235D01*
X146723773Y-126950196D01*
X146699504Y-126953796D01*
X146675000Y-126955000D01*
X145425000Y-126955000D01*
X145400496Y-126953796D01*
X145376227Y-126950196D01*
X145352429Y-126944235D01*
X145329329Y-126935970D01*
X145307151Y-126925480D01*
X145286107Y-126912867D01*
X145266402Y-126898253D01*
X145248223Y-126881777D01*
X145231747Y-126863598D01*
X145217133Y-126843893D01*
X145204520Y-126822849D01*
X145194030Y-126800671D01*
X145185765Y-126777571D01*
X145179804Y-126753773D01*
X145176204Y-126729504D01*
X145175000Y-126705000D01*
X145175000Y-125780000D01*
X145176204Y-125755496D01*
X145179804Y-125731227D01*
X145185765Y-125707429D01*
X145194030Y-125684329D01*
X145204520Y-125662151D01*
X145217133Y-125641107D01*
X145231747Y-125621402D01*
X145248223Y-125603223D01*
X145266402Y-125586747D01*
X145286107Y-125572133D01*
X145307151Y-125559520D01*
X145329329Y-125549030D01*
X145352429Y-125540765D01*
X145376227Y-125534804D01*
X145400496Y-125531204D01*
X145425000Y-125530000D01*
X146675000Y-125530000D01*
X146699504Y-125531204D01*
X146699504Y-125531204D01*
G37*
D11*
X146050000Y-126242500D03*
D10*
G36*
X146699504Y-128506204D02*
X146723773Y-128509804D01*
X146747571Y-128515765D01*
X146770671Y-128524030D01*
X146792849Y-128534520D01*
X146813893Y-128547133D01*
X146833598Y-128561747D01*
X146851777Y-128578223D01*
X146868253Y-128596402D01*
X146882867Y-128616107D01*
X146895480Y-128637151D01*
X146905970Y-128659329D01*
X146914235Y-128682429D01*
X146920196Y-128706227D01*
X146923796Y-128730496D01*
X146925000Y-128755000D01*
X146925000Y-129680000D01*
X146923796Y-129704504D01*
X146920196Y-129728773D01*
X146914235Y-129752571D01*
X146905970Y-129775671D01*
X146895480Y-129797849D01*
X146882867Y-129818893D01*
X146868253Y-129838598D01*
X146851777Y-129856777D01*
X146833598Y-129873253D01*
X146813893Y-129887867D01*
X146792849Y-129900480D01*
X146770671Y-129910970D01*
X146747571Y-129919235D01*
X146723773Y-129925196D01*
X146699504Y-129928796D01*
X146675000Y-129930000D01*
X145425000Y-129930000D01*
X145400496Y-129928796D01*
X145376227Y-129925196D01*
X145352429Y-129919235D01*
X145329329Y-129910970D01*
X145307151Y-129900480D01*
X145286107Y-129887867D01*
X145266402Y-129873253D01*
X145248223Y-129856777D01*
X145231747Y-129838598D01*
X145217133Y-129818893D01*
X145204520Y-129797849D01*
X145194030Y-129775671D01*
X145185765Y-129752571D01*
X145179804Y-129728773D01*
X145176204Y-129704504D01*
X145175000Y-129680000D01*
X145175000Y-128755000D01*
X145176204Y-128730496D01*
X145179804Y-128706227D01*
X145185765Y-128682429D01*
X145194030Y-128659329D01*
X145204520Y-128637151D01*
X145217133Y-128616107D01*
X145231747Y-128596402D01*
X145248223Y-128578223D01*
X145266402Y-128561747D01*
X145286107Y-128547133D01*
X145307151Y-128534520D01*
X145329329Y-128524030D01*
X145352429Y-128515765D01*
X145376227Y-128509804D01*
X145400496Y-128506204D01*
X145425000Y-128505000D01*
X146675000Y-128505000D01*
X146699504Y-128506204D01*
X146699504Y-128506204D01*
G37*
D11*
X146050000Y-129217500D03*
G04 #@! TD*
D10*
G04 #@! TO.C,C8*
G36*
X104714504Y-114696204D02*
X104738773Y-114699804D01*
X104762571Y-114705765D01*
X104785671Y-114714030D01*
X104807849Y-114724520D01*
X104828893Y-114737133D01*
X104848598Y-114751747D01*
X104866777Y-114768223D01*
X104883253Y-114786402D01*
X104897867Y-114806107D01*
X104910480Y-114827151D01*
X104920970Y-114849329D01*
X104929235Y-114872429D01*
X104935196Y-114896227D01*
X104938796Y-114920496D01*
X104940000Y-114945000D01*
X104940000Y-116195000D01*
X104938796Y-116219504D01*
X104935196Y-116243773D01*
X104929235Y-116267571D01*
X104920970Y-116290671D01*
X104910480Y-116312849D01*
X104897867Y-116333893D01*
X104883253Y-116353598D01*
X104866777Y-116371777D01*
X104848598Y-116388253D01*
X104828893Y-116402867D01*
X104807849Y-116415480D01*
X104785671Y-116425970D01*
X104762571Y-116434235D01*
X104738773Y-116440196D01*
X104714504Y-116443796D01*
X104690000Y-116445000D01*
X103765000Y-116445000D01*
X103740496Y-116443796D01*
X103716227Y-116440196D01*
X103692429Y-116434235D01*
X103669329Y-116425970D01*
X103647151Y-116415480D01*
X103626107Y-116402867D01*
X103606402Y-116388253D01*
X103588223Y-116371777D01*
X103571747Y-116353598D01*
X103557133Y-116333893D01*
X103544520Y-116312849D01*
X103534030Y-116290671D01*
X103525765Y-116267571D01*
X103519804Y-116243773D01*
X103516204Y-116219504D01*
X103515000Y-116195000D01*
X103515000Y-114945000D01*
X103516204Y-114920496D01*
X103519804Y-114896227D01*
X103525765Y-114872429D01*
X103534030Y-114849329D01*
X103544520Y-114827151D01*
X103557133Y-114806107D01*
X103571747Y-114786402D01*
X103588223Y-114768223D01*
X103606402Y-114751747D01*
X103626107Y-114737133D01*
X103647151Y-114724520D01*
X103669329Y-114714030D01*
X103692429Y-114705765D01*
X103716227Y-114699804D01*
X103740496Y-114696204D01*
X103765000Y-114695000D01*
X104690000Y-114695000D01*
X104714504Y-114696204D01*
X104714504Y-114696204D01*
G37*
D11*
X104227500Y-115570000D03*
D10*
G36*
X101739504Y-114696204D02*
X101763773Y-114699804D01*
X101787571Y-114705765D01*
X101810671Y-114714030D01*
X101832849Y-114724520D01*
X101853893Y-114737133D01*
X101873598Y-114751747D01*
X101891777Y-114768223D01*
X101908253Y-114786402D01*
X101922867Y-114806107D01*
X101935480Y-114827151D01*
X101945970Y-114849329D01*
X101954235Y-114872429D01*
X101960196Y-114896227D01*
X101963796Y-114920496D01*
X101965000Y-114945000D01*
X101965000Y-116195000D01*
X101963796Y-116219504D01*
X101960196Y-116243773D01*
X101954235Y-116267571D01*
X101945970Y-116290671D01*
X101935480Y-116312849D01*
X101922867Y-116333893D01*
X101908253Y-116353598D01*
X101891777Y-116371777D01*
X101873598Y-116388253D01*
X101853893Y-116402867D01*
X101832849Y-116415480D01*
X101810671Y-116425970D01*
X101787571Y-116434235D01*
X101763773Y-116440196D01*
X101739504Y-116443796D01*
X101715000Y-116445000D01*
X100790000Y-116445000D01*
X100765496Y-116443796D01*
X100741227Y-116440196D01*
X100717429Y-116434235D01*
X100694329Y-116425970D01*
X100672151Y-116415480D01*
X100651107Y-116402867D01*
X100631402Y-116388253D01*
X100613223Y-116371777D01*
X100596747Y-116353598D01*
X100582133Y-116333893D01*
X100569520Y-116312849D01*
X100559030Y-116290671D01*
X100550765Y-116267571D01*
X100544804Y-116243773D01*
X100541204Y-116219504D01*
X100540000Y-116195000D01*
X100540000Y-114945000D01*
X100541204Y-114920496D01*
X100544804Y-114896227D01*
X100550765Y-114872429D01*
X100559030Y-114849329D01*
X100569520Y-114827151D01*
X100582133Y-114806107D01*
X100596747Y-114786402D01*
X100613223Y-114768223D01*
X100631402Y-114751747D01*
X100651107Y-114737133D01*
X100672151Y-114724520D01*
X100694329Y-114714030D01*
X100717429Y-114705765D01*
X100741227Y-114699804D01*
X100765496Y-114696204D01*
X100790000Y-114695000D01*
X101715000Y-114695000D01*
X101739504Y-114696204D01*
X101739504Y-114696204D01*
G37*
D11*
X101252500Y-115570000D03*
G04 #@! TD*
D10*
G04 #@! TO.C,C9*
G36*
X106059504Y-131786204D02*
X106083773Y-131789804D01*
X106107571Y-131795765D01*
X106130671Y-131804030D01*
X106152849Y-131814520D01*
X106173893Y-131827133D01*
X106193598Y-131841747D01*
X106211777Y-131858223D01*
X106228253Y-131876402D01*
X106242867Y-131896107D01*
X106255480Y-131917151D01*
X106265970Y-131939329D01*
X106274235Y-131962429D01*
X106280196Y-131986227D01*
X106283796Y-132010496D01*
X106285000Y-132035000D01*
X106285000Y-132960000D01*
X106283796Y-132984504D01*
X106280196Y-133008773D01*
X106274235Y-133032571D01*
X106265970Y-133055671D01*
X106255480Y-133077849D01*
X106242867Y-133098893D01*
X106228253Y-133118598D01*
X106211777Y-133136777D01*
X106193598Y-133153253D01*
X106173893Y-133167867D01*
X106152849Y-133180480D01*
X106130671Y-133190970D01*
X106107571Y-133199235D01*
X106083773Y-133205196D01*
X106059504Y-133208796D01*
X106035000Y-133210000D01*
X104785000Y-133210000D01*
X104760496Y-133208796D01*
X104736227Y-133205196D01*
X104712429Y-133199235D01*
X104689329Y-133190970D01*
X104667151Y-133180480D01*
X104646107Y-133167867D01*
X104626402Y-133153253D01*
X104608223Y-133136777D01*
X104591747Y-133118598D01*
X104577133Y-133098893D01*
X104564520Y-133077849D01*
X104554030Y-133055671D01*
X104545765Y-133032571D01*
X104539804Y-133008773D01*
X104536204Y-132984504D01*
X104535000Y-132960000D01*
X104535000Y-132035000D01*
X104536204Y-132010496D01*
X104539804Y-131986227D01*
X104545765Y-131962429D01*
X104554030Y-131939329D01*
X104564520Y-131917151D01*
X104577133Y-131896107D01*
X104591747Y-131876402D01*
X104608223Y-131858223D01*
X104626402Y-131841747D01*
X104646107Y-131827133D01*
X104667151Y-131814520D01*
X104689329Y-131804030D01*
X104712429Y-131795765D01*
X104736227Y-131789804D01*
X104760496Y-131786204D01*
X104785000Y-131785000D01*
X106035000Y-131785000D01*
X106059504Y-131786204D01*
X106059504Y-131786204D01*
G37*
D11*
X105410000Y-132497500D03*
D10*
G36*
X106059504Y-134761204D02*
X106083773Y-134764804D01*
X106107571Y-134770765D01*
X106130671Y-134779030D01*
X106152849Y-134789520D01*
X106173893Y-134802133D01*
X106193598Y-134816747D01*
X106211777Y-134833223D01*
X106228253Y-134851402D01*
X106242867Y-134871107D01*
X106255480Y-134892151D01*
X106265970Y-134914329D01*
X106274235Y-134937429D01*
X106280196Y-134961227D01*
X106283796Y-134985496D01*
X106285000Y-135010000D01*
X106285000Y-135935000D01*
X106283796Y-135959504D01*
X106280196Y-135983773D01*
X106274235Y-136007571D01*
X106265970Y-136030671D01*
X106255480Y-136052849D01*
X106242867Y-136073893D01*
X106228253Y-136093598D01*
X106211777Y-136111777D01*
X106193598Y-136128253D01*
X106173893Y-136142867D01*
X106152849Y-136155480D01*
X106130671Y-136165970D01*
X106107571Y-136174235D01*
X106083773Y-136180196D01*
X106059504Y-136183796D01*
X106035000Y-136185000D01*
X104785000Y-136185000D01*
X104760496Y-136183796D01*
X104736227Y-136180196D01*
X104712429Y-136174235D01*
X104689329Y-136165970D01*
X104667151Y-136155480D01*
X104646107Y-136142867D01*
X104626402Y-136128253D01*
X104608223Y-136111777D01*
X104591747Y-136093598D01*
X104577133Y-136073893D01*
X104564520Y-136052849D01*
X104554030Y-136030671D01*
X104545765Y-136007571D01*
X104539804Y-135983773D01*
X104536204Y-135959504D01*
X104535000Y-135935000D01*
X104535000Y-135010000D01*
X104536204Y-134985496D01*
X104539804Y-134961227D01*
X104545765Y-134937429D01*
X104554030Y-134914329D01*
X104564520Y-134892151D01*
X104577133Y-134871107D01*
X104591747Y-134851402D01*
X104608223Y-134833223D01*
X104626402Y-134816747D01*
X104646107Y-134802133D01*
X104667151Y-134789520D01*
X104689329Y-134779030D01*
X104712429Y-134770765D01*
X104736227Y-134764804D01*
X104760496Y-134761204D01*
X104785000Y-134760000D01*
X106035000Y-134760000D01*
X106059504Y-134761204D01*
X106059504Y-134761204D01*
G37*
D11*
X105410000Y-135472500D03*
G04 #@! TD*
D10*
G04 #@! TO.C,D2*
G36*
X101739504Y-105806204D02*
X101763773Y-105809804D01*
X101787571Y-105815765D01*
X101810671Y-105824030D01*
X101832849Y-105834520D01*
X101853893Y-105847133D01*
X101873598Y-105861747D01*
X101891777Y-105878223D01*
X101908253Y-105896402D01*
X101922867Y-105916107D01*
X101935480Y-105937151D01*
X101945970Y-105959329D01*
X101954235Y-105982429D01*
X101960196Y-106006227D01*
X101963796Y-106030496D01*
X101965000Y-106055000D01*
X101965000Y-107305000D01*
X101963796Y-107329504D01*
X101960196Y-107353773D01*
X101954235Y-107377571D01*
X101945970Y-107400671D01*
X101935480Y-107422849D01*
X101922867Y-107443893D01*
X101908253Y-107463598D01*
X101891777Y-107481777D01*
X101873598Y-107498253D01*
X101853893Y-107512867D01*
X101832849Y-107525480D01*
X101810671Y-107535970D01*
X101787571Y-107544235D01*
X101763773Y-107550196D01*
X101739504Y-107553796D01*
X101715000Y-107555000D01*
X100790000Y-107555000D01*
X100765496Y-107553796D01*
X100741227Y-107550196D01*
X100717429Y-107544235D01*
X100694329Y-107535970D01*
X100672151Y-107525480D01*
X100651107Y-107512867D01*
X100631402Y-107498253D01*
X100613223Y-107481777D01*
X100596747Y-107463598D01*
X100582133Y-107443893D01*
X100569520Y-107422849D01*
X100559030Y-107400671D01*
X100550765Y-107377571D01*
X100544804Y-107353773D01*
X100541204Y-107329504D01*
X100540000Y-107305000D01*
X100540000Y-106055000D01*
X100541204Y-106030496D01*
X100544804Y-106006227D01*
X100550765Y-105982429D01*
X100559030Y-105959329D01*
X100569520Y-105937151D01*
X100582133Y-105916107D01*
X100596747Y-105896402D01*
X100613223Y-105878223D01*
X100631402Y-105861747D01*
X100651107Y-105847133D01*
X100672151Y-105834520D01*
X100694329Y-105824030D01*
X100717429Y-105815765D01*
X100741227Y-105809804D01*
X100765496Y-105806204D01*
X100790000Y-105805000D01*
X101715000Y-105805000D01*
X101739504Y-105806204D01*
X101739504Y-105806204D01*
G37*
D11*
X101252500Y-106680000D03*
D10*
G36*
X104714504Y-105806204D02*
X104738773Y-105809804D01*
X104762571Y-105815765D01*
X104785671Y-105824030D01*
X104807849Y-105834520D01*
X104828893Y-105847133D01*
X104848598Y-105861747D01*
X104866777Y-105878223D01*
X104883253Y-105896402D01*
X104897867Y-105916107D01*
X104910480Y-105937151D01*
X104920970Y-105959329D01*
X104929235Y-105982429D01*
X104935196Y-106006227D01*
X104938796Y-106030496D01*
X104940000Y-106055000D01*
X104940000Y-107305000D01*
X104938796Y-107329504D01*
X104935196Y-107353773D01*
X104929235Y-107377571D01*
X104920970Y-107400671D01*
X104910480Y-107422849D01*
X104897867Y-107443893D01*
X104883253Y-107463598D01*
X104866777Y-107481777D01*
X104848598Y-107498253D01*
X104828893Y-107512867D01*
X104807849Y-107525480D01*
X104785671Y-107535970D01*
X104762571Y-107544235D01*
X104738773Y-107550196D01*
X104714504Y-107553796D01*
X104690000Y-107555000D01*
X103765000Y-107555000D01*
X103740496Y-107553796D01*
X103716227Y-107550196D01*
X103692429Y-107544235D01*
X103669329Y-107535970D01*
X103647151Y-107525480D01*
X103626107Y-107512867D01*
X103606402Y-107498253D01*
X103588223Y-107481777D01*
X103571747Y-107463598D01*
X103557133Y-107443893D01*
X103544520Y-107422849D01*
X103534030Y-107400671D01*
X103525765Y-107377571D01*
X103519804Y-107353773D01*
X103516204Y-107329504D01*
X103515000Y-107305000D01*
X103515000Y-106055000D01*
X103516204Y-106030496D01*
X103519804Y-106006227D01*
X103525765Y-105982429D01*
X103534030Y-105959329D01*
X103544520Y-105937151D01*
X103557133Y-105916107D01*
X103571747Y-105896402D01*
X103588223Y-105878223D01*
X103606402Y-105861747D01*
X103626107Y-105847133D01*
X103647151Y-105834520D01*
X103669329Y-105824030D01*
X103692429Y-105815765D01*
X103716227Y-105809804D01*
X103740496Y-105806204D01*
X103765000Y-105805000D01*
X104690000Y-105805000D01*
X104714504Y-105806204D01*
X104714504Y-105806204D01*
G37*
D11*
X104227500Y-106680000D03*
G04 #@! TD*
D10*
G04 #@! TO.C,D1*
G36*
X95899504Y-131916204D02*
X95923773Y-131919804D01*
X95947571Y-131925765D01*
X95970671Y-131934030D01*
X95992849Y-131944520D01*
X96013893Y-131957133D01*
X96033598Y-131971747D01*
X96051777Y-131988223D01*
X96068253Y-132006402D01*
X96082867Y-132026107D01*
X96095480Y-132047151D01*
X96105970Y-132069329D01*
X96114235Y-132092429D01*
X96120196Y-132116227D01*
X96123796Y-132140496D01*
X96125000Y-132165000D01*
X96125000Y-133090000D01*
X96123796Y-133114504D01*
X96120196Y-133138773D01*
X96114235Y-133162571D01*
X96105970Y-133185671D01*
X96095480Y-133207849D01*
X96082867Y-133228893D01*
X96068253Y-133248598D01*
X96051777Y-133266777D01*
X96033598Y-133283253D01*
X96013893Y-133297867D01*
X95992849Y-133310480D01*
X95970671Y-133320970D01*
X95947571Y-133329235D01*
X95923773Y-133335196D01*
X95899504Y-133338796D01*
X95875000Y-133340000D01*
X94625000Y-133340000D01*
X94600496Y-133338796D01*
X94576227Y-133335196D01*
X94552429Y-133329235D01*
X94529329Y-133320970D01*
X94507151Y-133310480D01*
X94486107Y-133297867D01*
X94466402Y-133283253D01*
X94448223Y-133266777D01*
X94431747Y-133248598D01*
X94417133Y-133228893D01*
X94404520Y-133207849D01*
X94394030Y-133185671D01*
X94385765Y-133162571D01*
X94379804Y-133138773D01*
X94376204Y-133114504D01*
X94375000Y-133090000D01*
X94375000Y-132165000D01*
X94376204Y-132140496D01*
X94379804Y-132116227D01*
X94385765Y-132092429D01*
X94394030Y-132069329D01*
X94404520Y-132047151D01*
X94417133Y-132026107D01*
X94431747Y-132006402D01*
X94448223Y-131988223D01*
X94466402Y-131971747D01*
X94486107Y-131957133D01*
X94507151Y-131944520D01*
X94529329Y-131934030D01*
X94552429Y-131925765D01*
X94576227Y-131919804D01*
X94600496Y-131916204D01*
X94625000Y-131915000D01*
X95875000Y-131915000D01*
X95899504Y-131916204D01*
X95899504Y-131916204D01*
G37*
D11*
X95250000Y-132627500D03*
D10*
G36*
X95899504Y-134891204D02*
X95923773Y-134894804D01*
X95947571Y-134900765D01*
X95970671Y-134909030D01*
X95992849Y-134919520D01*
X96013893Y-134932133D01*
X96033598Y-134946747D01*
X96051777Y-134963223D01*
X96068253Y-134981402D01*
X96082867Y-135001107D01*
X96095480Y-135022151D01*
X96105970Y-135044329D01*
X96114235Y-135067429D01*
X96120196Y-135091227D01*
X96123796Y-135115496D01*
X96125000Y-135140000D01*
X96125000Y-136065000D01*
X96123796Y-136089504D01*
X96120196Y-136113773D01*
X96114235Y-136137571D01*
X96105970Y-136160671D01*
X96095480Y-136182849D01*
X96082867Y-136203893D01*
X96068253Y-136223598D01*
X96051777Y-136241777D01*
X96033598Y-136258253D01*
X96013893Y-136272867D01*
X95992849Y-136285480D01*
X95970671Y-136295970D01*
X95947571Y-136304235D01*
X95923773Y-136310196D01*
X95899504Y-136313796D01*
X95875000Y-136315000D01*
X94625000Y-136315000D01*
X94600496Y-136313796D01*
X94576227Y-136310196D01*
X94552429Y-136304235D01*
X94529329Y-136295970D01*
X94507151Y-136285480D01*
X94486107Y-136272867D01*
X94466402Y-136258253D01*
X94448223Y-136241777D01*
X94431747Y-136223598D01*
X94417133Y-136203893D01*
X94404520Y-136182849D01*
X94394030Y-136160671D01*
X94385765Y-136137571D01*
X94379804Y-136113773D01*
X94376204Y-136089504D01*
X94375000Y-136065000D01*
X94375000Y-135140000D01*
X94376204Y-135115496D01*
X94379804Y-135091227D01*
X94385765Y-135067429D01*
X94394030Y-135044329D01*
X94404520Y-135022151D01*
X94417133Y-135001107D01*
X94431747Y-134981402D01*
X94448223Y-134963223D01*
X94466402Y-134946747D01*
X94486107Y-134932133D01*
X94507151Y-134919520D01*
X94529329Y-134909030D01*
X94552429Y-134900765D01*
X94576227Y-134894804D01*
X94600496Y-134891204D01*
X94625000Y-134890000D01*
X95875000Y-134890000D01*
X95899504Y-134891204D01*
X95899504Y-134891204D01*
G37*
D11*
X95250000Y-135602500D03*
G04 #@! TD*
D10*
G04 #@! TO.C,R17*
G36*
X100729504Y-74056204D02*
X100753773Y-74059804D01*
X100777571Y-74065765D01*
X100800671Y-74074030D01*
X100822849Y-74084520D01*
X100843893Y-74097133D01*
X100863598Y-74111747D01*
X100881777Y-74128223D01*
X100898253Y-74146402D01*
X100912867Y-74166107D01*
X100925480Y-74187151D01*
X100935970Y-74209329D01*
X100944235Y-74232429D01*
X100950196Y-74256227D01*
X100953796Y-74280496D01*
X100955000Y-74305000D01*
X100955000Y-75555000D01*
X100953796Y-75579504D01*
X100950196Y-75603773D01*
X100944235Y-75627571D01*
X100935970Y-75650671D01*
X100925480Y-75672849D01*
X100912867Y-75693893D01*
X100898253Y-75713598D01*
X100881777Y-75731777D01*
X100863598Y-75748253D01*
X100843893Y-75762867D01*
X100822849Y-75775480D01*
X100800671Y-75785970D01*
X100777571Y-75794235D01*
X100753773Y-75800196D01*
X100729504Y-75803796D01*
X100705000Y-75805000D01*
X99780000Y-75805000D01*
X99755496Y-75803796D01*
X99731227Y-75800196D01*
X99707429Y-75794235D01*
X99684329Y-75785970D01*
X99662151Y-75775480D01*
X99641107Y-75762867D01*
X99621402Y-75748253D01*
X99603223Y-75731777D01*
X99586747Y-75713598D01*
X99572133Y-75693893D01*
X99559520Y-75672849D01*
X99549030Y-75650671D01*
X99540765Y-75627571D01*
X99534804Y-75603773D01*
X99531204Y-75579504D01*
X99530000Y-75555000D01*
X99530000Y-74305000D01*
X99531204Y-74280496D01*
X99534804Y-74256227D01*
X99540765Y-74232429D01*
X99549030Y-74209329D01*
X99559520Y-74187151D01*
X99572133Y-74166107D01*
X99586747Y-74146402D01*
X99603223Y-74128223D01*
X99621402Y-74111747D01*
X99641107Y-74097133D01*
X99662151Y-74084520D01*
X99684329Y-74074030D01*
X99707429Y-74065765D01*
X99731227Y-74059804D01*
X99755496Y-74056204D01*
X99780000Y-74055000D01*
X100705000Y-74055000D01*
X100729504Y-74056204D01*
X100729504Y-74056204D01*
G37*
D11*
X100242500Y-74930000D03*
D10*
G36*
X103704504Y-74056204D02*
X103728773Y-74059804D01*
X103752571Y-74065765D01*
X103775671Y-74074030D01*
X103797849Y-74084520D01*
X103818893Y-74097133D01*
X103838598Y-74111747D01*
X103856777Y-74128223D01*
X103873253Y-74146402D01*
X103887867Y-74166107D01*
X103900480Y-74187151D01*
X103910970Y-74209329D01*
X103919235Y-74232429D01*
X103925196Y-74256227D01*
X103928796Y-74280496D01*
X103930000Y-74305000D01*
X103930000Y-75555000D01*
X103928796Y-75579504D01*
X103925196Y-75603773D01*
X103919235Y-75627571D01*
X103910970Y-75650671D01*
X103900480Y-75672849D01*
X103887867Y-75693893D01*
X103873253Y-75713598D01*
X103856777Y-75731777D01*
X103838598Y-75748253D01*
X103818893Y-75762867D01*
X103797849Y-75775480D01*
X103775671Y-75785970D01*
X103752571Y-75794235D01*
X103728773Y-75800196D01*
X103704504Y-75803796D01*
X103680000Y-75805000D01*
X102755000Y-75805000D01*
X102730496Y-75803796D01*
X102706227Y-75800196D01*
X102682429Y-75794235D01*
X102659329Y-75785970D01*
X102637151Y-75775480D01*
X102616107Y-75762867D01*
X102596402Y-75748253D01*
X102578223Y-75731777D01*
X102561747Y-75713598D01*
X102547133Y-75693893D01*
X102534520Y-75672849D01*
X102524030Y-75650671D01*
X102515765Y-75627571D01*
X102509804Y-75603773D01*
X102506204Y-75579504D01*
X102505000Y-75555000D01*
X102505000Y-74305000D01*
X102506204Y-74280496D01*
X102509804Y-74256227D01*
X102515765Y-74232429D01*
X102524030Y-74209329D01*
X102534520Y-74187151D01*
X102547133Y-74166107D01*
X102561747Y-74146402D01*
X102578223Y-74128223D01*
X102596402Y-74111747D01*
X102616107Y-74097133D01*
X102637151Y-74084520D01*
X102659329Y-74074030D01*
X102682429Y-74065765D01*
X102706227Y-74059804D01*
X102730496Y-74056204D01*
X102755000Y-74055000D01*
X103680000Y-74055000D01*
X103704504Y-74056204D01*
X103704504Y-74056204D01*
G37*
D11*
X103217500Y-74930000D03*
G04 #@! TD*
D10*
G04 #@! TO.C,R16*
G36*
X154069504Y-125456204D02*
X154093773Y-125459804D01*
X154117571Y-125465765D01*
X154140671Y-125474030D01*
X154162849Y-125484520D01*
X154183893Y-125497133D01*
X154203598Y-125511747D01*
X154221777Y-125528223D01*
X154238253Y-125546402D01*
X154252867Y-125566107D01*
X154265480Y-125587151D01*
X154275970Y-125609329D01*
X154284235Y-125632429D01*
X154290196Y-125656227D01*
X154293796Y-125680496D01*
X154295000Y-125705000D01*
X154295000Y-126955000D01*
X154293796Y-126979504D01*
X154290196Y-127003773D01*
X154284235Y-127027571D01*
X154275970Y-127050671D01*
X154265480Y-127072849D01*
X154252867Y-127093893D01*
X154238253Y-127113598D01*
X154221777Y-127131777D01*
X154203598Y-127148253D01*
X154183893Y-127162867D01*
X154162849Y-127175480D01*
X154140671Y-127185970D01*
X154117571Y-127194235D01*
X154093773Y-127200196D01*
X154069504Y-127203796D01*
X154045000Y-127205000D01*
X153120000Y-127205000D01*
X153095496Y-127203796D01*
X153071227Y-127200196D01*
X153047429Y-127194235D01*
X153024329Y-127185970D01*
X153002151Y-127175480D01*
X152981107Y-127162867D01*
X152961402Y-127148253D01*
X152943223Y-127131777D01*
X152926747Y-127113598D01*
X152912133Y-127093893D01*
X152899520Y-127072849D01*
X152889030Y-127050671D01*
X152880765Y-127027571D01*
X152874804Y-127003773D01*
X152871204Y-126979504D01*
X152870000Y-126955000D01*
X152870000Y-125705000D01*
X152871204Y-125680496D01*
X152874804Y-125656227D01*
X152880765Y-125632429D01*
X152889030Y-125609329D01*
X152899520Y-125587151D01*
X152912133Y-125566107D01*
X152926747Y-125546402D01*
X152943223Y-125528223D01*
X152961402Y-125511747D01*
X152981107Y-125497133D01*
X153002151Y-125484520D01*
X153024329Y-125474030D01*
X153047429Y-125465765D01*
X153071227Y-125459804D01*
X153095496Y-125456204D01*
X153120000Y-125455000D01*
X154045000Y-125455000D01*
X154069504Y-125456204D01*
X154069504Y-125456204D01*
G37*
D11*
X153582500Y-126330000D03*
D10*
G36*
X157044504Y-125456204D02*
X157068773Y-125459804D01*
X157092571Y-125465765D01*
X157115671Y-125474030D01*
X157137849Y-125484520D01*
X157158893Y-125497133D01*
X157178598Y-125511747D01*
X157196777Y-125528223D01*
X157213253Y-125546402D01*
X157227867Y-125566107D01*
X157240480Y-125587151D01*
X157250970Y-125609329D01*
X157259235Y-125632429D01*
X157265196Y-125656227D01*
X157268796Y-125680496D01*
X157270000Y-125705000D01*
X157270000Y-126955000D01*
X157268796Y-126979504D01*
X157265196Y-127003773D01*
X157259235Y-127027571D01*
X157250970Y-127050671D01*
X157240480Y-127072849D01*
X157227867Y-127093893D01*
X157213253Y-127113598D01*
X157196777Y-127131777D01*
X157178598Y-127148253D01*
X157158893Y-127162867D01*
X157137849Y-127175480D01*
X157115671Y-127185970D01*
X157092571Y-127194235D01*
X157068773Y-127200196D01*
X157044504Y-127203796D01*
X157020000Y-127205000D01*
X156095000Y-127205000D01*
X156070496Y-127203796D01*
X156046227Y-127200196D01*
X156022429Y-127194235D01*
X155999329Y-127185970D01*
X155977151Y-127175480D01*
X155956107Y-127162867D01*
X155936402Y-127148253D01*
X155918223Y-127131777D01*
X155901747Y-127113598D01*
X155887133Y-127093893D01*
X155874520Y-127072849D01*
X155864030Y-127050671D01*
X155855765Y-127027571D01*
X155849804Y-127003773D01*
X155846204Y-126979504D01*
X155845000Y-126955000D01*
X155845000Y-125705000D01*
X155846204Y-125680496D01*
X155849804Y-125656227D01*
X155855765Y-125632429D01*
X155864030Y-125609329D01*
X155874520Y-125587151D01*
X155887133Y-125566107D01*
X155901747Y-125546402D01*
X155918223Y-125528223D01*
X155936402Y-125511747D01*
X155956107Y-125497133D01*
X155977151Y-125484520D01*
X155999329Y-125474030D01*
X156022429Y-125465765D01*
X156046227Y-125459804D01*
X156070496Y-125456204D01*
X156095000Y-125455000D01*
X157020000Y-125455000D01*
X157044504Y-125456204D01*
X157044504Y-125456204D01*
G37*
D11*
X156557500Y-126330000D03*
G04 #@! TD*
D10*
G04 #@! TO.C,R9*
G36*
X142889504Y-128506204D02*
X142913773Y-128509804D01*
X142937571Y-128515765D01*
X142960671Y-128524030D01*
X142982849Y-128534520D01*
X143003893Y-128547133D01*
X143023598Y-128561747D01*
X143041777Y-128578223D01*
X143058253Y-128596402D01*
X143072867Y-128616107D01*
X143085480Y-128637151D01*
X143095970Y-128659329D01*
X143104235Y-128682429D01*
X143110196Y-128706227D01*
X143113796Y-128730496D01*
X143115000Y-128755000D01*
X143115000Y-129680000D01*
X143113796Y-129704504D01*
X143110196Y-129728773D01*
X143104235Y-129752571D01*
X143095970Y-129775671D01*
X143085480Y-129797849D01*
X143072867Y-129818893D01*
X143058253Y-129838598D01*
X143041777Y-129856777D01*
X143023598Y-129873253D01*
X143003893Y-129887867D01*
X142982849Y-129900480D01*
X142960671Y-129910970D01*
X142937571Y-129919235D01*
X142913773Y-129925196D01*
X142889504Y-129928796D01*
X142865000Y-129930000D01*
X141615000Y-129930000D01*
X141590496Y-129928796D01*
X141566227Y-129925196D01*
X141542429Y-129919235D01*
X141519329Y-129910970D01*
X141497151Y-129900480D01*
X141476107Y-129887867D01*
X141456402Y-129873253D01*
X141438223Y-129856777D01*
X141421747Y-129838598D01*
X141407133Y-129818893D01*
X141394520Y-129797849D01*
X141384030Y-129775671D01*
X141375765Y-129752571D01*
X141369804Y-129728773D01*
X141366204Y-129704504D01*
X141365000Y-129680000D01*
X141365000Y-128755000D01*
X141366204Y-128730496D01*
X141369804Y-128706227D01*
X141375765Y-128682429D01*
X141384030Y-128659329D01*
X141394520Y-128637151D01*
X141407133Y-128616107D01*
X141421747Y-128596402D01*
X141438223Y-128578223D01*
X141456402Y-128561747D01*
X141476107Y-128547133D01*
X141497151Y-128534520D01*
X141519329Y-128524030D01*
X141542429Y-128515765D01*
X141566227Y-128509804D01*
X141590496Y-128506204D01*
X141615000Y-128505000D01*
X142865000Y-128505000D01*
X142889504Y-128506204D01*
X142889504Y-128506204D01*
G37*
D11*
X142240000Y-129217500D03*
D10*
G36*
X142889504Y-125531204D02*
X142913773Y-125534804D01*
X142937571Y-125540765D01*
X142960671Y-125549030D01*
X142982849Y-125559520D01*
X143003893Y-125572133D01*
X143023598Y-125586747D01*
X143041777Y-125603223D01*
X143058253Y-125621402D01*
X143072867Y-125641107D01*
X143085480Y-125662151D01*
X143095970Y-125684329D01*
X143104235Y-125707429D01*
X143110196Y-125731227D01*
X143113796Y-125755496D01*
X143115000Y-125780000D01*
X143115000Y-126705000D01*
X143113796Y-126729504D01*
X143110196Y-126753773D01*
X143104235Y-126777571D01*
X143095970Y-126800671D01*
X143085480Y-126822849D01*
X143072867Y-126843893D01*
X143058253Y-126863598D01*
X143041777Y-126881777D01*
X143023598Y-126898253D01*
X143003893Y-126912867D01*
X142982849Y-126925480D01*
X142960671Y-126935970D01*
X142937571Y-126944235D01*
X142913773Y-126950196D01*
X142889504Y-126953796D01*
X142865000Y-126955000D01*
X141615000Y-126955000D01*
X141590496Y-126953796D01*
X141566227Y-126950196D01*
X141542429Y-126944235D01*
X141519329Y-126935970D01*
X141497151Y-126925480D01*
X141476107Y-126912867D01*
X141456402Y-126898253D01*
X141438223Y-126881777D01*
X141421747Y-126863598D01*
X141407133Y-126843893D01*
X141394520Y-126822849D01*
X141384030Y-126800671D01*
X141375765Y-126777571D01*
X141369804Y-126753773D01*
X141366204Y-126729504D01*
X141365000Y-126705000D01*
X141365000Y-125780000D01*
X141366204Y-125755496D01*
X141369804Y-125731227D01*
X141375765Y-125707429D01*
X141384030Y-125684329D01*
X141394520Y-125662151D01*
X141407133Y-125641107D01*
X141421747Y-125621402D01*
X141438223Y-125603223D01*
X141456402Y-125586747D01*
X141476107Y-125572133D01*
X141497151Y-125559520D01*
X141519329Y-125549030D01*
X141542429Y-125540765D01*
X141566227Y-125534804D01*
X141590496Y-125531204D01*
X141615000Y-125530000D01*
X142865000Y-125530000D01*
X142889504Y-125531204D01*
X142889504Y-125531204D01*
G37*
D11*
X142240000Y-126242500D03*
G04 #@! TD*
D10*
G04 #@! TO.C,R15*
G36*
X153809504Y-118656204D02*
X153833773Y-118659804D01*
X153857571Y-118665765D01*
X153880671Y-118674030D01*
X153902849Y-118684520D01*
X153923893Y-118697133D01*
X153943598Y-118711747D01*
X153961777Y-118728223D01*
X153978253Y-118746402D01*
X153992867Y-118766107D01*
X154005480Y-118787151D01*
X154015970Y-118809329D01*
X154024235Y-118832429D01*
X154030196Y-118856227D01*
X154033796Y-118880496D01*
X154035000Y-118905000D01*
X154035000Y-120155000D01*
X154033796Y-120179504D01*
X154030196Y-120203773D01*
X154024235Y-120227571D01*
X154015970Y-120250671D01*
X154005480Y-120272849D01*
X153992867Y-120293893D01*
X153978253Y-120313598D01*
X153961777Y-120331777D01*
X153943598Y-120348253D01*
X153923893Y-120362867D01*
X153902849Y-120375480D01*
X153880671Y-120385970D01*
X153857571Y-120394235D01*
X153833773Y-120400196D01*
X153809504Y-120403796D01*
X153785000Y-120405000D01*
X152860000Y-120405000D01*
X152835496Y-120403796D01*
X152811227Y-120400196D01*
X152787429Y-120394235D01*
X152764329Y-120385970D01*
X152742151Y-120375480D01*
X152721107Y-120362867D01*
X152701402Y-120348253D01*
X152683223Y-120331777D01*
X152666747Y-120313598D01*
X152652133Y-120293893D01*
X152639520Y-120272849D01*
X152629030Y-120250671D01*
X152620765Y-120227571D01*
X152614804Y-120203773D01*
X152611204Y-120179504D01*
X152610000Y-120155000D01*
X152610000Y-118905000D01*
X152611204Y-118880496D01*
X152614804Y-118856227D01*
X152620765Y-118832429D01*
X152629030Y-118809329D01*
X152639520Y-118787151D01*
X152652133Y-118766107D01*
X152666747Y-118746402D01*
X152683223Y-118728223D01*
X152701402Y-118711747D01*
X152721107Y-118697133D01*
X152742151Y-118684520D01*
X152764329Y-118674030D01*
X152787429Y-118665765D01*
X152811227Y-118659804D01*
X152835496Y-118656204D01*
X152860000Y-118655000D01*
X153785000Y-118655000D01*
X153809504Y-118656204D01*
X153809504Y-118656204D01*
G37*
D11*
X153322500Y-119530000D03*
D10*
G36*
X156784504Y-118656204D02*
X156808773Y-118659804D01*
X156832571Y-118665765D01*
X156855671Y-118674030D01*
X156877849Y-118684520D01*
X156898893Y-118697133D01*
X156918598Y-118711747D01*
X156936777Y-118728223D01*
X156953253Y-118746402D01*
X156967867Y-118766107D01*
X156980480Y-118787151D01*
X156990970Y-118809329D01*
X156999235Y-118832429D01*
X157005196Y-118856227D01*
X157008796Y-118880496D01*
X157010000Y-118905000D01*
X157010000Y-120155000D01*
X157008796Y-120179504D01*
X157005196Y-120203773D01*
X156999235Y-120227571D01*
X156990970Y-120250671D01*
X156980480Y-120272849D01*
X156967867Y-120293893D01*
X156953253Y-120313598D01*
X156936777Y-120331777D01*
X156918598Y-120348253D01*
X156898893Y-120362867D01*
X156877849Y-120375480D01*
X156855671Y-120385970D01*
X156832571Y-120394235D01*
X156808773Y-120400196D01*
X156784504Y-120403796D01*
X156760000Y-120405000D01*
X155835000Y-120405000D01*
X155810496Y-120403796D01*
X155786227Y-120400196D01*
X155762429Y-120394235D01*
X155739329Y-120385970D01*
X155717151Y-120375480D01*
X155696107Y-120362867D01*
X155676402Y-120348253D01*
X155658223Y-120331777D01*
X155641747Y-120313598D01*
X155627133Y-120293893D01*
X155614520Y-120272849D01*
X155604030Y-120250671D01*
X155595765Y-120227571D01*
X155589804Y-120203773D01*
X155586204Y-120179504D01*
X155585000Y-120155000D01*
X155585000Y-118905000D01*
X155586204Y-118880496D01*
X155589804Y-118856227D01*
X155595765Y-118832429D01*
X155604030Y-118809329D01*
X155614520Y-118787151D01*
X155627133Y-118766107D01*
X155641747Y-118746402D01*
X155658223Y-118728223D01*
X155676402Y-118711747D01*
X155696107Y-118697133D01*
X155717151Y-118684520D01*
X155739329Y-118674030D01*
X155762429Y-118665765D01*
X155786227Y-118659804D01*
X155810496Y-118656204D01*
X155835000Y-118655000D01*
X156760000Y-118655000D01*
X156784504Y-118656204D01*
X156784504Y-118656204D01*
G37*
D11*
X156297500Y-119530000D03*
G04 #@! TD*
D10*
G04 #@! TO.C,R14*
G36*
X157044504Y-111036204D02*
X157068773Y-111039804D01*
X157092571Y-111045765D01*
X157115671Y-111054030D01*
X157137849Y-111064520D01*
X157158893Y-111077133D01*
X157178598Y-111091747D01*
X157196777Y-111108223D01*
X157213253Y-111126402D01*
X157227867Y-111146107D01*
X157240480Y-111167151D01*
X157250970Y-111189329D01*
X157259235Y-111212429D01*
X157265196Y-111236227D01*
X157268796Y-111260496D01*
X157270000Y-111285000D01*
X157270000Y-112535000D01*
X157268796Y-112559504D01*
X157265196Y-112583773D01*
X157259235Y-112607571D01*
X157250970Y-112630671D01*
X157240480Y-112652849D01*
X157227867Y-112673893D01*
X157213253Y-112693598D01*
X157196777Y-112711777D01*
X157178598Y-112728253D01*
X157158893Y-112742867D01*
X157137849Y-112755480D01*
X157115671Y-112765970D01*
X157092571Y-112774235D01*
X157068773Y-112780196D01*
X157044504Y-112783796D01*
X157020000Y-112785000D01*
X156095000Y-112785000D01*
X156070496Y-112783796D01*
X156046227Y-112780196D01*
X156022429Y-112774235D01*
X155999329Y-112765970D01*
X155977151Y-112755480D01*
X155956107Y-112742867D01*
X155936402Y-112728253D01*
X155918223Y-112711777D01*
X155901747Y-112693598D01*
X155887133Y-112673893D01*
X155874520Y-112652849D01*
X155864030Y-112630671D01*
X155855765Y-112607571D01*
X155849804Y-112583773D01*
X155846204Y-112559504D01*
X155845000Y-112535000D01*
X155845000Y-111285000D01*
X155846204Y-111260496D01*
X155849804Y-111236227D01*
X155855765Y-111212429D01*
X155864030Y-111189329D01*
X155874520Y-111167151D01*
X155887133Y-111146107D01*
X155901747Y-111126402D01*
X155918223Y-111108223D01*
X155936402Y-111091747D01*
X155956107Y-111077133D01*
X155977151Y-111064520D01*
X155999329Y-111054030D01*
X156022429Y-111045765D01*
X156046227Y-111039804D01*
X156070496Y-111036204D01*
X156095000Y-111035000D01*
X157020000Y-111035000D01*
X157044504Y-111036204D01*
X157044504Y-111036204D01*
G37*
D11*
X156557500Y-111910000D03*
D10*
G36*
X154069504Y-111036204D02*
X154093773Y-111039804D01*
X154117571Y-111045765D01*
X154140671Y-111054030D01*
X154162849Y-111064520D01*
X154183893Y-111077133D01*
X154203598Y-111091747D01*
X154221777Y-111108223D01*
X154238253Y-111126402D01*
X154252867Y-111146107D01*
X154265480Y-111167151D01*
X154275970Y-111189329D01*
X154284235Y-111212429D01*
X154290196Y-111236227D01*
X154293796Y-111260496D01*
X154295000Y-111285000D01*
X154295000Y-112535000D01*
X154293796Y-112559504D01*
X154290196Y-112583773D01*
X154284235Y-112607571D01*
X154275970Y-112630671D01*
X154265480Y-112652849D01*
X154252867Y-112673893D01*
X154238253Y-112693598D01*
X154221777Y-112711777D01*
X154203598Y-112728253D01*
X154183893Y-112742867D01*
X154162849Y-112755480D01*
X154140671Y-112765970D01*
X154117571Y-112774235D01*
X154093773Y-112780196D01*
X154069504Y-112783796D01*
X154045000Y-112785000D01*
X153120000Y-112785000D01*
X153095496Y-112783796D01*
X153071227Y-112780196D01*
X153047429Y-112774235D01*
X153024329Y-112765970D01*
X153002151Y-112755480D01*
X152981107Y-112742867D01*
X152961402Y-112728253D01*
X152943223Y-112711777D01*
X152926747Y-112693598D01*
X152912133Y-112673893D01*
X152899520Y-112652849D01*
X152889030Y-112630671D01*
X152880765Y-112607571D01*
X152874804Y-112583773D01*
X152871204Y-112559504D01*
X152870000Y-112535000D01*
X152870000Y-111285000D01*
X152871204Y-111260496D01*
X152874804Y-111236227D01*
X152880765Y-111212429D01*
X152889030Y-111189329D01*
X152899520Y-111167151D01*
X152912133Y-111146107D01*
X152926747Y-111126402D01*
X152943223Y-111108223D01*
X152961402Y-111091747D01*
X152981107Y-111077133D01*
X153002151Y-111064520D01*
X153024329Y-111054030D01*
X153047429Y-111045765D01*
X153071227Y-111039804D01*
X153095496Y-111036204D01*
X153120000Y-111035000D01*
X154045000Y-111035000D01*
X154069504Y-111036204D01*
X154069504Y-111036204D01*
G37*
D11*
X153582500Y-111910000D03*
G04 #@! TD*
D10*
G04 #@! TO.C,R13*
G36*
X153939504Y-104106204D02*
X153963773Y-104109804D01*
X153987571Y-104115765D01*
X154010671Y-104124030D01*
X154032849Y-104134520D01*
X154053893Y-104147133D01*
X154073598Y-104161747D01*
X154091777Y-104178223D01*
X154108253Y-104196402D01*
X154122867Y-104216107D01*
X154135480Y-104237151D01*
X154145970Y-104259329D01*
X154154235Y-104282429D01*
X154160196Y-104306227D01*
X154163796Y-104330496D01*
X154165000Y-104355000D01*
X154165000Y-105605000D01*
X154163796Y-105629504D01*
X154160196Y-105653773D01*
X154154235Y-105677571D01*
X154145970Y-105700671D01*
X154135480Y-105722849D01*
X154122867Y-105743893D01*
X154108253Y-105763598D01*
X154091777Y-105781777D01*
X154073598Y-105798253D01*
X154053893Y-105812867D01*
X154032849Y-105825480D01*
X154010671Y-105835970D01*
X153987571Y-105844235D01*
X153963773Y-105850196D01*
X153939504Y-105853796D01*
X153915000Y-105855000D01*
X152990000Y-105855000D01*
X152965496Y-105853796D01*
X152941227Y-105850196D01*
X152917429Y-105844235D01*
X152894329Y-105835970D01*
X152872151Y-105825480D01*
X152851107Y-105812867D01*
X152831402Y-105798253D01*
X152813223Y-105781777D01*
X152796747Y-105763598D01*
X152782133Y-105743893D01*
X152769520Y-105722849D01*
X152759030Y-105700671D01*
X152750765Y-105677571D01*
X152744804Y-105653773D01*
X152741204Y-105629504D01*
X152740000Y-105605000D01*
X152740000Y-104355000D01*
X152741204Y-104330496D01*
X152744804Y-104306227D01*
X152750765Y-104282429D01*
X152759030Y-104259329D01*
X152769520Y-104237151D01*
X152782133Y-104216107D01*
X152796747Y-104196402D01*
X152813223Y-104178223D01*
X152831402Y-104161747D01*
X152851107Y-104147133D01*
X152872151Y-104134520D01*
X152894329Y-104124030D01*
X152917429Y-104115765D01*
X152941227Y-104109804D01*
X152965496Y-104106204D01*
X152990000Y-104105000D01*
X153915000Y-104105000D01*
X153939504Y-104106204D01*
X153939504Y-104106204D01*
G37*
D11*
X153452500Y-104980000D03*
D10*
G36*
X156914504Y-104106204D02*
X156938773Y-104109804D01*
X156962571Y-104115765D01*
X156985671Y-104124030D01*
X157007849Y-104134520D01*
X157028893Y-104147133D01*
X157048598Y-104161747D01*
X157066777Y-104178223D01*
X157083253Y-104196402D01*
X157097867Y-104216107D01*
X157110480Y-104237151D01*
X157120970Y-104259329D01*
X157129235Y-104282429D01*
X157135196Y-104306227D01*
X157138796Y-104330496D01*
X157140000Y-104355000D01*
X157140000Y-105605000D01*
X157138796Y-105629504D01*
X157135196Y-105653773D01*
X157129235Y-105677571D01*
X157120970Y-105700671D01*
X157110480Y-105722849D01*
X157097867Y-105743893D01*
X157083253Y-105763598D01*
X157066777Y-105781777D01*
X157048598Y-105798253D01*
X157028893Y-105812867D01*
X157007849Y-105825480D01*
X156985671Y-105835970D01*
X156962571Y-105844235D01*
X156938773Y-105850196D01*
X156914504Y-105853796D01*
X156890000Y-105855000D01*
X155965000Y-105855000D01*
X155940496Y-105853796D01*
X155916227Y-105850196D01*
X155892429Y-105844235D01*
X155869329Y-105835970D01*
X155847151Y-105825480D01*
X155826107Y-105812867D01*
X155806402Y-105798253D01*
X155788223Y-105781777D01*
X155771747Y-105763598D01*
X155757133Y-105743893D01*
X155744520Y-105722849D01*
X155734030Y-105700671D01*
X155725765Y-105677571D01*
X155719804Y-105653773D01*
X155716204Y-105629504D01*
X155715000Y-105605000D01*
X155715000Y-104355000D01*
X155716204Y-104330496D01*
X155719804Y-104306227D01*
X155725765Y-104282429D01*
X155734030Y-104259329D01*
X155744520Y-104237151D01*
X155757133Y-104216107D01*
X155771747Y-104196402D01*
X155788223Y-104178223D01*
X155806402Y-104161747D01*
X155826107Y-104147133D01*
X155847151Y-104134520D01*
X155869329Y-104124030D01*
X155892429Y-104115765D01*
X155916227Y-104109804D01*
X155940496Y-104106204D01*
X155965000Y-104105000D01*
X156890000Y-104105000D01*
X156914504Y-104106204D01*
X156914504Y-104106204D01*
G37*
D11*
X156427500Y-104980000D03*
G04 #@! TD*
D10*
G04 #@! TO.C,R12*
G36*
X156914504Y-96486204D02*
X156938773Y-96489804D01*
X156962571Y-96495765D01*
X156985671Y-96504030D01*
X157007849Y-96514520D01*
X157028893Y-96527133D01*
X157048598Y-96541747D01*
X157066777Y-96558223D01*
X157083253Y-96576402D01*
X157097867Y-96596107D01*
X157110480Y-96617151D01*
X157120970Y-96639329D01*
X157129235Y-96662429D01*
X157135196Y-96686227D01*
X157138796Y-96710496D01*
X157140000Y-96735000D01*
X157140000Y-97985000D01*
X157138796Y-98009504D01*
X157135196Y-98033773D01*
X157129235Y-98057571D01*
X157120970Y-98080671D01*
X157110480Y-98102849D01*
X157097867Y-98123893D01*
X157083253Y-98143598D01*
X157066777Y-98161777D01*
X157048598Y-98178253D01*
X157028893Y-98192867D01*
X157007849Y-98205480D01*
X156985671Y-98215970D01*
X156962571Y-98224235D01*
X156938773Y-98230196D01*
X156914504Y-98233796D01*
X156890000Y-98235000D01*
X155965000Y-98235000D01*
X155940496Y-98233796D01*
X155916227Y-98230196D01*
X155892429Y-98224235D01*
X155869329Y-98215970D01*
X155847151Y-98205480D01*
X155826107Y-98192867D01*
X155806402Y-98178253D01*
X155788223Y-98161777D01*
X155771747Y-98143598D01*
X155757133Y-98123893D01*
X155744520Y-98102849D01*
X155734030Y-98080671D01*
X155725765Y-98057571D01*
X155719804Y-98033773D01*
X155716204Y-98009504D01*
X155715000Y-97985000D01*
X155715000Y-96735000D01*
X155716204Y-96710496D01*
X155719804Y-96686227D01*
X155725765Y-96662429D01*
X155734030Y-96639329D01*
X155744520Y-96617151D01*
X155757133Y-96596107D01*
X155771747Y-96576402D01*
X155788223Y-96558223D01*
X155806402Y-96541747D01*
X155826107Y-96527133D01*
X155847151Y-96514520D01*
X155869329Y-96504030D01*
X155892429Y-96495765D01*
X155916227Y-96489804D01*
X155940496Y-96486204D01*
X155965000Y-96485000D01*
X156890000Y-96485000D01*
X156914504Y-96486204D01*
X156914504Y-96486204D01*
G37*
D11*
X156427500Y-97360000D03*
D10*
G36*
X153939504Y-96486204D02*
X153963773Y-96489804D01*
X153987571Y-96495765D01*
X154010671Y-96504030D01*
X154032849Y-96514520D01*
X154053893Y-96527133D01*
X154073598Y-96541747D01*
X154091777Y-96558223D01*
X154108253Y-96576402D01*
X154122867Y-96596107D01*
X154135480Y-96617151D01*
X154145970Y-96639329D01*
X154154235Y-96662429D01*
X154160196Y-96686227D01*
X154163796Y-96710496D01*
X154165000Y-96735000D01*
X154165000Y-97985000D01*
X154163796Y-98009504D01*
X154160196Y-98033773D01*
X154154235Y-98057571D01*
X154145970Y-98080671D01*
X154135480Y-98102849D01*
X154122867Y-98123893D01*
X154108253Y-98143598D01*
X154091777Y-98161777D01*
X154073598Y-98178253D01*
X154053893Y-98192867D01*
X154032849Y-98205480D01*
X154010671Y-98215970D01*
X153987571Y-98224235D01*
X153963773Y-98230196D01*
X153939504Y-98233796D01*
X153915000Y-98235000D01*
X152990000Y-98235000D01*
X152965496Y-98233796D01*
X152941227Y-98230196D01*
X152917429Y-98224235D01*
X152894329Y-98215970D01*
X152872151Y-98205480D01*
X152851107Y-98192867D01*
X152831402Y-98178253D01*
X152813223Y-98161777D01*
X152796747Y-98143598D01*
X152782133Y-98123893D01*
X152769520Y-98102849D01*
X152759030Y-98080671D01*
X152750765Y-98057571D01*
X152744804Y-98033773D01*
X152741204Y-98009504D01*
X152740000Y-97985000D01*
X152740000Y-96735000D01*
X152741204Y-96710496D01*
X152744804Y-96686227D01*
X152750765Y-96662429D01*
X152759030Y-96639329D01*
X152769520Y-96617151D01*
X152782133Y-96596107D01*
X152796747Y-96576402D01*
X152813223Y-96558223D01*
X152831402Y-96541747D01*
X152851107Y-96527133D01*
X152872151Y-96514520D01*
X152894329Y-96504030D01*
X152917429Y-96495765D01*
X152941227Y-96489804D01*
X152965496Y-96486204D01*
X152990000Y-96485000D01*
X153915000Y-96485000D01*
X153939504Y-96486204D01*
X153939504Y-96486204D01*
G37*
D11*
X153452500Y-97360000D03*
G04 #@! TD*
D10*
G04 #@! TO.C,R11*
G36*
X154069504Y-89326204D02*
X154093773Y-89329804D01*
X154117571Y-89335765D01*
X154140671Y-89344030D01*
X154162849Y-89354520D01*
X154183893Y-89367133D01*
X154203598Y-89381747D01*
X154221777Y-89398223D01*
X154238253Y-89416402D01*
X154252867Y-89436107D01*
X154265480Y-89457151D01*
X154275970Y-89479329D01*
X154284235Y-89502429D01*
X154290196Y-89526227D01*
X154293796Y-89550496D01*
X154295000Y-89575000D01*
X154295000Y-90825000D01*
X154293796Y-90849504D01*
X154290196Y-90873773D01*
X154284235Y-90897571D01*
X154275970Y-90920671D01*
X154265480Y-90942849D01*
X154252867Y-90963893D01*
X154238253Y-90983598D01*
X154221777Y-91001777D01*
X154203598Y-91018253D01*
X154183893Y-91032867D01*
X154162849Y-91045480D01*
X154140671Y-91055970D01*
X154117571Y-91064235D01*
X154093773Y-91070196D01*
X154069504Y-91073796D01*
X154045000Y-91075000D01*
X153120000Y-91075000D01*
X153095496Y-91073796D01*
X153071227Y-91070196D01*
X153047429Y-91064235D01*
X153024329Y-91055970D01*
X153002151Y-91045480D01*
X152981107Y-91032867D01*
X152961402Y-91018253D01*
X152943223Y-91001777D01*
X152926747Y-90983598D01*
X152912133Y-90963893D01*
X152899520Y-90942849D01*
X152889030Y-90920671D01*
X152880765Y-90897571D01*
X152874804Y-90873773D01*
X152871204Y-90849504D01*
X152870000Y-90825000D01*
X152870000Y-89575000D01*
X152871204Y-89550496D01*
X152874804Y-89526227D01*
X152880765Y-89502429D01*
X152889030Y-89479329D01*
X152899520Y-89457151D01*
X152912133Y-89436107D01*
X152926747Y-89416402D01*
X152943223Y-89398223D01*
X152961402Y-89381747D01*
X152981107Y-89367133D01*
X153002151Y-89354520D01*
X153024329Y-89344030D01*
X153047429Y-89335765D01*
X153071227Y-89329804D01*
X153095496Y-89326204D01*
X153120000Y-89325000D01*
X154045000Y-89325000D01*
X154069504Y-89326204D01*
X154069504Y-89326204D01*
G37*
D11*
X153582500Y-90200000D03*
D10*
G36*
X157044504Y-89326204D02*
X157068773Y-89329804D01*
X157092571Y-89335765D01*
X157115671Y-89344030D01*
X157137849Y-89354520D01*
X157158893Y-89367133D01*
X157178598Y-89381747D01*
X157196777Y-89398223D01*
X157213253Y-89416402D01*
X157227867Y-89436107D01*
X157240480Y-89457151D01*
X157250970Y-89479329D01*
X157259235Y-89502429D01*
X157265196Y-89526227D01*
X157268796Y-89550496D01*
X157270000Y-89575000D01*
X157270000Y-90825000D01*
X157268796Y-90849504D01*
X157265196Y-90873773D01*
X157259235Y-90897571D01*
X157250970Y-90920671D01*
X157240480Y-90942849D01*
X157227867Y-90963893D01*
X157213253Y-90983598D01*
X157196777Y-91001777D01*
X157178598Y-91018253D01*
X157158893Y-91032867D01*
X157137849Y-91045480D01*
X157115671Y-91055970D01*
X157092571Y-91064235D01*
X157068773Y-91070196D01*
X157044504Y-91073796D01*
X157020000Y-91075000D01*
X156095000Y-91075000D01*
X156070496Y-91073796D01*
X156046227Y-91070196D01*
X156022429Y-91064235D01*
X155999329Y-91055970D01*
X155977151Y-91045480D01*
X155956107Y-91032867D01*
X155936402Y-91018253D01*
X155918223Y-91001777D01*
X155901747Y-90983598D01*
X155887133Y-90963893D01*
X155874520Y-90942849D01*
X155864030Y-90920671D01*
X155855765Y-90897571D01*
X155849804Y-90873773D01*
X155846204Y-90849504D01*
X155845000Y-90825000D01*
X155845000Y-89575000D01*
X155846204Y-89550496D01*
X155849804Y-89526227D01*
X155855765Y-89502429D01*
X155864030Y-89479329D01*
X155874520Y-89457151D01*
X155887133Y-89436107D01*
X155901747Y-89416402D01*
X155918223Y-89398223D01*
X155936402Y-89381747D01*
X155956107Y-89367133D01*
X155977151Y-89354520D01*
X155999329Y-89344030D01*
X156022429Y-89335765D01*
X156046227Y-89329804D01*
X156070496Y-89326204D01*
X156095000Y-89325000D01*
X157020000Y-89325000D01*
X157044504Y-89326204D01*
X157044504Y-89326204D01*
G37*
D11*
X156557500Y-90200000D03*
G04 #@! TD*
D10*
G04 #@! TO.C,R10*
G36*
X157044504Y-82196204D02*
X157068773Y-82199804D01*
X157092571Y-82205765D01*
X157115671Y-82214030D01*
X157137849Y-82224520D01*
X157158893Y-82237133D01*
X157178598Y-82251747D01*
X157196777Y-82268223D01*
X157213253Y-82286402D01*
X157227867Y-82306107D01*
X157240480Y-82327151D01*
X157250970Y-82349329D01*
X157259235Y-82372429D01*
X157265196Y-82396227D01*
X157268796Y-82420496D01*
X157270000Y-82445000D01*
X157270000Y-83695000D01*
X157268796Y-83719504D01*
X157265196Y-83743773D01*
X157259235Y-83767571D01*
X157250970Y-83790671D01*
X157240480Y-83812849D01*
X157227867Y-83833893D01*
X157213253Y-83853598D01*
X157196777Y-83871777D01*
X157178598Y-83888253D01*
X157158893Y-83902867D01*
X157137849Y-83915480D01*
X157115671Y-83925970D01*
X157092571Y-83934235D01*
X157068773Y-83940196D01*
X157044504Y-83943796D01*
X157020000Y-83945000D01*
X156095000Y-83945000D01*
X156070496Y-83943796D01*
X156046227Y-83940196D01*
X156022429Y-83934235D01*
X155999329Y-83925970D01*
X155977151Y-83915480D01*
X155956107Y-83902867D01*
X155936402Y-83888253D01*
X155918223Y-83871777D01*
X155901747Y-83853598D01*
X155887133Y-83833893D01*
X155874520Y-83812849D01*
X155864030Y-83790671D01*
X155855765Y-83767571D01*
X155849804Y-83743773D01*
X155846204Y-83719504D01*
X155845000Y-83695000D01*
X155845000Y-82445000D01*
X155846204Y-82420496D01*
X155849804Y-82396227D01*
X155855765Y-82372429D01*
X155864030Y-82349329D01*
X155874520Y-82327151D01*
X155887133Y-82306107D01*
X155901747Y-82286402D01*
X155918223Y-82268223D01*
X155936402Y-82251747D01*
X155956107Y-82237133D01*
X155977151Y-82224520D01*
X155999329Y-82214030D01*
X156022429Y-82205765D01*
X156046227Y-82199804D01*
X156070496Y-82196204D01*
X156095000Y-82195000D01*
X157020000Y-82195000D01*
X157044504Y-82196204D01*
X157044504Y-82196204D01*
G37*
D11*
X156557500Y-83070000D03*
D10*
G36*
X154069504Y-82196204D02*
X154093773Y-82199804D01*
X154117571Y-82205765D01*
X154140671Y-82214030D01*
X154162849Y-82224520D01*
X154183893Y-82237133D01*
X154203598Y-82251747D01*
X154221777Y-82268223D01*
X154238253Y-82286402D01*
X154252867Y-82306107D01*
X154265480Y-82327151D01*
X154275970Y-82349329D01*
X154284235Y-82372429D01*
X154290196Y-82396227D01*
X154293796Y-82420496D01*
X154295000Y-82445000D01*
X154295000Y-83695000D01*
X154293796Y-83719504D01*
X154290196Y-83743773D01*
X154284235Y-83767571D01*
X154275970Y-83790671D01*
X154265480Y-83812849D01*
X154252867Y-83833893D01*
X154238253Y-83853598D01*
X154221777Y-83871777D01*
X154203598Y-83888253D01*
X154183893Y-83902867D01*
X154162849Y-83915480D01*
X154140671Y-83925970D01*
X154117571Y-83934235D01*
X154093773Y-83940196D01*
X154069504Y-83943796D01*
X154045000Y-83945000D01*
X153120000Y-83945000D01*
X153095496Y-83943796D01*
X153071227Y-83940196D01*
X153047429Y-83934235D01*
X153024329Y-83925970D01*
X153002151Y-83915480D01*
X152981107Y-83902867D01*
X152961402Y-83888253D01*
X152943223Y-83871777D01*
X152926747Y-83853598D01*
X152912133Y-83833893D01*
X152899520Y-83812849D01*
X152889030Y-83790671D01*
X152880765Y-83767571D01*
X152874804Y-83743773D01*
X152871204Y-83719504D01*
X152870000Y-83695000D01*
X152870000Y-82445000D01*
X152871204Y-82420496D01*
X152874804Y-82396227D01*
X152880765Y-82372429D01*
X152889030Y-82349329D01*
X152899520Y-82327151D01*
X152912133Y-82306107D01*
X152926747Y-82286402D01*
X152943223Y-82268223D01*
X152961402Y-82251747D01*
X152981107Y-82237133D01*
X153002151Y-82224520D01*
X153024329Y-82214030D01*
X153047429Y-82205765D01*
X153071227Y-82199804D01*
X153095496Y-82196204D01*
X153120000Y-82195000D01*
X154045000Y-82195000D01*
X154069504Y-82196204D01*
X154069504Y-82196204D01*
G37*
D11*
X153582500Y-83070000D03*
G04 #@! TD*
D10*
G04 #@! TO.C,R8*
G36*
X142889504Y-118601204D02*
X142913773Y-118604804D01*
X142937571Y-118610765D01*
X142960671Y-118619030D01*
X142982849Y-118629520D01*
X143003893Y-118642133D01*
X143023598Y-118656747D01*
X143041777Y-118673223D01*
X143058253Y-118691402D01*
X143072867Y-118711107D01*
X143085480Y-118732151D01*
X143095970Y-118754329D01*
X143104235Y-118777429D01*
X143110196Y-118801227D01*
X143113796Y-118825496D01*
X143115000Y-118850000D01*
X143115000Y-119775000D01*
X143113796Y-119799504D01*
X143110196Y-119823773D01*
X143104235Y-119847571D01*
X143095970Y-119870671D01*
X143085480Y-119892849D01*
X143072867Y-119913893D01*
X143058253Y-119933598D01*
X143041777Y-119951777D01*
X143023598Y-119968253D01*
X143003893Y-119982867D01*
X142982849Y-119995480D01*
X142960671Y-120005970D01*
X142937571Y-120014235D01*
X142913773Y-120020196D01*
X142889504Y-120023796D01*
X142865000Y-120025000D01*
X141615000Y-120025000D01*
X141590496Y-120023796D01*
X141566227Y-120020196D01*
X141542429Y-120014235D01*
X141519329Y-120005970D01*
X141497151Y-119995480D01*
X141476107Y-119982867D01*
X141456402Y-119968253D01*
X141438223Y-119951777D01*
X141421747Y-119933598D01*
X141407133Y-119913893D01*
X141394520Y-119892849D01*
X141384030Y-119870671D01*
X141375765Y-119847571D01*
X141369804Y-119823773D01*
X141366204Y-119799504D01*
X141365000Y-119775000D01*
X141365000Y-118850000D01*
X141366204Y-118825496D01*
X141369804Y-118801227D01*
X141375765Y-118777429D01*
X141384030Y-118754329D01*
X141394520Y-118732151D01*
X141407133Y-118711107D01*
X141421747Y-118691402D01*
X141438223Y-118673223D01*
X141456402Y-118656747D01*
X141476107Y-118642133D01*
X141497151Y-118629520D01*
X141519329Y-118619030D01*
X141542429Y-118610765D01*
X141566227Y-118604804D01*
X141590496Y-118601204D01*
X141615000Y-118600000D01*
X142865000Y-118600000D01*
X142889504Y-118601204D01*
X142889504Y-118601204D01*
G37*
D11*
X142240000Y-119312500D03*
D10*
G36*
X142889504Y-121576204D02*
X142913773Y-121579804D01*
X142937571Y-121585765D01*
X142960671Y-121594030D01*
X142982849Y-121604520D01*
X143003893Y-121617133D01*
X143023598Y-121631747D01*
X143041777Y-121648223D01*
X143058253Y-121666402D01*
X143072867Y-121686107D01*
X143085480Y-121707151D01*
X143095970Y-121729329D01*
X143104235Y-121752429D01*
X143110196Y-121776227D01*
X143113796Y-121800496D01*
X143115000Y-121825000D01*
X143115000Y-122750000D01*
X143113796Y-122774504D01*
X143110196Y-122798773D01*
X143104235Y-122822571D01*
X143095970Y-122845671D01*
X143085480Y-122867849D01*
X143072867Y-122888893D01*
X143058253Y-122908598D01*
X143041777Y-122926777D01*
X143023598Y-122943253D01*
X143003893Y-122957867D01*
X142982849Y-122970480D01*
X142960671Y-122980970D01*
X142937571Y-122989235D01*
X142913773Y-122995196D01*
X142889504Y-122998796D01*
X142865000Y-123000000D01*
X141615000Y-123000000D01*
X141590496Y-122998796D01*
X141566227Y-122995196D01*
X141542429Y-122989235D01*
X141519329Y-122980970D01*
X141497151Y-122970480D01*
X141476107Y-122957867D01*
X141456402Y-122943253D01*
X141438223Y-122926777D01*
X141421747Y-122908598D01*
X141407133Y-122888893D01*
X141394520Y-122867849D01*
X141384030Y-122845671D01*
X141375765Y-122822571D01*
X141369804Y-122798773D01*
X141366204Y-122774504D01*
X141365000Y-122750000D01*
X141365000Y-121825000D01*
X141366204Y-121800496D01*
X141369804Y-121776227D01*
X141375765Y-121752429D01*
X141384030Y-121729329D01*
X141394520Y-121707151D01*
X141407133Y-121686107D01*
X141421747Y-121666402D01*
X141438223Y-121648223D01*
X141456402Y-121631747D01*
X141476107Y-121617133D01*
X141497151Y-121604520D01*
X141519329Y-121594030D01*
X141542429Y-121585765D01*
X141566227Y-121579804D01*
X141590496Y-121576204D01*
X141615000Y-121575000D01*
X142865000Y-121575000D01*
X142889504Y-121576204D01*
X142889504Y-121576204D01*
G37*
D11*
X142240000Y-122287500D03*
G04 #@! TD*
D10*
G04 #@! TO.C,R6*
G36*
X142889504Y-106896204D02*
X142913773Y-106899804D01*
X142937571Y-106905765D01*
X142960671Y-106914030D01*
X142982849Y-106924520D01*
X143003893Y-106937133D01*
X143023598Y-106951747D01*
X143041777Y-106968223D01*
X143058253Y-106986402D01*
X143072867Y-107006107D01*
X143085480Y-107027151D01*
X143095970Y-107049329D01*
X143104235Y-107072429D01*
X143110196Y-107096227D01*
X143113796Y-107120496D01*
X143115000Y-107145000D01*
X143115000Y-108070000D01*
X143113796Y-108094504D01*
X143110196Y-108118773D01*
X143104235Y-108142571D01*
X143095970Y-108165671D01*
X143085480Y-108187849D01*
X143072867Y-108208893D01*
X143058253Y-108228598D01*
X143041777Y-108246777D01*
X143023598Y-108263253D01*
X143003893Y-108277867D01*
X142982849Y-108290480D01*
X142960671Y-108300970D01*
X142937571Y-108309235D01*
X142913773Y-108315196D01*
X142889504Y-108318796D01*
X142865000Y-108320000D01*
X141615000Y-108320000D01*
X141590496Y-108318796D01*
X141566227Y-108315196D01*
X141542429Y-108309235D01*
X141519329Y-108300970D01*
X141497151Y-108290480D01*
X141476107Y-108277867D01*
X141456402Y-108263253D01*
X141438223Y-108246777D01*
X141421747Y-108228598D01*
X141407133Y-108208893D01*
X141394520Y-108187849D01*
X141384030Y-108165671D01*
X141375765Y-108142571D01*
X141369804Y-108118773D01*
X141366204Y-108094504D01*
X141365000Y-108070000D01*
X141365000Y-107145000D01*
X141366204Y-107120496D01*
X141369804Y-107096227D01*
X141375765Y-107072429D01*
X141384030Y-107049329D01*
X141394520Y-107027151D01*
X141407133Y-107006107D01*
X141421747Y-106986402D01*
X141438223Y-106968223D01*
X141456402Y-106951747D01*
X141476107Y-106937133D01*
X141497151Y-106924520D01*
X141519329Y-106914030D01*
X141542429Y-106905765D01*
X141566227Y-106899804D01*
X141590496Y-106896204D01*
X141615000Y-106895000D01*
X142865000Y-106895000D01*
X142889504Y-106896204D01*
X142889504Y-106896204D01*
G37*
D11*
X142240000Y-107607500D03*
D10*
G36*
X142889504Y-103921204D02*
X142913773Y-103924804D01*
X142937571Y-103930765D01*
X142960671Y-103939030D01*
X142982849Y-103949520D01*
X143003893Y-103962133D01*
X143023598Y-103976747D01*
X143041777Y-103993223D01*
X143058253Y-104011402D01*
X143072867Y-104031107D01*
X143085480Y-104052151D01*
X143095970Y-104074329D01*
X143104235Y-104097429D01*
X143110196Y-104121227D01*
X143113796Y-104145496D01*
X143115000Y-104170000D01*
X143115000Y-105095000D01*
X143113796Y-105119504D01*
X143110196Y-105143773D01*
X143104235Y-105167571D01*
X143095970Y-105190671D01*
X143085480Y-105212849D01*
X143072867Y-105233893D01*
X143058253Y-105253598D01*
X143041777Y-105271777D01*
X143023598Y-105288253D01*
X143003893Y-105302867D01*
X142982849Y-105315480D01*
X142960671Y-105325970D01*
X142937571Y-105334235D01*
X142913773Y-105340196D01*
X142889504Y-105343796D01*
X142865000Y-105345000D01*
X141615000Y-105345000D01*
X141590496Y-105343796D01*
X141566227Y-105340196D01*
X141542429Y-105334235D01*
X141519329Y-105325970D01*
X141497151Y-105315480D01*
X141476107Y-105302867D01*
X141456402Y-105288253D01*
X141438223Y-105271777D01*
X141421747Y-105253598D01*
X141407133Y-105233893D01*
X141394520Y-105212849D01*
X141384030Y-105190671D01*
X141375765Y-105167571D01*
X141369804Y-105143773D01*
X141366204Y-105119504D01*
X141365000Y-105095000D01*
X141365000Y-104170000D01*
X141366204Y-104145496D01*
X141369804Y-104121227D01*
X141375765Y-104097429D01*
X141384030Y-104074329D01*
X141394520Y-104052151D01*
X141407133Y-104031107D01*
X141421747Y-104011402D01*
X141438223Y-103993223D01*
X141456402Y-103976747D01*
X141476107Y-103962133D01*
X141497151Y-103949520D01*
X141519329Y-103939030D01*
X141542429Y-103930765D01*
X141566227Y-103924804D01*
X141590496Y-103921204D01*
X141615000Y-103920000D01*
X142865000Y-103920000D01*
X142889504Y-103921204D01*
X142889504Y-103921204D01*
G37*
D11*
X142240000Y-104632500D03*
G04 #@! TD*
D10*
G04 #@! TO.C,R4*
G36*
X142889504Y-89271204D02*
X142913773Y-89274804D01*
X142937571Y-89280765D01*
X142960671Y-89289030D01*
X142982849Y-89299520D01*
X143003893Y-89312133D01*
X143023598Y-89326747D01*
X143041777Y-89343223D01*
X143058253Y-89361402D01*
X143072867Y-89381107D01*
X143085480Y-89402151D01*
X143095970Y-89424329D01*
X143104235Y-89447429D01*
X143110196Y-89471227D01*
X143113796Y-89495496D01*
X143115000Y-89520000D01*
X143115000Y-90445000D01*
X143113796Y-90469504D01*
X143110196Y-90493773D01*
X143104235Y-90517571D01*
X143095970Y-90540671D01*
X143085480Y-90562849D01*
X143072867Y-90583893D01*
X143058253Y-90603598D01*
X143041777Y-90621777D01*
X143023598Y-90638253D01*
X143003893Y-90652867D01*
X142982849Y-90665480D01*
X142960671Y-90675970D01*
X142937571Y-90684235D01*
X142913773Y-90690196D01*
X142889504Y-90693796D01*
X142865000Y-90695000D01*
X141615000Y-90695000D01*
X141590496Y-90693796D01*
X141566227Y-90690196D01*
X141542429Y-90684235D01*
X141519329Y-90675970D01*
X141497151Y-90665480D01*
X141476107Y-90652867D01*
X141456402Y-90638253D01*
X141438223Y-90621777D01*
X141421747Y-90603598D01*
X141407133Y-90583893D01*
X141394520Y-90562849D01*
X141384030Y-90540671D01*
X141375765Y-90517571D01*
X141369804Y-90493773D01*
X141366204Y-90469504D01*
X141365000Y-90445000D01*
X141365000Y-89520000D01*
X141366204Y-89495496D01*
X141369804Y-89471227D01*
X141375765Y-89447429D01*
X141384030Y-89424329D01*
X141394520Y-89402151D01*
X141407133Y-89381107D01*
X141421747Y-89361402D01*
X141438223Y-89343223D01*
X141456402Y-89326747D01*
X141476107Y-89312133D01*
X141497151Y-89299520D01*
X141519329Y-89289030D01*
X141542429Y-89280765D01*
X141566227Y-89274804D01*
X141590496Y-89271204D01*
X141615000Y-89270000D01*
X142865000Y-89270000D01*
X142889504Y-89271204D01*
X142889504Y-89271204D01*
G37*
D11*
X142240000Y-89982500D03*
D10*
G36*
X142889504Y-92246204D02*
X142913773Y-92249804D01*
X142937571Y-92255765D01*
X142960671Y-92264030D01*
X142982849Y-92274520D01*
X143003893Y-92287133D01*
X143023598Y-92301747D01*
X143041777Y-92318223D01*
X143058253Y-92336402D01*
X143072867Y-92356107D01*
X143085480Y-92377151D01*
X143095970Y-92399329D01*
X143104235Y-92422429D01*
X143110196Y-92446227D01*
X143113796Y-92470496D01*
X143115000Y-92495000D01*
X143115000Y-93420000D01*
X143113796Y-93444504D01*
X143110196Y-93468773D01*
X143104235Y-93492571D01*
X143095970Y-93515671D01*
X143085480Y-93537849D01*
X143072867Y-93558893D01*
X143058253Y-93578598D01*
X143041777Y-93596777D01*
X143023598Y-93613253D01*
X143003893Y-93627867D01*
X142982849Y-93640480D01*
X142960671Y-93650970D01*
X142937571Y-93659235D01*
X142913773Y-93665196D01*
X142889504Y-93668796D01*
X142865000Y-93670000D01*
X141615000Y-93670000D01*
X141590496Y-93668796D01*
X141566227Y-93665196D01*
X141542429Y-93659235D01*
X141519329Y-93650970D01*
X141497151Y-93640480D01*
X141476107Y-93627867D01*
X141456402Y-93613253D01*
X141438223Y-93596777D01*
X141421747Y-93578598D01*
X141407133Y-93558893D01*
X141394520Y-93537849D01*
X141384030Y-93515671D01*
X141375765Y-93492571D01*
X141369804Y-93468773D01*
X141366204Y-93444504D01*
X141365000Y-93420000D01*
X141365000Y-92495000D01*
X141366204Y-92470496D01*
X141369804Y-92446227D01*
X141375765Y-92422429D01*
X141384030Y-92399329D01*
X141394520Y-92377151D01*
X141407133Y-92356107D01*
X141421747Y-92336402D01*
X141438223Y-92318223D01*
X141456402Y-92301747D01*
X141476107Y-92287133D01*
X141497151Y-92274520D01*
X141519329Y-92264030D01*
X141542429Y-92255765D01*
X141566227Y-92249804D01*
X141590496Y-92246204D01*
X141615000Y-92245000D01*
X142865000Y-92245000D01*
X142889504Y-92246204D01*
X142889504Y-92246204D01*
G37*
D11*
X142240000Y-92957500D03*
G04 #@! TD*
D10*
G04 #@! TO.C,R3*
G36*
X142889504Y-85246204D02*
X142913773Y-85249804D01*
X142937571Y-85255765D01*
X142960671Y-85264030D01*
X142982849Y-85274520D01*
X143003893Y-85287133D01*
X143023598Y-85301747D01*
X143041777Y-85318223D01*
X143058253Y-85336402D01*
X143072867Y-85356107D01*
X143085480Y-85377151D01*
X143095970Y-85399329D01*
X143104235Y-85422429D01*
X143110196Y-85446227D01*
X143113796Y-85470496D01*
X143115000Y-85495000D01*
X143115000Y-86420000D01*
X143113796Y-86444504D01*
X143110196Y-86468773D01*
X143104235Y-86492571D01*
X143095970Y-86515671D01*
X143085480Y-86537849D01*
X143072867Y-86558893D01*
X143058253Y-86578598D01*
X143041777Y-86596777D01*
X143023598Y-86613253D01*
X143003893Y-86627867D01*
X142982849Y-86640480D01*
X142960671Y-86650970D01*
X142937571Y-86659235D01*
X142913773Y-86665196D01*
X142889504Y-86668796D01*
X142865000Y-86670000D01*
X141615000Y-86670000D01*
X141590496Y-86668796D01*
X141566227Y-86665196D01*
X141542429Y-86659235D01*
X141519329Y-86650970D01*
X141497151Y-86640480D01*
X141476107Y-86627867D01*
X141456402Y-86613253D01*
X141438223Y-86596777D01*
X141421747Y-86578598D01*
X141407133Y-86558893D01*
X141394520Y-86537849D01*
X141384030Y-86515671D01*
X141375765Y-86492571D01*
X141369804Y-86468773D01*
X141366204Y-86444504D01*
X141365000Y-86420000D01*
X141365000Y-85495000D01*
X141366204Y-85470496D01*
X141369804Y-85446227D01*
X141375765Y-85422429D01*
X141384030Y-85399329D01*
X141394520Y-85377151D01*
X141407133Y-85356107D01*
X141421747Y-85336402D01*
X141438223Y-85318223D01*
X141456402Y-85301747D01*
X141476107Y-85287133D01*
X141497151Y-85274520D01*
X141519329Y-85264030D01*
X141542429Y-85255765D01*
X141566227Y-85249804D01*
X141590496Y-85246204D01*
X141615000Y-85245000D01*
X142865000Y-85245000D01*
X142889504Y-85246204D01*
X142889504Y-85246204D01*
G37*
D11*
X142240000Y-85957500D03*
D10*
G36*
X142889504Y-82271204D02*
X142913773Y-82274804D01*
X142937571Y-82280765D01*
X142960671Y-82289030D01*
X142982849Y-82299520D01*
X143003893Y-82312133D01*
X143023598Y-82326747D01*
X143041777Y-82343223D01*
X143058253Y-82361402D01*
X143072867Y-82381107D01*
X143085480Y-82402151D01*
X143095970Y-82424329D01*
X143104235Y-82447429D01*
X143110196Y-82471227D01*
X143113796Y-82495496D01*
X143115000Y-82520000D01*
X143115000Y-83445000D01*
X143113796Y-83469504D01*
X143110196Y-83493773D01*
X143104235Y-83517571D01*
X143095970Y-83540671D01*
X143085480Y-83562849D01*
X143072867Y-83583893D01*
X143058253Y-83603598D01*
X143041777Y-83621777D01*
X143023598Y-83638253D01*
X143003893Y-83652867D01*
X142982849Y-83665480D01*
X142960671Y-83675970D01*
X142937571Y-83684235D01*
X142913773Y-83690196D01*
X142889504Y-83693796D01*
X142865000Y-83695000D01*
X141615000Y-83695000D01*
X141590496Y-83693796D01*
X141566227Y-83690196D01*
X141542429Y-83684235D01*
X141519329Y-83675970D01*
X141497151Y-83665480D01*
X141476107Y-83652867D01*
X141456402Y-83638253D01*
X141438223Y-83621777D01*
X141421747Y-83603598D01*
X141407133Y-83583893D01*
X141394520Y-83562849D01*
X141384030Y-83540671D01*
X141375765Y-83517571D01*
X141369804Y-83493773D01*
X141366204Y-83469504D01*
X141365000Y-83445000D01*
X141365000Y-82520000D01*
X141366204Y-82495496D01*
X141369804Y-82471227D01*
X141375765Y-82447429D01*
X141384030Y-82424329D01*
X141394520Y-82402151D01*
X141407133Y-82381107D01*
X141421747Y-82361402D01*
X141438223Y-82343223D01*
X141456402Y-82326747D01*
X141476107Y-82312133D01*
X141497151Y-82299520D01*
X141519329Y-82289030D01*
X141542429Y-82280765D01*
X141566227Y-82274804D01*
X141590496Y-82271204D01*
X141615000Y-82270000D01*
X142865000Y-82270000D01*
X142889504Y-82271204D01*
X142889504Y-82271204D01*
G37*
D11*
X142240000Y-82982500D03*
G04 #@! TD*
D10*
G04 #@! TO.C,R2*
G36*
X104714504Y-109616204D02*
X104738773Y-109619804D01*
X104762571Y-109625765D01*
X104785671Y-109634030D01*
X104807849Y-109644520D01*
X104828893Y-109657133D01*
X104848598Y-109671747D01*
X104866777Y-109688223D01*
X104883253Y-109706402D01*
X104897867Y-109726107D01*
X104910480Y-109747151D01*
X104920970Y-109769329D01*
X104929235Y-109792429D01*
X104935196Y-109816227D01*
X104938796Y-109840496D01*
X104940000Y-109865000D01*
X104940000Y-111115000D01*
X104938796Y-111139504D01*
X104935196Y-111163773D01*
X104929235Y-111187571D01*
X104920970Y-111210671D01*
X104910480Y-111232849D01*
X104897867Y-111253893D01*
X104883253Y-111273598D01*
X104866777Y-111291777D01*
X104848598Y-111308253D01*
X104828893Y-111322867D01*
X104807849Y-111335480D01*
X104785671Y-111345970D01*
X104762571Y-111354235D01*
X104738773Y-111360196D01*
X104714504Y-111363796D01*
X104690000Y-111365000D01*
X103765000Y-111365000D01*
X103740496Y-111363796D01*
X103716227Y-111360196D01*
X103692429Y-111354235D01*
X103669329Y-111345970D01*
X103647151Y-111335480D01*
X103626107Y-111322867D01*
X103606402Y-111308253D01*
X103588223Y-111291777D01*
X103571747Y-111273598D01*
X103557133Y-111253893D01*
X103544520Y-111232849D01*
X103534030Y-111210671D01*
X103525765Y-111187571D01*
X103519804Y-111163773D01*
X103516204Y-111139504D01*
X103515000Y-111115000D01*
X103515000Y-109865000D01*
X103516204Y-109840496D01*
X103519804Y-109816227D01*
X103525765Y-109792429D01*
X103534030Y-109769329D01*
X103544520Y-109747151D01*
X103557133Y-109726107D01*
X103571747Y-109706402D01*
X103588223Y-109688223D01*
X103606402Y-109671747D01*
X103626107Y-109657133D01*
X103647151Y-109644520D01*
X103669329Y-109634030D01*
X103692429Y-109625765D01*
X103716227Y-109619804D01*
X103740496Y-109616204D01*
X103765000Y-109615000D01*
X104690000Y-109615000D01*
X104714504Y-109616204D01*
X104714504Y-109616204D01*
G37*
D11*
X104227500Y-110490000D03*
D10*
G36*
X101739504Y-109616204D02*
X101763773Y-109619804D01*
X101787571Y-109625765D01*
X101810671Y-109634030D01*
X101832849Y-109644520D01*
X101853893Y-109657133D01*
X101873598Y-109671747D01*
X101891777Y-109688223D01*
X101908253Y-109706402D01*
X101922867Y-109726107D01*
X101935480Y-109747151D01*
X101945970Y-109769329D01*
X101954235Y-109792429D01*
X101960196Y-109816227D01*
X101963796Y-109840496D01*
X101965000Y-109865000D01*
X101965000Y-111115000D01*
X101963796Y-111139504D01*
X101960196Y-111163773D01*
X101954235Y-111187571D01*
X101945970Y-111210671D01*
X101935480Y-111232849D01*
X101922867Y-111253893D01*
X101908253Y-111273598D01*
X101891777Y-111291777D01*
X101873598Y-111308253D01*
X101853893Y-111322867D01*
X101832849Y-111335480D01*
X101810671Y-111345970D01*
X101787571Y-111354235D01*
X101763773Y-111360196D01*
X101739504Y-111363796D01*
X101715000Y-111365000D01*
X100790000Y-111365000D01*
X100765496Y-111363796D01*
X100741227Y-111360196D01*
X100717429Y-111354235D01*
X100694329Y-111345970D01*
X100672151Y-111335480D01*
X100651107Y-111322867D01*
X100631402Y-111308253D01*
X100613223Y-111291777D01*
X100596747Y-111273598D01*
X100582133Y-111253893D01*
X100569520Y-111232849D01*
X100559030Y-111210671D01*
X100550765Y-111187571D01*
X100544804Y-111163773D01*
X100541204Y-111139504D01*
X100540000Y-111115000D01*
X100540000Y-109865000D01*
X100541204Y-109840496D01*
X100544804Y-109816227D01*
X100550765Y-109792429D01*
X100559030Y-109769329D01*
X100569520Y-109747151D01*
X100582133Y-109726107D01*
X100596747Y-109706402D01*
X100613223Y-109688223D01*
X100631402Y-109671747D01*
X100651107Y-109657133D01*
X100672151Y-109644520D01*
X100694329Y-109634030D01*
X100717429Y-109625765D01*
X100741227Y-109619804D01*
X100765496Y-109616204D01*
X100790000Y-109615000D01*
X101715000Y-109615000D01*
X101739504Y-109616204D01*
X101739504Y-109616204D01*
G37*
D11*
X101252500Y-110490000D03*
G04 #@! TD*
D10*
G04 #@! TO.C,R1*
G36*
X100979504Y-134761204D02*
X101003773Y-134764804D01*
X101027571Y-134770765D01*
X101050671Y-134779030D01*
X101072849Y-134789520D01*
X101093893Y-134802133D01*
X101113598Y-134816747D01*
X101131777Y-134833223D01*
X101148253Y-134851402D01*
X101162867Y-134871107D01*
X101175480Y-134892151D01*
X101185970Y-134914329D01*
X101194235Y-134937429D01*
X101200196Y-134961227D01*
X101203796Y-134985496D01*
X101205000Y-135010000D01*
X101205000Y-135935000D01*
X101203796Y-135959504D01*
X101200196Y-135983773D01*
X101194235Y-136007571D01*
X101185970Y-136030671D01*
X101175480Y-136052849D01*
X101162867Y-136073893D01*
X101148253Y-136093598D01*
X101131777Y-136111777D01*
X101113598Y-136128253D01*
X101093893Y-136142867D01*
X101072849Y-136155480D01*
X101050671Y-136165970D01*
X101027571Y-136174235D01*
X101003773Y-136180196D01*
X100979504Y-136183796D01*
X100955000Y-136185000D01*
X99705000Y-136185000D01*
X99680496Y-136183796D01*
X99656227Y-136180196D01*
X99632429Y-136174235D01*
X99609329Y-136165970D01*
X99587151Y-136155480D01*
X99566107Y-136142867D01*
X99546402Y-136128253D01*
X99528223Y-136111777D01*
X99511747Y-136093598D01*
X99497133Y-136073893D01*
X99484520Y-136052849D01*
X99474030Y-136030671D01*
X99465765Y-136007571D01*
X99459804Y-135983773D01*
X99456204Y-135959504D01*
X99455000Y-135935000D01*
X99455000Y-135010000D01*
X99456204Y-134985496D01*
X99459804Y-134961227D01*
X99465765Y-134937429D01*
X99474030Y-134914329D01*
X99484520Y-134892151D01*
X99497133Y-134871107D01*
X99511747Y-134851402D01*
X99528223Y-134833223D01*
X99546402Y-134816747D01*
X99566107Y-134802133D01*
X99587151Y-134789520D01*
X99609329Y-134779030D01*
X99632429Y-134770765D01*
X99656227Y-134764804D01*
X99680496Y-134761204D01*
X99705000Y-134760000D01*
X100955000Y-134760000D01*
X100979504Y-134761204D01*
X100979504Y-134761204D01*
G37*
D11*
X100330000Y-135472500D03*
D10*
G36*
X100979504Y-131786204D02*
X101003773Y-131789804D01*
X101027571Y-131795765D01*
X101050671Y-131804030D01*
X101072849Y-131814520D01*
X101093893Y-131827133D01*
X101113598Y-131841747D01*
X101131777Y-131858223D01*
X101148253Y-131876402D01*
X101162867Y-131896107D01*
X101175480Y-131917151D01*
X101185970Y-131939329D01*
X101194235Y-131962429D01*
X101200196Y-131986227D01*
X101203796Y-132010496D01*
X101205000Y-132035000D01*
X101205000Y-132960000D01*
X101203796Y-132984504D01*
X101200196Y-133008773D01*
X101194235Y-133032571D01*
X101185970Y-133055671D01*
X101175480Y-133077849D01*
X101162867Y-133098893D01*
X101148253Y-133118598D01*
X101131777Y-133136777D01*
X101113598Y-133153253D01*
X101093893Y-133167867D01*
X101072849Y-133180480D01*
X101050671Y-133190970D01*
X101027571Y-133199235D01*
X101003773Y-133205196D01*
X100979504Y-133208796D01*
X100955000Y-133210000D01*
X99705000Y-133210000D01*
X99680496Y-133208796D01*
X99656227Y-133205196D01*
X99632429Y-133199235D01*
X99609329Y-133190970D01*
X99587151Y-133180480D01*
X99566107Y-133167867D01*
X99546402Y-133153253D01*
X99528223Y-133136777D01*
X99511747Y-133118598D01*
X99497133Y-133098893D01*
X99484520Y-133077849D01*
X99474030Y-133055671D01*
X99465765Y-133032571D01*
X99459804Y-133008773D01*
X99456204Y-132984504D01*
X99455000Y-132960000D01*
X99455000Y-132035000D01*
X99456204Y-132010496D01*
X99459804Y-131986227D01*
X99465765Y-131962429D01*
X99474030Y-131939329D01*
X99484520Y-131917151D01*
X99497133Y-131896107D01*
X99511747Y-131876402D01*
X99528223Y-131858223D01*
X99546402Y-131841747D01*
X99566107Y-131827133D01*
X99587151Y-131814520D01*
X99609329Y-131804030D01*
X99632429Y-131795765D01*
X99656227Y-131789804D01*
X99680496Y-131786204D01*
X99705000Y-131785000D01*
X100955000Y-131785000D01*
X100979504Y-131786204D01*
X100979504Y-131786204D01*
G37*
D11*
X100330000Y-132497500D03*
G04 #@! TD*
D10*
G04 #@! TO.C,R5*
G36*
X142889504Y-96301204D02*
X142913773Y-96304804D01*
X142937571Y-96310765D01*
X142960671Y-96319030D01*
X142982849Y-96329520D01*
X143003893Y-96342133D01*
X143023598Y-96356747D01*
X143041777Y-96373223D01*
X143058253Y-96391402D01*
X143072867Y-96411107D01*
X143085480Y-96432151D01*
X143095970Y-96454329D01*
X143104235Y-96477429D01*
X143110196Y-96501227D01*
X143113796Y-96525496D01*
X143115000Y-96550000D01*
X143115000Y-97475000D01*
X143113796Y-97499504D01*
X143110196Y-97523773D01*
X143104235Y-97547571D01*
X143095970Y-97570671D01*
X143085480Y-97592849D01*
X143072867Y-97613893D01*
X143058253Y-97633598D01*
X143041777Y-97651777D01*
X143023598Y-97668253D01*
X143003893Y-97682867D01*
X142982849Y-97695480D01*
X142960671Y-97705970D01*
X142937571Y-97714235D01*
X142913773Y-97720196D01*
X142889504Y-97723796D01*
X142865000Y-97725000D01*
X141615000Y-97725000D01*
X141590496Y-97723796D01*
X141566227Y-97720196D01*
X141542429Y-97714235D01*
X141519329Y-97705970D01*
X141497151Y-97695480D01*
X141476107Y-97682867D01*
X141456402Y-97668253D01*
X141438223Y-97651777D01*
X141421747Y-97633598D01*
X141407133Y-97613893D01*
X141394520Y-97592849D01*
X141384030Y-97570671D01*
X141375765Y-97547571D01*
X141369804Y-97523773D01*
X141366204Y-97499504D01*
X141365000Y-97475000D01*
X141365000Y-96550000D01*
X141366204Y-96525496D01*
X141369804Y-96501227D01*
X141375765Y-96477429D01*
X141384030Y-96454329D01*
X141394520Y-96432151D01*
X141407133Y-96411107D01*
X141421747Y-96391402D01*
X141438223Y-96373223D01*
X141456402Y-96356747D01*
X141476107Y-96342133D01*
X141497151Y-96329520D01*
X141519329Y-96319030D01*
X141542429Y-96310765D01*
X141566227Y-96304804D01*
X141590496Y-96301204D01*
X141615000Y-96300000D01*
X142865000Y-96300000D01*
X142889504Y-96301204D01*
X142889504Y-96301204D01*
G37*
D11*
X142240000Y-97012500D03*
D10*
G36*
X142889504Y-99276204D02*
X142913773Y-99279804D01*
X142937571Y-99285765D01*
X142960671Y-99294030D01*
X142982849Y-99304520D01*
X143003893Y-99317133D01*
X143023598Y-99331747D01*
X143041777Y-99348223D01*
X143058253Y-99366402D01*
X143072867Y-99386107D01*
X143085480Y-99407151D01*
X143095970Y-99429329D01*
X143104235Y-99452429D01*
X143110196Y-99476227D01*
X143113796Y-99500496D01*
X143115000Y-99525000D01*
X143115000Y-100450000D01*
X143113796Y-100474504D01*
X143110196Y-100498773D01*
X143104235Y-100522571D01*
X143095970Y-100545671D01*
X143085480Y-100567849D01*
X143072867Y-100588893D01*
X143058253Y-100608598D01*
X143041777Y-100626777D01*
X143023598Y-100643253D01*
X143003893Y-100657867D01*
X142982849Y-100670480D01*
X142960671Y-100680970D01*
X142937571Y-100689235D01*
X142913773Y-100695196D01*
X142889504Y-100698796D01*
X142865000Y-100700000D01*
X141615000Y-100700000D01*
X141590496Y-100698796D01*
X141566227Y-100695196D01*
X141542429Y-100689235D01*
X141519329Y-100680970D01*
X141497151Y-100670480D01*
X141476107Y-100657867D01*
X141456402Y-100643253D01*
X141438223Y-100626777D01*
X141421747Y-100608598D01*
X141407133Y-100588893D01*
X141394520Y-100567849D01*
X141384030Y-100545671D01*
X141375765Y-100522571D01*
X141369804Y-100498773D01*
X141366204Y-100474504D01*
X141365000Y-100450000D01*
X141365000Y-99525000D01*
X141366204Y-99500496D01*
X141369804Y-99476227D01*
X141375765Y-99452429D01*
X141384030Y-99429329D01*
X141394520Y-99407151D01*
X141407133Y-99386107D01*
X141421747Y-99366402D01*
X141438223Y-99348223D01*
X141456402Y-99331747D01*
X141476107Y-99317133D01*
X141497151Y-99304520D01*
X141519329Y-99294030D01*
X141542429Y-99285765D01*
X141566227Y-99279804D01*
X141590496Y-99276204D01*
X141615000Y-99275000D01*
X142865000Y-99275000D01*
X142889504Y-99276204D01*
X142889504Y-99276204D01*
G37*
D11*
X142240000Y-99987500D03*
G04 #@! TD*
D10*
G04 #@! TO.C,R7*
G36*
X142889504Y-113826204D02*
X142913773Y-113829804D01*
X142937571Y-113835765D01*
X142960671Y-113844030D01*
X142982849Y-113854520D01*
X143003893Y-113867133D01*
X143023598Y-113881747D01*
X143041777Y-113898223D01*
X143058253Y-113916402D01*
X143072867Y-113936107D01*
X143085480Y-113957151D01*
X143095970Y-113979329D01*
X143104235Y-114002429D01*
X143110196Y-114026227D01*
X143113796Y-114050496D01*
X143115000Y-114075000D01*
X143115000Y-115000000D01*
X143113796Y-115024504D01*
X143110196Y-115048773D01*
X143104235Y-115072571D01*
X143095970Y-115095671D01*
X143085480Y-115117849D01*
X143072867Y-115138893D01*
X143058253Y-115158598D01*
X143041777Y-115176777D01*
X143023598Y-115193253D01*
X143003893Y-115207867D01*
X142982849Y-115220480D01*
X142960671Y-115230970D01*
X142937571Y-115239235D01*
X142913773Y-115245196D01*
X142889504Y-115248796D01*
X142865000Y-115250000D01*
X141615000Y-115250000D01*
X141590496Y-115248796D01*
X141566227Y-115245196D01*
X141542429Y-115239235D01*
X141519329Y-115230970D01*
X141497151Y-115220480D01*
X141476107Y-115207867D01*
X141456402Y-115193253D01*
X141438223Y-115176777D01*
X141421747Y-115158598D01*
X141407133Y-115138893D01*
X141394520Y-115117849D01*
X141384030Y-115095671D01*
X141375765Y-115072571D01*
X141369804Y-115048773D01*
X141366204Y-115024504D01*
X141365000Y-115000000D01*
X141365000Y-114075000D01*
X141366204Y-114050496D01*
X141369804Y-114026227D01*
X141375765Y-114002429D01*
X141384030Y-113979329D01*
X141394520Y-113957151D01*
X141407133Y-113936107D01*
X141421747Y-113916402D01*
X141438223Y-113898223D01*
X141456402Y-113881747D01*
X141476107Y-113867133D01*
X141497151Y-113854520D01*
X141519329Y-113844030D01*
X141542429Y-113835765D01*
X141566227Y-113829804D01*
X141590496Y-113826204D01*
X141615000Y-113825000D01*
X142865000Y-113825000D01*
X142889504Y-113826204D01*
X142889504Y-113826204D01*
G37*
D11*
X142240000Y-114537500D03*
D10*
G36*
X142889504Y-110851204D02*
X142913773Y-110854804D01*
X142937571Y-110860765D01*
X142960671Y-110869030D01*
X142982849Y-110879520D01*
X143003893Y-110892133D01*
X143023598Y-110906747D01*
X143041777Y-110923223D01*
X143058253Y-110941402D01*
X143072867Y-110961107D01*
X143085480Y-110982151D01*
X143095970Y-111004329D01*
X143104235Y-111027429D01*
X143110196Y-111051227D01*
X143113796Y-111075496D01*
X143115000Y-111100000D01*
X143115000Y-112025000D01*
X143113796Y-112049504D01*
X143110196Y-112073773D01*
X143104235Y-112097571D01*
X143095970Y-112120671D01*
X143085480Y-112142849D01*
X143072867Y-112163893D01*
X143058253Y-112183598D01*
X143041777Y-112201777D01*
X143023598Y-112218253D01*
X143003893Y-112232867D01*
X142982849Y-112245480D01*
X142960671Y-112255970D01*
X142937571Y-112264235D01*
X142913773Y-112270196D01*
X142889504Y-112273796D01*
X142865000Y-112275000D01*
X141615000Y-112275000D01*
X141590496Y-112273796D01*
X141566227Y-112270196D01*
X141542429Y-112264235D01*
X141519329Y-112255970D01*
X141497151Y-112245480D01*
X141476107Y-112232867D01*
X141456402Y-112218253D01*
X141438223Y-112201777D01*
X141421747Y-112183598D01*
X141407133Y-112163893D01*
X141394520Y-112142849D01*
X141384030Y-112120671D01*
X141375765Y-112097571D01*
X141369804Y-112073773D01*
X141366204Y-112049504D01*
X141365000Y-112025000D01*
X141365000Y-111100000D01*
X141366204Y-111075496D01*
X141369804Y-111051227D01*
X141375765Y-111027429D01*
X141384030Y-111004329D01*
X141394520Y-110982151D01*
X141407133Y-110961107D01*
X141421747Y-110941402D01*
X141438223Y-110923223D01*
X141456402Y-110906747D01*
X141476107Y-110892133D01*
X141497151Y-110879520D01*
X141519329Y-110869030D01*
X141542429Y-110860765D01*
X141566227Y-110854804D01*
X141590496Y-110851204D01*
X141615000Y-110850000D01*
X142865000Y-110850000D01*
X142889504Y-110851204D01*
X142889504Y-110851204D01*
G37*
D11*
X142240000Y-111562500D03*
G04 #@! TD*
D10*
G04 #@! TO.C,C10*
G36*
X165204504Y-132396204D02*
X165228773Y-132399804D01*
X165252571Y-132405765D01*
X165275671Y-132414030D01*
X165297849Y-132424520D01*
X165318893Y-132437133D01*
X165338598Y-132451747D01*
X165356777Y-132468223D01*
X165373253Y-132486402D01*
X165387867Y-132506107D01*
X165400480Y-132527151D01*
X165410970Y-132549329D01*
X165419235Y-132572429D01*
X165425196Y-132596227D01*
X165428796Y-132620496D01*
X165430000Y-132645000D01*
X165430000Y-136595000D01*
X165428796Y-136619504D01*
X165425196Y-136643773D01*
X165419235Y-136667571D01*
X165410970Y-136690671D01*
X165400480Y-136712849D01*
X165387867Y-136733893D01*
X165373253Y-136753598D01*
X165356777Y-136771777D01*
X165338598Y-136788253D01*
X165318893Y-136802867D01*
X165297849Y-136815480D01*
X165275671Y-136825970D01*
X165252571Y-136834235D01*
X165228773Y-136840196D01*
X165204504Y-136843796D01*
X165180000Y-136845000D01*
X162480000Y-136845000D01*
X162455496Y-136843796D01*
X162431227Y-136840196D01*
X162407429Y-136834235D01*
X162384329Y-136825970D01*
X162362151Y-136815480D01*
X162341107Y-136802867D01*
X162321402Y-136788253D01*
X162303223Y-136771777D01*
X162286747Y-136753598D01*
X162272133Y-136733893D01*
X162259520Y-136712849D01*
X162249030Y-136690671D01*
X162240765Y-136667571D01*
X162234804Y-136643773D01*
X162231204Y-136619504D01*
X162230000Y-136595000D01*
X162230000Y-132645000D01*
X162231204Y-132620496D01*
X162234804Y-132596227D01*
X162240765Y-132572429D01*
X162249030Y-132549329D01*
X162259520Y-132527151D01*
X162272133Y-132506107D01*
X162286747Y-132486402D01*
X162303223Y-132468223D01*
X162321402Y-132451747D01*
X162341107Y-132437133D01*
X162362151Y-132424520D01*
X162384329Y-132414030D01*
X162407429Y-132405765D01*
X162431227Y-132399804D01*
X162455496Y-132396204D01*
X162480000Y-132395000D01*
X165180000Y-132395000D01*
X165204504Y-132396204D01*
X165204504Y-132396204D01*
G37*
D12*
X163830000Y-134620000D03*
D10*
G36*
X160004504Y-132396204D02*
X160028773Y-132399804D01*
X160052571Y-132405765D01*
X160075671Y-132414030D01*
X160097849Y-132424520D01*
X160118893Y-132437133D01*
X160138598Y-132451747D01*
X160156777Y-132468223D01*
X160173253Y-132486402D01*
X160187867Y-132506107D01*
X160200480Y-132527151D01*
X160210970Y-132549329D01*
X160219235Y-132572429D01*
X160225196Y-132596227D01*
X160228796Y-132620496D01*
X160230000Y-132645000D01*
X160230000Y-136595000D01*
X160228796Y-136619504D01*
X160225196Y-136643773D01*
X160219235Y-136667571D01*
X160210970Y-136690671D01*
X160200480Y-136712849D01*
X160187867Y-136733893D01*
X160173253Y-136753598D01*
X160156777Y-136771777D01*
X160138598Y-136788253D01*
X160118893Y-136802867D01*
X160097849Y-136815480D01*
X160075671Y-136825970D01*
X160052571Y-136834235D01*
X160028773Y-136840196D01*
X160004504Y-136843796D01*
X159980000Y-136845000D01*
X157280000Y-136845000D01*
X157255496Y-136843796D01*
X157231227Y-136840196D01*
X157207429Y-136834235D01*
X157184329Y-136825970D01*
X157162151Y-136815480D01*
X157141107Y-136802867D01*
X157121402Y-136788253D01*
X157103223Y-136771777D01*
X157086747Y-136753598D01*
X157072133Y-136733893D01*
X157059520Y-136712849D01*
X157049030Y-136690671D01*
X157040765Y-136667571D01*
X157034804Y-136643773D01*
X157031204Y-136619504D01*
X157030000Y-136595000D01*
X157030000Y-132645000D01*
X157031204Y-132620496D01*
X157034804Y-132596227D01*
X157040765Y-132572429D01*
X157049030Y-132549329D01*
X157059520Y-132527151D01*
X157072133Y-132506107D01*
X157086747Y-132486402D01*
X157103223Y-132468223D01*
X157121402Y-132451747D01*
X157141107Y-132437133D01*
X157162151Y-132424520D01*
X157184329Y-132414030D01*
X157207429Y-132405765D01*
X157231227Y-132399804D01*
X157255496Y-132396204D01*
X157280000Y-132395000D01*
X159980000Y-132395000D01*
X160004504Y-132396204D01*
X160004504Y-132396204D01*
G37*
D12*
X158630000Y-134620000D03*
G04 #@! TD*
D13*
G04 #@! TO.C,D8*
X149860000Y-122050000D03*
X149860000Y-119550000D03*
G04 #@! TD*
G04 #@! TO.C,D6*
X149860000Y-105000000D03*
X149860000Y-107500000D03*
G04 #@! TD*
G04 #@! TO.C,D4*
X149860000Y-92720000D03*
X149860000Y-90220000D03*
G04 #@! TD*
G04 #@! TO.C,D5*
X149860000Y-97210000D03*
X149860000Y-99710000D03*
G04 #@! TD*
G04 #@! TO.C,D7*
X149860000Y-114430000D03*
X149860000Y-111930000D03*
G04 #@! TD*
G04 #@! TO.C,D9*
X149860000Y-126350000D03*
X149860000Y-128850000D03*
G04 #@! TD*
G04 #@! TO.C,D3*
X149860000Y-85590000D03*
X149860000Y-83090000D03*
G04 #@! TD*
D10*
G04 #@! TO.C,C1*
G36*
X146699504Y-82358704D02*
X146723773Y-82362304D01*
X146747571Y-82368265D01*
X146770671Y-82376530D01*
X146792849Y-82387020D01*
X146813893Y-82399633D01*
X146833598Y-82414247D01*
X146851777Y-82430723D01*
X146868253Y-82448902D01*
X146882867Y-82468607D01*
X146895480Y-82489651D01*
X146905970Y-82511829D01*
X146914235Y-82534929D01*
X146920196Y-82558727D01*
X146923796Y-82582996D01*
X146925000Y-82607500D01*
X146925000Y-83532500D01*
X146923796Y-83557004D01*
X146920196Y-83581273D01*
X146914235Y-83605071D01*
X146905970Y-83628171D01*
X146895480Y-83650349D01*
X146882867Y-83671393D01*
X146868253Y-83691098D01*
X146851777Y-83709277D01*
X146833598Y-83725753D01*
X146813893Y-83740367D01*
X146792849Y-83752980D01*
X146770671Y-83763470D01*
X146747571Y-83771735D01*
X146723773Y-83777696D01*
X146699504Y-83781296D01*
X146675000Y-83782500D01*
X145425000Y-83782500D01*
X145400496Y-83781296D01*
X145376227Y-83777696D01*
X145352429Y-83771735D01*
X145329329Y-83763470D01*
X145307151Y-83752980D01*
X145286107Y-83740367D01*
X145266402Y-83725753D01*
X145248223Y-83709277D01*
X145231747Y-83691098D01*
X145217133Y-83671393D01*
X145204520Y-83650349D01*
X145194030Y-83628171D01*
X145185765Y-83605071D01*
X145179804Y-83581273D01*
X145176204Y-83557004D01*
X145175000Y-83532500D01*
X145175000Y-82607500D01*
X145176204Y-82582996D01*
X145179804Y-82558727D01*
X145185765Y-82534929D01*
X145194030Y-82511829D01*
X145204520Y-82489651D01*
X145217133Y-82468607D01*
X145231747Y-82448902D01*
X145248223Y-82430723D01*
X145266402Y-82414247D01*
X145286107Y-82399633D01*
X145307151Y-82387020D01*
X145329329Y-82376530D01*
X145352429Y-82368265D01*
X145376227Y-82362304D01*
X145400496Y-82358704D01*
X145425000Y-82357500D01*
X146675000Y-82357500D01*
X146699504Y-82358704D01*
X146699504Y-82358704D01*
G37*
D11*
X146050000Y-83070000D03*
D10*
G36*
X146699504Y-85333704D02*
X146723773Y-85337304D01*
X146747571Y-85343265D01*
X146770671Y-85351530D01*
X146792849Y-85362020D01*
X146813893Y-85374633D01*
X146833598Y-85389247D01*
X146851777Y-85405723D01*
X146868253Y-85423902D01*
X146882867Y-85443607D01*
X146895480Y-85464651D01*
X146905970Y-85486829D01*
X146914235Y-85509929D01*
X146920196Y-85533727D01*
X146923796Y-85557996D01*
X146925000Y-85582500D01*
X146925000Y-86507500D01*
X146923796Y-86532004D01*
X146920196Y-86556273D01*
X146914235Y-86580071D01*
X146905970Y-86603171D01*
X146895480Y-86625349D01*
X146882867Y-86646393D01*
X146868253Y-86666098D01*
X146851777Y-86684277D01*
X146833598Y-86700753D01*
X146813893Y-86715367D01*
X146792849Y-86727980D01*
X146770671Y-86738470D01*
X146747571Y-86746735D01*
X146723773Y-86752696D01*
X146699504Y-86756296D01*
X146675000Y-86757500D01*
X145425000Y-86757500D01*
X145400496Y-86756296D01*
X145376227Y-86752696D01*
X145352429Y-86746735D01*
X145329329Y-86738470D01*
X145307151Y-86727980D01*
X145286107Y-86715367D01*
X145266402Y-86700753D01*
X145248223Y-86684277D01*
X145231747Y-86666098D01*
X145217133Y-86646393D01*
X145204520Y-86625349D01*
X145194030Y-86603171D01*
X145185765Y-86580071D01*
X145179804Y-86556273D01*
X145176204Y-86532004D01*
X145175000Y-86507500D01*
X145175000Y-85582500D01*
X145176204Y-85557996D01*
X145179804Y-85533727D01*
X145185765Y-85509929D01*
X145194030Y-85486829D01*
X145204520Y-85464651D01*
X145217133Y-85443607D01*
X145231747Y-85423902D01*
X145248223Y-85405723D01*
X145266402Y-85389247D01*
X145286107Y-85374633D01*
X145307151Y-85362020D01*
X145329329Y-85351530D01*
X145352429Y-85343265D01*
X145376227Y-85337304D01*
X145400496Y-85333704D01*
X145425000Y-85332500D01*
X146675000Y-85332500D01*
X146699504Y-85333704D01*
X146699504Y-85333704D01*
G37*
D11*
X146050000Y-86045000D03*
G04 #@! TD*
D13*
G04 #@! TO.C,D10*
X160020000Y-85590000D03*
X160020000Y-83090000D03*
G04 #@! TD*
G04 #@! TO.C,D11*
X160020000Y-90200000D03*
X160020000Y-92700000D03*
G04 #@! TD*
G04 #@! TO.C,D12*
X160020000Y-97360000D03*
X160020000Y-99860000D03*
G04 #@! TD*
G04 #@! TO.C,D13*
X160020000Y-104980000D03*
X160020000Y-107480000D03*
G04 #@! TD*
G04 #@! TO.C,D14*
X160020000Y-114410000D03*
X160020000Y-111910000D03*
G04 #@! TD*
G04 #@! TO.C,D15*
X160020000Y-122050000D03*
X160020000Y-119550000D03*
G04 #@! TD*
G04 #@! TO.C,D16*
X160020000Y-126330000D03*
X160020000Y-128830000D03*
G04 #@! TD*
M02*
