G04 #@! TF.GenerationSoftware,KiCad,Pcbnew,5.0.2-bee76a0~70~ubuntu16.04.1*
G04 #@! TF.CreationDate,2019-02-03T15:20:27+01:00*
G04 #@! TF.ProjectId,valve_reporter,76616c76-655f-4726-9570-6f727465722e,rev?*
G04 #@! TF.SameCoordinates,Original*
G04 #@! TF.FileFunction,Copper,L2,Bot*
G04 #@! TF.FilePolarity,Positive*
%FSLAX46Y46*%
G04 Gerber Fmt 4.6, Leading zero omitted, Abs format (unit mm)*
G04 Created by KiCad (PCBNEW 5.0.2-bee76a0~70~ubuntu16.04.1) date Son 03 Feb 2019 15:20:27 CET*
%MOMM*%
%LPD*%
G01*
G04 APERTURE LIST*
G04 #@! TA.AperFunction,ComponentPad*
%ADD10C,1.524000*%
G04 #@! TD*
G04 #@! TA.AperFunction,ComponentPad*
%ADD11C,2.000000*%
G04 #@! TD*
G04 #@! TA.AperFunction,ComponentPad*
%ADD12R,2.400000X2.400000*%
G04 #@! TD*
G04 #@! TA.AperFunction,ComponentPad*
%ADD13C,2.400000*%
G04 #@! TD*
G04 #@! TA.AperFunction,ComponentPad*
%ADD14R,2.600000X2.600000*%
G04 #@! TD*
G04 #@! TA.AperFunction,ComponentPad*
%ADD15C,2.600000*%
G04 #@! TD*
G04 #@! TA.AperFunction,ComponentPad*
%ADD16C,5.700000*%
G04 #@! TD*
G04 #@! TA.AperFunction,ComponentPad*
%ADD17R,2.500000X2.500000*%
G04 #@! TD*
G04 #@! TA.AperFunction,ComponentPad*
%ADD18O,2.500000X2.500000*%
G04 #@! TD*
G04 #@! TA.AperFunction,ComponentPad*
%ADD19R,2.000000X2.000000*%
G04 #@! TD*
G04 #@! TA.AperFunction,Conductor*
%ADD20C,2.000000*%
G04 #@! TD*
G04 #@! TA.AperFunction,Conductor*
%ADD21C,0.254000*%
G04 #@! TD*
G04 APERTURE END LIST*
D10*
G04 #@! TO.P,U1,1*
G04 #@! TO.N,Net-(R17-Pad2)*
X109305001Y-85185001D03*
G04 #@! TO.P,U1,2*
G04 #@! TO.N,Net-(U1-Pad2)*
X109305001Y-87725001D03*
G04 #@! TO.P,U1,3*
G04 #@! TO.N,Net-(U1-Pad3)*
X109305001Y-90265001D03*
G04 #@! TO.P,U1,4*
G04 #@! TO.N,Net-(U1-Pad4)*
X109305001Y-92805001D03*
G04 #@! TO.P,U1,5*
G04 #@! TO.N,Net-(U1-Pad5)*
X109305001Y-95345001D03*
G04 #@! TO.P,U1,6*
G04 #@! TO.N,Net-(U1-Pad6)*
X109305001Y-97885001D03*
G04 #@! TO.P,U1,7*
G04 #@! TO.N,Net-(U1-Pad7)*
X109305001Y-100425001D03*
G04 #@! TO.P,U1,8*
G04 #@! TO.N,Net-(U1-Pad8)*
X109305001Y-102965001D03*
G04 #@! TO.P,U1,9*
G04 #@! TO.N,Net-(U1-Pad9)*
X109305001Y-105505001D03*
G04 #@! TO.P,U1,10*
G04 #@! TO.N,GND*
X109305001Y-108045001D03*
G04 #@! TO.P,U1,11*
G04 #@! TO.N,Net-(U1-Pad11)*
X109305001Y-110585001D03*
G04 #@! TO.P,U1,12*
G04 #@! TO.N,Net-(U1-Pad12)*
X109305001Y-113125001D03*
G04 #@! TO.P,U1,13*
G04 #@! TO.N,Net-(U1-Pad13)*
X109305001Y-115665001D03*
G04 #@! TO.P,U1,14*
G04 #@! TO.N,GND*
X109305001Y-118205001D03*
G04 #@! TO.P,U1,15*
G04 #@! TO.N,+5V*
X109305001Y-120745001D03*
G04 #@! TO.P,U1,16*
G04 #@! TO.N,Net-(U1-Pad16)*
X137245001Y-120745001D03*
G04 #@! TO.P,U1,17*
G04 #@! TO.N,GND*
X137245001Y-118205001D03*
G04 #@! TO.P,U1,18*
G04 #@! TO.N,Net-(U1-Pad18)*
X137245001Y-115665001D03*
G04 #@! TO.P,U1,19*
G04 #@! TO.N,Net-(U1-Pad19)*
X137245001Y-113125001D03*
G04 #@! TO.P,U1,20*
G04 #@! TO.N,Net-(R19-Pad1)*
X137245001Y-110585001D03*
G04 #@! TO.P,U1,21*
G04 #@! TO.N,Net-(C7-Pad1)*
X137245001Y-108045001D03*
G04 #@! TO.P,U1,22*
G04 #@! TO.N,Net-(C6-Pad1)*
X137245001Y-105505001D03*
G04 #@! TO.P,U1,23*
G04 #@! TO.N,Net-(C5-Pad1)*
X137245001Y-102965001D03*
G04 #@! TO.P,U1,24*
G04 #@! TO.N,GND*
X137245001Y-100425001D03*
G04 #@! TO.P,U1,25*
G04 #@! TO.N,Net-(U1-Pad25)*
X137245001Y-97885001D03*
G04 #@! TO.P,U1,26*
G04 #@! TO.N,Net-(C4-Pad1)*
X137245001Y-95345001D03*
G04 #@! TO.P,U1,27*
G04 #@! TO.N,Net-(U1-Pad27)*
X137245001Y-92805001D03*
G04 #@! TO.P,U1,28*
G04 #@! TO.N,Net-(C3-Pad1)*
X137245001Y-90265001D03*
G04 #@! TO.P,U1,29*
G04 #@! TO.N,Net-(C2-Pad1)*
X137245001Y-87725001D03*
G04 #@! TO.P,U1,30*
G04 #@! TO.N,Net-(C1-Pad1)*
X137245001Y-85185001D03*
G04 #@! TD*
D11*
G04 #@! TO.P,TP1,1*
G04 #@! TO.N,Net-(C1-Pad1)*
X152908000Y-84328000D03*
G04 #@! TD*
G04 #@! TO.P,TP7,1*
G04 #@! TO.N,Net-(C7-Pad1)*
X153035000Y-128270000D03*
G04 #@! TD*
G04 #@! TO.P,TP2,1*
G04 #@! TO.N,Net-(C2-Pad1)*
X152908000Y-91440000D03*
G04 #@! TD*
G04 #@! TO.P,TP3,1*
G04 #@! TO.N,Net-(C3-Pad1)*
X152908000Y-98425000D03*
G04 #@! TD*
G04 #@! TO.P,TP4,1*
G04 #@! TO.N,Net-(C4-Pad1)*
X153035000Y-106045000D03*
G04 #@! TD*
G04 #@! TO.P,TP5,1*
G04 #@! TO.N,Net-(C5-Pad1)*
X153035000Y-113030000D03*
G04 #@! TD*
G04 #@! TO.P,TP6,1*
G04 #@! TO.N,Net-(C6-Pad1)*
X153035000Y-120904000D03*
G04 #@! TD*
G04 #@! TO.P,TP5V1,1*
G04 #@! TO.N,+5V*
X91785440Y-134251700D03*
G04 #@! TD*
D12*
G04 #@! TO.P,J2,1*
G04 #@! TO.N,Net-(D16-Pad1)*
X170180000Y-127000000D03*
D13*
G04 #@! TO.P,J2,2*
G04 #@! TO.N,+12V*
X170180000Y-123500000D03*
G04 #@! TO.P,J2,3*
G04 #@! TO.N,Net-(D15-Pad1)*
X170180000Y-120000000D03*
G04 #@! TO.P,J2,4*
G04 #@! TO.N,+12V*
X170180000Y-116500000D03*
G04 #@! TO.P,J2,5*
G04 #@! TO.N,Net-(D14-Pad1)*
X170180000Y-113000000D03*
G04 #@! TO.P,J2,6*
G04 #@! TO.N,+12V*
X170180000Y-109500000D03*
G04 #@! TO.P,J2,7*
G04 #@! TO.N,Net-(D13-Pad1)*
X170180000Y-106000000D03*
G04 #@! TO.P,J2,8*
G04 #@! TO.N,+12V*
X170180000Y-102500000D03*
G04 #@! TO.P,J2,9*
G04 #@! TO.N,Net-(D12-Pad1)*
X170180000Y-99000000D03*
G04 #@! TO.P,J2,10*
G04 #@! TO.N,+12V*
X170180000Y-95500000D03*
G04 #@! TO.P,J2,11*
G04 #@! TO.N,Net-(D11-Pad1)*
X170180000Y-92000000D03*
G04 #@! TO.P,J2,12*
G04 #@! TO.N,+12V*
X170180000Y-88500000D03*
G04 #@! TO.P,J2,13*
G04 #@! TO.N,Net-(D10-Pad1)*
X170180000Y-85000000D03*
G04 #@! TO.P,J2,14*
G04 #@! TO.N,+12V*
X170180000Y-81500000D03*
G04 #@! TD*
D14*
G04 #@! TO.P,J1,1*
G04 #@! TO.N,+12V*
X88900000Y-104775000D03*
D15*
G04 #@! TO.P,J1,2*
G04 #@! TO.N,GND*
X88900000Y-109775000D03*
G04 #@! TO.P,J1,3*
G04 #@! TO.N,/RelOn*
X88900000Y-114775000D03*
G04 #@! TO.P,J1,4*
G04 #@! TO.N,/RelOff*
X88900000Y-119775000D03*
G04 #@! TO.P,J1,5*
G04 #@! TO.N,/RelIn*
X88900000Y-124775000D03*
G04 #@! TD*
D16*
G04 #@! TO.P,H5,1*
G04 #@! TO.N,GND*
X135953500Y-129603500D03*
G04 #@! TD*
G04 #@! TO.P,H7,1*
G04 #@! TO.N,GND*
X135953500Y-77533500D03*
G04 #@! TD*
G04 #@! TO.P,H8,1*
G04 #@! TO.N,GND*
X110617000Y-129667000D03*
G04 #@! TD*
G04 #@! TO.P,H6,1*
G04 #@! TO.N,GND*
X110617000Y-77597000D03*
G04 #@! TD*
G04 #@! TO.P,H1,1*
G04 #@! TO.N,Net-(H1-Pad1)*
X172720000Y-134620000D03*
G04 #@! TD*
G04 #@! TO.P,H2,1*
G04 #@! TO.N,Net-(H1-Pad1)*
X86360000Y-134620000D03*
G04 #@! TD*
G04 #@! TO.P,H3,1*
G04 #@! TO.N,Net-(H1-Pad1)*
X86360000Y-73660000D03*
G04 #@! TD*
G04 #@! TO.P,H4,1*
G04 #@! TO.N,Net-(H1-Pad1)*
X172720000Y-73660000D03*
G04 #@! TD*
D17*
G04 #@! TO.P,K1,1*
G04 #@! TO.N,/RelIn*
X103505000Y-88265000D03*
D18*
G04 #@! TO.P,K1,2*
G04 #@! TO.N,Net-(D2-Pad2)*
X101505000Y-82265000D03*
G04 #@! TO.P,K1,3*
G04 #@! TO.N,/RelOff*
X89305000Y-82265000D03*
G04 #@! TO.P,K1,4*
G04 #@! TO.N,/RelOn*
X89305000Y-94265000D03*
G04 #@! TO.P,K1,5*
G04 #@! TO.N,+12V*
X101505000Y-94265000D03*
G04 #@! TD*
D19*
G04 #@! TO.P,U2,1*
G04 #@! TO.N,+12V*
X102870000Y-121920000D03*
D11*
G04 #@! TO.P,U2,2*
G04 #@! TO.N,GND*
X102870000Y-124460000D03*
G04 #@! TO.P,U2,3*
G04 #@! TO.N,+5V*
X102870000Y-127000000D03*
G04 #@! TD*
D20*
G04 #@! TO.N,/RelOn*
X90965000Y-114775000D02*
X88900000Y-114775000D01*
X93472000Y-98432000D02*
X93472000Y-112268000D01*
X93472000Y-112268000D02*
X90965000Y-114775000D01*
X89305000Y-94265000D02*
X93472000Y-98432000D01*
G04 #@! TO.N,/RelOff*
X89305000Y-82265000D02*
X84328000Y-87242000D01*
X84328000Y-87242000D02*
X84328000Y-118872000D01*
X85231000Y-119775000D02*
X88900000Y-119775000D01*
X84328000Y-118872000D02*
X85231000Y-119775000D01*
G04 #@! TO.N,/RelIn*
X103505000Y-89789000D02*
X103505000Y-88265000D01*
X88900000Y-124775000D02*
X92649000Y-124775000D01*
X92649000Y-124775000D02*
X105156000Y-112268000D01*
X105156000Y-112268000D02*
X105156000Y-91440000D01*
X105156000Y-91440000D02*
X103505000Y-89789000D01*
G04 #@! TD*
D21*
G04 #@! TO.N,+12V*
G36*
X109093000Y-74456125D02*
X108642906Y-74642560D01*
X107662560Y-75622906D01*
X107132000Y-76903790D01*
X107132000Y-78290210D01*
X107662560Y-79571094D01*
X108642906Y-80551440D01*
X109093000Y-80737875D01*
X109093000Y-83788001D01*
X109027120Y-83788001D01*
X108513664Y-84000681D01*
X108120681Y-84393664D01*
X107908001Y-84907120D01*
X107908001Y-85462882D01*
X108120681Y-85976338D01*
X108513664Y-86369321D01*
X108720514Y-86455001D01*
X108513664Y-86540681D01*
X108120681Y-86933664D01*
X107908001Y-87447120D01*
X107908001Y-88002882D01*
X108120681Y-88516338D01*
X108513664Y-88909321D01*
X108720514Y-88995001D01*
X108513664Y-89080681D01*
X108120681Y-89473664D01*
X107908001Y-89987120D01*
X107908001Y-90542882D01*
X108120681Y-91056338D01*
X108513664Y-91449321D01*
X108720514Y-91535001D01*
X108513664Y-91620681D01*
X108120681Y-92013664D01*
X107908001Y-92527120D01*
X107908001Y-93082882D01*
X108120681Y-93596338D01*
X108513664Y-93989321D01*
X108720514Y-94075001D01*
X108513664Y-94160681D01*
X108120681Y-94553664D01*
X107908001Y-95067120D01*
X107908001Y-95622882D01*
X108120681Y-96136338D01*
X108513664Y-96529321D01*
X108720514Y-96615001D01*
X108513664Y-96700681D01*
X108120681Y-97093664D01*
X107908001Y-97607120D01*
X107908001Y-98162882D01*
X108120681Y-98676338D01*
X108513664Y-99069321D01*
X108720514Y-99155001D01*
X108513664Y-99240681D01*
X108120681Y-99633664D01*
X107908001Y-100147120D01*
X107908001Y-100702882D01*
X108120681Y-101216338D01*
X108513664Y-101609321D01*
X108720514Y-101695001D01*
X108513664Y-101780681D01*
X108120681Y-102173664D01*
X107908001Y-102687120D01*
X107908001Y-103242882D01*
X108120681Y-103756338D01*
X108513664Y-104149321D01*
X108720514Y-104235001D01*
X108513664Y-104320681D01*
X108120681Y-104713664D01*
X107908001Y-105227120D01*
X107908001Y-105782882D01*
X108120681Y-106296338D01*
X108513664Y-106689321D01*
X108720514Y-106775001D01*
X108513664Y-106860681D01*
X108120681Y-107253664D01*
X107908001Y-107767120D01*
X107908001Y-108322882D01*
X108120681Y-108836338D01*
X108513664Y-109229321D01*
X108720514Y-109315001D01*
X108513664Y-109400681D01*
X108120681Y-109793664D01*
X107908001Y-110307120D01*
X107908001Y-110862882D01*
X108120681Y-111376338D01*
X108513664Y-111769321D01*
X108720514Y-111855001D01*
X108513664Y-111940681D01*
X108120681Y-112333664D01*
X107908001Y-112847120D01*
X107908001Y-113402882D01*
X108120681Y-113916338D01*
X108513664Y-114309321D01*
X108720514Y-114395001D01*
X108513664Y-114480681D01*
X108120681Y-114873664D01*
X107908001Y-115387120D01*
X107908001Y-115942882D01*
X108120681Y-116456338D01*
X108513664Y-116849321D01*
X108720514Y-116935001D01*
X108513664Y-117020681D01*
X108120681Y-117413664D01*
X107908001Y-117927120D01*
X107908001Y-118482882D01*
X108120681Y-118996338D01*
X108513664Y-119389321D01*
X108720514Y-119475001D01*
X108513664Y-119560681D01*
X108120681Y-119953664D01*
X107908001Y-120467120D01*
X107908001Y-121022882D01*
X108120681Y-121536338D01*
X108513664Y-121929321D01*
X109027120Y-122142001D01*
X109582882Y-122142001D01*
X110096338Y-121929321D01*
X110489321Y-121536338D01*
X110702001Y-121022882D01*
X110702001Y-120467120D01*
X110489321Y-119953664D01*
X110096338Y-119560681D01*
X109889488Y-119475001D01*
X110096338Y-119389321D01*
X110489321Y-118996338D01*
X110702001Y-118482882D01*
X110702001Y-117927120D01*
X110489321Y-117413664D01*
X110096338Y-117020681D01*
X109889488Y-116935001D01*
X110096338Y-116849321D01*
X110489321Y-116456338D01*
X110702001Y-115942882D01*
X110702001Y-115387120D01*
X110489321Y-114873664D01*
X110096338Y-114480681D01*
X109889488Y-114395001D01*
X110096338Y-114309321D01*
X110489321Y-113916338D01*
X110702001Y-113402882D01*
X110702001Y-112847120D01*
X110489321Y-112333664D01*
X110096338Y-111940681D01*
X109889488Y-111855001D01*
X110096338Y-111769321D01*
X110489321Y-111376338D01*
X110702001Y-110862882D01*
X110702001Y-110307120D01*
X110489321Y-109793664D01*
X110096338Y-109400681D01*
X109889488Y-109315001D01*
X110096338Y-109229321D01*
X110489321Y-108836338D01*
X110702001Y-108322882D01*
X110702001Y-107767120D01*
X110489321Y-107253664D01*
X110096338Y-106860681D01*
X109889488Y-106775001D01*
X110096338Y-106689321D01*
X110489321Y-106296338D01*
X110702001Y-105782882D01*
X110702001Y-105227120D01*
X110489321Y-104713664D01*
X110096338Y-104320681D01*
X109889488Y-104235001D01*
X110096338Y-104149321D01*
X110489321Y-103756338D01*
X110702001Y-103242882D01*
X110702001Y-102687120D01*
X110489321Y-102173664D01*
X110096338Y-101780681D01*
X109889488Y-101695001D01*
X110096338Y-101609321D01*
X110489321Y-101216338D01*
X110702001Y-100702882D01*
X110702001Y-100147120D01*
X110489321Y-99633664D01*
X110096338Y-99240681D01*
X109889488Y-99155001D01*
X110096338Y-99069321D01*
X110489321Y-98676338D01*
X110702001Y-98162882D01*
X110702001Y-97607120D01*
X110489321Y-97093664D01*
X110096338Y-96700681D01*
X109889488Y-96615001D01*
X110096338Y-96529321D01*
X110489321Y-96136338D01*
X110702001Y-95622882D01*
X110702001Y-95067120D01*
X110489321Y-94553664D01*
X110096338Y-94160681D01*
X109889488Y-94075001D01*
X110096338Y-93989321D01*
X110489321Y-93596338D01*
X110702001Y-93082882D01*
X110702001Y-92527120D01*
X110489321Y-92013664D01*
X110096338Y-91620681D01*
X109889488Y-91535001D01*
X110096338Y-91449321D01*
X110489321Y-91056338D01*
X110702001Y-90542882D01*
X110702001Y-89987120D01*
X110489321Y-89473664D01*
X110096338Y-89080681D01*
X109889488Y-88995001D01*
X110096338Y-88909321D01*
X110489321Y-88516338D01*
X110702001Y-88002882D01*
X110702001Y-87447120D01*
X110489321Y-86933664D01*
X110096338Y-86540681D01*
X109889488Y-86455001D01*
X110096338Y-86369321D01*
X110489321Y-85976338D01*
X110702001Y-85462882D01*
X110702001Y-84907120D01*
X110489321Y-84393664D01*
X110096338Y-84000681D01*
X109966740Y-83947000D01*
X136583262Y-83947000D01*
X136453664Y-84000681D01*
X136060681Y-84393664D01*
X135848001Y-84907120D01*
X135848001Y-85462882D01*
X136060681Y-85976338D01*
X136453664Y-86369321D01*
X136660514Y-86455001D01*
X136453664Y-86540681D01*
X136060681Y-86933664D01*
X135848001Y-87447120D01*
X135848001Y-88002882D01*
X136060681Y-88516338D01*
X136453664Y-88909321D01*
X136660514Y-88995001D01*
X136453664Y-89080681D01*
X136060681Y-89473664D01*
X135848001Y-89987120D01*
X135848001Y-90542882D01*
X136060681Y-91056338D01*
X136453664Y-91449321D01*
X136660514Y-91535001D01*
X136453664Y-91620681D01*
X136060681Y-92013664D01*
X135848001Y-92527120D01*
X135848001Y-93082882D01*
X136060681Y-93596338D01*
X136453664Y-93989321D01*
X136660514Y-94075001D01*
X136453664Y-94160681D01*
X136060681Y-94553664D01*
X135848001Y-95067120D01*
X135848001Y-95622882D01*
X136060681Y-96136338D01*
X136453664Y-96529321D01*
X136660514Y-96615001D01*
X136453664Y-96700681D01*
X136060681Y-97093664D01*
X135848001Y-97607120D01*
X135848001Y-98162882D01*
X136060681Y-98676338D01*
X136453664Y-99069321D01*
X136660514Y-99155001D01*
X136453664Y-99240681D01*
X136060681Y-99633664D01*
X135848001Y-100147120D01*
X135848001Y-100702882D01*
X136060681Y-101216338D01*
X136453664Y-101609321D01*
X136660514Y-101695001D01*
X136453664Y-101780681D01*
X136060681Y-102173664D01*
X135848001Y-102687120D01*
X135848001Y-103242882D01*
X136060681Y-103756338D01*
X136453664Y-104149321D01*
X136660514Y-104235001D01*
X136453664Y-104320681D01*
X136060681Y-104713664D01*
X135848001Y-105227120D01*
X135848001Y-105782882D01*
X136060681Y-106296338D01*
X136453664Y-106689321D01*
X136660514Y-106775001D01*
X136453664Y-106860681D01*
X136060681Y-107253664D01*
X135848001Y-107767120D01*
X135848001Y-108322882D01*
X136060681Y-108836338D01*
X136453664Y-109229321D01*
X136660514Y-109315001D01*
X136453664Y-109400681D01*
X136060681Y-109793664D01*
X135848001Y-110307120D01*
X135848001Y-110862882D01*
X136060681Y-111376338D01*
X136453664Y-111769321D01*
X136660514Y-111855001D01*
X136453664Y-111940681D01*
X136060681Y-112333664D01*
X135848001Y-112847120D01*
X135848001Y-113402882D01*
X136060681Y-113916338D01*
X136453664Y-114309321D01*
X136660514Y-114395001D01*
X136453664Y-114480681D01*
X136060681Y-114873664D01*
X135848001Y-115387120D01*
X135848001Y-115942882D01*
X136060681Y-116456338D01*
X136453664Y-116849321D01*
X136660514Y-116935001D01*
X136453664Y-117020681D01*
X136060681Y-117413664D01*
X135848001Y-117927120D01*
X135848001Y-118482882D01*
X136060681Y-118996338D01*
X136453664Y-119389321D01*
X136660514Y-119475001D01*
X136453664Y-119560681D01*
X136060681Y-119953664D01*
X135848001Y-120467120D01*
X135848001Y-121022882D01*
X136060681Y-121536338D01*
X136453664Y-121929321D01*
X136967120Y-122142001D01*
X137522882Y-122142001D01*
X138036338Y-121929321D01*
X138429321Y-121536338D01*
X138642001Y-121022882D01*
X138642001Y-120578778D01*
X151400000Y-120578778D01*
X151400000Y-121229222D01*
X151648914Y-121830153D01*
X152108847Y-122290086D01*
X152709778Y-122539000D01*
X153360222Y-122539000D01*
X153961153Y-122290086D01*
X154421086Y-121830153D01*
X154670000Y-121229222D01*
X154670000Y-120578778D01*
X154421086Y-119977847D01*
X154078235Y-119634996D01*
X168345000Y-119634996D01*
X168345000Y-120365004D01*
X168624362Y-121039444D01*
X169140556Y-121555638D01*
X169597105Y-121744747D01*
X169185565Y-121915212D01*
X169062430Y-122202825D01*
X170180000Y-123320395D01*
X171297570Y-122202825D01*
X171174435Y-121915212D01*
X170745716Y-121751862D01*
X171219444Y-121555638D01*
X171735638Y-121039444D01*
X172015000Y-120365004D01*
X172015000Y-119634996D01*
X171735638Y-118960556D01*
X171219444Y-118444362D01*
X170762895Y-118255253D01*
X171174435Y-118084788D01*
X171297570Y-117797175D01*
X170180000Y-116679605D01*
X169062430Y-117797175D01*
X169185565Y-118084788D01*
X169614284Y-118248138D01*
X169140556Y-118444362D01*
X168624362Y-118960556D01*
X168345000Y-119634996D01*
X154078235Y-119634996D01*
X153961153Y-119517914D01*
X153360222Y-119269000D01*
X152709778Y-119269000D01*
X152108847Y-119517914D01*
X151648914Y-119977847D01*
X151400000Y-120578778D01*
X138642001Y-120578778D01*
X138642001Y-120467120D01*
X138429321Y-119953664D01*
X138036338Y-119560681D01*
X137829488Y-119475001D01*
X138036338Y-119389321D01*
X138429321Y-118996338D01*
X138642001Y-118482882D01*
X138642001Y-117927120D01*
X138429321Y-117413664D01*
X138036338Y-117020681D01*
X137829488Y-116935001D01*
X138036338Y-116849321D01*
X138429321Y-116456338D01*
X138540580Y-116187734D01*
X168335293Y-116187734D01*
X168356214Y-116917443D01*
X168595212Y-117494435D01*
X168882825Y-117617570D01*
X170000395Y-116500000D01*
X170359605Y-116500000D01*
X171477175Y-117617570D01*
X171764788Y-117494435D01*
X172024707Y-116812266D01*
X172003786Y-116082557D01*
X171764788Y-115505565D01*
X171477175Y-115382430D01*
X170359605Y-116500000D01*
X170000395Y-116500000D01*
X168882825Y-115382430D01*
X168595212Y-115505565D01*
X168335293Y-116187734D01*
X138540580Y-116187734D01*
X138642001Y-115942882D01*
X138642001Y-115387120D01*
X138429321Y-114873664D01*
X138036338Y-114480681D01*
X137829488Y-114395001D01*
X138036338Y-114309321D01*
X138429321Y-113916338D01*
X138642001Y-113402882D01*
X138642001Y-112847120D01*
X138583042Y-112704778D01*
X151400000Y-112704778D01*
X151400000Y-113355222D01*
X151648914Y-113956153D01*
X152108847Y-114416086D01*
X152709778Y-114665000D01*
X153360222Y-114665000D01*
X153961153Y-114416086D01*
X154421086Y-113956153D01*
X154670000Y-113355222D01*
X154670000Y-112704778D01*
X154641096Y-112634996D01*
X168345000Y-112634996D01*
X168345000Y-113365004D01*
X168624362Y-114039444D01*
X169140556Y-114555638D01*
X169597105Y-114744747D01*
X169185565Y-114915212D01*
X169062430Y-115202825D01*
X170180000Y-116320395D01*
X171297570Y-115202825D01*
X171174435Y-114915212D01*
X170745716Y-114751862D01*
X171219444Y-114555638D01*
X171735638Y-114039444D01*
X172015000Y-113365004D01*
X172015000Y-112634996D01*
X171735638Y-111960556D01*
X171219444Y-111444362D01*
X170762895Y-111255253D01*
X171174435Y-111084788D01*
X171297570Y-110797175D01*
X170180000Y-109679605D01*
X169062430Y-110797175D01*
X169185565Y-111084788D01*
X169614284Y-111248138D01*
X169140556Y-111444362D01*
X168624362Y-111960556D01*
X168345000Y-112634996D01*
X154641096Y-112634996D01*
X154421086Y-112103847D01*
X153961153Y-111643914D01*
X153360222Y-111395000D01*
X152709778Y-111395000D01*
X152108847Y-111643914D01*
X151648914Y-112103847D01*
X151400000Y-112704778D01*
X138583042Y-112704778D01*
X138429321Y-112333664D01*
X138036338Y-111940681D01*
X137829488Y-111855001D01*
X138036338Y-111769321D01*
X138429321Y-111376338D01*
X138642001Y-110862882D01*
X138642001Y-110307120D01*
X138429321Y-109793664D01*
X138036338Y-109400681D01*
X137829488Y-109315001D01*
X138036338Y-109229321D01*
X138077925Y-109187734D01*
X168335293Y-109187734D01*
X168356214Y-109917443D01*
X168595212Y-110494435D01*
X168882825Y-110617570D01*
X170000395Y-109500000D01*
X170359605Y-109500000D01*
X171477175Y-110617570D01*
X171764788Y-110494435D01*
X172024707Y-109812266D01*
X172003786Y-109082557D01*
X171764788Y-108505565D01*
X171477175Y-108382430D01*
X170359605Y-109500000D01*
X170000395Y-109500000D01*
X168882825Y-108382430D01*
X168595212Y-108505565D01*
X168335293Y-109187734D01*
X138077925Y-109187734D01*
X138429321Y-108836338D01*
X138642001Y-108322882D01*
X138642001Y-107767120D01*
X138429321Y-107253664D01*
X138036338Y-106860681D01*
X137829488Y-106775001D01*
X138036338Y-106689321D01*
X138429321Y-106296338D01*
X138642001Y-105782882D01*
X138642001Y-105719778D01*
X151400000Y-105719778D01*
X151400000Y-106370222D01*
X151648914Y-106971153D01*
X152108847Y-107431086D01*
X152709778Y-107680000D01*
X153360222Y-107680000D01*
X153961153Y-107431086D01*
X154421086Y-106971153D01*
X154670000Y-106370222D01*
X154670000Y-105719778D01*
X154634883Y-105634996D01*
X168345000Y-105634996D01*
X168345000Y-106365004D01*
X168624362Y-107039444D01*
X169140556Y-107555638D01*
X169597105Y-107744747D01*
X169185565Y-107915212D01*
X169062430Y-108202825D01*
X170180000Y-109320395D01*
X171297570Y-108202825D01*
X171174435Y-107915212D01*
X170745716Y-107751862D01*
X171219444Y-107555638D01*
X171735638Y-107039444D01*
X172015000Y-106365004D01*
X172015000Y-105634996D01*
X171735638Y-104960556D01*
X171219444Y-104444362D01*
X170762895Y-104255253D01*
X171174435Y-104084788D01*
X171297570Y-103797175D01*
X170180000Y-102679605D01*
X169062430Y-103797175D01*
X169185565Y-104084788D01*
X169614284Y-104248138D01*
X169140556Y-104444362D01*
X168624362Y-104960556D01*
X168345000Y-105634996D01*
X154634883Y-105634996D01*
X154421086Y-105118847D01*
X153961153Y-104658914D01*
X153360222Y-104410000D01*
X152709778Y-104410000D01*
X152108847Y-104658914D01*
X151648914Y-105118847D01*
X151400000Y-105719778D01*
X138642001Y-105719778D01*
X138642001Y-105227120D01*
X138429321Y-104713664D01*
X138036338Y-104320681D01*
X137829488Y-104235001D01*
X138036338Y-104149321D01*
X138429321Y-103756338D01*
X138642001Y-103242882D01*
X138642001Y-102687120D01*
X138435149Y-102187734D01*
X168335293Y-102187734D01*
X168356214Y-102917443D01*
X168595212Y-103494435D01*
X168882825Y-103617570D01*
X170000395Y-102500000D01*
X170359605Y-102500000D01*
X171477175Y-103617570D01*
X171764788Y-103494435D01*
X172024707Y-102812266D01*
X172003786Y-102082557D01*
X171764788Y-101505565D01*
X171477175Y-101382430D01*
X170359605Y-102500000D01*
X170000395Y-102500000D01*
X168882825Y-101382430D01*
X168595212Y-101505565D01*
X168335293Y-102187734D01*
X138435149Y-102187734D01*
X138429321Y-102173664D01*
X138036338Y-101780681D01*
X137829488Y-101695001D01*
X138036338Y-101609321D01*
X138429321Y-101216338D01*
X138642001Y-100702882D01*
X138642001Y-100147120D01*
X138429321Y-99633664D01*
X138036338Y-99240681D01*
X137829488Y-99155001D01*
X138036338Y-99069321D01*
X138429321Y-98676338D01*
X138642001Y-98162882D01*
X138642001Y-98099778D01*
X151273000Y-98099778D01*
X151273000Y-98750222D01*
X151521914Y-99351153D01*
X151981847Y-99811086D01*
X152582778Y-100060000D01*
X153233222Y-100060000D01*
X153834153Y-99811086D01*
X154294086Y-99351153D01*
X154543000Y-98750222D01*
X154543000Y-98634996D01*
X168345000Y-98634996D01*
X168345000Y-99365004D01*
X168624362Y-100039444D01*
X169140556Y-100555638D01*
X169597105Y-100744747D01*
X169185565Y-100915212D01*
X169062430Y-101202825D01*
X170180000Y-102320395D01*
X171297570Y-101202825D01*
X171174435Y-100915212D01*
X170745716Y-100751862D01*
X171219444Y-100555638D01*
X171735638Y-100039444D01*
X172015000Y-99365004D01*
X172015000Y-98634996D01*
X171735638Y-97960556D01*
X171219444Y-97444362D01*
X170762895Y-97255253D01*
X171174435Y-97084788D01*
X171297570Y-96797175D01*
X170180000Y-95679605D01*
X169062430Y-96797175D01*
X169185565Y-97084788D01*
X169614284Y-97248138D01*
X169140556Y-97444362D01*
X168624362Y-97960556D01*
X168345000Y-98634996D01*
X154543000Y-98634996D01*
X154543000Y-98099778D01*
X154294086Y-97498847D01*
X153834153Y-97038914D01*
X153233222Y-96790000D01*
X152582778Y-96790000D01*
X151981847Y-97038914D01*
X151521914Y-97498847D01*
X151273000Y-98099778D01*
X138642001Y-98099778D01*
X138642001Y-97607120D01*
X138429321Y-97093664D01*
X138036338Y-96700681D01*
X137829488Y-96615001D01*
X138036338Y-96529321D01*
X138429321Y-96136338D01*
X138642001Y-95622882D01*
X138642001Y-95187734D01*
X168335293Y-95187734D01*
X168356214Y-95917443D01*
X168595212Y-96494435D01*
X168882825Y-96617570D01*
X170000395Y-95500000D01*
X170359605Y-95500000D01*
X171477175Y-96617570D01*
X171764788Y-96494435D01*
X172024707Y-95812266D01*
X172003786Y-95082557D01*
X171764788Y-94505565D01*
X171477175Y-94382430D01*
X170359605Y-95500000D01*
X170000395Y-95500000D01*
X168882825Y-94382430D01*
X168595212Y-94505565D01*
X168335293Y-95187734D01*
X138642001Y-95187734D01*
X138642001Y-95067120D01*
X138429321Y-94553664D01*
X138036338Y-94160681D01*
X137829488Y-94075001D01*
X138036338Y-93989321D01*
X138429321Y-93596338D01*
X138642001Y-93082882D01*
X138642001Y-92527120D01*
X138429321Y-92013664D01*
X138036338Y-91620681D01*
X137829488Y-91535001D01*
X138036338Y-91449321D01*
X138370881Y-91114778D01*
X151273000Y-91114778D01*
X151273000Y-91765222D01*
X151521914Y-92366153D01*
X151981847Y-92826086D01*
X152582778Y-93075000D01*
X153233222Y-93075000D01*
X153834153Y-92826086D01*
X154294086Y-92366153D01*
X154543000Y-91765222D01*
X154543000Y-91634996D01*
X168345000Y-91634996D01*
X168345000Y-92365004D01*
X168624362Y-93039444D01*
X169140556Y-93555638D01*
X169597105Y-93744747D01*
X169185565Y-93915212D01*
X169062430Y-94202825D01*
X170180000Y-95320395D01*
X171297570Y-94202825D01*
X171174435Y-93915212D01*
X170745716Y-93751862D01*
X171219444Y-93555638D01*
X171735638Y-93039444D01*
X172015000Y-92365004D01*
X172015000Y-91634996D01*
X171735638Y-90960556D01*
X171219444Y-90444362D01*
X170762895Y-90255253D01*
X171174435Y-90084788D01*
X171297570Y-89797175D01*
X170180000Y-88679605D01*
X169062430Y-89797175D01*
X169185565Y-90084788D01*
X169614284Y-90248138D01*
X169140556Y-90444362D01*
X168624362Y-90960556D01*
X168345000Y-91634996D01*
X154543000Y-91634996D01*
X154543000Y-91114778D01*
X154294086Y-90513847D01*
X153834153Y-90053914D01*
X153233222Y-89805000D01*
X152582778Y-89805000D01*
X151981847Y-90053914D01*
X151521914Y-90513847D01*
X151273000Y-91114778D01*
X138370881Y-91114778D01*
X138429321Y-91056338D01*
X138642001Y-90542882D01*
X138642001Y-89987120D01*
X138429321Y-89473664D01*
X138036338Y-89080681D01*
X137829488Y-88995001D01*
X138036338Y-88909321D01*
X138429321Y-88516338D01*
X138565432Y-88187734D01*
X168335293Y-88187734D01*
X168356214Y-88917443D01*
X168595212Y-89494435D01*
X168882825Y-89617570D01*
X170000395Y-88500000D01*
X170359605Y-88500000D01*
X171477175Y-89617570D01*
X171764788Y-89494435D01*
X172024707Y-88812266D01*
X172003786Y-88082557D01*
X171764788Y-87505565D01*
X171477175Y-87382430D01*
X170359605Y-88500000D01*
X170000395Y-88500000D01*
X168882825Y-87382430D01*
X168595212Y-87505565D01*
X168335293Y-88187734D01*
X138565432Y-88187734D01*
X138642001Y-88002882D01*
X138642001Y-87447120D01*
X138429321Y-86933664D01*
X138036338Y-86540681D01*
X137829488Y-86455001D01*
X138036338Y-86369321D01*
X138429321Y-85976338D01*
X138642001Y-85462882D01*
X138642001Y-84907120D01*
X138429321Y-84393664D01*
X138038435Y-84002778D01*
X151273000Y-84002778D01*
X151273000Y-84653222D01*
X151521914Y-85254153D01*
X151981847Y-85714086D01*
X152582778Y-85963000D01*
X153233222Y-85963000D01*
X153834153Y-85714086D01*
X154294086Y-85254153D01*
X154543000Y-84653222D01*
X154543000Y-84634996D01*
X168345000Y-84634996D01*
X168345000Y-85365004D01*
X168624362Y-86039444D01*
X169140556Y-86555638D01*
X169597105Y-86744747D01*
X169185565Y-86915212D01*
X169062430Y-87202825D01*
X170180000Y-88320395D01*
X171297570Y-87202825D01*
X171174435Y-86915212D01*
X170745716Y-86751862D01*
X171219444Y-86555638D01*
X171735638Y-86039444D01*
X172015000Y-85365004D01*
X172015000Y-84634996D01*
X171735638Y-83960556D01*
X171219444Y-83444362D01*
X170762895Y-83255253D01*
X171174435Y-83084788D01*
X171297570Y-82797175D01*
X170180000Y-81679605D01*
X169062430Y-82797175D01*
X169185565Y-83084788D01*
X169614284Y-83248138D01*
X169140556Y-83444362D01*
X168624362Y-83960556D01*
X168345000Y-84634996D01*
X154543000Y-84634996D01*
X154543000Y-84002778D01*
X154294086Y-83401847D01*
X153834153Y-82941914D01*
X153233222Y-82693000D01*
X152582778Y-82693000D01*
X151981847Y-82941914D01*
X151521914Y-83401847D01*
X151273000Y-84002778D01*
X138038435Y-84002778D01*
X138036338Y-84000681D01*
X137522882Y-83788001D01*
X137287000Y-83788001D01*
X137287000Y-81187734D01*
X168335293Y-81187734D01*
X168356214Y-81917443D01*
X168595212Y-82494435D01*
X168882825Y-82617570D01*
X170000395Y-81500000D01*
X170359605Y-81500000D01*
X171477175Y-82617570D01*
X171764788Y-82494435D01*
X172024707Y-81812266D01*
X172003786Y-81082557D01*
X171764788Y-80505565D01*
X171477175Y-80382430D01*
X170359605Y-81500000D01*
X170000395Y-81500000D01*
X168882825Y-80382430D01*
X168595212Y-80505565D01*
X168335293Y-81187734D01*
X137287000Y-81187734D01*
X137287000Y-80753283D01*
X137927594Y-80487940D01*
X138212709Y-80202825D01*
X169062430Y-80202825D01*
X170180000Y-81320395D01*
X171297570Y-80202825D01*
X171174435Y-79915212D01*
X170492266Y-79655293D01*
X169762557Y-79676214D01*
X169185565Y-79915212D01*
X169062430Y-80202825D01*
X138212709Y-80202825D01*
X138907940Y-79507594D01*
X139438500Y-78226710D01*
X139438500Y-76840290D01*
X138907940Y-75559406D01*
X137927594Y-74579060D01*
X137287000Y-74313717D01*
X137287000Y-72966790D01*
X169235000Y-72966790D01*
X169235000Y-74353210D01*
X169765560Y-75634094D01*
X170745906Y-76614440D01*
X172026790Y-77145000D01*
X173413210Y-77145000D01*
X174694094Y-76614440D01*
X175674440Y-75634094D01*
X176205000Y-74353210D01*
X176205000Y-72966790D01*
X175674440Y-71685906D01*
X174694094Y-70705560D01*
X173413210Y-70175000D01*
X172026790Y-70175000D01*
X170745906Y-70705560D01*
X169765560Y-71685906D01*
X169235000Y-72966790D01*
X137287000Y-72966790D01*
X137287000Y-69290000D01*
X177090001Y-69290000D01*
X177090000Y-138990000D01*
X81990000Y-138990000D01*
X81990000Y-133926790D01*
X82875000Y-133926790D01*
X82875000Y-135313210D01*
X83405560Y-136594094D01*
X84385906Y-137574440D01*
X85666790Y-138105000D01*
X87053210Y-138105000D01*
X88334094Y-137574440D01*
X89314440Y-136594094D01*
X89845000Y-135313210D01*
X89845000Y-133926790D01*
X89844871Y-133926478D01*
X90150440Y-133926478D01*
X90150440Y-134576922D01*
X90399354Y-135177853D01*
X90859287Y-135637786D01*
X91460218Y-135886700D01*
X92110662Y-135886700D01*
X92711593Y-135637786D01*
X93171526Y-135177853D01*
X93420440Y-134576922D01*
X93420440Y-133926790D01*
X169235000Y-133926790D01*
X169235000Y-135313210D01*
X169765560Y-136594094D01*
X170745906Y-137574440D01*
X172026790Y-138105000D01*
X173413210Y-138105000D01*
X174694094Y-137574440D01*
X175674440Y-136594094D01*
X176205000Y-135313210D01*
X176205000Y-133926790D01*
X175674440Y-132645906D01*
X174694094Y-131665560D01*
X173413210Y-131135000D01*
X172026790Y-131135000D01*
X170745906Y-131665560D01*
X169765560Y-132645906D01*
X169235000Y-133926790D01*
X93420440Y-133926790D01*
X93420440Y-133926478D01*
X93171526Y-133325547D01*
X92711593Y-132865614D01*
X92110662Y-132616700D01*
X91460218Y-132616700D01*
X90859287Y-132865614D01*
X90399354Y-133325547D01*
X90150440Y-133926478D01*
X89844871Y-133926478D01*
X89314440Y-132645906D01*
X88334094Y-131665560D01*
X87053210Y-131135000D01*
X85666790Y-131135000D01*
X84385906Y-131665560D01*
X83405560Y-132645906D01*
X82875000Y-133926790D01*
X81990000Y-133926790D01*
X81990000Y-128973790D01*
X107132000Y-128973790D01*
X107132000Y-130360210D01*
X107662560Y-131641094D01*
X108642906Y-132621440D01*
X109923790Y-133152000D01*
X111310210Y-133152000D01*
X112591094Y-132621440D01*
X113571440Y-131641094D01*
X114102000Y-130360210D01*
X114102000Y-128973790D01*
X114075698Y-128910290D01*
X132468500Y-128910290D01*
X132468500Y-130296710D01*
X132999060Y-131577594D01*
X133979406Y-132557940D01*
X135260290Y-133088500D01*
X136646710Y-133088500D01*
X137927594Y-132557940D01*
X138907940Y-131577594D01*
X139438500Y-130296710D01*
X139438500Y-128910290D01*
X139038572Y-127944778D01*
X151400000Y-127944778D01*
X151400000Y-128595222D01*
X151648914Y-129196153D01*
X152108847Y-129656086D01*
X152709778Y-129905000D01*
X153360222Y-129905000D01*
X153961153Y-129656086D01*
X154421086Y-129196153D01*
X154670000Y-128595222D01*
X154670000Y-127944778D01*
X154421086Y-127343847D01*
X153961153Y-126883914D01*
X153360222Y-126635000D01*
X152709778Y-126635000D01*
X152108847Y-126883914D01*
X151648914Y-127343847D01*
X151400000Y-127944778D01*
X139038572Y-127944778D01*
X138907940Y-127629406D01*
X137927594Y-126649060D01*
X136646710Y-126118500D01*
X135260290Y-126118500D01*
X133979406Y-126649060D01*
X132999060Y-127629406D01*
X132468500Y-128910290D01*
X114075698Y-128910290D01*
X113571440Y-127692906D01*
X112591094Y-126712560D01*
X111310210Y-126182000D01*
X109923790Y-126182000D01*
X108642906Y-126712560D01*
X107662560Y-127692906D01*
X107132000Y-128973790D01*
X81990000Y-128973790D01*
X81990000Y-124292240D01*
X86473000Y-124292240D01*
X86473000Y-125257760D01*
X86842489Y-126149785D01*
X87525215Y-126832511D01*
X88417240Y-127202000D01*
X89382760Y-127202000D01*
X90107024Y-126902000D01*
X92439516Y-126902000D01*
X92649000Y-126943669D01*
X92858484Y-126902000D01*
X92858489Y-126902000D01*
X93478914Y-126778590D01*
X94182481Y-126308481D01*
X94301147Y-126130885D01*
X98226282Y-122205750D01*
X101235000Y-122205750D01*
X101235000Y-123046309D01*
X101331673Y-123279698D01*
X101510301Y-123458327D01*
X101545043Y-123472718D01*
X101483914Y-123533847D01*
X101235000Y-124134778D01*
X101235000Y-124785222D01*
X101483914Y-125386153D01*
X101827761Y-125730000D01*
X101483914Y-126073847D01*
X101235000Y-126674778D01*
X101235000Y-127325222D01*
X101483914Y-127926153D01*
X101943847Y-128386086D01*
X102544778Y-128635000D01*
X103195222Y-128635000D01*
X103796153Y-128386086D01*
X104256086Y-127926153D01*
X104505000Y-127325222D01*
X104505000Y-126674778D01*
X104256086Y-126073847D01*
X103982239Y-125800000D01*
X168332560Y-125800000D01*
X168332560Y-128200000D01*
X168381843Y-128447765D01*
X168522191Y-128657809D01*
X168732235Y-128798157D01*
X168980000Y-128847440D01*
X171380000Y-128847440D01*
X171627765Y-128798157D01*
X171837809Y-128657809D01*
X171978157Y-128447765D01*
X172027440Y-128200000D01*
X172027440Y-125800000D01*
X171978157Y-125552235D01*
X171837809Y-125342191D01*
X171627765Y-125201843D01*
X171380000Y-125152560D01*
X171010819Y-125152560D01*
X171174435Y-125084788D01*
X171297570Y-124797175D01*
X170180000Y-123679605D01*
X169062430Y-124797175D01*
X169185565Y-125084788D01*
X169363436Y-125152560D01*
X168980000Y-125152560D01*
X168732235Y-125201843D01*
X168522191Y-125342191D01*
X168381843Y-125552235D01*
X168332560Y-125800000D01*
X103982239Y-125800000D01*
X103912239Y-125730000D01*
X104256086Y-125386153D01*
X104505000Y-124785222D01*
X104505000Y-124134778D01*
X104256086Y-123533847D01*
X104194957Y-123472718D01*
X104229699Y-123458327D01*
X104408327Y-123279698D01*
X104446419Y-123187734D01*
X168335293Y-123187734D01*
X168356214Y-123917443D01*
X168595212Y-124494435D01*
X168882825Y-124617570D01*
X170000395Y-123500000D01*
X170359605Y-123500000D01*
X171477175Y-124617570D01*
X171764788Y-124494435D01*
X172024707Y-123812266D01*
X172003786Y-123082557D01*
X171764788Y-122505565D01*
X171477175Y-122382430D01*
X170359605Y-123500000D01*
X170000395Y-123500000D01*
X168882825Y-122382430D01*
X168595212Y-122505565D01*
X168335293Y-123187734D01*
X104446419Y-123187734D01*
X104505000Y-123046309D01*
X104505000Y-122205750D01*
X104346250Y-122047000D01*
X102997000Y-122047000D01*
X102997000Y-122067000D01*
X102743000Y-122067000D01*
X102743000Y-122047000D01*
X101393750Y-122047000D01*
X101235000Y-122205750D01*
X98226282Y-122205750D01*
X99638341Y-120793691D01*
X101235000Y-120793691D01*
X101235000Y-121634250D01*
X101393750Y-121793000D01*
X102743000Y-121793000D01*
X102743000Y-120443750D01*
X102997000Y-120443750D01*
X102997000Y-121793000D01*
X104346250Y-121793000D01*
X104505000Y-121634250D01*
X104505000Y-120793691D01*
X104408327Y-120560302D01*
X104229699Y-120381673D01*
X103996310Y-120285000D01*
X103155750Y-120285000D01*
X102997000Y-120443750D01*
X102743000Y-120443750D01*
X102584250Y-120285000D01*
X101743690Y-120285000D01*
X101510301Y-120381673D01*
X101331673Y-120560302D01*
X101235000Y-120793691D01*
X99638341Y-120793691D01*
X106511888Y-113920145D01*
X106689481Y-113801481D01*
X106808145Y-113623888D01*
X106808147Y-113623886D01*
X107159589Y-113097915D01*
X107159590Y-113097914D01*
X107283000Y-112477489D01*
X107283000Y-112477485D01*
X107324669Y-112268001D01*
X107283000Y-112058516D01*
X107283000Y-91649486D01*
X107324669Y-91440000D01*
X107283000Y-91230514D01*
X107283000Y-91230511D01*
X107159590Y-90610086D01*
X106689481Y-89906519D01*
X106511885Y-89787853D01*
X105904079Y-89180047D01*
X105904079Y-87015000D01*
X105816611Y-86575267D01*
X105567522Y-86202478D01*
X105194733Y-85953389D01*
X104755000Y-85865921D01*
X102255000Y-85865921D01*
X101815267Y-85953389D01*
X101442478Y-86202478D01*
X101193389Y-86575267D01*
X101105921Y-87015000D01*
X101105921Y-89515000D01*
X101193389Y-89954733D01*
X101442478Y-90327522D01*
X101443598Y-90328270D01*
X101501410Y-90618913D01*
X101971519Y-91322481D01*
X102149115Y-91441147D01*
X103029001Y-92321033D01*
X103029001Y-93161541D01*
X102507717Y-92668814D01*
X101924645Y-92427305D01*
X101632000Y-92543428D01*
X101632000Y-94138000D01*
X101652000Y-94138000D01*
X101652000Y-94392000D01*
X101632000Y-94392000D01*
X101632000Y-95986572D01*
X101924645Y-96102695D01*
X102507717Y-95861186D01*
X103029001Y-95368459D01*
X103029000Y-111386967D01*
X91767968Y-122648000D01*
X90107024Y-122648000D01*
X89382760Y-122348000D01*
X88417240Y-122348000D01*
X87525215Y-122717489D01*
X86842489Y-123400215D01*
X86473000Y-124292240D01*
X81990000Y-124292240D01*
X81990000Y-87242000D01*
X82159331Y-87242000D01*
X82201000Y-87451484D01*
X82201001Y-118662511D01*
X82159331Y-118872000D01*
X82324411Y-119701914D01*
X82675853Y-120227885D01*
X82675856Y-120227888D01*
X82794520Y-120405481D01*
X82972114Y-120524145D01*
X83578851Y-121130883D01*
X83697519Y-121308481D01*
X84038531Y-121536338D01*
X84401085Y-121778590D01*
X84473530Y-121793000D01*
X85021511Y-121902000D01*
X85021514Y-121902000D01*
X85231000Y-121943669D01*
X85440486Y-121902000D01*
X87692976Y-121902000D01*
X88417240Y-122202000D01*
X89382760Y-122202000D01*
X90274785Y-121832511D01*
X90957511Y-121149785D01*
X91327000Y-120257760D01*
X91327000Y-119292240D01*
X90957511Y-118400215D01*
X90274785Y-117717489D01*
X89382760Y-117348000D01*
X88417240Y-117348000D01*
X87692976Y-117648000D01*
X86455000Y-117648000D01*
X86455000Y-114292240D01*
X86473000Y-114292240D01*
X86473000Y-115257760D01*
X86842489Y-116149785D01*
X87525215Y-116832511D01*
X88417240Y-117202000D01*
X89382760Y-117202000D01*
X90107024Y-116902000D01*
X90755516Y-116902000D01*
X90965000Y-116943669D01*
X91174484Y-116902000D01*
X91174489Y-116902000D01*
X91794914Y-116778590D01*
X92498481Y-116308481D01*
X92617147Y-116130885D01*
X94827885Y-113920147D01*
X95005481Y-113801481D01*
X95475590Y-113097914D01*
X95599000Y-112477489D01*
X95599000Y-112477485D01*
X95640669Y-112268001D01*
X95599000Y-112058517D01*
X95599000Y-98641484D01*
X95640669Y-98432000D01*
X95599000Y-98222515D01*
X95599000Y-98222511D01*
X95475590Y-97602086D01*
X95005481Y-96898519D01*
X94827886Y-96779854D01*
X92732678Y-94684646D01*
X99667298Y-94684646D01*
X99967776Y-95355960D01*
X100502283Y-95861186D01*
X101085355Y-96102695D01*
X101378000Y-95986572D01*
X101378000Y-94392000D01*
X99783026Y-94392000D01*
X99667298Y-94684646D01*
X92732678Y-94684646D01*
X91893386Y-93845354D01*
X99667298Y-93845354D01*
X99783026Y-94138000D01*
X101378000Y-94138000D01*
X101378000Y-92543428D01*
X101085355Y-92427305D01*
X100502283Y-92668814D01*
X99967776Y-93174040D01*
X99667298Y-93845354D01*
X91893386Y-93845354D01*
X91583444Y-93535412D01*
X91544085Y-93337541D01*
X91018721Y-92551279D01*
X90232459Y-92025915D01*
X89539113Y-91888000D01*
X89070887Y-91888000D01*
X88377541Y-92025915D01*
X87591279Y-92551279D01*
X87065915Y-93337541D01*
X86881432Y-94265000D01*
X87065915Y-95192459D01*
X87591279Y-95978721D01*
X88377541Y-96504085D01*
X88575412Y-96543444D01*
X91345000Y-99313032D01*
X91345001Y-111386967D01*
X90090721Y-112641247D01*
X89382760Y-112348000D01*
X88417240Y-112348000D01*
X87525215Y-112717489D01*
X86842489Y-113400215D01*
X86473000Y-114292240D01*
X86455000Y-114292240D01*
X86455000Y-109390105D01*
X86965000Y-109390105D01*
X86965000Y-110159895D01*
X87259586Y-110871090D01*
X87803910Y-111415414D01*
X88515105Y-111710000D01*
X89284895Y-111710000D01*
X89996090Y-111415414D01*
X90540414Y-110871090D01*
X90835000Y-110159895D01*
X90835000Y-109390105D01*
X90540414Y-108678910D01*
X89996090Y-108134586D01*
X89284895Y-107840000D01*
X88515105Y-107840000D01*
X87803910Y-108134586D01*
X87259586Y-108678910D01*
X86965000Y-109390105D01*
X86455000Y-109390105D01*
X86455000Y-105060750D01*
X86965000Y-105060750D01*
X86965000Y-106201309D01*
X87061673Y-106434698D01*
X87240301Y-106613327D01*
X87473690Y-106710000D01*
X88614250Y-106710000D01*
X88773000Y-106551250D01*
X88773000Y-104902000D01*
X89027000Y-104902000D01*
X89027000Y-106551250D01*
X89185750Y-106710000D01*
X90326310Y-106710000D01*
X90559699Y-106613327D01*
X90738327Y-106434698D01*
X90835000Y-106201309D01*
X90835000Y-105060750D01*
X90676250Y-104902000D01*
X89027000Y-104902000D01*
X88773000Y-104902000D01*
X87123750Y-104902000D01*
X86965000Y-105060750D01*
X86455000Y-105060750D01*
X86455000Y-103348691D01*
X86965000Y-103348691D01*
X86965000Y-104489250D01*
X87123750Y-104648000D01*
X88773000Y-104648000D01*
X88773000Y-102998750D01*
X89027000Y-102998750D01*
X89027000Y-104648000D01*
X90676250Y-104648000D01*
X90835000Y-104489250D01*
X90835000Y-103348691D01*
X90738327Y-103115302D01*
X90559699Y-102936673D01*
X90326310Y-102840000D01*
X89185750Y-102840000D01*
X89027000Y-102998750D01*
X88773000Y-102998750D01*
X88614250Y-102840000D01*
X87473690Y-102840000D01*
X87240301Y-102936673D01*
X87061673Y-103115302D01*
X86965000Y-103348691D01*
X86455000Y-103348691D01*
X86455000Y-88123032D01*
X90034588Y-84543444D01*
X90232459Y-84504085D01*
X91018721Y-83978721D01*
X91544085Y-83192459D01*
X91728568Y-82265000D01*
X99583071Y-82265000D01*
X99729369Y-83000490D01*
X100145991Y-83624009D01*
X100769510Y-84040631D01*
X101319345Y-84150000D01*
X101690655Y-84150000D01*
X102240490Y-84040631D01*
X102864009Y-83624009D01*
X103280631Y-83000490D01*
X103426929Y-82265000D01*
X103280631Y-81529510D01*
X102864009Y-80905991D01*
X102240490Y-80489369D01*
X101690655Y-80380000D01*
X101319345Y-80380000D01*
X100769510Y-80489369D01*
X100145991Y-80905991D01*
X99729369Y-81529510D01*
X99583071Y-82265000D01*
X91728568Y-82265000D01*
X91544085Y-81337541D01*
X91018721Y-80551279D01*
X90232459Y-80025915D01*
X89539113Y-79888000D01*
X89070887Y-79888000D01*
X88377541Y-80025915D01*
X87591279Y-80551279D01*
X87065915Y-81337541D01*
X87026556Y-81535412D01*
X82972115Y-85589853D01*
X82794519Y-85708519D01*
X82324410Y-86412087D01*
X82201000Y-87032512D01*
X82201000Y-87032516D01*
X82159331Y-87242000D01*
X81990000Y-87242000D01*
X81990000Y-72966790D01*
X82875000Y-72966790D01*
X82875000Y-74353210D01*
X83405560Y-75634094D01*
X84385906Y-76614440D01*
X85666790Y-77145000D01*
X87053210Y-77145000D01*
X88334094Y-76614440D01*
X89314440Y-75634094D01*
X89845000Y-74353210D01*
X89845000Y-72966790D01*
X89314440Y-71685906D01*
X88334094Y-70705560D01*
X87053210Y-70175000D01*
X85666790Y-70175000D01*
X84385906Y-70705560D01*
X83405560Y-71685906D01*
X82875000Y-72966790D01*
X81990000Y-72966790D01*
X81990000Y-69290000D01*
X109093000Y-69290000D01*
X109093000Y-74456125D01*
X109093000Y-74456125D01*
G37*
X109093000Y-74456125D02*
X108642906Y-74642560D01*
X107662560Y-75622906D01*
X107132000Y-76903790D01*
X107132000Y-78290210D01*
X107662560Y-79571094D01*
X108642906Y-80551440D01*
X109093000Y-80737875D01*
X109093000Y-83788001D01*
X109027120Y-83788001D01*
X108513664Y-84000681D01*
X108120681Y-84393664D01*
X107908001Y-84907120D01*
X107908001Y-85462882D01*
X108120681Y-85976338D01*
X108513664Y-86369321D01*
X108720514Y-86455001D01*
X108513664Y-86540681D01*
X108120681Y-86933664D01*
X107908001Y-87447120D01*
X107908001Y-88002882D01*
X108120681Y-88516338D01*
X108513664Y-88909321D01*
X108720514Y-88995001D01*
X108513664Y-89080681D01*
X108120681Y-89473664D01*
X107908001Y-89987120D01*
X107908001Y-90542882D01*
X108120681Y-91056338D01*
X108513664Y-91449321D01*
X108720514Y-91535001D01*
X108513664Y-91620681D01*
X108120681Y-92013664D01*
X107908001Y-92527120D01*
X107908001Y-93082882D01*
X108120681Y-93596338D01*
X108513664Y-93989321D01*
X108720514Y-94075001D01*
X108513664Y-94160681D01*
X108120681Y-94553664D01*
X107908001Y-95067120D01*
X107908001Y-95622882D01*
X108120681Y-96136338D01*
X108513664Y-96529321D01*
X108720514Y-96615001D01*
X108513664Y-96700681D01*
X108120681Y-97093664D01*
X107908001Y-97607120D01*
X107908001Y-98162882D01*
X108120681Y-98676338D01*
X108513664Y-99069321D01*
X108720514Y-99155001D01*
X108513664Y-99240681D01*
X108120681Y-99633664D01*
X107908001Y-100147120D01*
X107908001Y-100702882D01*
X108120681Y-101216338D01*
X108513664Y-101609321D01*
X108720514Y-101695001D01*
X108513664Y-101780681D01*
X108120681Y-102173664D01*
X107908001Y-102687120D01*
X107908001Y-103242882D01*
X108120681Y-103756338D01*
X108513664Y-104149321D01*
X108720514Y-104235001D01*
X108513664Y-104320681D01*
X108120681Y-104713664D01*
X107908001Y-105227120D01*
X107908001Y-105782882D01*
X108120681Y-106296338D01*
X108513664Y-106689321D01*
X108720514Y-106775001D01*
X108513664Y-106860681D01*
X108120681Y-107253664D01*
X107908001Y-107767120D01*
X107908001Y-108322882D01*
X108120681Y-108836338D01*
X108513664Y-109229321D01*
X108720514Y-109315001D01*
X108513664Y-109400681D01*
X108120681Y-109793664D01*
X107908001Y-110307120D01*
X107908001Y-110862882D01*
X108120681Y-111376338D01*
X108513664Y-111769321D01*
X108720514Y-111855001D01*
X108513664Y-111940681D01*
X108120681Y-112333664D01*
X107908001Y-112847120D01*
X107908001Y-113402882D01*
X108120681Y-113916338D01*
X108513664Y-114309321D01*
X108720514Y-114395001D01*
X108513664Y-114480681D01*
X108120681Y-114873664D01*
X107908001Y-115387120D01*
X107908001Y-115942882D01*
X108120681Y-116456338D01*
X108513664Y-116849321D01*
X108720514Y-116935001D01*
X108513664Y-117020681D01*
X108120681Y-117413664D01*
X107908001Y-117927120D01*
X107908001Y-118482882D01*
X108120681Y-118996338D01*
X108513664Y-119389321D01*
X108720514Y-119475001D01*
X108513664Y-119560681D01*
X108120681Y-119953664D01*
X107908001Y-120467120D01*
X107908001Y-121022882D01*
X108120681Y-121536338D01*
X108513664Y-121929321D01*
X109027120Y-122142001D01*
X109582882Y-122142001D01*
X110096338Y-121929321D01*
X110489321Y-121536338D01*
X110702001Y-121022882D01*
X110702001Y-120467120D01*
X110489321Y-119953664D01*
X110096338Y-119560681D01*
X109889488Y-119475001D01*
X110096338Y-119389321D01*
X110489321Y-118996338D01*
X110702001Y-118482882D01*
X110702001Y-117927120D01*
X110489321Y-117413664D01*
X110096338Y-117020681D01*
X109889488Y-116935001D01*
X110096338Y-116849321D01*
X110489321Y-116456338D01*
X110702001Y-115942882D01*
X110702001Y-115387120D01*
X110489321Y-114873664D01*
X110096338Y-114480681D01*
X109889488Y-114395001D01*
X110096338Y-114309321D01*
X110489321Y-113916338D01*
X110702001Y-113402882D01*
X110702001Y-112847120D01*
X110489321Y-112333664D01*
X110096338Y-111940681D01*
X109889488Y-111855001D01*
X110096338Y-111769321D01*
X110489321Y-111376338D01*
X110702001Y-110862882D01*
X110702001Y-110307120D01*
X110489321Y-109793664D01*
X110096338Y-109400681D01*
X109889488Y-109315001D01*
X110096338Y-109229321D01*
X110489321Y-108836338D01*
X110702001Y-108322882D01*
X110702001Y-107767120D01*
X110489321Y-107253664D01*
X110096338Y-106860681D01*
X109889488Y-106775001D01*
X110096338Y-106689321D01*
X110489321Y-106296338D01*
X110702001Y-105782882D01*
X110702001Y-105227120D01*
X110489321Y-104713664D01*
X110096338Y-104320681D01*
X109889488Y-104235001D01*
X110096338Y-104149321D01*
X110489321Y-103756338D01*
X110702001Y-103242882D01*
X110702001Y-102687120D01*
X110489321Y-102173664D01*
X110096338Y-101780681D01*
X109889488Y-101695001D01*
X110096338Y-101609321D01*
X110489321Y-101216338D01*
X110702001Y-100702882D01*
X110702001Y-100147120D01*
X110489321Y-99633664D01*
X110096338Y-99240681D01*
X109889488Y-99155001D01*
X110096338Y-99069321D01*
X110489321Y-98676338D01*
X110702001Y-98162882D01*
X110702001Y-97607120D01*
X110489321Y-97093664D01*
X110096338Y-96700681D01*
X109889488Y-96615001D01*
X110096338Y-96529321D01*
X110489321Y-96136338D01*
X110702001Y-95622882D01*
X110702001Y-95067120D01*
X110489321Y-94553664D01*
X110096338Y-94160681D01*
X109889488Y-94075001D01*
X110096338Y-93989321D01*
X110489321Y-93596338D01*
X110702001Y-93082882D01*
X110702001Y-92527120D01*
X110489321Y-92013664D01*
X110096338Y-91620681D01*
X109889488Y-91535001D01*
X110096338Y-91449321D01*
X110489321Y-91056338D01*
X110702001Y-90542882D01*
X110702001Y-89987120D01*
X110489321Y-89473664D01*
X110096338Y-89080681D01*
X109889488Y-88995001D01*
X110096338Y-88909321D01*
X110489321Y-88516338D01*
X110702001Y-88002882D01*
X110702001Y-87447120D01*
X110489321Y-86933664D01*
X110096338Y-86540681D01*
X109889488Y-86455001D01*
X110096338Y-86369321D01*
X110489321Y-85976338D01*
X110702001Y-85462882D01*
X110702001Y-84907120D01*
X110489321Y-84393664D01*
X110096338Y-84000681D01*
X109966740Y-83947000D01*
X136583262Y-83947000D01*
X136453664Y-84000681D01*
X136060681Y-84393664D01*
X135848001Y-84907120D01*
X135848001Y-85462882D01*
X136060681Y-85976338D01*
X136453664Y-86369321D01*
X136660514Y-86455001D01*
X136453664Y-86540681D01*
X136060681Y-86933664D01*
X135848001Y-87447120D01*
X135848001Y-88002882D01*
X136060681Y-88516338D01*
X136453664Y-88909321D01*
X136660514Y-88995001D01*
X136453664Y-89080681D01*
X136060681Y-89473664D01*
X135848001Y-89987120D01*
X135848001Y-90542882D01*
X136060681Y-91056338D01*
X136453664Y-91449321D01*
X136660514Y-91535001D01*
X136453664Y-91620681D01*
X136060681Y-92013664D01*
X135848001Y-92527120D01*
X135848001Y-93082882D01*
X136060681Y-93596338D01*
X136453664Y-93989321D01*
X136660514Y-94075001D01*
X136453664Y-94160681D01*
X136060681Y-94553664D01*
X135848001Y-95067120D01*
X135848001Y-95622882D01*
X136060681Y-96136338D01*
X136453664Y-96529321D01*
X136660514Y-96615001D01*
X136453664Y-96700681D01*
X136060681Y-97093664D01*
X135848001Y-97607120D01*
X135848001Y-98162882D01*
X136060681Y-98676338D01*
X136453664Y-99069321D01*
X136660514Y-99155001D01*
X136453664Y-99240681D01*
X136060681Y-99633664D01*
X135848001Y-100147120D01*
X135848001Y-100702882D01*
X136060681Y-101216338D01*
X136453664Y-101609321D01*
X136660514Y-101695001D01*
X136453664Y-101780681D01*
X136060681Y-102173664D01*
X135848001Y-102687120D01*
X135848001Y-103242882D01*
X136060681Y-103756338D01*
X136453664Y-104149321D01*
X136660514Y-104235001D01*
X136453664Y-104320681D01*
X136060681Y-104713664D01*
X135848001Y-105227120D01*
X135848001Y-105782882D01*
X136060681Y-106296338D01*
X136453664Y-106689321D01*
X136660514Y-106775001D01*
X136453664Y-106860681D01*
X136060681Y-107253664D01*
X135848001Y-107767120D01*
X135848001Y-108322882D01*
X136060681Y-108836338D01*
X136453664Y-109229321D01*
X136660514Y-109315001D01*
X136453664Y-109400681D01*
X136060681Y-109793664D01*
X135848001Y-110307120D01*
X135848001Y-110862882D01*
X136060681Y-111376338D01*
X136453664Y-111769321D01*
X136660514Y-111855001D01*
X136453664Y-111940681D01*
X136060681Y-112333664D01*
X135848001Y-112847120D01*
X135848001Y-113402882D01*
X136060681Y-113916338D01*
X136453664Y-114309321D01*
X136660514Y-114395001D01*
X136453664Y-114480681D01*
X136060681Y-114873664D01*
X135848001Y-115387120D01*
X135848001Y-115942882D01*
X136060681Y-116456338D01*
X136453664Y-116849321D01*
X136660514Y-116935001D01*
X136453664Y-117020681D01*
X136060681Y-117413664D01*
X135848001Y-117927120D01*
X135848001Y-118482882D01*
X136060681Y-118996338D01*
X136453664Y-119389321D01*
X136660514Y-119475001D01*
X136453664Y-119560681D01*
X136060681Y-119953664D01*
X135848001Y-120467120D01*
X135848001Y-121022882D01*
X136060681Y-121536338D01*
X136453664Y-121929321D01*
X136967120Y-122142001D01*
X137522882Y-122142001D01*
X138036338Y-121929321D01*
X138429321Y-121536338D01*
X138642001Y-121022882D01*
X138642001Y-120578778D01*
X151400000Y-120578778D01*
X151400000Y-121229222D01*
X151648914Y-121830153D01*
X152108847Y-122290086D01*
X152709778Y-122539000D01*
X153360222Y-122539000D01*
X153961153Y-122290086D01*
X154421086Y-121830153D01*
X154670000Y-121229222D01*
X154670000Y-120578778D01*
X154421086Y-119977847D01*
X154078235Y-119634996D01*
X168345000Y-119634996D01*
X168345000Y-120365004D01*
X168624362Y-121039444D01*
X169140556Y-121555638D01*
X169597105Y-121744747D01*
X169185565Y-121915212D01*
X169062430Y-122202825D01*
X170180000Y-123320395D01*
X171297570Y-122202825D01*
X171174435Y-121915212D01*
X170745716Y-121751862D01*
X171219444Y-121555638D01*
X171735638Y-121039444D01*
X172015000Y-120365004D01*
X172015000Y-119634996D01*
X171735638Y-118960556D01*
X171219444Y-118444362D01*
X170762895Y-118255253D01*
X171174435Y-118084788D01*
X171297570Y-117797175D01*
X170180000Y-116679605D01*
X169062430Y-117797175D01*
X169185565Y-118084788D01*
X169614284Y-118248138D01*
X169140556Y-118444362D01*
X168624362Y-118960556D01*
X168345000Y-119634996D01*
X154078235Y-119634996D01*
X153961153Y-119517914D01*
X153360222Y-119269000D01*
X152709778Y-119269000D01*
X152108847Y-119517914D01*
X151648914Y-119977847D01*
X151400000Y-120578778D01*
X138642001Y-120578778D01*
X138642001Y-120467120D01*
X138429321Y-119953664D01*
X138036338Y-119560681D01*
X137829488Y-119475001D01*
X138036338Y-119389321D01*
X138429321Y-118996338D01*
X138642001Y-118482882D01*
X138642001Y-117927120D01*
X138429321Y-117413664D01*
X138036338Y-117020681D01*
X137829488Y-116935001D01*
X138036338Y-116849321D01*
X138429321Y-116456338D01*
X138540580Y-116187734D01*
X168335293Y-116187734D01*
X168356214Y-116917443D01*
X168595212Y-117494435D01*
X168882825Y-117617570D01*
X170000395Y-116500000D01*
X170359605Y-116500000D01*
X171477175Y-117617570D01*
X171764788Y-117494435D01*
X172024707Y-116812266D01*
X172003786Y-116082557D01*
X171764788Y-115505565D01*
X171477175Y-115382430D01*
X170359605Y-116500000D01*
X170000395Y-116500000D01*
X168882825Y-115382430D01*
X168595212Y-115505565D01*
X168335293Y-116187734D01*
X138540580Y-116187734D01*
X138642001Y-115942882D01*
X138642001Y-115387120D01*
X138429321Y-114873664D01*
X138036338Y-114480681D01*
X137829488Y-114395001D01*
X138036338Y-114309321D01*
X138429321Y-113916338D01*
X138642001Y-113402882D01*
X138642001Y-112847120D01*
X138583042Y-112704778D01*
X151400000Y-112704778D01*
X151400000Y-113355222D01*
X151648914Y-113956153D01*
X152108847Y-114416086D01*
X152709778Y-114665000D01*
X153360222Y-114665000D01*
X153961153Y-114416086D01*
X154421086Y-113956153D01*
X154670000Y-113355222D01*
X154670000Y-112704778D01*
X154641096Y-112634996D01*
X168345000Y-112634996D01*
X168345000Y-113365004D01*
X168624362Y-114039444D01*
X169140556Y-114555638D01*
X169597105Y-114744747D01*
X169185565Y-114915212D01*
X169062430Y-115202825D01*
X170180000Y-116320395D01*
X171297570Y-115202825D01*
X171174435Y-114915212D01*
X170745716Y-114751862D01*
X171219444Y-114555638D01*
X171735638Y-114039444D01*
X172015000Y-113365004D01*
X172015000Y-112634996D01*
X171735638Y-111960556D01*
X171219444Y-111444362D01*
X170762895Y-111255253D01*
X171174435Y-111084788D01*
X171297570Y-110797175D01*
X170180000Y-109679605D01*
X169062430Y-110797175D01*
X169185565Y-111084788D01*
X169614284Y-111248138D01*
X169140556Y-111444362D01*
X168624362Y-111960556D01*
X168345000Y-112634996D01*
X154641096Y-112634996D01*
X154421086Y-112103847D01*
X153961153Y-111643914D01*
X153360222Y-111395000D01*
X152709778Y-111395000D01*
X152108847Y-111643914D01*
X151648914Y-112103847D01*
X151400000Y-112704778D01*
X138583042Y-112704778D01*
X138429321Y-112333664D01*
X138036338Y-111940681D01*
X137829488Y-111855001D01*
X138036338Y-111769321D01*
X138429321Y-111376338D01*
X138642001Y-110862882D01*
X138642001Y-110307120D01*
X138429321Y-109793664D01*
X138036338Y-109400681D01*
X137829488Y-109315001D01*
X138036338Y-109229321D01*
X138077925Y-109187734D01*
X168335293Y-109187734D01*
X168356214Y-109917443D01*
X168595212Y-110494435D01*
X168882825Y-110617570D01*
X170000395Y-109500000D01*
X170359605Y-109500000D01*
X171477175Y-110617570D01*
X171764788Y-110494435D01*
X172024707Y-109812266D01*
X172003786Y-109082557D01*
X171764788Y-108505565D01*
X171477175Y-108382430D01*
X170359605Y-109500000D01*
X170000395Y-109500000D01*
X168882825Y-108382430D01*
X168595212Y-108505565D01*
X168335293Y-109187734D01*
X138077925Y-109187734D01*
X138429321Y-108836338D01*
X138642001Y-108322882D01*
X138642001Y-107767120D01*
X138429321Y-107253664D01*
X138036338Y-106860681D01*
X137829488Y-106775001D01*
X138036338Y-106689321D01*
X138429321Y-106296338D01*
X138642001Y-105782882D01*
X138642001Y-105719778D01*
X151400000Y-105719778D01*
X151400000Y-106370222D01*
X151648914Y-106971153D01*
X152108847Y-107431086D01*
X152709778Y-107680000D01*
X153360222Y-107680000D01*
X153961153Y-107431086D01*
X154421086Y-106971153D01*
X154670000Y-106370222D01*
X154670000Y-105719778D01*
X154634883Y-105634996D01*
X168345000Y-105634996D01*
X168345000Y-106365004D01*
X168624362Y-107039444D01*
X169140556Y-107555638D01*
X169597105Y-107744747D01*
X169185565Y-107915212D01*
X169062430Y-108202825D01*
X170180000Y-109320395D01*
X171297570Y-108202825D01*
X171174435Y-107915212D01*
X170745716Y-107751862D01*
X171219444Y-107555638D01*
X171735638Y-107039444D01*
X172015000Y-106365004D01*
X172015000Y-105634996D01*
X171735638Y-104960556D01*
X171219444Y-104444362D01*
X170762895Y-104255253D01*
X171174435Y-104084788D01*
X171297570Y-103797175D01*
X170180000Y-102679605D01*
X169062430Y-103797175D01*
X169185565Y-104084788D01*
X169614284Y-104248138D01*
X169140556Y-104444362D01*
X168624362Y-104960556D01*
X168345000Y-105634996D01*
X154634883Y-105634996D01*
X154421086Y-105118847D01*
X153961153Y-104658914D01*
X153360222Y-104410000D01*
X152709778Y-104410000D01*
X152108847Y-104658914D01*
X151648914Y-105118847D01*
X151400000Y-105719778D01*
X138642001Y-105719778D01*
X138642001Y-105227120D01*
X138429321Y-104713664D01*
X138036338Y-104320681D01*
X137829488Y-104235001D01*
X138036338Y-104149321D01*
X138429321Y-103756338D01*
X138642001Y-103242882D01*
X138642001Y-102687120D01*
X138435149Y-102187734D01*
X168335293Y-102187734D01*
X168356214Y-102917443D01*
X168595212Y-103494435D01*
X168882825Y-103617570D01*
X170000395Y-102500000D01*
X170359605Y-102500000D01*
X171477175Y-103617570D01*
X171764788Y-103494435D01*
X172024707Y-102812266D01*
X172003786Y-102082557D01*
X171764788Y-101505565D01*
X171477175Y-101382430D01*
X170359605Y-102500000D01*
X170000395Y-102500000D01*
X168882825Y-101382430D01*
X168595212Y-101505565D01*
X168335293Y-102187734D01*
X138435149Y-102187734D01*
X138429321Y-102173664D01*
X138036338Y-101780681D01*
X137829488Y-101695001D01*
X138036338Y-101609321D01*
X138429321Y-101216338D01*
X138642001Y-100702882D01*
X138642001Y-100147120D01*
X138429321Y-99633664D01*
X138036338Y-99240681D01*
X137829488Y-99155001D01*
X138036338Y-99069321D01*
X138429321Y-98676338D01*
X138642001Y-98162882D01*
X138642001Y-98099778D01*
X151273000Y-98099778D01*
X151273000Y-98750222D01*
X151521914Y-99351153D01*
X151981847Y-99811086D01*
X152582778Y-100060000D01*
X153233222Y-100060000D01*
X153834153Y-99811086D01*
X154294086Y-99351153D01*
X154543000Y-98750222D01*
X154543000Y-98634996D01*
X168345000Y-98634996D01*
X168345000Y-99365004D01*
X168624362Y-100039444D01*
X169140556Y-100555638D01*
X169597105Y-100744747D01*
X169185565Y-100915212D01*
X169062430Y-101202825D01*
X170180000Y-102320395D01*
X171297570Y-101202825D01*
X171174435Y-100915212D01*
X170745716Y-100751862D01*
X171219444Y-100555638D01*
X171735638Y-100039444D01*
X172015000Y-99365004D01*
X172015000Y-98634996D01*
X171735638Y-97960556D01*
X171219444Y-97444362D01*
X170762895Y-97255253D01*
X171174435Y-97084788D01*
X171297570Y-96797175D01*
X170180000Y-95679605D01*
X169062430Y-96797175D01*
X169185565Y-97084788D01*
X169614284Y-97248138D01*
X169140556Y-97444362D01*
X168624362Y-97960556D01*
X168345000Y-98634996D01*
X154543000Y-98634996D01*
X154543000Y-98099778D01*
X154294086Y-97498847D01*
X153834153Y-97038914D01*
X153233222Y-96790000D01*
X152582778Y-96790000D01*
X151981847Y-97038914D01*
X151521914Y-97498847D01*
X151273000Y-98099778D01*
X138642001Y-98099778D01*
X138642001Y-97607120D01*
X138429321Y-97093664D01*
X138036338Y-96700681D01*
X137829488Y-96615001D01*
X138036338Y-96529321D01*
X138429321Y-96136338D01*
X138642001Y-95622882D01*
X138642001Y-95187734D01*
X168335293Y-95187734D01*
X168356214Y-95917443D01*
X168595212Y-96494435D01*
X168882825Y-96617570D01*
X170000395Y-95500000D01*
X170359605Y-95500000D01*
X171477175Y-96617570D01*
X171764788Y-96494435D01*
X172024707Y-95812266D01*
X172003786Y-95082557D01*
X171764788Y-94505565D01*
X171477175Y-94382430D01*
X170359605Y-95500000D01*
X170000395Y-95500000D01*
X168882825Y-94382430D01*
X168595212Y-94505565D01*
X168335293Y-95187734D01*
X138642001Y-95187734D01*
X138642001Y-95067120D01*
X138429321Y-94553664D01*
X138036338Y-94160681D01*
X137829488Y-94075001D01*
X138036338Y-93989321D01*
X138429321Y-93596338D01*
X138642001Y-93082882D01*
X138642001Y-92527120D01*
X138429321Y-92013664D01*
X138036338Y-91620681D01*
X137829488Y-91535001D01*
X138036338Y-91449321D01*
X138370881Y-91114778D01*
X151273000Y-91114778D01*
X151273000Y-91765222D01*
X151521914Y-92366153D01*
X151981847Y-92826086D01*
X152582778Y-93075000D01*
X153233222Y-93075000D01*
X153834153Y-92826086D01*
X154294086Y-92366153D01*
X154543000Y-91765222D01*
X154543000Y-91634996D01*
X168345000Y-91634996D01*
X168345000Y-92365004D01*
X168624362Y-93039444D01*
X169140556Y-93555638D01*
X169597105Y-93744747D01*
X169185565Y-93915212D01*
X169062430Y-94202825D01*
X170180000Y-95320395D01*
X171297570Y-94202825D01*
X171174435Y-93915212D01*
X170745716Y-93751862D01*
X171219444Y-93555638D01*
X171735638Y-93039444D01*
X172015000Y-92365004D01*
X172015000Y-91634996D01*
X171735638Y-90960556D01*
X171219444Y-90444362D01*
X170762895Y-90255253D01*
X171174435Y-90084788D01*
X171297570Y-89797175D01*
X170180000Y-88679605D01*
X169062430Y-89797175D01*
X169185565Y-90084788D01*
X169614284Y-90248138D01*
X169140556Y-90444362D01*
X168624362Y-90960556D01*
X168345000Y-91634996D01*
X154543000Y-91634996D01*
X154543000Y-91114778D01*
X154294086Y-90513847D01*
X153834153Y-90053914D01*
X153233222Y-89805000D01*
X152582778Y-89805000D01*
X151981847Y-90053914D01*
X151521914Y-90513847D01*
X151273000Y-91114778D01*
X138370881Y-91114778D01*
X138429321Y-91056338D01*
X138642001Y-90542882D01*
X138642001Y-89987120D01*
X138429321Y-89473664D01*
X138036338Y-89080681D01*
X137829488Y-88995001D01*
X138036338Y-88909321D01*
X138429321Y-88516338D01*
X138565432Y-88187734D01*
X168335293Y-88187734D01*
X168356214Y-88917443D01*
X168595212Y-89494435D01*
X168882825Y-89617570D01*
X170000395Y-88500000D01*
X170359605Y-88500000D01*
X171477175Y-89617570D01*
X171764788Y-89494435D01*
X172024707Y-88812266D01*
X172003786Y-88082557D01*
X171764788Y-87505565D01*
X171477175Y-87382430D01*
X170359605Y-88500000D01*
X170000395Y-88500000D01*
X168882825Y-87382430D01*
X168595212Y-87505565D01*
X168335293Y-88187734D01*
X138565432Y-88187734D01*
X138642001Y-88002882D01*
X138642001Y-87447120D01*
X138429321Y-86933664D01*
X138036338Y-86540681D01*
X137829488Y-86455001D01*
X138036338Y-86369321D01*
X138429321Y-85976338D01*
X138642001Y-85462882D01*
X138642001Y-84907120D01*
X138429321Y-84393664D01*
X138038435Y-84002778D01*
X151273000Y-84002778D01*
X151273000Y-84653222D01*
X151521914Y-85254153D01*
X151981847Y-85714086D01*
X152582778Y-85963000D01*
X153233222Y-85963000D01*
X153834153Y-85714086D01*
X154294086Y-85254153D01*
X154543000Y-84653222D01*
X154543000Y-84634996D01*
X168345000Y-84634996D01*
X168345000Y-85365004D01*
X168624362Y-86039444D01*
X169140556Y-86555638D01*
X169597105Y-86744747D01*
X169185565Y-86915212D01*
X169062430Y-87202825D01*
X170180000Y-88320395D01*
X171297570Y-87202825D01*
X171174435Y-86915212D01*
X170745716Y-86751862D01*
X171219444Y-86555638D01*
X171735638Y-86039444D01*
X172015000Y-85365004D01*
X172015000Y-84634996D01*
X171735638Y-83960556D01*
X171219444Y-83444362D01*
X170762895Y-83255253D01*
X171174435Y-83084788D01*
X171297570Y-82797175D01*
X170180000Y-81679605D01*
X169062430Y-82797175D01*
X169185565Y-83084788D01*
X169614284Y-83248138D01*
X169140556Y-83444362D01*
X168624362Y-83960556D01*
X168345000Y-84634996D01*
X154543000Y-84634996D01*
X154543000Y-84002778D01*
X154294086Y-83401847D01*
X153834153Y-82941914D01*
X153233222Y-82693000D01*
X152582778Y-82693000D01*
X151981847Y-82941914D01*
X151521914Y-83401847D01*
X151273000Y-84002778D01*
X138038435Y-84002778D01*
X138036338Y-84000681D01*
X137522882Y-83788001D01*
X137287000Y-83788001D01*
X137287000Y-81187734D01*
X168335293Y-81187734D01*
X168356214Y-81917443D01*
X168595212Y-82494435D01*
X168882825Y-82617570D01*
X170000395Y-81500000D01*
X170359605Y-81500000D01*
X171477175Y-82617570D01*
X171764788Y-82494435D01*
X172024707Y-81812266D01*
X172003786Y-81082557D01*
X171764788Y-80505565D01*
X171477175Y-80382430D01*
X170359605Y-81500000D01*
X170000395Y-81500000D01*
X168882825Y-80382430D01*
X168595212Y-80505565D01*
X168335293Y-81187734D01*
X137287000Y-81187734D01*
X137287000Y-80753283D01*
X137927594Y-80487940D01*
X138212709Y-80202825D01*
X169062430Y-80202825D01*
X170180000Y-81320395D01*
X171297570Y-80202825D01*
X171174435Y-79915212D01*
X170492266Y-79655293D01*
X169762557Y-79676214D01*
X169185565Y-79915212D01*
X169062430Y-80202825D01*
X138212709Y-80202825D01*
X138907940Y-79507594D01*
X139438500Y-78226710D01*
X139438500Y-76840290D01*
X138907940Y-75559406D01*
X137927594Y-74579060D01*
X137287000Y-74313717D01*
X137287000Y-72966790D01*
X169235000Y-72966790D01*
X169235000Y-74353210D01*
X169765560Y-75634094D01*
X170745906Y-76614440D01*
X172026790Y-77145000D01*
X173413210Y-77145000D01*
X174694094Y-76614440D01*
X175674440Y-75634094D01*
X176205000Y-74353210D01*
X176205000Y-72966790D01*
X175674440Y-71685906D01*
X174694094Y-70705560D01*
X173413210Y-70175000D01*
X172026790Y-70175000D01*
X170745906Y-70705560D01*
X169765560Y-71685906D01*
X169235000Y-72966790D01*
X137287000Y-72966790D01*
X137287000Y-69290000D01*
X177090001Y-69290000D01*
X177090000Y-138990000D01*
X81990000Y-138990000D01*
X81990000Y-133926790D01*
X82875000Y-133926790D01*
X82875000Y-135313210D01*
X83405560Y-136594094D01*
X84385906Y-137574440D01*
X85666790Y-138105000D01*
X87053210Y-138105000D01*
X88334094Y-137574440D01*
X89314440Y-136594094D01*
X89845000Y-135313210D01*
X89845000Y-133926790D01*
X89844871Y-133926478D01*
X90150440Y-133926478D01*
X90150440Y-134576922D01*
X90399354Y-135177853D01*
X90859287Y-135637786D01*
X91460218Y-135886700D01*
X92110662Y-135886700D01*
X92711593Y-135637786D01*
X93171526Y-135177853D01*
X93420440Y-134576922D01*
X93420440Y-133926790D01*
X169235000Y-133926790D01*
X169235000Y-135313210D01*
X169765560Y-136594094D01*
X170745906Y-137574440D01*
X172026790Y-138105000D01*
X173413210Y-138105000D01*
X174694094Y-137574440D01*
X175674440Y-136594094D01*
X176205000Y-135313210D01*
X176205000Y-133926790D01*
X175674440Y-132645906D01*
X174694094Y-131665560D01*
X173413210Y-131135000D01*
X172026790Y-131135000D01*
X170745906Y-131665560D01*
X169765560Y-132645906D01*
X169235000Y-133926790D01*
X93420440Y-133926790D01*
X93420440Y-133926478D01*
X93171526Y-133325547D01*
X92711593Y-132865614D01*
X92110662Y-132616700D01*
X91460218Y-132616700D01*
X90859287Y-132865614D01*
X90399354Y-133325547D01*
X90150440Y-133926478D01*
X89844871Y-133926478D01*
X89314440Y-132645906D01*
X88334094Y-131665560D01*
X87053210Y-131135000D01*
X85666790Y-131135000D01*
X84385906Y-131665560D01*
X83405560Y-132645906D01*
X82875000Y-133926790D01*
X81990000Y-133926790D01*
X81990000Y-128973790D01*
X107132000Y-128973790D01*
X107132000Y-130360210D01*
X107662560Y-131641094D01*
X108642906Y-132621440D01*
X109923790Y-133152000D01*
X111310210Y-133152000D01*
X112591094Y-132621440D01*
X113571440Y-131641094D01*
X114102000Y-130360210D01*
X114102000Y-128973790D01*
X114075698Y-128910290D01*
X132468500Y-128910290D01*
X132468500Y-130296710D01*
X132999060Y-131577594D01*
X133979406Y-132557940D01*
X135260290Y-133088500D01*
X136646710Y-133088500D01*
X137927594Y-132557940D01*
X138907940Y-131577594D01*
X139438500Y-130296710D01*
X139438500Y-128910290D01*
X139038572Y-127944778D01*
X151400000Y-127944778D01*
X151400000Y-128595222D01*
X151648914Y-129196153D01*
X152108847Y-129656086D01*
X152709778Y-129905000D01*
X153360222Y-129905000D01*
X153961153Y-129656086D01*
X154421086Y-129196153D01*
X154670000Y-128595222D01*
X154670000Y-127944778D01*
X154421086Y-127343847D01*
X153961153Y-126883914D01*
X153360222Y-126635000D01*
X152709778Y-126635000D01*
X152108847Y-126883914D01*
X151648914Y-127343847D01*
X151400000Y-127944778D01*
X139038572Y-127944778D01*
X138907940Y-127629406D01*
X137927594Y-126649060D01*
X136646710Y-126118500D01*
X135260290Y-126118500D01*
X133979406Y-126649060D01*
X132999060Y-127629406D01*
X132468500Y-128910290D01*
X114075698Y-128910290D01*
X113571440Y-127692906D01*
X112591094Y-126712560D01*
X111310210Y-126182000D01*
X109923790Y-126182000D01*
X108642906Y-126712560D01*
X107662560Y-127692906D01*
X107132000Y-128973790D01*
X81990000Y-128973790D01*
X81990000Y-124292240D01*
X86473000Y-124292240D01*
X86473000Y-125257760D01*
X86842489Y-126149785D01*
X87525215Y-126832511D01*
X88417240Y-127202000D01*
X89382760Y-127202000D01*
X90107024Y-126902000D01*
X92439516Y-126902000D01*
X92649000Y-126943669D01*
X92858484Y-126902000D01*
X92858489Y-126902000D01*
X93478914Y-126778590D01*
X94182481Y-126308481D01*
X94301147Y-126130885D01*
X98226282Y-122205750D01*
X101235000Y-122205750D01*
X101235000Y-123046309D01*
X101331673Y-123279698D01*
X101510301Y-123458327D01*
X101545043Y-123472718D01*
X101483914Y-123533847D01*
X101235000Y-124134778D01*
X101235000Y-124785222D01*
X101483914Y-125386153D01*
X101827761Y-125730000D01*
X101483914Y-126073847D01*
X101235000Y-126674778D01*
X101235000Y-127325222D01*
X101483914Y-127926153D01*
X101943847Y-128386086D01*
X102544778Y-128635000D01*
X103195222Y-128635000D01*
X103796153Y-128386086D01*
X104256086Y-127926153D01*
X104505000Y-127325222D01*
X104505000Y-126674778D01*
X104256086Y-126073847D01*
X103982239Y-125800000D01*
X168332560Y-125800000D01*
X168332560Y-128200000D01*
X168381843Y-128447765D01*
X168522191Y-128657809D01*
X168732235Y-128798157D01*
X168980000Y-128847440D01*
X171380000Y-128847440D01*
X171627765Y-128798157D01*
X171837809Y-128657809D01*
X171978157Y-128447765D01*
X172027440Y-128200000D01*
X172027440Y-125800000D01*
X171978157Y-125552235D01*
X171837809Y-125342191D01*
X171627765Y-125201843D01*
X171380000Y-125152560D01*
X171010819Y-125152560D01*
X171174435Y-125084788D01*
X171297570Y-124797175D01*
X170180000Y-123679605D01*
X169062430Y-124797175D01*
X169185565Y-125084788D01*
X169363436Y-125152560D01*
X168980000Y-125152560D01*
X168732235Y-125201843D01*
X168522191Y-125342191D01*
X168381843Y-125552235D01*
X168332560Y-125800000D01*
X103982239Y-125800000D01*
X103912239Y-125730000D01*
X104256086Y-125386153D01*
X104505000Y-124785222D01*
X104505000Y-124134778D01*
X104256086Y-123533847D01*
X104194957Y-123472718D01*
X104229699Y-123458327D01*
X104408327Y-123279698D01*
X104446419Y-123187734D01*
X168335293Y-123187734D01*
X168356214Y-123917443D01*
X168595212Y-124494435D01*
X168882825Y-124617570D01*
X170000395Y-123500000D01*
X170359605Y-123500000D01*
X171477175Y-124617570D01*
X171764788Y-124494435D01*
X172024707Y-123812266D01*
X172003786Y-123082557D01*
X171764788Y-122505565D01*
X171477175Y-122382430D01*
X170359605Y-123500000D01*
X170000395Y-123500000D01*
X168882825Y-122382430D01*
X168595212Y-122505565D01*
X168335293Y-123187734D01*
X104446419Y-123187734D01*
X104505000Y-123046309D01*
X104505000Y-122205750D01*
X104346250Y-122047000D01*
X102997000Y-122047000D01*
X102997000Y-122067000D01*
X102743000Y-122067000D01*
X102743000Y-122047000D01*
X101393750Y-122047000D01*
X101235000Y-122205750D01*
X98226282Y-122205750D01*
X99638341Y-120793691D01*
X101235000Y-120793691D01*
X101235000Y-121634250D01*
X101393750Y-121793000D01*
X102743000Y-121793000D01*
X102743000Y-120443750D01*
X102997000Y-120443750D01*
X102997000Y-121793000D01*
X104346250Y-121793000D01*
X104505000Y-121634250D01*
X104505000Y-120793691D01*
X104408327Y-120560302D01*
X104229699Y-120381673D01*
X103996310Y-120285000D01*
X103155750Y-120285000D01*
X102997000Y-120443750D01*
X102743000Y-120443750D01*
X102584250Y-120285000D01*
X101743690Y-120285000D01*
X101510301Y-120381673D01*
X101331673Y-120560302D01*
X101235000Y-120793691D01*
X99638341Y-120793691D01*
X106511888Y-113920145D01*
X106689481Y-113801481D01*
X106808145Y-113623888D01*
X106808147Y-113623886D01*
X107159589Y-113097915D01*
X107159590Y-113097914D01*
X107283000Y-112477489D01*
X107283000Y-112477485D01*
X107324669Y-112268001D01*
X107283000Y-112058516D01*
X107283000Y-91649486D01*
X107324669Y-91440000D01*
X107283000Y-91230514D01*
X107283000Y-91230511D01*
X107159590Y-90610086D01*
X106689481Y-89906519D01*
X106511885Y-89787853D01*
X105904079Y-89180047D01*
X105904079Y-87015000D01*
X105816611Y-86575267D01*
X105567522Y-86202478D01*
X105194733Y-85953389D01*
X104755000Y-85865921D01*
X102255000Y-85865921D01*
X101815267Y-85953389D01*
X101442478Y-86202478D01*
X101193389Y-86575267D01*
X101105921Y-87015000D01*
X101105921Y-89515000D01*
X101193389Y-89954733D01*
X101442478Y-90327522D01*
X101443598Y-90328270D01*
X101501410Y-90618913D01*
X101971519Y-91322481D01*
X102149115Y-91441147D01*
X103029001Y-92321033D01*
X103029001Y-93161541D01*
X102507717Y-92668814D01*
X101924645Y-92427305D01*
X101632000Y-92543428D01*
X101632000Y-94138000D01*
X101652000Y-94138000D01*
X101652000Y-94392000D01*
X101632000Y-94392000D01*
X101632000Y-95986572D01*
X101924645Y-96102695D01*
X102507717Y-95861186D01*
X103029001Y-95368459D01*
X103029000Y-111386967D01*
X91767968Y-122648000D01*
X90107024Y-122648000D01*
X89382760Y-122348000D01*
X88417240Y-122348000D01*
X87525215Y-122717489D01*
X86842489Y-123400215D01*
X86473000Y-124292240D01*
X81990000Y-124292240D01*
X81990000Y-87242000D01*
X82159331Y-87242000D01*
X82201000Y-87451484D01*
X82201001Y-118662511D01*
X82159331Y-118872000D01*
X82324411Y-119701914D01*
X82675853Y-120227885D01*
X82675856Y-120227888D01*
X82794520Y-120405481D01*
X82972114Y-120524145D01*
X83578851Y-121130883D01*
X83697519Y-121308481D01*
X84038531Y-121536338D01*
X84401085Y-121778590D01*
X84473530Y-121793000D01*
X85021511Y-121902000D01*
X85021514Y-121902000D01*
X85231000Y-121943669D01*
X85440486Y-121902000D01*
X87692976Y-121902000D01*
X88417240Y-122202000D01*
X89382760Y-122202000D01*
X90274785Y-121832511D01*
X90957511Y-121149785D01*
X91327000Y-120257760D01*
X91327000Y-119292240D01*
X90957511Y-118400215D01*
X90274785Y-117717489D01*
X89382760Y-117348000D01*
X88417240Y-117348000D01*
X87692976Y-117648000D01*
X86455000Y-117648000D01*
X86455000Y-114292240D01*
X86473000Y-114292240D01*
X86473000Y-115257760D01*
X86842489Y-116149785D01*
X87525215Y-116832511D01*
X88417240Y-117202000D01*
X89382760Y-117202000D01*
X90107024Y-116902000D01*
X90755516Y-116902000D01*
X90965000Y-116943669D01*
X91174484Y-116902000D01*
X91174489Y-116902000D01*
X91794914Y-116778590D01*
X92498481Y-116308481D01*
X92617147Y-116130885D01*
X94827885Y-113920147D01*
X95005481Y-113801481D01*
X95475590Y-113097914D01*
X95599000Y-112477489D01*
X95599000Y-112477485D01*
X95640669Y-112268001D01*
X95599000Y-112058517D01*
X95599000Y-98641484D01*
X95640669Y-98432000D01*
X95599000Y-98222515D01*
X95599000Y-98222511D01*
X95475590Y-97602086D01*
X95005481Y-96898519D01*
X94827886Y-96779854D01*
X92732678Y-94684646D01*
X99667298Y-94684646D01*
X99967776Y-95355960D01*
X100502283Y-95861186D01*
X101085355Y-96102695D01*
X101378000Y-95986572D01*
X101378000Y-94392000D01*
X99783026Y-94392000D01*
X99667298Y-94684646D01*
X92732678Y-94684646D01*
X91893386Y-93845354D01*
X99667298Y-93845354D01*
X99783026Y-94138000D01*
X101378000Y-94138000D01*
X101378000Y-92543428D01*
X101085355Y-92427305D01*
X100502283Y-92668814D01*
X99967776Y-93174040D01*
X99667298Y-93845354D01*
X91893386Y-93845354D01*
X91583444Y-93535412D01*
X91544085Y-93337541D01*
X91018721Y-92551279D01*
X90232459Y-92025915D01*
X89539113Y-91888000D01*
X89070887Y-91888000D01*
X88377541Y-92025915D01*
X87591279Y-92551279D01*
X87065915Y-93337541D01*
X86881432Y-94265000D01*
X87065915Y-95192459D01*
X87591279Y-95978721D01*
X88377541Y-96504085D01*
X88575412Y-96543444D01*
X91345000Y-99313032D01*
X91345001Y-111386967D01*
X90090721Y-112641247D01*
X89382760Y-112348000D01*
X88417240Y-112348000D01*
X87525215Y-112717489D01*
X86842489Y-113400215D01*
X86473000Y-114292240D01*
X86455000Y-114292240D01*
X86455000Y-109390105D01*
X86965000Y-109390105D01*
X86965000Y-110159895D01*
X87259586Y-110871090D01*
X87803910Y-111415414D01*
X88515105Y-111710000D01*
X89284895Y-111710000D01*
X89996090Y-111415414D01*
X90540414Y-110871090D01*
X90835000Y-110159895D01*
X90835000Y-109390105D01*
X90540414Y-108678910D01*
X89996090Y-108134586D01*
X89284895Y-107840000D01*
X88515105Y-107840000D01*
X87803910Y-108134586D01*
X87259586Y-108678910D01*
X86965000Y-109390105D01*
X86455000Y-109390105D01*
X86455000Y-105060750D01*
X86965000Y-105060750D01*
X86965000Y-106201309D01*
X87061673Y-106434698D01*
X87240301Y-106613327D01*
X87473690Y-106710000D01*
X88614250Y-106710000D01*
X88773000Y-106551250D01*
X88773000Y-104902000D01*
X89027000Y-104902000D01*
X89027000Y-106551250D01*
X89185750Y-106710000D01*
X90326310Y-106710000D01*
X90559699Y-106613327D01*
X90738327Y-106434698D01*
X90835000Y-106201309D01*
X90835000Y-105060750D01*
X90676250Y-104902000D01*
X89027000Y-104902000D01*
X88773000Y-104902000D01*
X87123750Y-104902000D01*
X86965000Y-105060750D01*
X86455000Y-105060750D01*
X86455000Y-103348691D01*
X86965000Y-103348691D01*
X86965000Y-104489250D01*
X87123750Y-104648000D01*
X88773000Y-104648000D01*
X88773000Y-102998750D01*
X89027000Y-102998750D01*
X89027000Y-104648000D01*
X90676250Y-104648000D01*
X90835000Y-104489250D01*
X90835000Y-103348691D01*
X90738327Y-103115302D01*
X90559699Y-102936673D01*
X90326310Y-102840000D01*
X89185750Y-102840000D01*
X89027000Y-102998750D01*
X88773000Y-102998750D01*
X88614250Y-102840000D01*
X87473690Y-102840000D01*
X87240301Y-102936673D01*
X87061673Y-103115302D01*
X86965000Y-103348691D01*
X86455000Y-103348691D01*
X86455000Y-88123032D01*
X90034588Y-84543444D01*
X90232459Y-84504085D01*
X91018721Y-83978721D01*
X91544085Y-83192459D01*
X91728568Y-82265000D01*
X99583071Y-82265000D01*
X99729369Y-83000490D01*
X100145991Y-83624009D01*
X100769510Y-84040631D01*
X101319345Y-84150000D01*
X101690655Y-84150000D01*
X102240490Y-84040631D01*
X102864009Y-83624009D01*
X103280631Y-83000490D01*
X103426929Y-82265000D01*
X103280631Y-81529510D01*
X102864009Y-80905991D01*
X102240490Y-80489369D01*
X101690655Y-80380000D01*
X101319345Y-80380000D01*
X100769510Y-80489369D01*
X100145991Y-80905991D01*
X99729369Y-81529510D01*
X99583071Y-82265000D01*
X91728568Y-82265000D01*
X91544085Y-81337541D01*
X91018721Y-80551279D01*
X90232459Y-80025915D01*
X89539113Y-79888000D01*
X89070887Y-79888000D01*
X88377541Y-80025915D01*
X87591279Y-80551279D01*
X87065915Y-81337541D01*
X87026556Y-81535412D01*
X82972115Y-85589853D01*
X82794519Y-85708519D01*
X82324410Y-86412087D01*
X82201000Y-87032512D01*
X82201000Y-87032516D01*
X82159331Y-87242000D01*
X81990000Y-87242000D01*
X81990000Y-72966790D01*
X82875000Y-72966790D01*
X82875000Y-74353210D01*
X83405560Y-75634094D01*
X84385906Y-76614440D01*
X85666790Y-77145000D01*
X87053210Y-77145000D01*
X88334094Y-76614440D01*
X89314440Y-75634094D01*
X89845000Y-74353210D01*
X89845000Y-72966790D01*
X89314440Y-71685906D01*
X88334094Y-70705560D01*
X87053210Y-70175000D01*
X85666790Y-70175000D01*
X84385906Y-70705560D01*
X83405560Y-71685906D01*
X82875000Y-72966790D01*
X81990000Y-72966790D01*
X81990000Y-69290000D01*
X109093000Y-69290000D01*
X109093000Y-74456125D01*
G04 #@! TD*
M02*
