M48
;DRILL file {KiCad 5.0.2-bee76a0~70~ubuntu16.04.1} date Son 03 Feb 2019 15:20:31 CET
;FORMAT={-:-/ absolute / inch / decimal}
FMAT,2
INCH,TZ
T1C0.0300
T2C0.0394
T3C0.0472
T4C0.0512
T5C0.1260
%
G90
G05
T1
X4.3033Y-3.3537
X4.3033Y-3.4537
X4.3033Y-3.5537
X4.3033Y-3.6537
X4.3033Y-3.7537
X4.3033Y-3.8537
X4.3033Y-3.9537
X4.3033Y-4.0537
X4.3033Y-4.1537
X4.3033Y-4.2537
X4.3033Y-4.3537
X4.3033Y-4.4537
X4.3033Y-4.5537
X4.3033Y-4.6537
X4.3033Y-4.7537
X5.4033Y-3.3537
X5.4033Y-3.4537
X5.4033Y-3.5537
X5.4033Y-3.6537
X5.4033Y-3.7537
X5.4033Y-3.8537
X5.4033Y-3.9537
X5.4033Y-4.0537
X5.4033Y-4.1537
X5.4033Y-4.2537
X5.4033Y-4.3537
X5.4033Y-4.4537
X5.4033Y-4.5537
X5.4033Y-4.6537
X5.4033Y-4.7537
T2
X6.02Y-3.32
X3.6136Y-5.2855
X6.02Y-3.6
X4.05Y-4.8
X4.05Y-4.9
X4.05Y-5.
X6.025Y-4.45
X6.02Y-3.875
X6.025Y-4.175
X6.025Y-5.05
X6.025Y-4.76
T3
X6.7Y-3.2087
X6.7Y-3.3465
X6.7Y-3.4843
X6.7Y-3.622
X6.7Y-3.7598
X6.7Y-3.8976
X6.7Y-4.0354
X6.7Y-4.1732
X6.7Y-4.311
X6.7Y-4.4488
X6.7Y-4.5866
X6.7Y-4.7244
X6.7Y-4.8622
X6.7Y-5.
T4
X3.5159Y-3.2388
X3.5159Y-3.7112
X3.9963Y-3.2388
X3.9963Y-3.7112
X4.075Y-3.475
X3.5Y-4.125
X3.5Y-4.3219
X3.5Y-4.5187
X3.5Y-4.7156
X3.5Y-4.9124
T5
X3.4Y-2.9
X6.8Y-2.9
X3.4Y-5.3
X4.355Y-5.105
X6.8Y-5.3
X4.355Y-3.055
X5.3525Y-5.1025
X5.3525Y-3.0525
T0
M30
