M48
;DRILL file {KiCad (5.0.2)-1} date 1/31/2019 5:24:30 PM
;FORMAT={-:-/ absolute / inch / decimal}
FMAT,2
INCH,TZ
T1C0.0295
T2C0.0300
T3C0.0394
T4C0.0472
T5C0.0512
T6C0.1260
%
G90
G05
T1
X3.9925Y-3.965
X4.0425Y-3.965
X4.0925Y-3.965
T2
X4.3033Y-3.3537
X4.3033Y-3.4537
X4.3033Y-3.5537
X4.3033Y-3.6537
X4.3033Y-3.7537
X4.3033Y-3.8537
X4.3033Y-3.9537
X4.3033Y-4.0537
X4.3033Y-4.1537
X4.3033Y-4.2537
X4.3033Y-4.3537
X4.3033Y-4.4537
X4.3033Y-4.5537
X4.3033Y-4.6537
X4.3033Y-4.7537
X5.4033Y-3.3537
X5.4033Y-3.4537
X5.4033Y-3.5537
X5.4033Y-3.6537
X5.4033Y-3.7537
X5.4033Y-3.8537
X5.4033Y-3.9537
X5.4033Y-4.0537
X5.4033Y-4.1537
X5.4033Y-4.2537
X5.4033Y-4.3537
X5.4033Y-4.4537
X5.4033Y-4.5537
X5.4033Y-4.6537
X5.4033Y-4.7537
T3
X4.05Y-4.8
X4.05Y-4.9
X4.05Y-5.
T4
X6.7Y-3.2087
X6.7Y-3.3465
X6.7Y-3.4843
X6.7Y-3.622
X6.7Y-3.7598
X6.7Y-3.8976
X6.7Y-4.0354
X6.7Y-4.1732
X6.7Y-4.311
X6.7Y-4.4488
X6.7Y-4.5866
X6.7Y-4.7244
X6.7Y-4.8622
X6.7Y-5.
T5
X3.5Y-4.125
X3.5Y-4.3219
X3.5Y-4.5187
X3.5Y-4.7156
X3.5Y-4.9124
X3.5159Y-3.2388
X3.5159Y-3.7112
X3.9963Y-3.2388
X3.9963Y-3.7112
X4.075Y-3.475
T6
X4.355Y-5.105
X5.3525Y-5.1025
X3.4Y-5.3
X5.3525Y-3.0525
X4.355Y-3.055
X6.8Y-5.3
X3.4Y-2.9
X6.8Y-2.9
T0
M30
