G04 #@! TF.GenerationSoftware,KiCad,Pcbnew,(5.0.2)-1*
G04 #@! TF.CreationDate,2019-01-31T12:48:04+01:00*
G04 #@! TF.ProjectId,valve_reporter,76616c76-655f-4726-9570-6f727465722e,rev?*
G04 #@! TF.SameCoordinates,Original*
G04 #@! TF.FileFunction,Soldermask,Top*
G04 #@! TF.FilePolarity,Negative*
%FSLAX46Y46*%
G04 Gerber Fmt 4.6, Leading zero omitted, Abs format (unit mm)*
G04 Created by KiCad (PCBNEW (5.0.2)-1) date 1/31/2019 12:48:04 PM*
%MOMM*%
%LPD*%
G01*
G04 APERTURE LIST*
%ADD10C,0.100000*%
G04 APERTURE END LIST*
D10*
G36*
X173566190Y-131830483D02*
X174094138Y-132049166D01*
X174569283Y-132366648D01*
X174973352Y-132770717D01*
X175290834Y-133245862D01*
X175509517Y-133773810D01*
X175621000Y-134334275D01*
X175621000Y-134905725D01*
X175509517Y-135466190D01*
X175290834Y-135994138D01*
X174973352Y-136469283D01*
X174569283Y-136873352D01*
X174094138Y-137190834D01*
X173566190Y-137409517D01*
X173005725Y-137521000D01*
X172434275Y-137521000D01*
X171873810Y-137409517D01*
X171345862Y-137190834D01*
X170870717Y-136873352D01*
X170466648Y-136469283D01*
X170149166Y-135994138D01*
X169930483Y-135466190D01*
X169819000Y-134905725D01*
X169819000Y-134334275D01*
X169930483Y-133773810D01*
X170149166Y-133245862D01*
X170466648Y-132770717D01*
X170870717Y-132366648D01*
X171345862Y-132049166D01*
X171873810Y-131830483D01*
X172434275Y-131719000D01*
X173005725Y-131719000D01*
X173566190Y-131830483D01*
X173566190Y-131830483D01*
G37*
G36*
X87206190Y-131830483D02*
X87734138Y-132049166D01*
X88209283Y-132366648D01*
X88613352Y-132770717D01*
X88930834Y-133245862D01*
X89149517Y-133773810D01*
X89261000Y-134334275D01*
X89261000Y-134905725D01*
X89149517Y-135466190D01*
X88930834Y-135994138D01*
X88613352Y-136469283D01*
X88209283Y-136873352D01*
X87734138Y-137190834D01*
X87206190Y-137409517D01*
X86645725Y-137521000D01*
X86074275Y-137521000D01*
X85513810Y-137409517D01*
X84985862Y-137190834D01*
X84510717Y-136873352D01*
X84106648Y-136469283D01*
X83789166Y-135994138D01*
X83570483Y-135466190D01*
X83459000Y-134905725D01*
X83459000Y-134334275D01*
X83570483Y-133773810D01*
X83789166Y-133245862D01*
X84106648Y-132770717D01*
X84510717Y-132366648D01*
X84985862Y-132049166D01*
X85513810Y-131830483D01*
X86074275Y-131719000D01*
X86645725Y-131719000D01*
X87206190Y-131830483D01*
X87206190Y-131830483D01*
G37*
G36*
X96018604Y-134843347D02*
X96055145Y-134854432D01*
X96088820Y-134872431D01*
X96118341Y-134896659D01*
X96142569Y-134926180D01*
X96160568Y-134959855D01*
X96171653Y-134996396D01*
X96176000Y-135040538D01*
X96176000Y-135989462D01*
X96171653Y-136033604D01*
X96160568Y-136070145D01*
X96142569Y-136103820D01*
X96118341Y-136133341D01*
X96088820Y-136157569D01*
X96055145Y-136175568D01*
X96018604Y-136186653D01*
X95974462Y-136191000D01*
X94525538Y-136191000D01*
X94481396Y-136186653D01*
X94444855Y-136175568D01*
X94411180Y-136157569D01*
X94381659Y-136133341D01*
X94357431Y-136103820D01*
X94339432Y-136070145D01*
X94328347Y-136033604D01*
X94324000Y-135989462D01*
X94324000Y-135040538D01*
X94328347Y-134996396D01*
X94339432Y-134959855D01*
X94357431Y-134926180D01*
X94381659Y-134896659D01*
X94411180Y-134872431D01*
X94444855Y-134854432D01*
X94481396Y-134843347D01*
X94525538Y-134839000D01*
X95974462Y-134839000D01*
X96018604Y-134843347D01*
X96018604Y-134843347D01*
G37*
G36*
X106178604Y-134713347D02*
X106215145Y-134724432D01*
X106248820Y-134742431D01*
X106278341Y-134766659D01*
X106302569Y-134796180D01*
X106320568Y-134829855D01*
X106331653Y-134866396D01*
X106336000Y-134910538D01*
X106336000Y-135859462D01*
X106331653Y-135903604D01*
X106320568Y-135940145D01*
X106302569Y-135973820D01*
X106278341Y-136003341D01*
X106248820Y-136027569D01*
X106215145Y-136045568D01*
X106178604Y-136056653D01*
X106134462Y-136061000D01*
X104685538Y-136061000D01*
X104641396Y-136056653D01*
X104604855Y-136045568D01*
X104571180Y-136027569D01*
X104541659Y-136003341D01*
X104517431Y-135973820D01*
X104499432Y-135940145D01*
X104488347Y-135903604D01*
X104484000Y-135859462D01*
X104484000Y-134910538D01*
X104488347Y-134866396D01*
X104499432Y-134829855D01*
X104517431Y-134796180D01*
X104541659Y-134766659D01*
X104571180Y-134742431D01*
X104604855Y-134724432D01*
X104641396Y-134713347D01*
X104685538Y-134709000D01*
X106134462Y-134709000D01*
X106178604Y-134713347D01*
X106178604Y-134713347D01*
G37*
G36*
X101098604Y-134713347D02*
X101135145Y-134724432D01*
X101168820Y-134742431D01*
X101198341Y-134766659D01*
X101222569Y-134796180D01*
X101240568Y-134829855D01*
X101251653Y-134866396D01*
X101256000Y-134910538D01*
X101256000Y-135859462D01*
X101251653Y-135903604D01*
X101240568Y-135940145D01*
X101222569Y-135973820D01*
X101198341Y-136003341D01*
X101168820Y-136027569D01*
X101135145Y-136045568D01*
X101098604Y-136056653D01*
X101054462Y-136061000D01*
X99605538Y-136061000D01*
X99561396Y-136056653D01*
X99524855Y-136045568D01*
X99491180Y-136027569D01*
X99461659Y-136003341D01*
X99437431Y-135973820D01*
X99419432Y-135940145D01*
X99408347Y-135903604D01*
X99404000Y-135859462D01*
X99404000Y-134910538D01*
X99408347Y-134866396D01*
X99419432Y-134829855D01*
X99437431Y-134796180D01*
X99461659Y-134766659D01*
X99491180Y-134742431D01*
X99524855Y-134724432D01*
X99561396Y-134713347D01*
X99605538Y-134709000D01*
X101054462Y-134709000D01*
X101098604Y-134713347D01*
X101098604Y-134713347D01*
G37*
G36*
X96018604Y-132043347D02*
X96055145Y-132054432D01*
X96088820Y-132072431D01*
X96118341Y-132096659D01*
X96142569Y-132126180D01*
X96160568Y-132159855D01*
X96171653Y-132196396D01*
X96176000Y-132240538D01*
X96176000Y-133189462D01*
X96171653Y-133233604D01*
X96160568Y-133270145D01*
X96142569Y-133303820D01*
X96118341Y-133333341D01*
X96088820Y-133357569D01*
X96055145Y-133375568D01*
X96018604Y-133386653D01*
X95974462Y-133391000D01*
X94525538Y-133391000D01*
X94481396Y-133386653D01*
X94444855Y-133375568D01*
X94411180Y-133357569D01*
X94381659Y-133333341D01*
X94357431Y-133303820D01*
X94339432Y-133270145D01*
X94328347Y-133233604D01*
X94324000Y-133189462D01*
X94324000Y-132240538D01*
X94328347Y-132196396D01*
X94339432Y-132159855D01*
X94357431Y-132126180D01*
X94381659Y-132096659D01*
X94411180Y-132072431D01*
X94444855Y-132054432D01*
X94481396Y-132043347D01*
X94525538Y-132039000D01*
X95974462Y-132039000D01*
X96018604Y-132043347D01*
X96018604Y-132043347D01*
G37*
G36*
X101098604Y-131913347D02*
X101135145Y-131924432D01*
X101168820Y-131942431D01*
X101198341Y-131966659D01*
X101222569Y-131996180D01*
X101240568Y-132029855D01*
X101251653Y-132066396D01*
X101256000Y-132110538D01*
X101256000Y-133059462D01*
X101251653Y-133103604D01*
X101240568Y-133140145D01*
X101222569Y-133173820D01*
X101198341Y-133203341D01*
X101168820Y-133227569D01*
X101135145Y-133245568D01*
X101098604Y-133256653D01*
X101054462Y-133261000D01*
X99605538Y-133261000D01*
X99561396Y-133256653D01*
X99524855Y-133245568D01*
X99491180Y-133227569D01*
X99461659Y-133203341D01*
X99437431Y-133173820D01*
X99419432Y-133140145D01*
X99408347Y-133103604D01*
X99404000Y-133059462D01*
X99404000Y-132110538D01*
X99408347Y-132066396D01*
X99419432Y-132029855D01*
X99437431Y-131996180D01*
X99461659Y-131966659D01*
X99491180Y-131942431D01*
X99524855Y-131924432D01*
X99561396Y-131913347D01*
X99605538Y-131909000D01*
X101054462Y-131909000D01*
X101098604Y-131913347D01*
X101098604Y-131913347D01*
G37*
G36*
X106178604Y-131913347D02*
X106215145Y-131924432D01*
X106248820Y-131942431D01*
X106278341Y-131966659D01*
X106302569Y-131996180D01*
X106320568Y-132029855D01*
X106331653Y-132066396D01*
X106336000Y-132110538D01*
X106336000Y-133059462D01*
X106331653Y-133103604D01*
X106320568Y-133140145D01*
X106302569Y-133173820D01*
X106278341Y-133203341D01*
X106248820Y-133227569D01*
X106215145Y-133245568D01*
X106178604Y-133256653D01*
X106134462Y-133261000D01*
X104685538Y-133261000D01*
X104641396Y-133256653D01*
X104604855Y-133245568D01*
X104571180Y-133227569D01*
X104541659Y-133203341D01*
X104517431Y-133173820D01*
X104499432Y-133140145D01*
X104488347Y-133103604D01*
X104484000Y-133059462D01*
X104484000Y-132110538D01*
X104488347Y-132066396D01*
X104499432Y-132029855D01*
X104517431Y-131996180D01*
X104541659Y-131966659D01*
X104571180Y-131942431D01*
X104604855Y-131924432D01*
X104641396Y-131913347D01*
X104685538Y-131909000D01*
X106134462Y-131909000D01*
X106178604Y-131913347D01*
X106178604Y-131913347D01*
G37*
G36*
X111463190Y-126877483D02*
X111991138Y-127096166D01*
X112466283Y-127413648D01*
X112870352Y-127817717D01*
X113187834Y-128292862D01*
X113406517Y-128820810D01*
X113518000Y-129381275D01*
X113518000Y-129952725D01*
X113406517Y-130513190D01*
X113187834Y-131041138D01*
X112870352Y-131516283D01*
X112466283Y-131920352D01*
X111991138Y-132237834D01*
X111463190Y-132456517D01*
X110902725Y-132568000D01*
X110331275Y-132568000D01*
X109770810Y-132456517D01*
X109242862Y-132237834D01*
X108767717Y-131920352D01*
X108363648Y-131516283D01*
X108046166Y-131041138D01*
X107827483Y-130513190D01*
X107716000Y-129952725D01*
X107716000Y-129381275D01*
X107827483Y-128820810D01*
X108046166Y-128292862D01*
X108363648Y-127817717D01*
X108767717Y-127413648D01*
X109242862Y-127096166D01*
X109770810Y-126877483D01*
X110331275Y-126766000D01*
X110902725Y-126766000D01*
X111463190Y-126877483D01*
X111463190Y-126877483D01*
G37*
G36*
X136799690Y-126813983D02*
X137327638Y-127032666D01*
X137802783Y-127350148D01*
X138206852Y-127754217D01*
X138524334Y-128229362D01*
X138743017Y-128757310D01*
X138854500Y-129317775D01*
X138854500Y-129889225D01*
X138743017Y-130449690D01*
X138524334Y-130977638D01*
X138206852Y-131452783D01*
X137802783Y-131856852D01*
X137327638Y-132174334D01*
X136799690Y-132393017D01*
X136239225Y-132504500D01*
X135667775Y-132504500D01*
X135107310Y-132393017D01*
X134579362Y-132174334D01*
X134104217Y-131856852D01*
X133700148Y-131452783D01*
X133382666Y-130977638D01*
X133163983Y-130449690D01*
X133052500Y-129889225D01*
X133052500Y-129317775D01*
X133163983Y-128757310D01*
X133382666Y-128229362D01*
X133700148Y-127754217D01*
X134104217Y-127350148D01*
X134579362Y-127032666D01*
X135107310Y-126813983D01*
X135667775Y-126702500D01*
X136239225Y-126702500D01*
X136799690Y-126813983D01*
X136799690Y-126813983D01*
G37*
G36*
X143008604Y-128458347D02*
X143045145Y-128469432D01*
X143078820Y-128487431D01*
X143108341Y-128511659D01*
X143132569Y-128541180D01*
X143150568Y-128574855D01*
X143161653Y-128611396D01*
X143166000Y-128655538D01*
X143166000Y-129604462D01*
X143161653Y-129648604D01*
X143150568Y-129685145D01*
X143132569Y-129718820D01*
X143108341Y-129748341D01*
X143078820Y-129772569D01*
X143045145Y-129790568D01*
X143008604Y-129801653D01*
X142964462Y-129806000D01*
X141515538Y-129806000D01*
X141471396Y-129801653D01*
X141434855Y-129790568D01*
X141401180Y-129772569D01*
X141371659Y-129748341D01*
X141347431Y-129718820D01*
X141329432Y-129685145D01*
X141318347Y-129648604D01*
X141314000Y-129604462D01*
X141314000Y-128655538D01*
X141318347Y-128611396D01*
X141329432Y-128574855D01*
X141347431Y-128541180D01*
X141371659Y-128511659D01*
X141401180Y-128487431D01*
X141434855Y-128469432D01*
X141471396Y-128458347D01*
X141515538Y-128454000D01*
X142964462Y-128454000D01*
X143008604Y-128458347D01*
X143008604Y-128458347D01*
G37*
G36*
X146818604Y-128458347D02*
X146855145Y-128469432D01*
X146888820Y-128487431D01*
X146918341Y-128511659D01*
X146942569Y-128541180D01*
X146960568Y-128574855D01*
X146971653Y-128611396D01*
X146976000Y-128655538D01*
X146976000Y-129604462D01*
X146971653Y-129648604D01*
X146960568Y-129685145D01*
X146942569Y-129718820D01*
X146918341Y-129748341D01*
X146888820Y-129772569D01*
X146855145Y-129790568D01*
X146818604Y-129801653D01*
X146774462Y-129806000D01*
X145325538Y-129806000D01*
X145281396Y-129801653D01*
X145244855Y-129790568D01*
X145211180Y-129772569D01*
X145181659Y-129748341D01*
X145157431Y-129718820D01*
X145139432Y-129685145D01*
X145128347Y-129648604D01*
X145124000Y-129604462D01*
X145124000Y-128655538D01*
X145128347Y-128611396D01*
X145139432Y-128574855D01*
X145157431Y-128541180D01*
X145181659Y-128511659D01*
X145211180Y-128487431D01*
X145244855Y-128469432D01*
X145281396Y-128458347D01*
X145325538Y-128454000D01*
X146774462Y-128454000D01*
X146818604Y-128458347D01*
X146818604Y-128458347D01*
G37*
G36*
X150411000Y-129401000D02*
X149309000Y-129401000D01*
X149309000Y-128299000D01*
X150411000Y-128299000D01*
X150411000Y-129401000D01*
X150411000Y-129401000D01*
G37*
G36*
X160571000Y-129381000D02*
X159469000Y-129381000D01*
X159469000Y-128279000D01*
X160571000Y-128279000D01*
X160571000Y-129381000D01*
X160571000Y-129381000D01*
G37*
G36*
X171431000Y-128251000D02*
X168929000Y-128251000D01*
X168929000Y-125749000D01*
X171431000Y-125749000D01*
X171431000Y-128251000D01*
X171431000Y-128251000D01*
G37*
G36*
X103176565Y-125989389D02*
X103367834Y-126068615D01*
X103539976Y-126183637D01*
X103686363Y-126330024D01*
X103801385Y-126502166D01*
X103880611Y-126693435D01*
X103921000Y-126896484D01*
X103921000Y-127103516D01*
X103880611Y-127306565D01*
X103801385Y-127497834D01*
X103686363Y-127669976D01*
X103539976Y-127816363D01*
X103367834Y-127931385D01*
X103176565Y-128010611D01*
X102973516Y-128051000D01*
X102766484Y-128051000D01*
X102563435Y-128010611D01*
X102372166Y-127931385D01*
X102200024Y-127816363D01*
X102053637Y-127669976D01*
X101938615Y-127497834D01*
X101859389Y-127306565D01*
X101819000Y-127103516D01*
X101819000Y-126896484D01*
X101859389Y-126693435D01*
X101938615Y-126502166D01*
X102053637Y-126330024D01*
X102200024Y-126183637D01*
X102372166Y-126068615D01*
X102563435Y-125989389D01*
X102766484Y-125949000D01*
X102973516Y-125949000D01*
X103176565Y-125989389D01*
X103176565Y-125989389D01*
G37*
G36*
X156988604Y-125408347D02*
X157025145Y-125419432D01*
X157058820Y-125437431D01*
X157088341Y-125461659D01*
X157112569Y-125491180D01*
X157130568Y-125524855D01*
X157141653Y-125561396D01*
X157146000Y-125605538D01*
X157146000Y-127054462D01*
X157141653Y-127098604D01*
X157130568Y-127135145D01*
X157112569Y-127168820D01*
X157088341Y-127198341D01*
X157058820Y-127222569D01*
X157025145Y-127240568D01*
X156988604Y-127251653D01*
X156944462Y-127256000D01*
X155995538Y-127256000D01*
X155951396Y-127251653D01*
X155914855Y-127240568D01*
X155881180Y-127222569D01*
X155851659Y-127198341D01*
X155827431Y-127168820D01*
X155809432Y-127135145D01*
X155798347Y-127098604D01*
X155794000Y-127054462D01*
X155794000Y-125605538D01*
X155798347Y-125561396D01*
X155809432Y-125524855D01*
X155827431Y-125491180D01*
X155851659Y-125461659D01*
X155881180Y-125437431D01*
X155914855Y-125419432D01*
X155951396Y-125408347D01*
X155995538Y-125404000D01*
X156944462Y-125404000D01*
X156988604Y-125408347D01*
X156988604Y-125408347D01*
G37*
G36*
X154188604Y-125408347D02*
X154225145Y-125419432D01*
X154258820Y-125437431D01*
X154288341Y-125461659D01*
X154312569Y-125491180D01*
X154330568Y-125524855D01*
X154341653Y-125561396D01*
X154346000Y-125605538D01*
X154346000Y-127054462D01*
X154341653Y-127098604D01*
X154330568Y-127135145D01*
X154312569Y-127168820D01*
X154288341Y-127198341D01*
X154258820Y-127222569D01*
X154225145Y-127240568D01*
X154188604Y-127251653D01*
X154144462Y-127256000D01*
X153195538Y-127256000D01*
X153151396Y-127251653D01*
X153114855Y-127240568D01*
X153081180Y-127222569D01*
X153051659Y-127198341D01*
X153027431Y-127168820D01*
X153009432Y-127135145D01*
X152998347Y-127098604D01*
X152994000Y-127054462D01*
X152994000Y-125605538D01*
X152998347Y-125561396D01*
X153009432Y-125524855D01*
X153027431Y-125491180D01*
X153051659Y-125461659D01*
X153081180Y-125437431D01*
X153114855Y-125419432D01*
X153151396Y-125408347D01*
X153195538Y-125404000D01*
X154144462Y-125404000D01*
X154188604Y-125408347D01*
X154188604Y-125408347D01*
G37*
G36*
X146818604Y-125658347D02*
X146855145Y-125669432D01*
X146888820Y-125687431D01*
X146918341Y-125711659D01*
X146942569Y-125741180D01*
X146960568Y-125774855D01*
X146971653Y-125811396D01*
X146976000Y-125855538D01*
X146976000Y-126804462D01*
X146971653Y-126848604D01*
X146960568Y-126885145D01*
X146942569Y-126918820D01*
X146918341Y-126948341D01*
X146888820Y-126972569D01*
X146855145Y-126990568D01*
X146818604Y-127001653D01*
X146774462Y-127006000D01*
X145325538Y-127006000D01*
X145281396Y-127001653D01*
X145244855Y-126990568D01*
X145211180Y-126972569D01*
X145181659Y-126948341D01*
X145157431Y-126918820D01*
X145139432Y-126885145D01*
X145128347Y-126848604D01*
X145124000Y-126804462D01*
X145124000Y-125855538D01*
X145128347Y-125811396D01*
X145139432Y-125774855D01*
X145157431Y-125741180D01*
X145181659Y-125711659D01*
X145211180Y-125687431D01*
X145244855Y-125669432D01*
X145281396Y-125658347D01*
X145325538Y-125654000D01*
X146774462Y-125654000D01*
X146818604Y-125658347D01*
X146818604Y-125658347D01*
G37*
G36*
X143008604Y-125658347D02*
X143045145Y-125669432D01*
X143078820Y-125687431D01*
X143108341Y-125711659D01*
X143132569Y-125741180D01*
X143150568Y-125774855D01*
X143161653Y-125811396D01*
X143166000Y-125855538D01*
X143166000Y-126804462D01*
X143161653Y-126848604D01*
X143150568Y-126885145D01*
X143132569Y-126918820D01*
X143108341Y-126948341D01*
X143078820Y-126972569D01*
X143045145Y-126990568D01*
X143008604Y-127001653D01*
X142964462Y-127006000D01*
X141515538Y-127006000D01*
X141471396Y-127001653D01*
X141434855Y-126990568D01*
X141401180Y-126972569D01*
X141371659Y-126948341D01*
X141347431Y-126918820D01*
X141329432Y-126885145D01*
X141318347Y-126848604D01*
X141314000Y-126804462D01*
X141314000Y-125855538D01*
X141318347Y-125811396D01*
X141329432Y-125774855D01*
X141347431Y-125741180D01*
X141371659Y-125711659D01*
X141401180Y-125687431D01*
X141434855Y-125669432D01*
X141471396Y-125658347D01*
X141515538Y-125654000D01*
X142964462Y-125654000D01*
X143008604Y-125658347D01*
X143008604Y-125658347D01*
G37*
G36*
X150411000Y-126901000D02*
X149309000Y-126901000D01*
X149309000Y-125799000D01*
X150411000Y-125799000D01*
X150411000Y-126901000D01*
X150411000Y-126901000D01*
G37*
G36*
X160571000Y-126881000D02*
X159469000Y-126881000D01*
X159469000Y-125779000D01*
X160571000Y-125779000D01*
X160571000Y-126881000D01*
X160571000Y-126881000D01*
G37*
G36*
X89160701Y-123449389D02*
X89294072Y-123475918D01*
X89539939Y-123577759D01*
X89760464Y-123725110D01*
X89761215Y-123725612D01*
X89949388Y-123913785D01*
X89949390Y-123913788D01*
X90097241Y-124135061D01*
X90199082Y-124380928D01*
X90251000Y-124641938D01*
X90251000Y-124908062D01*
X90199082Y-125169072D01*
X90097241Y-125414939D01*
X89969886Y-125605538D01*
X89949388Y-125636215D01*
X89761215Y-125824388D01*
X89761212Y-125824390D01*
X89539939Y-125972241D01*
X89294072Y-126074082D01*
X89163567Y-126100041D01*
X89033063Y-126126000D01*
X88766937Y-126126000D01*
X88636433Y-126100041D01*
X88505928Y-126074082D01*
X88260061Y-125972241D01*
X88038788Y-125824390D01*
X88038785Y-125824388D01*
X87850612Y-125636215D01*
X87830114Y-125605538D01*
X87702759Y-125414939D01*
X87600918Y-125169072D01*
X87549000Y-124908062D01*
X87549000Y-124641938D01*
X87600918Y-124380928D01*
X87702759Y-124135061D01*
X87850610Y-123913788D01*
X87850612Y-123913785D01*
X88038785Y-123725612D01*
X88039536Y-123725110D01*
X88260061Y-123577759D01*
X88505928Y-123475918D01*
X88639299Y-123449389D01*
X88766937Y-123424000D01*
X89033063Y-123424000D01*
X89160701Y-123449389D01*
X89160701Y-123449389D01*
G37*
G36*
X103176565Y-123449389D02*
X103367834Y-123528615D01*
X103539976Y-123643637D01*
X103686363Y-123790024D01*
X103801385Y-123962166D01*
X103880611Y-124153435D01*
X103921000Y-124356484D01*
X103921000Y-124563516D01*
X103880611Y-124766565D01*
X103801385Y-124957834D01*
X103686363Y-125129976D01*
X103539976Y-125276363D01*
X103367834Y-125391385D01*
X103176565Y-125470611D01*
X102973516Y-125511000D01*
X102766484Y-125511000D01*
X102563435Y-125470611D01*
X102372166Y-125391385D01*
X102200024Y-125276363D01*
X102053637Y-125129976D01*
X101938615Y-124957834D01*
X101859389Y-124766565D01*
X101819000Y-124563516D01*
X101819000Y-124356484D01*
X101859389Y-124153435D01*
X101938615Y-123962166D01*
X102053637Y-123790024D01*
X102200024Y-123643637D01*
X102372166Y-123528615D01*
X102563435Y-123449389D01*
X102766484Y-123409000D01*
X102973516Y-123409000D01*
X103176565Y-123449389D01*
X103176565Y-123449389D01*
G37*
G36*
X170363635Y-122261019D02*
X170544903Y-122297075D01*
X170772571Y-122391378D01*
X170976542Y-122527668D01*
X170977469Y-122528287D01*
X171151713Y-122702531D01*
X171151715Y-122702534D01*
X171288622Y-122907429D01*
X171382925Y-123135097D01*
X171418981Y-123316364D01*
X171431000Y-123376786D01*
X171431000Y-123623214D01*
X171418981Y-123683635D01*
X171382925Y-123864903D01*
X171288622Y-124092571D01*
X171152332Y-124296542D01*
X171151713Y-124297469D01*
X170977469Y-124471713D01*
X170977466Y-124471715D01*
X170772571Y-124608622D01*
X170544903Y-124702925D01*
X170363635Y-124738981D01*
X170303214Y-124751000D01*
X170056786Y-124751000D01*
X169996365Y-124738981D01*
X169815097Y-124702925D01*
X169587429Y-124608622D01*
X169382534Y-124471715D01*
X169382531Y-124471713D01*
X169208287Y-124297469D01*
X169207668Y-124296542D01*
X169071378Y-124092571D01*
X168977075Y-123864903D01*
X168941019Y-123683635D01*
X168929000Y-123623214D01*
X168929000Y-123376786D01*
X168941019Y-123316364D01*
X168977075Y-123135097D01*
X169071378Y-122907429D01*
X169208285Y-122702534D01*
X169208287Y-122702531D01*
X169382531Y-122528287D01*
X169383458Y-122527668D01*
X169587429Y-122391378D01*
X169815097Y-122297075D01*
X169996365Y-122261019D01*
X170056786Y-122249000D01*
X170303214Y-122249000D01*
X170363635Y-122261019D01*
X170363635Y-122261019D01*
G37*
G36*
X103921000Y-122971000D02*
X101819000Y-122971000D01*
X101819000Y-120869000D01*
X103921000Y-120869000D01*
X103921000Y-122971000D01*
X103921000Y-122971000D01*
G37*
G36*
X143008604Y-121528347D02*
X143045145Y-121539432D01*
X143078820Y-121557431D01*
X143108341Y-121581659D01*
X143132569Y-121611180D01*
X143150568Y-121644855D01*
X143161653Y-121681396D01*
X143166000Y-121725538D01*
X143166000Y-122674462D01*
X143161653Y-122718604D01*
X143150568Y-122755145D01*
X143132569Y-122788820D01*
X143108341Y-122818341D01*
X143078820Y-122842569D01*
X143045145Y-122860568D01*
X143008604Y-122871653D01*
X142964462Y-122876000D01*
X141515538Y-122876000D01*
X141471396Y-122871653D01*
X141434855Y-122860568D01*
X141401180Y-122842569D01*
X141371659Y-122818341D01*
X141347431Y-122788820D01*
X141329432Y-122755145D01*
X141318347Y-122718604D01*
X141314000Y-122674462D01*
X141314000Y-121725538D01*
X141318347Y-121681396D01*
X141329432Y-121644855D01*
X141347431Y-121611180D01*
X141371659Y-121581659D01*
X141401180Y-121557431D01*
X141434855Y-121539432D01*
X141471396Y-121528347D01*
X141515538Y-121524000D01*
X142964462Y-121524000D01*
X143008604Y-121528347D01*
X143008604Y-121528347D01*
G37*
G36*
X146818604Y-121528347D02*
X146855145Y-121539432D01*
X146888820Y-121557431D01*
X146918341Y-121581659D01*
X146942569Y-121611180D01*
X146960568Y-121644855D01*
X146971653Y-121681396D01*
X146976000Y-121725538D01*
X146976000Y-122674462D01*
X146971653Y-122718604D01*
X146960568Y-122755145D01*
X146942569Y-122788820D01*
X146918341Y-122818341D01*
X146888820Y-122842569D01*
X146855145Y-122860568D01*
X146818604Y-122871653D01*
X146774462Y-122876000D01*
X145325538Y-122876000D01*
X145281396Y-122871653D01*
X145244855Y-122860568D01*
X145211180Y-122842569D01*
X145181659Y-122818341D01*
X145157431Y-122788820D01*
X145139432Y-122755145D01*
X145128347Y-122718604D01*
X145124000Y-122674462D01*
X145124000Y-121725538D01*
X145128347Y-121681396D01*
X145139432Y-121644855D01*
X145157431Y-121611180D01*
X145181659Y-121581659D01*
X145211180Y-121557431D01*
X145244855Y-121539432D01*
X145281396Y-121528347D01*
X145325538Y-121524000D01*
X146774462Y-121524000D01*
X146818604Y-121528347D01*
X146818604Y-121528347D01*
G37*
G36*
X150411000Y-122601000D02*
X149309000Y-122601000D01*
X149309000Y-121499000D01*
X150411000Y-121499000D01*
X150411000Y-122601000D01*
X150411000Y-122601000D01*
G37*
G36*
X160571000Y-122601000D02*
X159469000Y-122601000D01*
X159469000Y-121499000D01*
X160571000Y-121499000D01*
X160571000Y-122601000D01*
X160571000Y-122601000D01*
G37*
G36*
X109542143Y-119963243D02*
X109690103Y-120024531D01*
X109823259Y-120113503D01*
X109936499Y-120226743D01*
X110025471Y-120359899D01*
X110086759Y-120507859D01*
X110118001Y-120664926D01*
X110118001Y-120825076D01*
X110086759Y-120982143D01*
X110025471Y-121130103D01*
X109936499Y-121263259D01*
X109823259Y-121376499D01*
X109690103Y-121465471D01*
X109542143Y-121526759D01*
X109385076Y-121558001D01*
X109224926Y-121558001D01*
X109067859Y-121526759D01*
X108919899Y-121465471D01*
X108786743Y-121376499D01*
X108673503Y-121263259D01*
X108584531Y-121130103D01*
X108523243Y-120982143D01*
X108492001Y-120825076D01*
X108492001Y-120664926D01*
X108523243Y-120507859D01*
X108584531Y-120359899D01*
X108673503Y-120226743D01*
X108786743Y-120113503D01*
X108919899Y-120024531D01*
X109067859Y-119963243D01*
X109224926Y-119932001D01*
X109385076Y-119932001D01*
X109542143Y-119963243D01*
X109542143Y-119963243D01*
G37*
G36*
X137482143Y-119963243D02*
X137630103Y-120024531D01*
X137763259Y-120113503D01*
X137876499Y-120226743D01*
X137965471Y-120359899D01*
X138026759Y-120507859D01*
X138058001Y-120664926D01*
X138058001Y-120825076D01*
X138026759Y-120982143D01*
X137965471Y-121130103D01*
X137876499Y-121263259D01*
X137763259Y-121376499D01*
X137630103Y-121465471D01*
X137482143Y-121526759D01*
X137325076Y-121558001D01*
X137164926Y-121558001D01*
X137007859Y-121526759D01*
X136859899Y-121465471D01*
X136726743Y-121376499D01*
X136613503Y-121263259D01*
X136524531Y-121130103D01*
X136463243Y-120982143D01*
X136432001Y-120825076D01*
X136432001Y-120664926D01*
X136463243Y-120507859D01*
X136524531Y-120359899D01*
X136613503Y-120226743D01*
X136726743Y-120113503D01*
X136859899Y-120024531D01*
X137007859Y-119963243D01*
X137164926Y-119932001D01*
X137325076Y-119932001D01*
X137482143Y-119963243D01*
X137482143Y-119963243D01*
G37*
G36*
X170345599Y-118757431D02*
X170544903Y-118797075D01*
X170772571Y-118891378D01*
X170933638Y-118999000D01*
X170977469Y-119028287D01*
X171151713Y-119202531D01*
X171151715Y-119202534D01*
X171288622Y-119407429D01*
X171382925Y-119635097D01*
X171431000Y-119876787D01*
X171431000Y-120123213D01*
X171382925Y-120364903D01*
X171288622Y-120592571D01*
X171152332Y-120796542D01*
X171151713Y-120797469D01*
X170977469Y-120971713D01*
X170977466Y-120971715D01*
X170772571Y-121108622D01*
X170544903Y-121202925D01*
X170363636Y-121238981D01*
X170303214Y-121251000D01*
X170056786Y-121251000D01*
X169996364Y-121238981D01*
X169815097Y-121202925D01*
X169587429Y-121108622D01*
X169382534Y-120971715D01*
X169382531Y-120971713D01*
X169208287Y-120797469D01*
X169207668Y-120796542D01*
X169071378Y-120592571D01*
X168977075Y-120364903D01*
X168929000Y-120123213D01*
X168929000Y-119876787D01*
X168977075Y-119635097D01*
X169071378Y-119407429D01*
X169208285Y-119202534D01*
X169208287Y-119202531D01*
X169382531Y-119028287D01*
X169426362Y-118999000D01*
X169587429Y-118891378D01*
X169815097Y-118797075D01*
X170014401Y-118757431D01*
X170056786Y-118749000D01*
X170303214Y-118749000D01*
X170345599Y-118757431D01*
X170345599Y-118757431D01*
G37*
G36*
X89163567Y-118449959D02*
X89294072Y-118475918D01*
X89539939Y-118577759D01*
X89758802Y-118724000D01*
X89761215Y-118725612D01*
X89949388Y-118913785D01*
X89949390Y-118913788D01*
X90097241Y-119135061D01*
X90199082Y-119380928D01*
X90251000Y-119641938D01*
X90251000Y-119908062D01*
X90199082Y-120169072D01*
X90097241Y-120414939D01*
X90035153Y-120507859D01*
X89949388Y-120636215D01*
X89761215Y-120824388D01*
X89761212Y-120824390D01*
X89539939Y-120972241D01*
X89294072Y-121074082D01*
X89163567Y-121100041D01*
X89033063Y-121126000D01*
X88766937Y-121126000D01*
X88636433Y-121100041D01*
X88505928Y-121074082D01*
X88260061Y-120972241D01*
X88038788Y-120824390D01*
X88038785Y-120824388D01*
X87850612Y-120636215D01*
X87764847Y-120507859D01*
X87702759Y-120414939D01*
X87600918Y-120169072D01*
X87549000Y-119908062D01*
X87549000Y-119641938D01*
X87600918Y-119380928D01*
X87702759Y-119135061D01*
X87850610Y-118913788D01*
X87850612Y-118913785D01*
X88038785Y-118725612D01*
X88041198Y-118724000D01*
X88260061Y-118577759D01*
X88505928Y-118475918D01*
X88636433Y-118449959D01*
X88766937Y-118424000D01*
X89033063Y-118424000D01*
X89163567Y-118449959D01*
X89163567Y-118449959D01*
G37*
G36*
X156728604Y-118608347D02*
X156765145Y-118619432D01*
X156798820Y-118637431D01*
X156828341Y-118661659D01*
X156852569Y-118691180D01*
X156870568Y-118724855D01*
X156881653Y-118761396D01*
X156886000Y-118805538D01*
X156886000Y-120254462D01*
X156881653Y-120298604D01*
X156870568Y-120335145D01*
X156852569Y-120368820D01*
X156828341Y-120398341D01*
X156798820Y-120422569D01*
X156765145Y-120440568D01*
X156728604Y-120451653D01*
X156684462Y-120456000D01*
X155735538Y-120456000D01*
X155691396Y-120451653D01*
X155654855Y-120440568D01*
X155621180Y-120422569D01*
X155591659Y-120398341D01*
X155567431Y-120368820D01*
X155549432Y-120335145D01*
X155538347Y-120298604D01*
X155534000Y-120254462D01*
X155534000Y-118805538D01*
X155538347Y-118761396D01*
X155549432Y-118724855D01*
X155567431Y-118691180D01*
X155591659Y-118661659D01*
X155621180Y-118637431D01*
X155654855Y-118619432D01*
X155691396Y-118608347D01*
X155735538Y-118604000D01*
X156684462Y-118604000D01*
X156728604Y-118608347D01*
X156728604Y-118608347D01*
G37*
G36*
X153928604Y-118608347D02*
X153965145Y-118619432D01*
X153998820Y-118637431D01*
X154028341Y-118661659D01*
X154052569Y-118691180D01*
X154070568Y-118724855D01*
X154081653Y-118761396D01*
X154086000Y-118805538D01*
X154086000Y-120254462D01*
X154081653Y-120298604D01*
X154070568Y-120335145D01*
X154052569Y-120368820D01*
X154028341Y-120398341D01*
X153998820Y-120422569D01*
X153965145Y-120440568D01*
X153928604Y-120451653D01*
X153884462Y-120456000D01*
X152935538Y-120456000D01*
X152891396Y-120451653D01*
X152854855Y-120440568D01*
X152821180Y-120422569D01*
X152791659Y-120398341D01*
X152767431Y-120368820D01*
X152749432Y-120335145D01*
X152738347Y-120298604D01*
X152734000Y-120254462D01*
X152734000Y-118805538D01*
X152738347Y-118761396D01*
X152749432Y-118724855D01*
X152767431Y-118691180D01*
X152791659Y-118661659D01*
X152821180Y-118637431D01*
X152854855Y-118619432D01*
X152891396Y-118608347D01*
X152935538Y-118604000D01*
X153884462Y-118604000D01*
X153928604Y-118608347D01*
X153928604Y-118608347D01*
G37*
G36*
X150411000Y-120101000D02*
X149309000Y-120101000D01*
X149309000Y-118999000D01*
X150411000Y-118999000D01*
X150411000Y-120101000D01*
X150411000Y-120101000D01*
G37*
G36*
X160571000Y-120101000D02*
X159469000Y-120101000D01*
X159469000Y-118999000D01*
X160571000Y-118999000D01*
X160571000Y-120101000D01*
X160571000Y-120101000D01*
G37*
G36*
X143008604Y-118728347D02*
X143045145Y-118739432D01*
X143078820Y-118757431D01*
X143108341Y-118781659D01*
X143132569Y-118811180D01*
X143150568Y-118844855D01*
X143161653Y-118881396D01*
X143166000Y-118925538D01*
X143166000Y-119874462D01*
X143161653Y-119918604D01*
X143150568Y-119955145D01*
X143132569Y-119988820D01*
X143108341Y-120018341D01*
X143078820Y-120042569D01*
X143045145Y-120060568D01*
X143008604Y-120071653D01*
X142964462Y-120076000D01*
X141515538Y-120076000D01*
X141471396Y-120071653D01*
X141434855Y-120060568D01*
X141401180Y-120042569D01*
X141371659Y-120018341D01*
X141347431Y-119988820D01*
X141329432Y-119955145D01*
X141318347Y-119918604D01*
X141314000Y-119874462D01*
X141314000Y-118925538D01*
X141318347Y-118881396D01*
X141329432Y-118844855D01*
X141347431Y-118811180D01*
X141371659Y-118781659D01*
X141401180Y-118757431D01*
X141434855Y-118739432D01*
X141471396Y-118728347D01*
X141515538Y-118724000D01*
X142964462Y-118724000D01*
X143008604Y-118728347D01*
X143008604Y-118728347D01*
G37*
G36*
X146818604Y-118728347D02*
X146855145Y-118739432D01*
X146888820Y-118757431D01*
X146918341Y-118781659D01*
X146942569Y-118811180D01*
X146960568Y-118844855D01*
X146971653Y-118881396D01*
X146976000Y-118925538D01*
X146976000Y-119874462D01*
X146971653Y-119918604D01*
X146960568Y-119955145D01*
X146942569Y-119988820D01*
X146918341Y-120018341D01*
X146888820Y-120042569D01*
X146855145Y-120060568D01*
X146818604Y-120071653D01*
X146774462Y-120076000D01*
X145325538Y-120076000D01*
X145281396Y-120071653D01*
X145244855Y-120060568D01*
X145211180Y-120042569D01*
X145181659Y-120018341D01*
X145157431Y-119988820D01*
X145139432Y-119955145D01*
X145128347Y-119918604D01*
X145124000Y-119874462D01*
X145124000Y-118925538D01*
X145128347Y-118881396D01*
X145139432Y-118844855D01*
X145157431Y-118811180D01*
X145181659Y-118781659D01*
X145211180Y-118757431D01*
X145244855Y-118739432D01*
X145281396Y-118728347D01*
X145325538Y-118724000D01*
X146774462Y-118724000D01*
X146818604Y-118728347D01*
X146818604Y-118728347D01*
G37*
G36*
X109542143Y-117423243D02*
X109690103Y-117484531D01*
X109757131Y-117529318D01*
X109823258Y-117573502D01*
X109936500Y-117686744D01*
X109979434Y-117751000D01*
X110025471Y-117819899D01*
X110086759Y-117967859D01*
X110118001Y-118124926D01*
X110118001Y-118285076D01*
X110086759Y-118442143D01*
X110039355Y-118556584D01*
X110025472Y-118590101D01*
X109936500Y-118723258D01*
X109823258Y-118836500D01*
X109766536Y-118874400D01*
X109690103Y-118925471D01*
X109690102Y-118925472D01*
X109690101Y-118925472D01*
X109656584Y-118939355D01*
X109542143Y-118986759D01*
X109385076Y-119018001D01*
X109224926Y-119018001D01*
X109067859Y-118986759D01*
X108953418Y-118939355D01*
X108919901Y-118925472D01*
X108919900Y-118925472D01*
X108919899Y-118925471D01*
X108843466Y-118874400D01*
X108786744Y-118836500D01*
X108673502Y-118723258D01*
X108584530Y-118590101D01*
X108570647Y-118556584D01*
X108523243Y-118442143D01*
X108492001Y-118285076D01*
X108492001Y-118124926D01*
X108523243Y-117967859D01*
X108584531Y-117819899D01*
X108630568Y-117751000D01*
X108673502Y-117686744D01*
X108786744Y-117573502D01*
X108852871Y-117529318D01*
X108919899Y-117484531D01*
X109067859Y-117423243D01*
X109224926Y-117392001D01*
X109385076Y-117392001D01*
X109542143Y-117423243D01*
X109542143Y-117423243D01*
G37*
G36*
X137482143Y-117423243D02*
X137630103Y-117484531D01*
X137697131Y-117529318D01*
X137763258Y-117573502D01*
X137876500Y-117686744D01*
X137919434Y-117751000D01*
X137965471Y-117819899D01*
X138026759Y-117967859D01*
X138058001Y-118124926D01*
X138058001Y-118285076D01*
X138026759Y-118442143D01*
X137979355Y-118556584D01*
X137965472Y-118590101D01*
X137876500Y-118723258D01*
X137763258Y-118836500D01*
X137706536Y-118874400D01*
X137630103Y-118925471D01*
X137630102Y-118925472D01*
X137630101Y-118925472D01*
X137596584Y-118939355D01*
X137482143Y-118986759D01*
X137325076Y-119018001D01*
X137164926Y-119018001D01*
X137007859Y-118986759D01*
X136893418Y-118939355D01*
X136859901Y-118925472D01*
X136859900Y-118925472D01*
X136859899Y-118925471D01*
X136783466Y-118874400D01*
X136726744Y-118836500D01*
X136613502Y-118723258D01*
X136524530Y-118590101D01*
X136510647Y-118556584D01*
X136463243Y-118442143D01*
X136432001Y-118285076D01*
X136432001Y-118124926D01*
X136463243Y-117967859D01*
X136524531Y-117819899D01*
X136570568Y-117751000D01*
X136613502Y-117686744D01*
X136726744Y-117573502D01*
X136792871Y-117529318D01*
X136859899Y-117484531D01*
X137007859Y-117423243D01*
X137164926Y-117392001D01*
X137325076Y-117392001D01*
X137482143Y-117423243D01*
X137482143Y-117423243D01*
G37*
G36*
X170363636Y-115261019D02*
X170544903Y-115297075D01*
X170772571Y-115391378D01*
X170976542Y-115527668D01*
X170977469Y-115528287D01*
X171151713Y-115702531D01*
X171151715Y-115702534D01*
X171288622Y-115907429D01*
X171382925Y-116135097D01*
X171392505Y-116183259D01*
X171430674Y-116375145D01*
X171431000Y-116376787D01*
X171431000Y-116623213D01*
X171382925Y-116864903D01*
X171288622Y-117092571D01*
X171152332Y-117296542D01*
X171151713Y-117297469D01*
X170977469Y-117471713D01*
X170977466Y-117471715D01*
X170772571Y-117608622D01*
X170544903Y-117702925D01*
X170363636Y-117738981D01*
X170303214Y-117751000D01*
X170056786Y-117751000D01*
X169996364Y-117738981D01*
X169815097Y-117702925D01*
X169587429Y-117608622D01*
X169382534Y-117471715D01*
X169382531Y-117471713D01*
X169208287Y-117297469D01*
X169207668Y-117296542D01*
X169071378Y-117092571D01*
X168977075Y-116864903D01*
X168929000Y-116623213D01*
X168929000Y-116376787D01*
X168929327Y-116375145D01*
X168967495Y-116183259D01*
X168977075Y-116135097D01*
X169071378Y-115907429D01*
X169208285Y-115702534D01*
X169208287Y-115702531D01*
X169382531Y-115528287D01*
X169383458Y-115527668D01*
X169587429Y-115391378D01*
X169815097Y-115297075D01*
X169996364Y-115261019D01*
X170056786Y-115249000D01*
X170303214Y-115249000D01*
X170363636Y-115261019D01*
X170363636Y-115261019D01*
G37*
G36*
X104658604Y-114648347D02*
X104695145Y-114659432D01*
X104728820Y-114677431D01*
X104758341Y-114701659D01*
X104782569Y-114731180D01*
X104800568Y-114764855D01*
X104811653Y-114801396D01*
X104816000Y-114845538D01*
X104816000Y-116294462D01*
X104811653Y-116338604D01*
X104800568Y-116375145D01*
X104782569Y-116408820D01*
X104758341Y-116438341D01*
X104728820Y-116462569D01*
X104695145Y-116480568D01*
X104658604Y-116491653D01*
X104614462Y-116496000D01*
X103665538Y-116496000D01*
X103621396Y-116491653D01*
X103584855Y-116480568D01*
X103551180Y-116462569D01*
X103521659Y-116438341D01*
X103497431Y-116408820D01*
X103479432Y-116375145D01*
X103468347Y-116338604D01*
X103464000Y-116294462D01*
X103464000Y-114845538D01*
X103468347Y-114801396D01*
X103479432Y-114764855D01*
X103497431Y-114731180D01*
X103521659Y-114701659D01*
X103551180Y-114677431D01*
X103584855Y-114659432D01*
X103621396Y-114648347D01*
X103665538Y-114644000D01*
X104614462Y-114644000D01*
X104658604Y-114648347D01*
X104658604Y-114648347D01*
G37*
G36*
X101858604Y-114648347D02*
X101895145Y-114659432D01*
X101928820Y-114677431D01*
X101958341Y-114701659D01*
X101982569Y-114731180D01*
X102000568Y-114764855D01*
X102011653Y-114801396D01*
X102016000Y-114845538D01*
X102016000Y-116294462D01*
X102011653Y-116338604D01*
X102000568Y-116375145D01*
X101982569Y-116408820D01*
X101958341Y-116438341D01*
X101928820Y-116462569D01*
X101895145Y-116480568D01*
X101858604Y-116491653D01*
X101814462Y-116496000D01*
X100865538Y-116496000D01*
X100821396Y-116491653D01*
X100784855Y-116480568D01*
X100751180Y-116462569D01*
X100721659Y-116438341D01*
X100697431Y-116408820D01*
X100679432Y-116375145D01*
X100668347Y-116338604D01*
X100664000Y-116294462D01*
X100664000Y-114845538D01*
X100668347Y-114801396D01*
X100679432Y-114764855D01*
X100697431Y-114731180D01*
X100721659Y-114701659D01*
X100751180Y-114677431D01*
X100784855Y-114659432D01*
X100821396Y-114648347D01*
X100865538Y-114644000D01*
X101814462Y-114644000D01*
X101858604Y-114648347D01*
X101858604Y-114648347D01*
G37*
G36*
X137482143Y-114883243D02*
X137630103Y-114944531D01*
X137666131Y-114968604D01*
X137763258Y-115033502D01*
X137876500Y-115146744D01*
X137891418Y-115169071D01*
X137965471Y-115279899D01*
X138026759Y-115427859D01*
X138058001Y-115584926D01*
X138058001Y-115745076D01*
X138026759Y-115902143D01*
X137965471Y-116050103D01*
X137876499Y-116183259D01*
X137763259Y-116296499D01*
X137630103Y-116385471D01*
X137482143Y-116446759D01*
X137325076Y-116478001D01*
X137164926Y-116478001D01*
X137007859Y-116446759D01*
X136859899Y-116385471D01*
X136726743Y-116296499D01*
X136613503Y-116183259D01*
X136524531Y-116050103D01*
X136463243Y-115902143D01*
X136432001Y-115745076D01*
X136432001Y-115584926D01*
X136463243Y-115427859D01*
X136524531Y-115279899D01*
X136598584Y-115169071D01*
X136613502Y-115146744D01*
X136726744Y-115033502D01*
X136823871Y-114968604D01*
X136859899Y-114944531D01*
X137007859Y-114883243D01*
X137164926Y-114852001D01*
X137325076Y-114852001D01*
X137482143Y-114883243D01*
X137482143Y-114883243D01*
G37*
G36*
X109542143Y-114883243D02*
X109690103Y-114944531D01*
X109726131Y-114968604D01*
X109823258Y-115033502D01*
X109936500Y-115146744D01*
X109951418Y-115169071D01*
X110025471Y-115279899D01*
X110086759Y-115427859D01*
X110118001Y-115584926D01*
X110118001Y-115745076D01*
X110086759Y-115902143D01*
X110025471Y-116050103D01*
X109936499Y-116183259D01*
X109823259Y-116296499D01*
X109690103Y-116385471D01*
X109542143Y-116446759D01*
X109385076Y-116478001D01*
X109224926Y-116478001D01*
X109067859Y-116446759D01*
X108919899Y-116385471D01*
X108786743Y-116296499D01*
X108673503Y-116183259D01*
X108584531Y-116050103D01*
X108523243Y-115902143D01*
X108492001Y-115745076D01*
X108492001Y-115584926D01*
X108523243Y-115427859D01*
X108584531Y-115279899D01*
X108658584Y-115169071D01*
X108673502Y-115146744D01*
X108786744Y-115033502D01*
X108883871Y-114968604D01*
X108919899Y-114944531D01*
X109067859Y-114883243D01*
X109224926Y-114852001D01*
X109385076Y-114852001D01*
X109542143Y-114883243D01*
X109542143Y-114883243D01*
G37*
G36*
X89163567Y-113449959D02*
X89294072Y-113475918D01*
X89539939Y-113577759D01*
X89760464Y-113725110D01*
X89761215Y-113725612D01*
X89949388Y-113913785D01*
X89949390Y-113913788D01*
X90097241Y-114135061D01*
X90145264Y-114251000D01*
X90199082Y-114380929D01*
X90251000Y-114641937D01*
X90251000Y-114908063D01*
X90236492Y-114981000D01*
X90199082Y-115169072D01*
X90097241Y-115414939D01*
X89949890Y-115635464D01*
X89949388Y-115636215D01*
X89761215Y-115824388D01*
X89761212Y-115824390D01*
X89539939Y-115972241D01*
X89294072Y-116074082D01*
X89163567Y-116100041D01*
X89033063Y-116126000D01*
X88766937Y-116126000D01*
X88636433Y-116100041D01*
X88505928Y-116074082D01*
X88260061Y-115972241D01*
X88038788Y-115824390D01*
X88038785Y-115824388D01*
X87850612Y-115636215D01*
X87850110Y-115635464D01*
X87702759Y-115414939D01*
X87600918Y-115169072D01*
X87563508Y-114981000D01*
X87549000Y-114908063D01*
X87549000Y-114641937D01*
X87600918Y-114380929D01*
X87654736Y-114251000D01*
X87702759Y-114135061D01*
X87850610Y-113913788D01*
X87850612Y-113913785D01*
X88038785Y-113725612D01*
X88039536Y-113725110D01*
X88260061Y-113577759D01*
X88505928Y-113475918D01*
X88636433Y-113449959D01*
X88766937Y-113424000D01*
X89033063Y-113424000D01*
X89163567Y-113449959D01*
X89163567Y-113449959D01*
G37*
G36*
X146818604Y-113908347D02*
X146855145Y-113919432D01*
X146888820Y-113937431D01*
X146918341Y-113961659D01*
X146942569Y-113991180D01*
X146960568Y-114024855D01*
X146971653Y-114061396D01*
X146976000Y-114105538D01*
X146976000Y-115054462D01*
X146971653Y-115098604D01*
X146960568Y-115135145D01*
X146942569Y-115168820D01*
X146918341Y-115198341D01*
X146888820Y-115222569D01*
X146855145Y-115240568D01*
X146818604Y-115251653D01*
X146774462Y-115256000D01*
X145325538Y-115256000D01*
X145281396Y-115251653D01*
X145244855Y-115240568D01*
X145211180Y-115222569D01*
X145181659Y-115198341D01*
X145157431Y-115168820D01*
X145139432Y-115135145D01*
X145128347Y-115098604D01*
X145124000Y-115054462D01*
X145124000Y-114105538D01*
X145128347Y-114061396D01*
X145139432Y-114024855D01*
X145157431Y-113991180D01*
X145181659Y-113961659D01*
X145211180Y-113937431D01*
X145244855Y-113919432D01*
X145281396Y-113908347D01*
X145325538Y-113904000D01*
X146774462Y-113904000D01*
X146818604Y-113908347D01*
X146818604Y-113908347D01*
G37*
G36*
X143008604Y-113778347D02*
X143045145Y-113789432D01*
X143078820Y-113807431D01*
X143108341Y-113831659D01*
X143132569Y-113861180D01*
X143150568Y-113894855D01*
X143161653Y-113931396D01*
X143166000Y-113975538D01*
X143166000Y-114924462D01*
X143161653Y-114968604D01*
X143150568Y-115005145D01*
X143132569Y-115038820D01*
X143108341Y-115068341D01*
X143078820Y-115092569D01*
X143045145Y-115110568D01*
X143008604Y-115121653D01*
X142964462Y-115126000D01*
X141515538Y-115126000D01*
X141471396Y-115121653D01*
X141434855Y-115110568D01*
X141401180Y-115092569D01*
X141371659Y-115068341D01*
X141347431Y-115038820D01*
X141329432Y-115005145D01*
X141318347Y-114968604D01*
X141314000Y-114924462D01*
X141314000Y-113975538D01*
X141318347Y-113931396D01*
X141329432Y-113894855D01*
X141347431Y-113861180D01*
X141371659Y-113831659D01*
X141401180Y-113807431D01*
X141434855Y-113789432D01*
X141471396Y-113778347D01*
X141515538Y-113774000D01*
X142964462Y-113774000D01*
X143008604Y-113778347D01*
X143008604Y-113778347D01*
G37*
G36*
X150411000Y-114981000D02*
X149309000Y-114981000D01*
X149309000Y-113879000D01*
X150411000Y-113879000D01*
X150411000Y-114981000D01*
X150411000Y-114981000D01*
G37*
G36*
X160571000Y-114961000D02*
X159469000Y-114961000D01*
X159469000Y-113859000D01*
X160571000Y-113859000D01*
X160571000Y-114961000D01*
X160571000Y-114961000D01*
G37*
G36*
X170363636Y-111761019D02*
X170544903Y-111797075D01*
X170772571Y-111891378D01*
X170976542Y-112027668D01*
X170977469Y-112028287D01*
X171151713Y-112202531D01*
X171151715Y-112202534D01*
X171288622Y-112407429D01*
X171382925Y-112635097D01*
X171431000Y-112876787D01*
X171431000Y-113123213D01*
X171382925Y-113364903D01*
X171288622Y-113592571D01*
X171164490Y-113778347D01*
X171151713Y-113797469D01*
X170977469Y-113971713D01*
X170977466Y-113971715D01*
X170772571Y-114108622D01*
X170544903Y-114202925D01*
X170363635Y-114238981D01*
X170303214Y-114251000D01*
X170056786Y-114251000D01*
X169996365Y-114238981D01*
X169815097Y-114202925D01*
X169587429Y-114108622D01*
X169382534Y-113971715D01*
X169382531Y-113971713D01*
X169208287Y-113797469D01*
X169195510Y-113778347D01*
X169071378Y-113592571D01*
X168977075Y-113364903D01*
X168929000Y-113123213D01*
X168929000Y-112876787D01*
X168977075Y-112635097D01*
X169071378Y-112407429D01*
X169208285Y-112202534D01*
X169208287Y-112202531D01*
X169382531Y-112028287D01*
X169383458Y-112027668D01*
X169587429Y-111891378D01*
X169815097Y-111797075D01*
X169996364Y-111761019D01*
X170056786Y-111749000D01*
X170303214Y-111749000D01*
X170363636Y-111761019D01*
X170363636Y-111761019D01*
G37*
G36*
X109542143Y-112343243D02*
X109690103Y-112404531D01*
X109823259Y-112493503D01*
X109936499Y-112606743D01*
X110025471Y-112739899D01*
X110086759Y-112887859D01*
X110118001Y-113044926D01*
X110118001Y-113205076D01*
X110086759Y-113362143D01*
X110025471Y-113510103D01*
X109936499Y-113643259D01*
X109823259Y-113756499D01*
X109690103Y-113845471D01*
X109542143Y-113906759D01*
X109385076Y-113938001D01*
X109224926Y-113938001D01*
X109067859Y-113906759D01*
X108919899Y-113845471D01*
X108786743Y-113756499D01*
X108673503Y-113643259D01*
X108584531Y-113510103D01*
X108523243Y-113362143D01*
X108492001Y-113205076D01*
X108492001Y-113044926D01*
X108523243Y-112887859D01*
X108584531Y-112739899D01*
X108673503Y-112606743D01*
X108786743Y-112493503D01*
X108919899Y-112404531D01*
X109067859Y-112343243D01*
X109224926Y-112312001D01*
X109385076Y-112312001D01*
X109542143Y-112343243D01*
X109542143Y-112343243D01*
G37*
G36*
X137482143Y-112343243D02*
X137630103Y-112404531D01*
X137763259Y-112493503D01*
X137876499Y-112606743D01*
X137965471Y-112739899D01*
X138026759Y-112887859D01*
X138058001Y-113044926D01*
X138058001Y-113205076D01*
X138026759Y-113362143D01*
X137965471Y-113510103D01*
X137876499Y-113643259D01*
X137763259Y-113756499D01*
X137630103Y-113845471D01*
X137482143Y-113906759D01*
X137325076Y-113938001D01*
X137164926Y-113938001D01*
X137007859Y-113906759D01*
X136859899Y-113845471D01*
X136726743Y-113756499D01*
X136613503Y-113643259D01*
X136524531Y-113510103D01*
X136463243Y-113362143D01*
X136432001Y-113205076D01*
X136432001Y-113044926D01*
X136463243Y-112887859D01*
X136524531Y-112739899D01*
X136613503Y-112606743D01*
X136726743Y-112493503D01*
X136859899Y-112404531D01*
X137007859Y-112343243D01*
X137164926Y-112312001D01*
X137325076Y-112312001D01*
X137482143Y-112343243D01*
X137482143Y-112343243D01*
G37*
G36*
X156988604Y-110988347D02*
X157025145Y-110999432D01*
X157058820Y-111017431D01*
X157088341Y-111041659D01*
X157112569Y-111071180D01*
X157130568Y-111104855D01*
X157141653Y-111141396D01*
X157146000Y-111185538D01*
X157146000Y-112634462D01*
X157141653Y-112678604D01*
X157130568Y-112715145D01*
X157112569Y-112748820D01*
X157088341Y-112778341D01*
X157058820Y-112802569D01*
X157025145Y-112820568D01*
X156988604Y-112831653D01*
X156944462Y-112836000D01*
X155995538Y-112836000D01*
X155951396Y-112831653D01*
X155914855Y-112820568D01*
X155881180Y-112802569D01*
X155851659Y-112778341D01*
X155827431Y-112748820D01*
X155809432Y-112715145D01*
X155798347Y-112678604D01*
X155794000Y-112634462D01*
X155794000Y-111185538D01*
X155798347Y-111141396D01*
X155809432Y-111104855D01*
X155827431Y-111071180D01*
X155851659Y-111041659D01*
X155881180Y-111017431D01*
X155914855Y-110999432D01*
X155951396Y-110988347D01*
X155995538Y-110984000D01*
X156944462Y-110984000D01*
X156988604Y-110988347D01*
X156988604Y-110988347D01*
G37*
G36*
X154188604Y-110988347D02*
X154225145Y-110999432D01*
X154258820Y-111017431D01*
X154288341Y-111041659D01*
X154312569Y-111071180D01*
X154330568Y-111104855D01*
X154341653Y-111141396D01*
X154346000Y-111185538D01*
X154346000Y-112634462D01*
X154341653Y-112678604D01*
X154330568Y-112715145D01*
X154312569Y-112748820D01*
X154288341Y-112778341D01*
X154258820Y-112802569D01*
X154225145Y-112820568D01*
X154188604Y-112831653D01*
X154144462Y-112836000D01*
X153195538Y-112836000D01*
X153151396Y-112831653D01*
X153114855Y-112820568D01*
X153081180Y-112802569D01*
X153051659Y-112778341D01*
X153027431Y-112748820D01*
X153009432Y-112715145D01*
X152998347Y-112678604D01*
X152994000Y-112634462D01*
X152994000Y-111185538D01*
X152998347Y-111141396D01*
X153009432Y-111104855D01*
X153027431Y-111071180D01*
X153051659Y-111041659D01*
X153081180Y-111017431D01*
X153114855Y-110999432D01*
X153151396Y-110988347D01*
X153195538Y-110984000D01*
X154144462Y-110984000D01*
X154188604Y-110988347D01*
X154188604Y-110988347D01*
G37*
G36*
X150411000Y-112481000D02*
X149309000Y-112481000D01*
X149309000Y-111379000D01*
X150411000Y-111379000D01*
X150411000Y-112481000D01*
X150411000Y-112481000D01*
G37*
G36*
X160571000Y-112461000D02*
X159469000Y-112461000D01*
X159469000Y-111359000D01*
X160571000Y-111359000D01*
X160571000Y-112461000D01*
X160571000Y-112461000D01*
G37*
G36*
X146818604Y-111108347D02*
X146855145Y-111119432D01*
X146888820Y-111137431D01*
X146918341Y-111161659D01*
X146942569Y-111191180D01*
X146960568Y-111224855D01*
X146971653Y-111261396D01*
X146976000Y-111305538D01*
X146976000Y-112254462D01*
X146971653Y-112298604D01*
X146960568Y-112335145D01*
X146942569Y-112368820D01*
X146918341Y-112398341D01*
X146888820Y-112422569D01*
X146855145Y-112440568D01*
X146818604Y-112451653D01*
X146774462Y-112456000D01*
X145325538Y-112456000D01*
X145281396Y-112451653D01*
X145244855Y-112440568D01*
X145211180Y-112422569D01*
X145181659Y-112398341D01*
X145157431Y-112368820D01*
X145139432Y-112335145D01*
X145128347Y-112298604D01*
X145124000Y-112254462D01*
X145124000Y-111305538D01*
X145128347Y-111261396D01*
X145139432Y-111224855D01*
X145157431Y-111191180D01*
X145181659Y-111161659D01*
X145211180Y-111137431D01*
X145244855Y-111119432D01*
X145281396Y-111108347D01*
X145325538Y-111104000D01*
X146774462Y-111104000D01*
X146818604Y-111108347D01*
X146818604Y-111108347D01*
G37*
G36*
X143008604Y-110978347D02*
X143045145Y-110989432D01*
X143078820Y-111007431D01*
X143108341Y-111031659D01*
X143132569Y-111061180D01*
X143150568Y-111094855D01*
X143161653Y-111131396D01*
X143166000Y-111175538D01*
X143166000Y-112124462D01*
X143161653Y-112168604D01*
X143150568Y-112205145D01*
X143132569Y-112238820D01*
X143108341Y-112268341D01*
X143078820Y-112292569D01*
X143045145Y-112310568D01*
X143008604Y-112321653D01*
X142964462Y-112326000D01*
X141515538Y-112326000D01*
X141471396Y-112321653D01*
X141434855Y-112310568D01*
X141401180Y-112292569D01*
X141371659Y-112268341D01*
X141347431Y-112238820D01*
X141329432Y-112205145D01*
X141318347Y-112168604D01*
X141314000Y-112124462D01*
X141314000Y-111175538D01*
X141318347Y-111131396D01*
X141329432Y-111094855D01*
X141347431Y-111061180D01*
X141371659Y-111031659D01*
X141401180Y-111007431D01*
X141434855Y-110989432D01*
X141471396Y-110978347D01*
X141515538Y-110974000D01*
X142964462Y-110974000D01*
X143008604Y-110978347D01*
X143008604Y-110978347D01*
G37*
G36*
X101858604Y-109568347D02*
X101895145Y-109579432D01*
X101928820Y-109597431D01*
X101958341Y-109621659D01*
X101982569Y-109651180D01*
X102000568Y-109684855D01*
X102011653Y-109721396D01*
X102016000Y-109765538D01*
X102016000Y-111214462D01*
X102011653Y-111258604D01*
X102000568Y-111295145D01*
X101982569Y-111328820D01*
X101958341Y-111358341D01*
X101928820Y-111382569D01*
X101895145Y-111400568D01*
X101858604Y-111411653D01*
X101814462Y-111416000D01*
X100865538Y-111416000D01*
X100821396Y-111411653D01*
X100784855Y-111400568D01*
X100751180Y-111382569D01*
X100721659Y-111358341D01*
X100697431Y-111328820D01*
X100679432Y-111295145D01*
X100668347Y-111258604D01*
X100664000Y-111214462D01*
X100664000Y-109765538D01*
X100668347Y-109721396D01*
X100679432Y-109684855D01*
X100697431Y-109651180D01*
X100721659Y-109621659D01*
X100751180Y-109597431D01*
X100784855Y-109579432D01*
X100821396Y-109568347D01*
X100865538Y-109564000D01*
X101814462Y-109564000D01*
X101858604Y-109568347D01*
X101858604Y-109568347D01*
G37*
G36*
X104658604Y-109568347D02*
X104695145Y-109579432D01*
X104728820Y-109597431D01*
X104758341Y-109621659D01*
X104782569Y-109651180D01*
X104800568Y-109684855D01*
X104811653Y-109721396D01*
X104816000Y-109765538D01*
X104816000Y-111214462D01*
X104811653Y-111258604D01*
X104800568Y-111295145D01*
X104782569Y-111328820D01*
X104758341Y-111358341D01*
X104728820Y-111382569D01*
X104695145Y-111400568D01*
X104658604Y-111411653D01*
X104614462Y-111416000D01*
X103665538Y-111416000D01*
X103621396Y-111411653D01*
X103584855Y-111400568D01*
X103551180Y-111382569D01*
X103521659Y-111358341D01*
X103497431Y-111328820D01*
X103479432Y-111295145D01*
X103468347Y-111258604D01*
X103464000Y-111214462D01*
X103464000Y-109765538D01*
X103468347Y-109721396D01*
X103479432Y-109684855D01*
X103497431Y-109651180D01*
X103521659Y-109621659D01*
X103551180Y-109597431D01*
X103584855Y-109579432D01*
X103621396Y-109568347D01*
X103665538Y-109564000D01*
X104614462Y-109564000D01*
X104658604Y-109568347D01*
X104658604Y-109568347D01*
G37*
G36*
X137482143Y-109803243D02*
X137630103Y-109864531D01*
X137763259Y-109953503D01*
X137876499Y-110066743D01*
X137965471Y-110199899D01*
X138026759Y-110347859D01*
X138058001Y-110504926D01*
X138058001Y-110665076D01*
X138026759Y-110822143D01*
X137965471Y-110970103D01*
X137925736Y-111029571D01*
X137876500Y-111103258D01*
X137763258Y-111216500D01*
X137721502Y-111244400D01*
X137630103Y-111305471D01*
X137630102Y-111305472D01*
X137630101Y-111305472D01*
X137596584Y-111319355D01*
X137482143Y-111366759D01*
X137325076Y-111398001D01*
X137164926Y-111398001D01*
X137007859Y-111366759D01*
X136893418Y-111319355D01*
X136859901Y-111305472D01*
X136859900Y-111305472D01*
X136859899Y-111305471D01*
X136768500Y-111244400D01*
X136726744Y-111216500D01*
X136613502Y-111103258D01*
X136564266Y-111029571D01*
X136524531Y-110970103D01*
X136463243Y-110822143D01*
X136432001Y-110665076D01*
X136432001Y-110504926D01*
X136463243Y-110347859D01*
X136524531Y-110199899D01*
X136613503Y-110066743D01*
X136726743Y-109953503D01*
X136859899Y-109864531D01*
X137007859Y-109803243D01*
X137164926Y-109772001D01*
X137325076Y-109772001D01*
X137482143Y-109803243D01*
X137482143Y-109803243D01*
G37*
G36*
X109542143Y-109803243D02*
X109690103Y-109864531D01*
X109823259Y-109953503D01*
X109936499Y-110066743D01*
X110025471Y-110199899D01*
X110086759Y-110347859D01*
X110118001Y-110504926D01*
X110118001Y-110665076D01*
X110086759Y-110822143D01*
X110025471Y-110970103D01*
X109985736Y-111029571D01*
X109936500Y-111103258D01*
X109823258Y-111216500D01*
X109781502Y-111244400D01*
X109690103Y-111305471D01*
X109690102Y-111305472D01*
X109690101Y-111305472D01*
X109656584Y-111319355D01*
X109542143Y-111366759D01*
X109385076Y-111398001D01*
X109224926Y-111398001D01*
X109067859Y-111366759D01*
X108953418Y-111319355D01*
X108919901Y-111305472D01*
X108919900Y-111305472D01*
X108919899Y-111305471D01*
X108828500Y-111244400D01*
X108786744Y-111216500D01*
X108673502Y-111103258D01*
X108624266Y-111029571D01*
X108584531Y-110970103D01*
X108523243Y-110822143D01*
X108492001Y-110665076D01*
X108492001Y-110504926D01*
X108523243Y-110347859D01*
X108584531Y-110199899D01*
X108673503Y-110066743D01*
X108786743Y-109953503D01*
X108919899Y-109864531D01*
X109067859Y-109803243D01*
X109224926Y-109772001D01*
X109385076Y-109772001D01*
X109542143Y-109803243D01*
X109542143Y-109803243D01*
G37*
G36*
X89163567Y-108449959D02*
X89294072Y-108475918D01*
X89539939Y-108577759D01*
X89760464Y-108725110D01*
X89761215Y-108725612D01*
X89949388Y-108913785D01*
X89949390Y-108913788D01*
X90097241Y-109135061D01*
X90199082Y-109380928D01*
X90199082Y-109380929D01*
X90251000Y-109641937D01*
X90251000Y-109908063D01*
X90241961Y-109953503D01*
X90199082Y-110169072D01*
X90097241Y-110414939D01*
X90037112Y-110504927D01*
X89949388Y-110636215D01*
X89761215Y-110824388D01*
X89761212Y-110824390D01*
X89539939Y-110972241D01*
X89294072Y-111074082D01*
X89193062Y-111094174D01*
X89033063Y-111126000D01*
X88766937Y-111126000D01*
X88606938Y-111094174D01*
X88505928Y-111074082D01*
X88260061Y-110972241D01*
X88038788Y-110824390D01*
X88038785Y-110824388D01*
X87850612Y-110636215D01*
X87762888Y-110504927D01*
X87702759Y-110414939D01*
X87600918Y-110169072D01*
X87558039Y-109953503D01*
X87549000Y-109908063D01*
X87549000Y-109641937D01*
X87600918Y-109380929D01*
X87600918Y-109380928D01*
X87702759Y-109135061D01*
X87850610Y-108913788D01*
X87850612Y-108913785D01*
X88038785Y-108725612D01*
X88039536Y-108725110D01*
X88260061Y-108577759D01*
X88505928Y-108475918D01*
X88636433Y-108449959D01*
X88766937Y-108424000D01*
X89033063Y-108424000D01*
X89163567Y-108449959D01*
X89163567Y-108449959D01*
G37*
G36*
X170363635Y-108261019D02*
X170544903Y-108297075D01*
X170772571Y-108391378D01*
X170976542Y-108527668D01*
X170977469Y-108528287D01*
X171151713Y-108702531D01*
X171151715Y-108702534D01*
X171288622Y-108907429D01*
X171382925Y-109135097D01*
X171418981Y-109316364D01*
X171431000Y-109376786D01*
X171431000Y-109623214D01*
X171427025Y-109643198D01*
X171382925Y-109864903D01*
X171288622Y-110092571D01*
X171237506Y-110169071D01*
X171151713Y-110297469D01*
X170977469Y-110471713D01*
X170977466Y-110471715D01*
X170772571Y-110608622D01*
X170544903Y-110702925D01*
X170363635Y-110738981D01*
X170303214Y-110751000D01*
X170056786Y-110751000D01*
X169996365Y-110738981D01*
X169815097Y-110702925D01*
X169587429Y-110608622D01*
X169382534Y-110471715D01*
X169382531Y-110471713D01*
X169208287Y-110297469D01*
X169122494Y-110169071D01*
X169071378Y-110092571D01*
X168977075Y-109864903D01*
X168932975Y-109643198D01*
X168929000Y-109623214D01*
X168929000Y-109376786D01*
X168941019Y-109316364D01*
X168977075Y-109135097D01*
X169071378Y-108907429D01*
X169208285Y-108702534D01*
X169208287Y-108702531D01*
X169382531Y-108528287D01*
X169383458Y-108527668D01*
X169587429Y-108391378D01*
X169815097Y-108297075D01*
X169996365Y-108261019D01*
X170056786Y-108249000D01*
X170303214Y-108249000D01*
X170363635Y-108261019D01*
X170363635Y-108261019D01*
G37*
G36*
X109542143Y-107263243D02*
X109690103Y-107324531D01*
X109706669Y-107335600D01*
X109823258Y-107413502D01*
X109936500Y-107526744D01*
X109959007Y-107560429D01*
X110025471Y-107659899D01*
X110086759Y-107807859D01*
X110118001Y-107964926D01*
X110118001Y-108125076D01*
X110086759Y-108282143D01*
X110025471Y-108430103D01*
X110011639Y-108450804D01*
X109936500Y-108563258D01*
X109823258Y-108676500D01*
X109784295Y-108702534D01*
X109690103Y-108765471D01*
X109542143Y-108826759D01*
X109385076Y-108858001D01*
X109224926Y-108858001D01*
X109067859Y-108826759D01*
X108919899Y-108765471D01*
X108825707Y-108702534D01*
X108786744Y-108676500D01*
X108673502Y-108563258D01*
X108598363Y-108450804D01*
X108584531Y-108430103D01*
X108523243Y-108282143D01*
X108492001Y-108125076D01*
X108492001Y-107964926D01*
X108523243Y-107807859D01*
X108584531Y-107659899D01*
X108650995Y-107560429D01*
X108673502Y-107526744D01*
X108786744Y-107413502D01*
X108903333Y-107335600D01*
X108919899Y-107324531D01*
X109067859Y-107263243D01*
X109224926Y-107232001D01*
X109385076Y-107232001D01*
X109542143Y-107263243D01*
X109542143Y-107263243D01*
G37*
G36*
X137482143Y-107263243D02*
X137630103Y-107324531D01*
X137646669Y-107335600D01*
X137763258Y-107413502D01*
X137876500Y-107526744D01*
X137899007Y-107560429D01*
X137965471Y-107659899D01*
X138026759Y-107807859D01*
X138058001Y-107964926D01*
X138058001Y-108125076D01*
X138026759Y-108282143D01*
X137965471Y-108430103D01*
X137951639Y-108450804D01*
X137876500Y-108563258D01*
X137763258Y-108676500D01*
X137724295Y-108702534D01*
X137630103Y-108765471D01*
X137482143Y-108826759D01*
X137325076Y-108858001D01*
X137164926Y-108858001D01*
X137007859Y-108826759D01*
X136859899Y-108765471D01*
X136765707Y-108702534D01*
X136726744Y-108676500D01*
X136613502Y-108563258D01*
X136538363Y-108450804D01*
X136524531Y-108430103D01*
X136463243Y-108282143D01*
X136432001Y-108125076D01*
X136432001Y-107964926D01*
X136463243Y-107807859D01*
X136524531Y-107659899D01*
X136590995Y-107560429D01*
X136613502Y-107526744D01*
X136726744Y-107413502D01*
X136843333Y-107335600D01*
X136859899Y-107324531D01*
X137007859Y-107263243D01*
X137164926Y-107232001D01*
X137325076Y-107232001D01*
X137482143Y-107263243D01*
X137482143Y-107263243D01*
G37*
G36*
X146818604Y-107108347D02*
X146855145Y-107119432D01*
X146888820Y-107137431D01*
X146918341Y-107161659D01*
X146942569Y-107191180D01*
X146960568Y-107224855D01*
X146971653Y-107261396D01*
X146976000Y-107305538D01*
X146976000Y-108254462D01*
X146971653Y-108298604D01*
X146960568Y-108335145D01*
X146942569Y-108368820D01*
X146918341Y-108398341D01*
X146888820Y-108422569D01*
X146855145Y-108440568D01*
X146818604Y-108451653D01*
X146774462Y-108456000D01*
X145325538Y-108456000D01*
X145281396Y-108451653D01*
X145244855Y-108440568D01*
X145211180Y-108422569D01*
X145181659Y-108398341D01*
X145157431Y-108368820D01*
X145139432Y-108335145D01*
X145128347Y-108298604D01*
X145124000Y-108254462D01*
X145124000Y-107305538D01*
X145128347Y-107261396D01*
X145139432Y-107224855D01*
X145157431Y-107191180D01*
X145181659Y-107161659D01*
X145211180Y-107137431D01*
X145244855Y-107119432D01*
X145281396Y-107108347D01*
X145325538Y-107104000D01*
X146774462Y-107104000D01*
X146818604Y-107108347D01*
X146818604Y-107108347D01*
G37*
G36*
X143008604Y-106848347D02*
X143045145Y-106859432D01*
X143078820Y-106877431D01*
X143108341Y-106901659D01*
X143132569Y-106931180D01*
X143150568Y-106964855D01*
X143161653Y-107001396D01*
X143166000Y-107045538D01*
X143166000Y-107994462D01*
X143161653Y-108038604D01*
X143150568Y-108075145D01*
X143132569Y-108108820D01*
X143108341Y-108138341D01*
X143078820Y-108162569D01*
X143045145Y-108180568D01*
X143008604Y-108191653D01*
X142964462Y-108196000D01*
X141515538Y-108196000D01*
X141471396Y-108191653D01*
X141434855Y-108180568D01*
X141401180Y-108162569D01*
X141371659Y-108138341D01*
X141347431Y-108108820D01*
X141329432Y-108075145D01*
X141318347Y-108038604D01*
X141314000Y-107994462D01*
X141314000Y-107045538D01*
X141318347Y-107001396D01*
X141329432Y-106964855D01*
X141347431Y-106931180D01*
X141371659Y-106901659D01*
X141401180Y-106877431D01*
X141434855Y-106859432D01*
X141471396Y-106848347D01*
X141515538Y-106844000D01*
X142964462Y-106844000D01*
X143008604Y-106848347D01*
X143008604Y-106848347D01*
G37*
G36*
X150411000Y-108051000D02*
X149309000Y-108051000D01*
X149309000Y-106949000D01*
X150411000Y-106949000D01*
X150411000Y-108051000D01*
X150411000Y-108051000D01*
G37*
G36*
X160571000Y-108031000D02*
X159469000Y-108031000D01*
X159469000Y-106929000D01*
X160571000Y-106929000D01*
X160571000Y-108031000D01*
X160571000Y-108031000D01*
G37*
G36*
X104658604Y-105758347D02*
X104695145Y-105769432D01*
X104728820Y-105787431D01*
X104758341Y-105811659D01*
X104782569Y-105841180D01*
X104800568Y-105874855D01*
X104811653Y-105911396D01*
X104816000Y-105955538D01*
X104816000Y-107404462D01*
X104811653Y-107448604D01*
X104800568Y-107485145D01*
X104782569Y-107518820D01*
X104758341Y-107548341D01*
X104728820Y-107572569D01*
X104695145Y-107590568D01*
X104658604Y-107601653D01*
X104614462Y-107606000D01*
X103665538Y-107606000D01*
X103621396Y-107601653D01*
X103584855Y-107590568D01*
X103551180Y-107572569D01*
X103521659Y-107548341D01*
X103497431Y-107518820D01*
X103479432Y-107485145D01*
X103468347Y-107448604D01*
X103464000Y-107404462D01*
X103464000Y-105955538D01*
X103468347Y-105911396D01*
X103479432Y-105874855D01*
X103497431Y-105841180D01*
X103521659Y-105811659D01*
X103551180Y-105787431D01*
X103584855Y-105769432D01*
X103621396Y-105758347D01*
X103665538Y-105754000D01*
X104614462Y-105754000D01*
X104658604Y-105758347D01*
X104658604Y-105758347D01*
G37*
G36*
X101858604Y-105758347D02*
X101895145Y-105769432D01*
X101928820Y-105787431D01*
X101958341Y-105811659D01*
X101982569Y-105841180D01*
X102000568Y-105874855D01*
X102011653Y-105911396D01*
X102016000Y-105955538D01*
X102016000Y-107404462D01*
X102011653Y-107448604D01*
X102000568Y-107485145D01*
X101982569Y-107518820D01*
X101958341Y-107548341D01*
X101928820Y-107572569D01*
X101895145Y-107590568D01*
X101858604Y-107601653D01*
X101814462Y-107606000D01*
X100865538Y-107606000D01*
X100821396Y-107601653D01*
X100784855Y-107590568D01*
X100751180Y-107572569D01*
X100721659Y-107548341D01*
X100697431Y-107518820D01*
X100679432Y-107485145D01*
X100668347Y-107448604D01*
X100664000Y-107404462D01*
X100664000Y-105955538D01*
X100668347Y-105911396D01*
X100679432Y-105874855D01*
X100697431Y-105841180D01*
X100721659Y-105811659D01*
X100751180Y-105787431D01*
X100784855Y-105769432D01*
X100821396Y-105758347D01*
X100865538Y-105754000D01*
X101814462Y-105754000D01*
X101858604Y-105758347D01*
X101858604Y-105758347D01*
G37*
G36*
X170363635Y-104761019D02*
X170544903Y-104797075D01*
X170772571Y-104891378D01*
X170976542Y-105027668D01*
X170977469Y-105028287D01*
X171151713Y-105202531D01*
X171151715Y-105202534D01*
X171288622Y-105407429D01*
X171382925Y-105635097D01*
X171431000Y-105876787D01*
X171431000Y-106123213D01*
X171382925Y-106364903D01*
X171288622Y-106592571D01*
X171152332Y-106796542D01*
X171151713Y-106797469D01*
X170977469Y-106971713D01*
X170977466Y-106971715D01*
X170772571Y-107108622D01*
X170544903Y-107202925D01*
X170363636Y-107238981D01*
X170303214Y-107251000D01*
X170056786Y-107251000D01*
X169996364Y-107238981D01*
X169815097Y-107202925D01*
X169587429Y-107108622D01*
X169382534Y-106971715D01*
X169382531Y-106971713D01*
X169208287Y-106797469D01*
X169207668Y-106796542D01*
X169071378Y-106592571D01*
X168977075Y-106364903D01*
X168929000Y-106123213D01*
X168929000Y-105876787D01*
X168977075Y-105635097D01*
X169071378Y-105407429D01*
X169208285Y-105202534D01*
X169208287Y-105202531D01*
X169382531Y-105028287D01*
X169383458Y-105027668D01*
X169587429Y-104891378D01*
X169815097Y-104797075D01*
X169996365Y-104761019D01*
X170056786Y-104749000D01*
X170303214Y-104749000D01*
X170363635Y-104761019D01*
X170363635Y-104761019D01*
G37*
G36*
X137482143Y-104723243D02*
X137630103Y-104784531D01*
X137648876Y-104797075D01*
X137763258Y-104873502D01*
X137876500Y-104986744D01*
X137965472Y-105119901D01*
X137979355Y-105153418D01*
X138026759Y-105267859D01*
X138058001Y-105424926D01*
X138058001Y-105585076D01*
X138026759Y-105742143D01*
X137965471Y-105890103D01*
X137876499Y-106023259D01*
X137763259Y-106136499D01*
X137630103Y-106225471D01*
X137482143Y-106286759D01*
X137325076Y-106318001D01*
X137164926Y-106318001D01*
X137007859Y-106286759D01*
X136859899Y-106225471D01*
X136726743Y-106136499D01*
X136613503Y-106023259D01*
X136524531Y-105890103D01*
X136463243Y-105742143D01*
X136432001Y-105585076D01*
X136432001Y-105424926D01*
X136463243Y-105267859D01*
X136510647Y-105153418D01*
X136524530Y-105119901D01*
X136613502Y-104986744D01*
X136726744Y-104873502D01*
X136841126Y-104797075D01*
X136859899Y-104784531D01*
X137007859Y-104723243D01*
X137164926Y-104692001D01*
X137325076Y-104692001D01*
X137482143Y-104723243D01*
X137482143Y-104723243D01*
G37*
G36*
X109542143Y-104723243D02*
X109690103Y-104784531D01*
X109708876Y-104797075D01*
X109823258Y-104873502D01*
X109936500Y-104986744D01*
X110025472Y-105119901D01*
X110039355Y-105153418D01*
X110086759Y-105267859D01*
X110118001Y-105424926D01*
X110118001Y-105585076D01*
X110086759Y-105742143D01*
X110025471Y-105890103D01*
X109936499Y-106023259D01*
X109823259Y-106136499D01*
X109690103Y-106225471D01*
X109542143Y-106286759D01*
X109385076Y-106318001D01*
X109224926Y-106318001D01*
X109067859Y-106286759D01*
X108919899Y-106225471D01*
X108786743Y-106136499D01*
X108673503Y-106023259D01*
X108584531Y-105890103D01*
X108523243Y-105742143D01*
X108492001Y-105585076D01*
X108492001Y-105424926D01*
X108523243Y-105267859D01*
X108570647Y-105153418D01*
X108584530Y-105119901D01*
X108673502Y-104986744D01*
X108786744Y-104873502D01*
X108901126Y-104797075D01*
X108919899Y-104784531D01*
X109067859Y-104723243D01*
X109224926Y-104692001D01*
X109385076Y-104692001D01*
X109542143Y-104723243D01*
X109542143Y-104723243D01*
G37*
G36*
X90251000Y-106126000D02*
X87549000Y-106126000D01*
X87549000Y-103424000D01*
X90251000Y-103424000D01*
X90251000Y-106126000D01*
X90251000Y-106126000D01*
G37*
G36*
X156858604Y-104058347D02*
X156895145Y-104069432D01*
X156928820Y-104087431D01*
X156958341Y-104111659D01*
X156982569Y-104141180D01*
X157000568Y-104174855D01*
X157011653Y-104211396D01*
X157016000Y-104255538D01*
X157016000Y-105704462D01*
X157011653Y-105748604D01*
X157000568Y-105785145D01*
X156982569Y-105818820D01*
X156958341Y-105848341D01*
X156928820Y-105872569D01*
X156895145Y-105890568D01*
X156858604Y-105901653D01*
X156814462Y-105906000D01*
X155865538Y-105906000D01*
X155821396Y-105901653D01*
X155784855Y-105890568D01*
X155751180Y-105872569D01*
X155721659Y-105848341D01*
X155697431Y-105818820D01*
X155679432Y-105785145D01*
X155668347Y-105748604D01*
X155664000Y-105704462D01*
X155664000Y-104255538D01*
X155668347Y-104211396D01*
X155679432Y-104174855D01*
X155697431Y-104141180D01*
X155721659Y-104111659D01*
X155751180Y-104087431D01*
X155784855Y-104069432D01*
X155821396Y-104058347D01*
X155865538Y-104054000D01*
X156814462Y-104054000D01*
X156858604Y-104058347D01*
X156858604Y-104058347D01*
G37*
G36*
X154058604Y-104058347D02*
X154095145Y-104069432D01*
X154128820Y-104087431D01*
X154158341Y-104111659D01*
X154182569Y-104141180D01*
X154200568Y-104174855D01*
X154211653Y-104211396D01*
X154216000Y-104255538D01*
X154216000Y-105704462D01*
X154211653Y-105748604D01*
X154200568Y-105785145D01*
X154182569Y-105818820D01*
X154158341Y-105848341D01*
X154128820Y-105872569D01*
X154095145Y-105890568D01*
X154058604Y-105901653D01*
X154014462Y-105906000D01*
X153065538Y-105906000D01*
X153021396Y-105901653D01*
X152984855Y-105890568D01*
X152951180Y-105872569D01*
X152921659Y-105848341D01*
X152897431Y-105818820D01*
X152879432Y-105785145D01*
X152868347Y-105748604D01*
X152864000Y-105704462D01*
X152864000Y-104255538D01*
X152868347Y-104211396D01*
X152879432Y-104174855D01*
X152897431Y-104141180D01*
X152921659Y-104111659D01*
X152951180Y-104087431D01*
X152984855Y-104069432D01*
X153021396Y-104058347D01*
X153065538Y-104054000D01*
X154014462Y-104054000D01*
X154058604Y-104058347D01*
X154058604Y-104058347D01*
G37*
G36*
X146818604Y-104308347D02*
X146855145Y-104319432D01*
X146888820Y-104337431D01*
X146918341Y-104361659D01*
X146942569Y-104391180D01*
X146960568Y-104424855D01*
X146971653Y-104461396D01*
X146976000Y-104505538D01*
X146976000Y-105454462D01*
X146971653Y-105498604D01*
X146960568Y-105535145D01*
X146942569Y-105568820D01*
X146918341Y-105598341D01*
X146888820Y-105622569D01*
X146855145Y-105640568D01*
X146818604Y-105651653D01*
X146774462Y-105656000D01*
X145325538Y-105656000D01*
X145281396Y-105651653D01*
X145244855Y-105640568D01*
X145211180Y-105622569D01*
X145181659Y-105598341D01*
X145157431Y-105568820D01*
X145139432Y-105535145D01*
X145128347Y-105498604D01*
X145124000Y-105454462D01*
X145124000Y-104505538D01*
X145128347Y-104461396D01*
X145139432Y-104424855D01*
X145157431Y-104391180D01*
X145181659Y-104361659D01*
X145211180Y-104337431D01*
X145244855Y-104319432D01*
X145281396Y-104308347D01*
X145325538Y-104304000D01*
X146774462Y-104304000D01*
X146818604Y-104308347D01*
X146818604Y-104308347D01*
G37*
G36*
X150411000Y-105551000D02*
X149309000Y-105551000D01*
X149309000Y-104449000D01*
X150411000Y-104449000D01*
X150411000Y-105551000D01*
X150411000Y-105551000D01*
G37*
G36*
X160571000Y-105531000D02*
X159469000Y-105531000D01*
X159469000Y-104429000D01*
X160571000Y-104429000D01*
X160571000Y-105531000D01*
X160571000Y-105531000D01*
G37*
G36*
X143008604Y-104048347D02*
X143045145Y-104059432D01*
X143078820Y-104077431D01*
X143108341Y-104101659D01*
X143132569Y-104131180D01*
X143150568Y-104164855D01*
X143161653Y-104201396D01*
X143166000Y-104245538D01*
X143166000Y-105194462D01*
X143161653Y-105238604D01*
X143150568Y-105275145D01*
X143132569Y-105308820D01*
X143108341Y-105338341D01*
X143078820Y-105362569D01*
X143045145Y-105380568D01*
X143008604Y-105391653D01*
X142964462Y-105396000D01*
X141515538Y-105396000D01*
X141471396Y-105391653D01*
X141434855Y-105380568D01*
X141401180Y-105362569D01*
X141371659Y-105338341D01*
X141347431Y-105308820D01*
X141329432Y-105275145D01*
X141318347Y-105238604D01*
X141314000Y-105194462D01*
X141314000Y-104245538D01*
X141318347Y-104201396D01*
X141329432Y-104164855D01*
X141347431Y-104131180D01*
X141371659Y-104101659D01*
X141401180Y-104077431D01*
X141434855Y-104059432D01*
X141471396Y-104048347D01*
X141515538Y-104044000D01*
X142964462Y-104044000D01*
X143008604Y-104048347D01*
X143008604Y-104048347D01*
G37*
G36*
X137482143Y-102183243D02*
X137630103Y-102244531D01*
X137763259Y-102333503D01*
X137876499Y-102446743D01*
X137965471Y-102579899D01*
X138026759Y-102727859D01*
X138058001Y-102884926D01*
X138058001Y-103045076D01*
X138026759Y-103202143D01*
X137987274Y-103297466D01*
X137965472Y-103350101D01*
X137876500Y-103483258D01*
X137763258Y-103596500D01*
X137745116Y-103608622D01*
X137630103Y-103685471D01*
X137482143Y-103746759D01*
X137325076Y-103778001D01*
X137164926Y-103778001D01*
X137007859Y-103746759D01*
X136859899Y-103685471D01*
X136744886Y-103608622D01*
X136726744Y-103596500D01*
X136613502Y-103483258D01*
X136524530Y-103350101D01*
X136502728Y-103297466D01*
X136463243Y-103202143D01*
X136432001Y-103045076D01*
X136432001Y-102884926D01*
X136463243Y-102727859D01*
X136524531Y-102579899D01*
X136613503Y-102446743D01*
X136726743Y-102333503D01*
X136859899Y-102244531D01*
X137007859Y-102183243D01*
X137164926Y-102152001D01*
X137325076Y-102152001D01*
X137482143Y-102183243D01*
X137482143Y-102183243D01*
G37*
G36*
X109542143Y-102183243D02*
X109690103Y-102244531D01*
X109823259Y-102333503D01*
X109936499Y-102446743D01*
X110025471Y-102579899D01*
X110086759Y-102727859D01*
X110118001Y-102884926D01*
X110118001Y-103045076D01*
X110086759Y-103202143D01*
X110047274Y-103297466D01*
X110025472Y-103350101D01*
X109936500Y-103483258D01*
X109823258Y-103596500D01*
X109805116Y-103608622D01*
X109690103Y-103685471D01*
X109542143Y-103746759D01*
X109385076Y-103778001D01*
X109224926Y-103778001D01*
X109067859Y-103746759D01*
X108919899Y-103685471D01*
X108804886Y-103608622D01*
X108786744Y-103596500D01*
X108673502Y-103483258D01*
X108584530Y-103350101D01*
X108562728Y-103297466D01*
X108523243Y-103202143D01*
X108492001Y-103045076D01*
X108492001Y-102884926D01*
X108523243Y-102727859D01*
X108584531Y-102579899D01*
X108673503Y-102446743D01*
X108786743Y-102333503D01*
X108919899Y-102244531D01*
X109067859Y-102183243D01*
X109224926Y-102152001D01*
X109385076Y-102152001D01*
X109542143Y-102183243D01*
X109542143Y-102183243D01*
G37*
G36*
X170346227Y-101257556D02*
X170544903Y-101297075D01*
X170772571Y-101391378D01*
X170940621Y-101503666D01*
X170977469Y-101528287D01*
X171151713Y-101702531D01*
X171151715Y-101702534D01*
X171288622Y-101907429D01*
X171382925Y-102135097D01*
X171431000Y-102376787D01*
X171431000Y-102623213D01*
X171382925Y-102864903D01*
X171288622Y-103092571D01*
X171215408Y-103202143D01*
X171151713Y-103297469D01*
X170977469Y-103471713D01*
X170977466Y-103471715D01*
X170772571Y-103608622D01*
X170544903Y-103702925D01*
X170363636Y-103738981D01*
X170303214Y-103751000D01*
X170056786Y-103751000D01*
X169996365Y-103738981D01*
X169815097Y-103702925D01*
X169587429Y-103608622D01*
X169382534Y-103471715D01*
X169382531Y-103471713D01*
X169208287Y-103297469D01*
X169144592Y-103202143D01*
X169071378Y-103092571D01*
X168977075Y-102864903D01*
X168929000Y-102623213D01*
X168929000Y-102376787D01*
X168977075Y-102135097D01*
X169071378Y-101907429D01*
X169208285Y-101702534D01*
X169208287Y-101702531D01*
X169382531Y-101528287D01*
X169419379Y-101503666D01*
X169587429Y-101391378D01*
X169815097Y-101297075D01*
X170013773Y-101257556D01*
X170056786Y-101249000D01*
X170303214Y-101249000D01*
X170346227Y-101257556D01*
X170346227Y-101257556D01*
G37*
G36*
X102792416Y-99918334D02*
X102900992Y-99951271D01*
X103001057Y-100004756D01*
X103088764Y-100076736D01*
X103151874Y-100153635D01*
X103169201Y-100170962D01*
X103189576Y-100184576D01*
X103212215Y-100193954D01*
X103236248Y-100198734D01*
X103260752Y-100198734D01*
X103284786Y-100193953D01*
X103307425Y-100184576D01*
X103327799Y-100170962D01*
X103345126Y-100153635D01*
X103358740Y-100133260D01*
X103368118Y-100110621D01*
X103373500Y-100074336D01*
X103373500Y-99910000D01*
X104525500Y-99910000D01*
X104525500Y-101512000D01*
X103373500Y-101512000D01*
X103373500Y-101347663D01*
X103371098Y-101323277D01*
X103363985Y-101299828D01*
X103352434Y-101278217D01*
X103336888Y-101259275D01*
X103317946Y-101243729D01*
X103296335Y-101232178D01*
X103272886Y-101225065D01*
X103248500Y-101222663D01*
X103224114Y-101225065D01*
X103200665Y-101232178D01*
X103179054Y-101243729D01*
X103151877Y-101268361D01*
X103088764Y-101345264D01*
X103001056Y-101417244D01*
X102900991Y-101470729D01*
X102792415Y-101503666D01*
X102679500Y-101514787D01*
X102566584Y-101503666D01*
X102458008Y-101470729D01*
X102357943Y-101417244D01*
X102270236Y-101345264D01*
X102198256Y-101257556D01*
X102154740Y-101176142D01*
X102141127Y-101155767D01*
X102123799Y-101138440D01*
X102103425Y-101124826D01*
X102080786Y-101115449D01*
X102056753Y-101110668D01*
X102032248Y-101110668D01*
X102008215Y-101115448D01*
X101985576Y-101124826D01*
X101965201Y-101138439D01*
X101947874Y-101155767D01*
X101934267Y-101176131D01*
X101890744Y-101257557D01*
X101818764Y-101345264D01*
X101731056Y-101417244D01*
X101630991Y-101470729D01*
X101522415Y-101503666D01*
X101409500Y-101514787D01*
X101296584Y-101503666D01*
X101188008Y-101470729D01*
X101087943Y-101417244D01*
X101000236Y-101345264D01*
X100928256Y-101257556D01*
X100874771Y-101157491D01*
X100841834Y-101048915D01*
X100833500Y-100964297D01*
X100833500Y-100457702D01*
X100841834Y-100373084D01*
X100874771Y-100264508D01*
X100912483Y-100193954D01*
X100928255Y-100164446D01*
X100953849Y-100133260D01*
X101000237Y-100076736D01*
X101045123Y-100039899D01*
X101087944Y-100004756D01*
X101188009Y-99951271D01*
X101296585Y-99918334D01*
X101409500Y-99907213D01*
X101522416Y-99918334D01*
X101630992Y-99951271D01*
X101731057Y-100004756D01*
X101818764Y-100076736D01*
X101890744Y-100164443D01*
X101934260Y-100245857D01*
X101947873Y-100266232D01*
X101965201Y-100283559D01*
X101985575Y-100297173D01*
X102008214Y-100306550D01*
X102032247Y-100311331D01*
X102056752Y-100311331D01*
X102080785Y-100306551D01*
X102103424Y-100297173D01*
X102123799Y-100283560D01*
X102141126Y-100266232D01*
X102154740Y-100245857D01*
X102198255Y-100164446D01*
X102223849Y-100133260D01*
X102270237Y-100076736D01*
X102315123Y-100039899D01*
X102357944Y-100004756D01*
X102458009Y-99951271D01*
X102566585Y-99918334D01*
X102679500Y-99907213D01*
X102792416Y-99918334D01*
X102792416Y-99918334D01*
G37*
G36*
X137482143Y-99643243D02*
X137630103Y-99704531D01*
X137697131Y-99749318D01*
X137763258Y-99793502D01*
X137876500Y-99906744D01*
X137884244Y-99918334D01*
X137965471Y-100039899D01*
X138026759Y-100187859D01*
X138058001Y-100344926D01*
X138058001Y-100505076D01*
X138026759Y-100662143D01*
X137965471Y-100810103D01*
X137876499Y-100943259D01*
X137763259Y-101056499D01*
X137630103Y-101145471D01*
X137482143Y-101206759D01*
X137325076Y-101238001D01*
X137164926Y-101238001D01*
X137007859Y-101206759D01*
X136859899Y-101145471D01*
X136726743Y-101056499D01*
X136613503Y-100943259D01*
X136524531Y-100810103D01*
X136463243Y-100662143D01*
X136432001Y-100505076D01*
X136432001Y-100344926D01*
X136463243Y-100187859D01*
X136524531Y-100039899D01*
X136605758Y-99918334D01*
X136613502Y-99906744D01*
X136726744Y-99793502D01*
X136792871Y-99749318D01*
X136859899Y-99704531D01*
X137007859Y-99643243D01*
X137164926Y-99612001D01*
X137325076Y-99612001D01*
X137482143Y-99643243D01*
X137482143Y-99643243D01*
G37*
G36*
X109542143Y-99643243D02*
X109690103Y-99704531D01*
X109757131Y-99749318D01*
X109823258Y-99793502D01*
X109936500Y-99906744D01*
X109944244Y-99918334D01*
X110025471Y-100039899D01*
X110086759Y-100187859D01*
X110118001Y-100344926D01*
X110118001Y-100505076D01*
X110086759Y-100662143D01*
X110025471Y-100810103D01*
X109936499Y-100943259D01*
X109823259Y-101056499D01*
X109690103Y-101145471D01*
X109542143Y-101206759D01*
X109385076Y-101238001D01*
X109224926Y-101238001D01*
X109067859Y-101206759D01*
X108919899Y-101145471D01*
X108786743Y-101056499D01*
X108673503Y-100943259D01*
X108584531Y-100810103D01*
X108523243Y-100662143D01*
X108492001Y-100505076D01*
X108492001Y-100344926D01*
X108523243Y-100187859D01*
X108584531Y-100039899D01*
X108665758Y-99918334D01*
X108673502Y-99906744D01*
X108786744Y-99793502D01*
X108852871Y-99749318D01*
X108919899Y-99704531D01*
X109067859Y-99643243D01*
X109224926Y-99612001D01*
X109385076Y-99612001D01*
X109542143Y-99643243D01*
X109542143Y-99643243D01*
G37*
G36*
X146818604Y-99358347D02*
X146855145Y-99369432D01*
X146888820Y-99387431D01*
X146918341Y-99411659D01*
X146942569Y-99441180D01*
X146960568Y-99474855D01*
X146971653Y-99511396D01*
X146976000Y-99555538D01*
X146976000Y-100504462D01*
X146971653Y-100548604D01*
X146960568Y-100585145D01*
X146942569Y-100618820D01*
X146918341Y-100648341D01*
X146888820Y-100672569D01*
X146855145Y-100690568D01*
X146818604Y-100701653D01*
X146774462Y-100706000D01*
X145325538Y-100706000D01*
X145281396Y-100701653D01*
X145244855Y-100690568D01*
X145211180Y-100672569D01*
X145181659Y-100648341D01*
X145157431Y-100618820D01*
X145139432Y-100585145D01*
X145128347Y-100548604D01*
X145124000Y-100504462D01*
X145124000Y-99555538D01*
X145128347Y-99511396D01*
X145139432Y-99474855D01*
X145157431Y-99441180D01*
X145181659Y-99411659D01*
X145211180Y-99387431D01*
X145244855Y-99369432D01*
X145281396Y-99358347D01*
X145325538Y-99354000D01*
X146774462Y-99354000D01*
X146818604Y-99358347D01*
X146818604Y-99358347D01*
G37*
G36*
X143008604Y-99228347D02*
X143045145Y-99239432D01*
X143078820Y-99257431D01*
X143108341Y-99281659D01*
X143132569Y-99311180D01*
X143150568Y-99344855D01*
X143161653Y-99381396D01*
X143166000Y-99425538D01*
X143166000Y-100374462D01*
X143161653Y-100418604D01*
X143150568Y-100455145D01*
X143132569Y-100488820D01*
X143108341Y-100518341D01*
X143078820Y-100542569D01*
X143045145Y-100560568D01*
X143008604Y-100571653D01*
X142964462Y-100576000D01*
X141515538Y-100576000D01*
X141471396Y-100571653D01*
X141434855Y-100560568D01*
X141401180Y-100542569D01*
X141371659Y-100518341D01*
X141347431Y-100488820D01*
X141329432Y-100455145D01*
X141318347Y-100418604D01*
X141314000Y-100374462D01*
X141314000Y-99425538D01*
X141318347Y-99381396D01*
X141329432Y-99344855D01*
X141347431Y-99311180D01*
X141371659Y-99281659D01*
X141401180Y-99257431D01*
X141434855Y-99239432D01*
X141471396Y-99228347D01*
X141515538Y-99224000D01*
X142964462Y-99224000D01*
X143008604Y-99228347D01*
X143008604Y-99228347D01*
G37*
G36*
X160571000Y-100411000D02*
X159469000Y-100411000D01*
X159469000Y-99309000D01*
X160571000Y-99309000D01*
X160571000Y-100411000D01*
X160571000Y-100411000D01*
G37*
G36*
X150411000Y-100261000D02*
X149309000Y-100261000D01*
X149309000Y-99159000D01*
X150411000Y-99159000D01*
X150411000Y-100261000D01*
X150411000Y-100261000D01*
G37*
G36*
X170335474Y-97755417D02*
X170544903Y-97797075D01*
X170772571Y-97891378D01*
X170976542Y-98027668D01*
X170977469Y-98028287D01*
X171151713Y-98202531D01*
X171151715Y-98202534D01*
X171288622Y-98407429D01*
X171382925Y-98635097D01*
X171431000Y-98876787D01*
X171431000Y-99123213D01*
X171382925Y-99364903D01*
X171288622Y-99592571D01*
X171213813Y-99704530D01*
X171151713Y-99797469D01*
X170977469Y-99971713D01*
X170977466Y-99971715D01*
X170772571Y-100108622D01*
X170544903Y-100202925D01*
X170363636Y-100238981D01*
X170303214Y-100251000D01*
X170056786Y-100251000D01*
X169996365Y-100238981D01*
X169815097Y-100202925D01*
X169587429Y-100108622D01*
X169382534Y-99971715D01*
X169382531Y-99971713D01*
X169208287Y-99797469D01*
X169146187Y-99704530D01*
X169071378Y-99592571D01*
X168977075Y-99364903D01*
X168929000Y-99123213D01*
X168929000Y-98876787D01*
X168977075Y-98635097D01*
X169071378Y-98407429D01*
X169208285Y-98202534D01*
X169208287Y-98202531D01*
X169382531Y-98028287D01*
X169383458Y-98027668D01*
X169587429Y-97891378D01*
X169815097Y-97797075D01*
X170024526Y-97755417D01*
X170056786Y-97749000D01*
X170303214Y-97749000D01*
X170335474Y-97755417D01*
X170335474Y-97755417D01*
G37*
G36*
X137482143Y-97103243D02*
X137630103Y-97164531D01*
X137697131Y-97209318D01*
X137763258Y-97253502D01*
X137876500Y-97366744D01*
X137965472Y-97499901D01*
X137979355Y-97533418D01*
X138026759Y-97647859D01*
X138058001Y-97804926D01*
X138058001Y-97965076D01*
X138026759Y-98122143D01*
X137965471Y-98270103D01*
X137876499Y-98403259D01*
X137763259Y-98516499D01*
X137630103Y-98605471D01*
X137482143Y-98666759D01*
X137325076Y-98698001D01*
X137164926Y-98698001D01*
X137007859Y-98666759D01*
X136859899Y-98605471D01*
X136726743Y-98516499D01*
X136613503Y-98403259D01*
X136524531Y-98270103D01*
X136463243Y-98122143D01*
X136432001Y-97965076D01*
X136432001Y-97804926D01*
X136463243Y-97647859D01*
X136510647Y-97533418D01*
X136524530Y-97499901D01*
X136613502Y-97366744D01*
X136726744Y-97253502D01*
X136792871Y-97209318D01*
X136859899Y-97164531D01*
X137007859Y-97103243D01*
X137164926Y-97072001D01*
X137325076Y-97072001D01*
X137482143Y-97103243D01*
X137482143Y-97103243D01*
G37*
G36*
X109542143Y-97103243D02*
X109690103Y-97164531D01*
X109757131Y-97209318D01*
X109823258Y-97253502D01*
X109936500Y-97366744D01*
X110025472Y-97499901D01*
X110039355Y-97533418D01*
X110086759Y-97647859D01*
X110118001Y-97804926D01*
X110118001Y-97965076D01*
X110086759Y-98122143D01*
X110025471Y-98270103D01*
X109936499Y-98403259D01*
X109823259Y-98516499D01*
X109690103Y-98605471D01*
X109542143Y-98666759D01*
X109385076Y-98698001D01*
X109224926Y-98698001D01*
X109067859Y-98666759D01*
X108919899Y-98605471D01*
X108786743Y-98516499D01*
X108673503Y-98403259D01*
X108584531Y-98270103D01*
X108523243Y-98122143D01*
X108492001Y-97965076D01*
X108492001Y-97804926D01*
X108523243Y-97647859D01*
X108570647Y-97533418D01*
X108584530Y-97499901D01*
X108673502Y-97366744D01*
X108786744Y-97253502D01*
X108852871Y-97209318D01*
X108919899Y-97164531D01*
X109067859Y-97103243D01*
X109224926Y-97072001D01*
X109385076Y-97072001D01*
X109542143Y-97103243D01*
X109542143Y-97103243D01*
G37*
G36*
X154058604Y-96438347D02*
X154095145Y-96449432D01*
X154128820Y-96467431D01*
X154158341Y-96491659D01*
X154182569Y-96521180D01*
X154200568Y-96554855D01*
X154211653Y-96591396D01*
X154216000Y-96635538D01*
X154216000Y-98084462D01*
X154211653Y-98128604D01*
X154200568Y-98165145D01*
X154182569Y-98198820D01*
X154158341Y-98228341D01*
X154128820Y-98252569D01*
X154095145Y-98270568D01*
X154058604Y-98281653D01*
X154014462Y-98286000D01*
X153065538Y-98286000D01*
X153021396Y-98281653D01*
X152984855Y-98270568D01*
X152951180Y-98252569D01*
X152921659Y-98228341D01*
X152897431Y-98198820D01*
X152879432Y-98165145D01*
X152868347Y-98128604D01*
X152864000Y-98084462D01*
X152864000Y-96635538D01*
X152868347Y-96591396D01*
X152879432Y-96554855D01*
X152897431Y-96521180D01*
X152921659Y-96491659D01*
X152951180Y-96467431D01*
X152984855Y-96449432D01*
X153021396Y-96438347D01*
X153065538Y-96434000D01*
X154014462Y-96434000D01*
X154058604Y-96438347D01*
X154058604Y-96438347D01*
G37*
G36*
X156858604Y-96438347D02*
X156895145Y-96449432D01*
X156928820Y-96467431D01*
X156958341Y-96491659D01*
X156982569Y-96521180D01*
X157000568Y-96554855D01*
X157011653Y-96591396D01*
X157016000Y-96635538D01*
X157016000Y-98084462D01*
X157011653Y-98128604D01*
X157000568Y-98165145D01*
X156982569Y-98198820D01*
X156958341Y-98228341D01*
X156928820Y-98252569D01*
X156895145Y-98270568D01*
X156858604Y-98281653D01*
X156814462Y-98286000D01*
X155865538Y-98286000D01*
X155821396Y-98281653D01*
X155784855Y-98270568D01*
X155751180Y-98252569D01*
X155721659Y-98228341D01*
X155697431Y-98198820D01*
X155679432Y-98165145D01*
X155668347Y-98128604D01*
X155664000Y-98084462D01*
X155664000Y-96635538D01*
X155668347Y-96591396D01*
X155679432Y-96554855D01*
X155697431Y-96521180D01*
X155721659Y-96491659D01*
X155751180Y-96467431D01*
X155784855Y-96449432D01*
X155821396Y-96438347D01*
X155865538Y-96434000D01*
X156814462Y-96434000D01*
X156858604Y-96438347D01*
X156858604Y-96438347D01*
G37*
G36*
X160571000Y-97911000D02*
X159469000Y-97911000D01*
X159469000Y-96809000D01*
X160571000Y-96809000D01*
X160571000Y-97911000D01*
X160571000Y-97911000D01*
G37*
G36*
X146818604Y-96558347D02*
X146855145Y-96569432D01*
X146888820Y-96587431D01*
X146918341Y-96611659D01*
X146942569Y-96641180D01*
X146960568Y-96674855D01*
X146971653Y-96711396D01*
X146976000Y-96755538D01*
X146976000Y-97704462D01*
X146971653Y-97748604D01*
X146960568Y-97785145D01*
X146942569Y-97818820D01*
X146918341Y-97848341D01*
X146888820Y-97872569D01*
X146855145Y-97890568D01*
X146818604Y-97901653D01*
X146774462Y-97906000D01*
X145325538Y-97906000D01*
X145281396Y-97901653D01*
X145244855Y-97890568D01*
X145211180Y-97872569D01*
X145181659Y-97848341D01*
X145157431Y-97818820D01*
X145139432Y-97785145D01*
X145128347Y-97748604D01*
X145124000Y-97704462D01*
X145124000Y-96755538D01*
X145128347Y-96711396D01*
X145139432Y-96674855D01*
X145157431Y-96641180D01*
X145181659Y-96611659D01*
X145211180Y-96587431D01*
X145244855Y-96569432D01*
X145281396Y-96558347D01*
X145325538Y-96554000D01*
X146774462Y-96554000D01*
X146818604Y-96558347D01*
X146818604Y-96558347D01*
G37*
G36*
X143008604Y-96428347D02*
X143045145Y-96439432D01*
X143078820Y-96457431D01*
X143108341Y-96481659D01*
X143132569Y-96511180D01*
X143150568Y-96544855D01*
X143161653Y-96581396D01*
X143166000Y-96625538D01*
X143166000Y-97574462D01*
X143161653Y-97618604D01*
X143150568Y-97655145D01*
X143132569Y-97688820D01*
X143108341Y-97718341D01*
X143078820Y-97742569D01*
X143045145Y-97760568D01*
X143008604Y-97771653D01*
X142964462Y-97776000D01*
X141515538Y-97776000D01*
X141471396Y-97771653D01*
X141434855Y-97760568D01*
X141401180Y-97742569D01*
X141371659Y-97718341D01*
X141347431Y-97688820D01*
X141329432Y-97655145D01*
X141318347Y-97618604D01*
X141314000Y-97574462D01*
X141314000Y-96625538D01*
X141318347Y-96581396D01*
X141329432Y-96544855D01*
X141347431Y-96511180D01*
X141371659Y-96481659D01*
X141401180Y-96457431D01*
X141434855Y-96439432D01*
X141471396Y-96428347D01*
X141515538Y-96424000D01*
X142964462Y-96424000D01*
X143008604Y-96428347D01*
X143008604Y-96428347D01*
G37*
G36*
X150411000Y-97761000D02*
X149309000Y-97761000D01*
X149309000Y-96659000D01*
X150411000Y-96659000D01*
X150411000Y-97761000D01*
X150411000Y-97761000D01*
G37*
G36*
X170363636Y-94261019D02*
X170544903Y-94297075D01*
X170772571Y-94391378D01*
X170976542Y-94527668D01*
X170977469Y-94528287D01*
X171151713Y-94702531D01*
X171151715Y-94702534D01*
X171288622Y-94907429D01*
X171382925Y-95135097D01*
X171408750Y-95264927D01*
X171426065Y-95351974D01*
X171431000Y-95376787D01*
X171431000Y-95623213D01*
X171382925Y-95864903D01*
X171288622Y-96092571D01*
X171152332Y-96296542D01*
X171151713Y-96297469D01*
X170977469Y-96471713D01*
X170977466Y-96471715D01*
X170772571Y-96608622D01*
X170544903Y-96702925D01*
X170363636Y-96738981D01*
X170303214Y-96751000D01*
X170056786Y-96751000D01*
X169996365Y-96738981D01*
X169815097Y-96702925D01*
X169587429Y-96608622D01*
X169382534Y-96471715D01*
X169382531Y-96471713D01*
X169208287Y-96297469D01*
X169207668Y-96296542D01*
X169071378Y-96092571D01*
X168977075Y-95864903D01*
X168929000Y-95623213D01*
X168929000Y-95376787D01*
X168933936Y-95351974D01*
X168951250Y-95264927D01*
X168977075Y-95135097D01*
X169071378Y-94907429D01*
X169208285Y-94702534D01*
X169208287Y-94702531D01*
X169382531Y-94528287D01*
X169383458Y-94527668D01*
X169587429Y-94391378D01*
X169815097Y-94297075D01*
X169996365Y-94261019D01*
X170056786Y-94249000D01*
X170303214Y-94249000D01*
X170363636Y-94261019D01*
X170363636Y-94261019D01*
G37*
G36*
X137482143Y-94563243D02*
X137630103Y-94624531D01*
X137697131Y-94669318D01*
X137746839Y-94702531D01*
X137763259Y-94713503D01*
X137876499Y-94826743D01*
X137965471Y-94959899D01*
X138026759Y-95107859D01*
X138058001Y-95264926D01*
X138058001Y-95425076D01*
X138026759Y-95582143D01*
X137965471Y-95730103D01*
X137876499Y-95863259D01*
X137763259Y-95976499D01*
X137630103Y-96065471D01*
X137482143Y-96126759D01*
X137325076Y-96158001D01*
X137164926Y-96158001D01*
X137007859Y-96126759D01*
X136859899Y-96065471D01*
X136726743Y-95976499D01*
X136613503Y-95863259D01*
X136524531Y-95730103D01*
X136463243Y-95582143D01*
X136432001Y-95425076D01*
X136432001Y-95264926D01*
X136463243Y-95107859D01*
X136524531Y-94959899D01*
X136613503Y-94826743D01*
X136726743Y-94713503D01*
X136743164Y-94702531D01*
X136792871Y-94669318D01*
X136859899Y-94624531D01*
X137007859Y-94563243D01*
X137164926Y-94532001D01*
X137325076Y-94532001D01*
X137482143Y-94563243D01*
X137482143Y-94563243D01*
G37*
G36*
X109542143Y-94563243D02*
X109690103Y-94624531D01*
X109757131Y-94669318D01*
X109806839Y-94702531D01*
X109823259Y-94713503D01*
X109936499Y-94826743D01*
X110025471Y-94959899D01*
X110086759Y-95107859D01*
X110118001Y-95264926D01*
X110118001Y-95425076D01*
X110086759Y-95582143D01*
X110025471Y-95730103D01*
X109936499Y-95863259D01*
X109823259Y-95976499D01*
X109690103Y-96065471D01*
X109542143Y-96126759D01*
X109385076Y-96158001D01*
X109224926Y-96158001D01*
X109067859Y-96126759D01*
X108919899Y-96065471D01*
X108786743Y-95976499D01*
X108673503Y-95863259D01*
X108584531Y-95730103D01*
X108523243Y-95582143D01*
X108492001Y-95425076D01*
X108492001Y-95264926D01*
X108523243Y-95107859D01*
X108584531Y-94959899D01*
X108673503Y-94826743D01*
X108786743Y-94713503D01*
X108803164Y-94702531D01*
X108852871Y-94669318D01*
X108919899Y-94624531D01*
X109067859Y-94563243D01*
X109224926Y-94532001D01*
X109385076Y-94532001D01*
X109542143Y-94563243D01*
X109542143Y-94563243D01*
G37*
G36*
X89416689Y-92968706D02*
X89560040Y-92982825D01*
X89805280Y-93057218D01*
X89805282Y-93057219D01*
X90031296Y-93178026D01*
X90229397Y-93340603D01*
X90391974Y-93538704D01*
X90423028Y-93596802D01*
X90512782Y-93764720D01*
X90587175Y-94009960D01*
X90612294Y-94265000D01*
X90587175Y-94520040D01*
X90528488Y-94713503D01*
X90512781Y-94765282D01*
X90391974Y-94991296D01*
X90229397Y-95189397D01*
X90031296Y-95351974D01*
X90031294Y-95351975D01*
X89805280Y-95472782D01*
X89560040Y-95547175D01*
X89416689Y-95561294D01*
X89368906Y-95566000D01*
X89241094Y-95566000D01*
X89193311Y-95561294D01*
X89049960Y-95547175D01*
X88804720Y-95472782D01*
X88578706Y-95351975D01*
X88578704Y-95351974D01*
X88380603Y-95189397D01*
X88218026Y-94991296D01*
X88097219Y-94765282D01*
X88081512Y-94713503D01*
X88022825Y-94520040D01*
X87997706Y-94265000D01*
X88022825Y-94009960D01*
X88097218Y-93764720D01*
X88186972Y-93596802D01*
X88218026Y-93538704D01*
X88380603Y-93340603D01*
X88578704Y-93178026D01*
X88804718Y-93057219D01*
X88804720Y-93057218D01*
X89049960Y-92982825D01*
X89193311Y-92968706D01*
X89241094Y-92964000D01*
X89368906Y-92964000D01*
X89416689Y-92968706D01*
X89416689Y-92968706D01*
G37*
G36*
X101616689Y-92968706D02*
X101760040Y-92982825D01*
X102005280Y-93057218D01*
X102005282Y-93057219D01*
X102231296Y-93178026D01*
X102429397Y-93340603D01*
X102591974Y-93538704D01*
X102623028Y-93596802D01*
X102712782Y-93764720D01*
X102787175Y-94009960D01*
X102812294Y-94265000D01*
X102787175Y-94520040D01*
X102728488Y-94713503D01*
X102712781Y-94765282D01*
X102591974Y-94991296D01*
X102429397Y-95189397D01*
X102231296Y-95351974D01*
X102231294Y-95351975D01*
X102005280Y-95472782D01*
X101760040Y-95547175D01*
X101616689Y-95561294D01*
X101568906Y-95566000D01*
X101441094Y-95566000D01*
X101393311Y-95561294D01*
X101249960Y-95547175D01*
X101004720Y-95472782D01*
X100778706Y-95351975D01*
X100778704Y-95351974D01*
X100580603Y-95189397D01*
X100418026Y-94991296D01*
X100297219Y-94765282D01*
X100281512Y-94713503D01*
X100222825Y-94520040D01*
X100197706Y-94265000D01*
X100222825Y-94009960D01*
X100297218Y-93764720D01*
X100386972Y-93596802D01*
X100418026Y-93538704D01*
X100580603Y-93340603D01*
X100778704Y-93178026D01*
X101004718Y-93057219D01*
X101004720Y-93057218D01*
X101249960Y-92982825D01*
X101393311Y-92968706D01*
X101441094Y-92964000D01*
X101568906Y-92964000D01*
X101616689Y-92968706D01*
X101616689Y-92968706D01*
G37*
G36*
X146818604Y-92328347D02*
X146855145Y-92339432D01*
X146888820Y-92357431D01*
X146918341Y-92381659D01*
X146942569Y-92411180D01*
X146960568Y-92444855D01*
X146971653Y-92481396D01*
X146976000Y-92525538D01*
X146976000Y-93474462D01*
X146971653Y-93518604D01*
X146960568Y-93555145D01*
X146942569Y-93588820D01*
X146918341Y-93618341D01*
X146888820Y-93642569D01*
X146855145Y-93660568D01*
X146818604Y-93671653D01*
X146774462Y-93676000D01*
X145325538Y-93676000D01*
X145281396Y-93671653D01*
X145244855Y-93660568D01*
X145211180Y-93642569D01*
X145181659Y-93618341D01*
X145157431Y-93588820D01*
X145139432Y-93555145D01*
X145128347Y-93518604D01*
X145124000Y-93474462D01*
X145124000Y-92525538D01*
X145128347Y-92481396D01*
X145139432Y-92444855D01*
X145157431Y-92411180D01*
X145181659Y-92381659D01*
X145211180Y-92357431D01*
X145244855Y-92339432D01*
X145281396Y-92328347D01*
X145325538Y-92324000D01*
X146774462Y-92324000D01*
X146818604Y-92328347D01*
X146818604Y-92328347D01*
G37*
G36*
X137482143Y-92023243D02*
X137630103Y-92084531D01*
X137763259Y-92173503D01*
X137876499Y-92286743D01*
X137965471Y-92419899D01*
X138026759Y-92567859D01*
X138058001Y-92724926D01*
X138058001Y-92885076D01*
X138026759Y-93042143D01*
X137965471Y-93190103D01*
X137924781Y-93251000D01*
X137876500Y-93323258D01*
X137763258Y-93436500D01*
X137706443Y-93474462D01*
X137630103Y-93525471D01*
X137482143Y-93586759D01*
X137325076Y-93618001D01*
X137164926Y-93618001D01*
X137007859Y-93586759D01*
X136859899Y-93525471D01*
X136783559Y-93474462D01*
X136726744Y-93436500D01*
X136613502Y-93323258D01*
X136565221Y-93251000D01*
X136524531Y-93190103D01*
X136463243Y-93042143D01*
X136432001Y-92885076D01*
X136432001Y-92724926D01*
X136463243Y-92567859D01*
X136524531Y-92419899D01*
X136613503Y-92286743D01*
X136726743Y-92173503D01*
X136859899Y-92084531D01*
X137007859Y-92023243D01*
X137164926Y-91992001D01*
X137325076Y-91992001D01*
X137482143Y-92023243D01*
X137482143Y-92023243D01*
G37*
G36*
X109542143Y-92023243D02*
X109690103Y-92084531D01*
X109823259Y-92173503D01*
X109936499Y-92286743D01*
X110025471Y-92419899D01*
X110086759Y-92567859D01*
X110118001Y-92724926D01*
X110118001Y-92885076D01*
X110086759Y-93042143D01*
X110025471Y-93190103D01*
X109984781Y-93251000D01*
X109936500Y-93323258D01*
X109823258Y-93436500D01*
X109766443Y-93474462D01*
X109690103Y-93525471D01*
X109542143Y-93586759D01*
X109385076Y-93618001D01*
X109224926Y-93618001D01*
X109067859Y-93586759D01*
X108919899Y-93525471D01*
X108843559Y-93474462D01*
X108786744Y-93436500D01*
X108673502Y-93323258D01*
X108625221Y-93251000D01*
X108584531Y-93190103D01*
X108523243Y-93042143D01*
X108492001Y-92885076D01*
X108492001Y-92724926D01*
X108523243Y-92567859D01*
X108584531Y-92419899D01*
X108673503Y-92286743D01*
X108786743Y-92173503D01*
X108919899Y-92084531D01*
X109067859Y-92023243D01*
X109224926Y-91992001D01*
X109385076Y-91992001D01*
X109542143Y-92023243D01*
X109542143Y-92023243D01*
G37*
G36*
X143008604Y-92198347D02*
X143045145Y-92209432D01*
X143078820Y-92227431D01*
X143108341Y-92251659D01*
X143132569Y-92281180D01*
X143150568Y-92314855D01*
X143161653Y-92351396D01*
X143166000Y-92395538D01*
X143166000Y-93344462D01*
X143161653Y-93388604D01*
X143150568Y-93425145D01*
X143132569Y-93458820D01*
X143108341Y-93488341D01*
X143078820Y-93512569D01*
X143045145Y-93530568D01*
X143008604Y-93541653D01*
X142964462Y-93546000D01*
X141515538Y-93546000D01*
X141471396Y-93541653D01*
X141434855Y-93530568D01*
X141401180Y-93512569D01*
X141371659Y-93488341D01*
X141347431Y-93458820D01*
X141329432Y-93425145D01*
X141318347Y-93388604D01*
X141314000Y-93344462D01*
X141314000Y-92395538D01*
X141318347Y-92351396D01*
X141329432Y-92314855D01*
X141347431Y-92281180D01*
X141371659Y-92251659D01*
X141401180Y-92227431D01*
X141434855Y-92209432D01*
X141471396Y-92198347D01*
X141515538Y-92194000D01*
X142964462Y-92194000D01*
X143008604Y-92198347D01*
X143008604Y-92198347D01*
G37*
G36*
X150411000Y-93271000D02*
X149309000Y-93271000D01*
X149309000Y-92169000D01*
X150411000Y-92169000D01*
X150411000Y-93271000D01*
X150411000Y-93271000D01*
G37*
G36*
X160571000Y-93251000D02*
X159469000Y-93251000D01*
X159469000Y-92149000D01*
X160571000Y-92149000D01*
X160571000Y-93251000D01*
X160571000Y-93251000D01*
G37*
G36*
X170337530Y-90755826D02*
X170544903Y-90797075D01*
X170772571Y-90891378D01*
X170943854Y-91005826D01*
X170977469Y-91028287D01*
X171151713Y-91202531D01*
X171151715Y-91202534D01*
X171288622Y-91407429D01*
X171382925Y-91635097D01*
X171431000Y-91876787D01*
X171431000Y-92123213D01*
X171382925Y-92364903D01*
X171288622Y-92592571D01*
X171200185Y-92724926D01*
X171151713Y-92797469D01*
X170977469Y-92971713D01*
X170977466Y-92971715D01*
X170772571Y-93108622D01*
X170544903Y-93202925D01*
X170363635Y-93238981D01*
X170303214Y-93251000D01*
X170056786Y-93251000D01*
X169996365Y-93238981D01*
X169815097Y-93202925D01*
X169587429Y-93108622D01*
X169382534Y-92971715D01*
X169382531Y-92971713D01*
X169208287Y-92797469D01*
X169159815Y-92724926D01*
X169071378Y-92592571D01*
X168977075Y-92364903D01*
X168929000Y-92123213D01*
X168929000Y-91876787D01*
X168977075Y-91635097D01*
X169071378Y-91407429D01*
X169208285Y-91202534D01*
X169208287Y-91202531D01*
X169382531Y-91028287D01*
X169416146Y-91005826D01*
X169587429Y-90891378D01*
X169815097Y-90797075D01*
X170022470Y-90755826D01*
X170056786Y-90749000D01*
X170303214Y-90749000D01*
X170337530Y-90755826D01*
X170337530Y-90755826D01*
G37*
G36*
X154188604Y-89278347D02*
X154225145Y-89289432D01*
X154258820Y-89307431D01*
X154288341Y-89331659D01*
X154312569Y-89361180D01*
X154330568Y-89394855D01*
X154341653Y-89431396D01*
X154346000Y-89475538D01*
X154346000Y-90924462D01*
X154341653Y-90968604D01*
X154330568Y-91005145D01*
X154312569Y-91038820D01*
X154288341Y-91068341D01*
X154258820Y-91092569D01*
X154225145Y-91110568D01*
X154188604Y-91121653D01*
X154144462Y-91126000D01*
X153195538Y-91126000D01*
X153151396Y-91121653D01*
X153114855Y-91110568D01*
X153081180Y-91092569D01*
X153051659Y-91068341D01*
X153027431Y-91038820D01*
X153009432Y-91005145D01*
X152998347Y-90968604D01*
X152994000Y-90924462D01*
X152994000Y-89475538D01*
X152998347Y-89431396D01*
X153009432Y-89394855D01*
X153027431Y-89361180D01*
X153051659Y-89331659D01*
X153081180Y-89307431D01*
X153114855Y-89289432D01*
X153151396Y-89278347D01*
X153195538Y-89274000D01*
X154144462Y-89274000D01*
X154188604Y-89278347D01*
X154188604Y-89278347D01*
G37*
G36*
X156988604Y-89278347D02*
X157025145Y-89289432D01*
X157058820Y-89307431D01*
X157088341Y-89331659D01*
X157112569Y-89361180D01*
X157130568Y-89394855D01*
X157141653Y-89431396D01*
X157146000Y-89475538D01*
X157146000Y-90924462D01*
X157141653Y-90968604D01*
X157130568Y-91005145D01*
X157112569Y-91038820D01*
X157088341Y-91068341D01*
X157058820Y-91092569D01*
X157025145Y-91110568D01*
X156988604Y-91121653D01*
X156944462Y-91126000D01*
X155995538Y-91126000D01*
X155951396Y-91121653D01*
X155914855Y-91110568D01*
X155881180Y-91092569D01*
X155851659Y-91068341D01*
X155827431Y-91038820D01*
X155809432Y-91005145D01*
X155798347Y-90968604D01*
X155794000Y-90924462D01*
X155794000Y-89475538D01*
X155798347Y-89431396D01*
X155809432Y-89394855D01*
X155827431Y-89361180D01*
X155851659Y-89331659D01*
X155881180Y-89307431D01*
X155914855Y-89289432D01*
X155951396Y-89278347D01*
X155995538Y-89274000D01*
X156944462Y-89274000D01*
X156988604Y-89278347D01*
X156988604Y-89278347D01*
G37*
G36*
X109542143Y-89483243D02*
X109690103Y-89544531D01*
X109727578Y-89569571D01*
X109823258Y-89633502D01*
X109936500Y-89746744D01*
X109968342Y-89794400D01*
X110025471Y-89879899D01*
X110086759Y-90027859D01*
X110118001Y-90184926D01*
X110118001Y-90345076D01*
X110086759Y-90502143D01*
X110054891Y-90579078D01*
X110025472Y-90650101D01*
X109936500Y-90783258D01*
X109823258Y-90896500D01*
X109757131Y-90940684D01*
X109690103Y-90985471D01*
X109542143Y-91046759D01*
X109385076Y-91078001D01*
X109224926Y-91078001D01*
X109067859Y-91046759D01*
X108919899Y-90985471D01*
X108852871Y-90940684D01*
X108786744Y-90896500D01*
X108673502Y-90783258D01*
X108584530Y-90650101D01*
X108555111Y-90579078D01*
X108523243Y-90502143D01*
X108492001Y-90345076D01*
X108492001Y-90184926D01*
X108523243Y-90027859D01*
X108584531Y-89879899D01*
X108641660Y-89794400D01*
X108673502Y-89746744D01*
X108786744Y-89633502D01*
X108882424Y-89569571D01*
X108919899Y-89544531D01*
X109067859Y-89483243D01*
X109224926Y-89452001D01*
X109385076Y-89452001D01*
X109542143Y-89483243D01*
X109542143Y-89483243D01*
G37*
G36*
X137482143Y-89483243D02*
X137630103Y-89544531D01*
X137667578Y-89569571D01*
X137763258Y-89633502D01*
X137876500Y-89746744D01*
X137908342Y-89794400D01*
X137965471Y-89879899D01*
X138026759Y-90027859D01*
X138058001Y-90184926D01*
X138058001Y-90345076D01*
X138026759Y-90502143D01*
X137994891Y-90579078D01*
X137965472Y-90650101D01*
X137876500Y-90783258D01*
X137763258Y-90896500D01*
X137697131Y-90940684D01*
X137630103Y-90985471D01*
X137482143Y-91046759D01*
X137325076Y-91078001D01*
X137164926Y-91078001D01*
X137007859Y-91046759D01*
X136859899Y-90985471D01*
X136792871Y-90940684D01*
X136726744Y-90896500D01*
X136613502Y-90783258D01*
X136524530Y-90650101D01*
X136495111Y-90579078D01*
X136463243Y-90502143D01*
X136432001Y-90345076D01*
X136432001Y-90184926D01*
X136463243Y-90027859D01*
X136524531Y-89879899D01*
X136581660Y-89794400D01*
X136613502Y-89746744D01*
X136726744Y-89633502D01*
X136822424Y-89569571D01*
X136859899Y-89544531D01*
X137007859Y-89483243D01*
X137164926Y-89452001D01*
X137325076Y-89452001D01*
X137482143Y-89483243D01*
X137482143Y-89483243D01*
G37*
G36*
X146818604Y-89528347D02*
X146855145Y-89539432D01*
X146888820Y-89557431D01*
X146918341Y-89581659D01*
X146942569Y-89611180D01*
X146960568Y-89644855D01*
X146971653Y-89681396D01*
X146976000Y-89725538D01*
X146976000Y-90674462D01*
X146971653Y-90718604D01*
X146960568Y-90755145D01*
X146942569Y-90788820D01*
X146918341Y-90818341D01*
X146888820Y-90842569D01*
X146855145Y-90860568D01*
X146818604Y-90871653D01*
X146774462Y-90876000D01*
X145325538Y-90876000D01*
X145281396Y-90871653D01*
X145244855Y-90860568D01*
X145211180Y-90842569D01*
X145181659Y-90818341D01*
X145157431Y-90788820D01*
X145139432Y-90755145D01*
X145128347Y-90718604D01*
X145124000Y-90674462D01*
X145124000Y-89725538D01*
X145128347Y-89681396D01*
X145139432Y-89644855D01*
X145157431Y-89611180D01*
X145181659Y-89581659D01*
X145211180Y-89557431D01*
X145244855Y-89539432D01*
X145281396Y-89528347D01*
X145325538Y-89524000D01*
X146774462Y-89524000D01*
X146818604Y-89528347D01*
X146818604Y-89528347D01*
G37*
G36*
X150411000Y-90771000D02*
X149309000Y-90771000D01*
X149309000Y-89669000D01*
X150411000Y-89669000D01*
X150411000Y-90771000D01*
X150411000Y-90771000D01*
G37*
G36*
X160571000Y-90751000D02*
X159469000Y-90751000D01*
X159469000Y-89649000D01*
X160571000Y-89649000D01*
X160571000Y-90751000D01*
X160571000Y-90751000D01*
G37*
G36*
X143008604Y-89398347D02*
X143045145Y-89409432D01*
X143078820Y-89427431D01*
X143108341Y-89451659D01*
X143132569Y-89481180D01*
X143150568Y-89514855D01*
X143161653Y-89551396D01*
X143166000Y-89595538D01*
X143166000Y-90544462D01*
X143161653Y-90588604D01*
X143150568Y-90625145D01*
X143132569Y-90658820D01*
X143108341Y-90688341D01*
X143078820Y-90712569D01*
X143045145Y-90730568D01*
X143008604Y-90741653D01*
X142964462Y-90746000D01*
X141515538Y-90746000D01*
X141471396Y-90741653D01*
X141434855Y-90730568D01*
X141401180Y-90712569D01*
X141371659Y-90688341D01*
X141347431Y-90658820D01*
X141329432Y-90625145D01*
X141318347Y-90588604D01*
X141314000Y-90544462D01*
X141314000Y-89595538D01*
X141318347Y-89551396D01*
X141329432Y-89514855D01*
X141347431Y-89481180D01*
X141371659Y-89451659D01*
X141401180Y-89427431D01*
X141434855Y-89409432D01*
X141471396Y-89398347D01*
X141515538Y-89394000D01*
X142964462Y-89394000D01*
X143008604Y-89398347D01*
X143008604Y-89398347D01*
G37*
G36*
X170363636Y-87261019D02*
X170544903Y-87297075D01*
X170772571Y-87391378D01*
X170916963Y-87487858D01*
X170977469Y-87528287D01*
X171151713Y-87702531D01*
X171151715Y-87702534D01*
X171288622Y-87907429D01*
X171382925Y-88135097D01*
X171418981Y-88316365D01*
X171426965Y-88356499D01*
X171431000Y-88376787D01*
X171431000Y-88623213D01*
X171382925Y-88864903D01*
X171288622Y-89092571D01*
X171164490Y-89278347D01*
X171151713Y-89297469D01*
X170977469Y-89471713D01*
X170977466Y-89471715D01*
X170772571Y-89608622D01*
X170544903Y-89702925D01*
X170363635Y-89738981D01*
X170303214Y-89751000D01*
X170056786Y-89751000D01*
X169996365Y-89738981D01*
X169815097Y-89702925D01*
X169587429Y-89608622D01*
X169382534Y-89471715D01*
X169382531Y-89471713D01*
X169208287Y-89297469D01*
X169195510Y-89278347D01*
X169071378Y-89092571D01*
X168977075Y-88864903D01*
X168929000Y-88623213D01*
X168929000Y-88376787D01*
X168933036Y-88356499D01*
X168941019Y-88316365D01*
X168977075Y-88135097D01*
X169071378Y-87907429D01*
X169208285Y-87702534D01*
X169208287Y-87702531D01*
X169382531Y-87528287D01*
X169443037Y-87487858D01*
X169587429Y-87391378D01*
X169815097Y-87297075D01*
X169996365Y-87261019D01*
X170056786Y-87249000D01*
X170303214Y-87249000D01*
X170363636Y-87261019D01*
X170363636Y-87261019D01*
G37*
G36*
X104806000Y-89566000D02*
X102204000Y-89566000D01*
X102204000Y-86964000D01*
X104806000Y-86964000D01*
X104806000Y-89566000D01*
X104806000Y-89566000D01*
G37*
G36*
X137482143Y-86943243D02*
X137630103Y-87004531D01*
X137763259Y-87093503D01*
X137876499Y-87206743D01*
X137965471Y-87339899D01*
X138026759Y-87487859D01*
X138058001Y-87644926D01*
X138058001Y-87805076D01*
X138026759Y-87962143D01*
X137965471Y-88110103D01*
X137920684Y-88177131D01*
X137876500Y-88243258D01*
X137763258Y-88356500D01*
X137732896Y-88376787D01*
X137630103Y-88445471D01*
X137482143Y-88506759D01*
X137325076Y-88538001D01*
X137164926Y-88538001D01*
X137007859Y-88506759D01*
X136859899Y-88445471D01*
X136757106Y-88376787D01*
X136726744Y-88356500D01*
X136613502Y-88243258D01*
X136569318Y-88177131D01*
X136524531Y-88110103D01*
X136463243Y-87962143D01*
X136432001Y-87805076D01*
X136432001Y-87644926D01*
X136463243Y-87487859D01*
X136524531Y-87339899D01*
X136613503Y-87206743D01*
X136726743Y-87093503D01*
X136859899Y-87004531D01*
X137007859Y-86943243D01*
X137164926Y-86912001D01*
X137325076Y-86912001D01*
X137482143Y-86943243D01*
X137482143Y-86943243D01*
G37*
G36*
X109542143Y-86943243D02*
X109690103Y-87004531D01*
X109823259Y-87093503D01*
X109936499Y-87206743D01*
X110025471Y-87339899D01*
X110086759Y-87487859D01*
X110118001Y-87644926D01*
X110118001Y-87805076D01*
X110086759Y-87962143D01*
X110025471Y-88110103D01*
X109980684Y-88177131D01*
X109936500Y-88243258D01*
X109823258Y-88356500D01*
X109792896Y-88376787D01*
X109690103Y-88445471D01*
X109542143Y-88506759D01*
X109385076Y-88538001D01*
X109224926Y-88538001D01*
X109067859Y-88506759D01*
X108919899Y-88445471D01*
X108817106Y-88376787D01*
X108786744Y-88356500D01*
X108673502Y-88243258D01*
X108629318Y-88177131D01*
X108584531Y-88110103D01*
X108523243Y-87962143D01*
X108492001Y-87805076D01*
X108492001Y-87644926D01*
X108523243Y-87487859D01*
X108584531Y-87339899D01*
X108673503Y-87206743D01*
X108786743Y-87093503D01*
X108919899Y-87004531D01*
X109067859Y-86943243D01*
X109224926Y-86912001D01*
X109385076Y-86912001D01*
X109542143Y-86943243D01*
X109542143Y-86943243D01*
G37*
G36*
X146825562Y-85285681D02*
X146860477Y-85296273D01*
X146892665Y-85313478D01*
X146920873Y-85336627D01*
X146944022Y-85364835D01*
X146961227Y-85397023D01*
X146971819Y-85431938D01*
X146976000Y-85474395D01*
X146976000Y-86615605D01*
X146971819Y-86658062D01*
X146961227Y-86692977D01*
X146944022Y-86725165D01*
X146920873Y-86753373D01*
X146892665Y-86776522D01*
X146860477Y-86793727D01*
X146825562Y-86804319D01*
X146783105Y-86808500D01*
X145316895Y-86808500D01*
X145274438Y-86804319D01*
X145239523Y-86793727D01*
X145207335Y-86776522D01*
X145179127Y-86753373D01*
X145155978Y-86725165D01*
X145138773Y-86692977D01*
X145128181Y-86658062D01*
X145124000Y-86615605D01*
X145124000Y-85474395D01*
X145128181Y-85431938D01*
X145138773Y-85397023D01*
X145155978Y-85364835D01*
X145179127Y-85336627D01*
X145207335Y-85313478D01*
X145239523Y-85296273D01*
X145274438Y-85285681D01*
X145316895Y-85281500D01*
X146783105Y-85281500D01*
X146825562Y-85285681D01*
X146825562Y-85285681D01*
G37*
G36*
X143008604Y-85198347D02*
X143045145Y-85209432D01*
X143078820Y-85227431D01*
X143108341Y-85251659D01*
X143132569Y-85281180D01*
X143150568Y-85314855D01*
X143161653Y-85351396D01*
X143166000Y-85395538D01*
X143166000Y-86344462D01*
X143161653Y-86388604D01*
X143150568Y-86425145D01*
X143132569Y-86458820D01*
X143108341Y-86488341D01*
X143078820Y-86512569D01*
X143045145Y-86530568D01*
X143008604Y-86541653D01*
X142964462Y-86546000D01*
X141515538Y-86546000D01*
X141471396Y-86541653D01*
X141434855Y-86530568D01*
X141401180Y-86512569D01*
X141371659Y-86488341D01*
X141347431Y-86458820D01*
X141329432Y-86425145D01*
X141318347Y-86388604D01*
X141314000Y-86344462D01*
X141314000Y-85395538D01*
X141318347Y-85351396D01*
X141329432Y-85314855D01*
X141347431Y-85281180D01*
X141371659Y-85251659D01*
X141401180Y-85227431D01*
X141434855Y-85209432D01*
X141471396Y-85198347D01*
X141515538Y-85194000D01*
X142964462Y-85194000D01*
X143008604Y-85198347D01*
X143008604Y-85198347D01*
G37*
G36*
X170363635Y-83761019D02*
X170544903Y-83797075D01*
X170772571Y-83891378D01*
X170929148Y-83996000D01*
X170977469Y-84028287D01*
X171151713Y-84202531D01*
X171151715Y-84202534D01*
X171288622Y-84407429D01*
X171382925Y-84635097D01*
X171431000Y-84876787D01*
X171431000Y-85123213D01*
X171382925Y-85364903D01*
X171288622Y-85592571D01*
X171214663Y-85703258D01*
X171151713Y-85797469D01*
X170977469Y-85971713D01*
X170977466Y-85971715D01*
X170772571Y-86108622D01*
X170544903Y-86202925D01*
X170363635Y-86238981D01*
X170303214Y-86251000D01*
X170056786Y-86251000D01*
X169996365Y-86238981D01*
X169815097Y-86202925D01*
X169587429Y-86108622D01*
X169382534Y-85971715D01*
X169382531Y-85971713D01*
X169208287Y-85797469D01*
X169145337Y-85703258D01*
X169071378Y-85592571D01*
X168977075Y-85364903D01*
X168929000Y-85123213D01*
X168929000Y-84876787D01*
X168977075Y-84635097D01*
X169071378Y-84407429D01*
X169208285Y-84202534D01*
X169208287Y-84202531D01*
X169382531Y-84028287D01*
X169430852Y-83996000D01*
X169587429Y-83891378D01*
X169815097Y-83797075D01*
X169996365Y-83761019D01*
X170056786Y-83749000D01*
X170303214Y-83749000D01*
X170363635Y-83761019D01*
X170363635Y-83761019D01*
G37*
G36*
X160571000Y-86141000D02*
X159469000Y-86141000D01*
X159469000Y-85039000D01*
X160571000Y-85039000D01*
X160571000Y-86141000D01*
X160571000Y-86141000D01*
G37*
G36*
X150411000Y-86141000D02*
X149309000Y-86141000D01*
X149309000Y-85039000D01*
X150411000Y-85039000D01*
X150411000Y-86141000D01*
X150411000Y-86141000D01*
G37*
G36*
X137482143Y-84403243D02*
X137630103Y-84464531D01*
X137763259Y-84553503D01*
X137876499Y-84666743D01*
X137965471Y-84799899D01*
X138026759Y-84947859D01*
X138058001Y-85104926D01*
X138058001Y-85265076D01*
X138026759Y-85422143D01*
X137965471Y-85570103D01*
X137876499Y-85703259D01*
X137763259Y-85816499D01*
X137630103Y-85905471D01*
X137482143Y-85966759D01*
X137325076Y-85998001D01*
X137164926Y-85998001D01*
X137007859Y-85966759D01*
X136859899Y-85905471D01*
X136726743Y-85816499D01*
X136613503Y-85703259D01*
X136524531Y-85570103D01*
X136463243Y-85422143D01*
X136432001Y-85265076D01*
X136432001Y-85104926D01*
X136463243Y-84947859D01*
X136524531Y-84799899D01*
X136613503Y-84666743D01*
X136726743Y-84553503D01*
X136859899Y-84464531D01*
X137007859Y-84403243D01*
X137164926Y-84372001D01*
X137325076Y-84372001D01*
X137482143Y-84403243D01*
X137482143Y-84403243D01*
G37*
G36*
X109542143Y-84403243D02*
X109690103Y-84464531D01*
X109823259Y-84553503D01*
X109936499Y-84666743D01*
X110025471Y-84799899D01*
X110086759Y-84947859D01*
X110118001Y-85104926D01*
X110118001Y-85265076D01*
X110086759Y-85422143D01*
X110025471Y-85570103D01*
X109936499Y-85703259D01*
X109823259Y-85816499D01*
X109690103Y-85905471D01*
X109542143Y-85966759D01*
X109385076Y-85998001D01*
X109224926Y-85998001D01*
X109067859Y-85966759D01*
X108919899Y-85905471D01*
X108786743Y-85816499D01*
X108673503Y-85703259D01*
X108584531Y-85570103D01*
X108523243Y-85422143D01*
X108492001Y-85265076D01*
X108492001Y-85104926D01*
X108523243Y-84947859D01*
X108584531Y-84799899D01*
X108673503Y-84666743D01*
X108786743Y-84553503D01*
X108919899Y-84464531D01*
X109067859Y-84403243D01*
X109224926Y-84372001D01*
X109385076Y-84372001D01*
X109542143Y-84403243D01*
X109542143Y-84403243D01*
G37*
G36*
X156988604Y-82148347D02*
X157025145Y-82159432D01*
X157058820Y-82177431D01*
X157088341Y-82201659D01*
X157112569Y-82231180D01*
X157130568Y-82264855D01*
X157141653Y-82301396D01*
X157146000Y-82345538D01*
X157146000Y-83794462D01*
X157141653Y-83838604D01*
X157130568Y-83875145D01*
X157112569Y-83908820D01*
X157088341Y-83938341D01*
X157058820Y-83962569D01*
X157025145Y-83980568D01*
X156988604Y-83991653D01*
X156944462Y-83996000D01*
X155995538Y-83996000D01*
X155951396Y-83991653D01*
X155914855Y-83980568D01*
X155881180Y-83962569D01*
X155851659Y-83938341D01*
X155827431Y-83908820D01*
X155809432Y-83875145D01*
X155798347Y-83838604D01*
X155794000Y-83794462D01*
X155794000Y-82345538D01*
X155798347Y-82301396D01*
X155809432Y-82264855D01*
X155827431Y-82231180D01*
X155851659Y-82201659D01*
X155881180Y-82177431D01*
X155914855Y-82159432D01*
X155951396Y-82148347D01*
X155995538Y-82144000D01*
X156944462Y-82144000D01*
X156988604Y-82148347D01*
X156988604Y-82148347D01*
G37*
G36*
X154188604Y-82148347D02*
X154225145Y-82159432D01*
X154258820Y-82177431D01*
X154288341Y-82201659D01*
X154312569Y-82231180D01*
X154330568Y-82264855D01*
X154341653Y-82301396D01*
X154346000Y-82345538D01*
X154346000Y-83794462D01*
X154341653Y-83838604D01*
X154330568Y-83875145D01*
X154312569Y-83908820D01*
X154288341Y-83938341D01*
X154258820Y-83962569D01*
X154225145Y-83980568D01*
X154188604Y-83991653D01*
X154144462Y-83996000D01*
X153195538Y-83996000D01*
X153151396Y-83991653D01*
X153114855Y-83980568D01*
X153081180Y-83962569D01*
X153051659Y-83938341D01*
X153027431Y-83908820D01*
X153009432Y-83875145D01*
X152998347Y-83838604D01*
X152994000Y-83794462D01*
X152994000Y-82345538D01*
X152998347Y-82301396D01*
X153009432Y-82264855D01*
X153027431Y-82231180D01*
X153051659Y-82201659D01*
X153081180Y-82177431D01*
X153114855Y-82159432D01*
X153151396Y-82148347D01*
X153195538Y-82144000D01*
X154144462Y-82144000D01*
X154188604Y-82148347D01*
X154188604Y-82148347D01*
G37*
G36*
X146825562Y-82310681D02*
X146860477Y-82321273D01*
X146892665Y-82338478D01*
X146920873Y-82361627D01*
X146944022Y-82389835D01*
X146961227Y-82422023D01*
X146971819Y-82456938D01*
X146976000Y-82499395D01*
X146976000Y-83640605D01*
X146971819Y-83683062D01*
X146961227Y-83717977D01*
X146944022Y-83750165D01*
X146920873Y-83778373D01*
X146892665Y-83801522D01*
X146860477Y-83818727D01*
X146825562Y-83829319D01*
X146783105Y-83833500D01*
X145316895Y-83833500D01*
X145274438Y-83829319D01*
X145239523Y-83818727D01*
X145207335Y-83801522D01*
X145179127Y-83778373D01*
X145155978Y-83750165D01*
X145138773Y-83717977D01*
X145128181Y-83683062D01*
X145124000Y-83640605D01*
X145124000Y-82499395D01*
X145128181Y-82456938D01*
X145138773Y-82422023D01*
X145155978Y-82389835D01*
X145179127Y-82361627D01*
X145207335Y-82338478D01*
X145239523Y-82321273D01*
X145274438Y-82310681D01*
X145316895Y-82306500D01*
X146783105Y-82306500D01*
X146825562Y-82310681D01*
X146825562Y-82310681D01*
G37*
G36*
X143008604Y-82398347D02*
X143045145Y-82409432D01*
X143078820Y-82427431D01*
X143108341Y-82451659D01*
X143132569Y-82481180D01*
X143150568Y-82514855D01*
X143161653Y-82551396D01*
X143166000Y-82595538D01*
X143166000Y-83544462D01*
X143161653Y-83588604D01*
X143150568Y-83625145D01*
X143132569Y-83658820D01*
X143108341Y-83688341D01*
X143078820Y-83712569D01*
X143045145Y-83730568D01*
X143008604Y-83741653D01*
X142964462Y-83746000D01*
X141515538Y-83746000D01*
X141471396Y-83741653D01*
X141434855Y-83730568D01*
X141401180Y-83712569D01*
X141371659Y-83688341D01*
X141347431Y-83658820D01*
X141329432Y-83625145D01*
X141318347Y-83588604D01*
X141314000Y-83544462D01*
X141314000Y-82595538D01*
X141318347Y-82551396D01*
X141329432Y-82514855D01*
X141347431Y-82481180D01*
X141371659Y-82451659D01*
X141401180Y-82427431D01*
X141434855Y-82409432D01*
X141471396Y-82398347D01*
X141515538Y-82394000D01*
X142964462Y-82394000D01*
X143008604Y-82398347D01*
X143008604Y-82398347D01*
G37*
G36*
X150411000Y-83641000D02*
X149309000Y-83641000D01*
X149309000Y-82539000D01*
X150411000Y-82539000D01*
X150411000Y-83641000D01*
X150411000Y-83641000D01*
G37*
G36*
X160571000Y-83641000D02*
X159469000Y-83641000D01*
X159469000Y-82539000D01*
X160571000Y-82539000D01*
X160571000Y-83641000D01*
X160571000Y-83641000D01*
G37*
G36*
X101616689Y-80968706D02*
X101760040Y-80982825D01*
X102005280Y-81057218D01*
X102005282Y-81057219D01*
X102231296Y-81178026D01*
X102429397Y-81340603D01*
X102591974Y-81538704D01*
X102712781Y-81764718D01*
X102712782Y-81764720D01*
X102787175Y-82009960D01*
X102812294Y-82265000D01*
X102787175Y-82520040D01*
X102712782Y-82765280D01*
X102712781Y-82765282D01*
X102591974Y-82991296D01*
X102429397Y-83189397D01*
X102231296Y-83351974D01*
X102231294Y-83351975D01*
X102005280Y-83472782D01*
X101760040Y-83547175D01*
X101616689Y-83561294D01*
X101568906Y-83566000D01*
X101441094Y-83566000D01*
X101393311Y-83561294D01*
X101249960Y-83547175D01*
X101004720Y-83472782D01*
X100778706Y-83351975D01*
X100778704Y-83351974D01*
X100580603Y-83189397D01*
X100418026Y-82991296D01*
X100297219Y-82765282D01*
X100297218Y-82765280D01*
X100222825Y-82520040D01*
X100197706Y-82265000D01*
X100222825Y-82009960D01*
X100297218Y-81764720D01*
X100297219Y-81764718D01*
X100418026Y-81538704D01*
X100580603Y-81340603D01*
X100778704Y-81178026D01*
X101004718Y-81057219D01*
X101004720Y-81057218D01*
X101249960Y-80982825D01*
X101393311Y-80968706D01*
X101441094Y-80964000D01*
X101568906Y-80964000D01*
X101616689Y-80968706D01*
X101616689Y-80968706D01*
G37*
G36*
X89416689Y-80968706D02*
X89560040Y-80982825D01*
X89805280Y-81057218D01*
X89805282Y-81057219D01*
X90031296Y-81178026D01*
X90229397Y-81340603D01*
X90391974Y-81538704D01*
X90512781Y-81764718D01*
X90512782Y-81764720D01*
X90587175Y-82009960D01*
X90612294Y-82265000D01*
X90587175Y-82520040D01*
X90512782Y-82765280D01*
X90512781Y-82765282D01*
X90391974Y-82991296D01*
X90229397Y-83189397D01*
X90031296Y-83351974D01*
X90031294Y-83351975D01*
X89805280Y-83472782D01*
X89560040Y-83547175D01*
X89416689Y-83561294D01*
X89368906Y-83566000D01*
X89241094Y-83566000D01*
X89193311Y-83561294D01*
X89049960Y-83547175D01*
X88804720Y-83472782D01*
X88578706Y-83351975D01*
X88578704Y-83351974D01*
X88380603Y-83189397D01*
X88218026Y-82991296D01*
X88097219Y-82765282D01*
X88097218Y-82765280D01*
X88022825Y-82520040D01*
X87997706Y-82265000D01*
X88022825Y-82009960D01*
X88097218Y-81764720D01*
X88097219Y-81764718D01*
X88218026Y-81538704D01*
X88380603Y-81340603D01*
X88578704Y-81178026D01*
X88804718Y-81057219D01*
X88804720Y-81057218D01*
X89049960Y-80982825D01*
X89193311Y-80968706D01*
X89241094Y-80964000D01*
X89368906Y-80964000D01*
X89416689Y-80968706D01*
X89416689Y-80968706D01*
G37*
G36*
X170363636Y-80261019D02*
X170544903Y-80297075D01*
X170772571Y-80391378D01*
X170932141Y-80498000D01*
X170977469Y-80528287D01*
X171151713Y-80702531D01*
X171151715Y-80702534D01*
X171288622Y-80907429D01*
X171382925Y-81135097D01*
X171431000Y-81376787D01*
X171431000Y-81623213D01*
X171382925Y-81864903D01*
X171288622Y-82092571D01*
X171231920Y-82177431D01*
X171151713Y-82297469D01*
X170977469Y-82471713D01*
X170977466Y-82471715D01*
X170772571Y-82608622D01*
X170544903Y-82702925D01*
X170363635Y-82738981D01*
X170303214Y-82751000D01*
X170056786Y-82751000D01*
X169996365Y-82738981D01*
X169815097Y-82702925D01*
X169587429Y-82608622D01*
X169382534Y-82471715D01*
X169382531Y-82471713D01*
X169208287Y-82297469D01*
X169128080Y-82177431D01*
X169071378Y-82092571D01*
X168977075Y-81864903D01*
X168929000Y-81623213D01*
X168929000Y-81376787D01*
X168977075Y-81135097D01*
X169071378Y-80907429D01*
X169208285Y-80702534D01*
X169208287Y-80702531D01*
X169382531Y-80528287D01*
X169427859Y-80498000D01*
X169587429Y-80391378D01*
X169815097Y-80297075D01*
X169996364Y-80261019D01*
X170056786Y-80249000D01*
X170303214Y-80249000D01*
X170363636Y-80261019D01*
X170363636Y-80261019D01*
G37*
G36*
X111463190Y-74807483D02*
X111991138Y-75026166D01*
X112466283Y-75343648D01*
X112870352Y-75747717D01*
X113187834Y-76222862D01*
X113406517Y-76750810D01*
X113518000Y-77311275D01*
X113518000Y-77882725D01*
X113406517Y-78443190D01*
X113187834Y-78971138D01*
X112870352Y-79446283D01*
X112466283Y-79850352D01*
X111991138Y-80167834D01*
X111463190Y-80386517D01*
X110902725Y-80498000D01*
X110331275Y-80498000D01*
X109770810Y-80386517D01*
X109242862Y-80167834D01*
X108767717Y-79850352D01*
X108363648Y-79446283D01*
X108046166Y-78971138D01*
X107827483Y-78443190D01*
X107716000Y-77882725D01*
X107716000Y-77311275D01*
X107827483Y-76750810D01*
X108046166Y-76222862D01*
X108363648Y-75747717D01*
X108767717Y-75343648D01*
X109242862Y-75026166D01*
X109770810Y-74807483D01*
X110331275Y-74696000D01*
X110902725Y-74696000D01*
X111463190Y-74807483D01*
X111463190Y-74807483D01*
G37*
G36*
X136799690Y-74743983D02*
X137327638Y-74962666D01*
X137802783Y-75280148D01*
X138206852Y-75684217D01*
X138524334Y-76159362D01*
X138743017Y-76687310D01*
X138854500Y-77247775D01*
X138854500Y-77819225D01*
X138743017Y-78379690D01*
X138524334Y-78907638D01*
X138206852Y-79382783D01*
X137802783Y-79786852D01*
X137327638Y-80104334D01*
X136799690Y-80323017D01*
X136239225Y-80434500D01*
X135667775Y-80434500D01*
X135107310Y-80323017D01*
X134579362Y-80104334D01*
X134104217Y-79786852D01*
X133700148Y-79382783D01*
X133382666Y-78907638D01*
X133163983Y-78379690D01*
X133052500Y-77819225D01*
X133052500Y-77247775D01*
X133163983Y-76687310D01*
X133382666Y-76159362D01*
X133700148Y-75684217D01*
X134104217Y-75280148D01*
X134579362Y-74962666D01*
X135107310Y-74743983D01*
X135667775Y-74632500D01*
X136239225Y-74632500D01*
X136799690Y-74743983D01*
X136799690Y-74743983D01*
G37*
G36*
X173566190Y-70870483D02*
X174094138Y-71089166D01*
X174569283Y-71406648D01*
X174973352Y-71810717D01*
X175290834Y-72285862D01*
X175509517Y-72813810D01*
X175621000Y-73374275D01*
X175621000Y-73945725D01*
X175509517Y-74506190D01*
X175290834Y-75034138D01*
X174973352Y-75509283D01*
X174569283Y-75913352D01*
X174094138Y-76230834D01*
X173566190Y-76449517D01*
X173005725Y-76561000D01*
X172434275Y-76561000D01*
X171873810Y-76449517D01*
X171345862Y-76230834D01*
X170870717Y-75913352D01*
X170466648Y-75509283D01*
X170149166Y-75034138D01*
X169930483Y-74506190D01*
X169819000Y-73945725D01*
X169819000Y-73374275D01*
X169930483Y-72813810D01*
X170149166Y-72285862D01*
X170466648Y-71810717D01*
X170870717Y-71406648D01*
X171345862Y-71089166D01*
X171873810Y-70870483D01*
X172434275Y-70759000D01*
X173005725Y-70759000D01*
X173566190Y-70870483D01*
X173566190Y-70870483D01*
G37*
G36*
X87206190Y-70870483D02*
X87734138Y-71089166D01*
X88209283Y-71406648D01*
X88613352Y-71810717D01*
X88930834Y-72285862D01*
X89149517Y-72813810D01*
X89261000Y-73374275D01*
X89261000Y-73945725D01*
X89149517Y-74506190D01*
X88930834Y-75034138D01*
X88613352Y-75509283D01*
X88209283Y-75913352D01*
X87734138Y-76230834D01*
X87206190Y-76449517D01*
X86645725Y-76561000D01*
X86074275Y-76561000D01*
X85513810Y-76449517D01*
X84985862Y-76230834D01*
X84510717Y-75913352D01*
X84106648Y-75509283D01*
X83789166Y-75034138D01*
X83570483Y-74506190D01*
X83459000Y-73945725D01*
X83459000Y-73374275D01*
X83570483Y-72813810D01*
X83789166Y-72285862D01*
X84106648Y-71810717D01*
X84510717Y-71406648D01*
X84985862Y-71089166D01*
X85513810Y-70870483D01*
X86074275Y-70759000D01*
X86645725Y-70759000D01*
X87206190Y-70870483D01*
X87206190Y-70870483D01*
G37*
G36*
X103648604Y-74008347D02*
X103685145Y-74019432D01*
X103718820Y-74037431D01*
X103748341Y-74061659D01*
X103772569Y-74091180D01*
X103790568Y-74124855D01*
X103801653Y-74161396D01*
X103806000Y-74205538D01*
X103806000Y-75654462D01*
X103801653Y-75698604D01*
X103790568Y-75735145D01*
X103772569Y-75768820D01*
X103748341Y-75798341D01*
X103718820Y-75822569D01*
X103685145Y-75840568D01*
X103648604Y-75851653D01*
X103604462Y-75856000D01*
X102655538Y-75856000D01*
X102611396Y-75851653D01*
X102574855Y-75840568D01*
X102541180Y-75822569D01*
X102511659Y-75798341D01*
X102487431Y-75768820D01*
X102469432Y-75735145D01*
X102458347Y-75698604D01*
X102454000Y-75654462D01*
X102454000Y-74205538D01*
X102458347Y-74161396D01*
X102469432Y-74124855D01*
X102487431Y-74091180D01*
X102511659Y-74061659D01*
X102541180Y-74037431D01*
X102574855Y-74019432D01*
X102611396Y-74008347D01*
X102655538Y-74004000D01*
X103604462Y-74004000D01*
X103648604Y-74008347D01*
X103648604Y-74008347D01*
G37*
G36*
X100848604Y-74008347D02*
X100885145Y-74019432D01*
X100918820Y-74037431D01*
X100948341Y-74061659D01*
X100972569Y-74091180D01*
X100990568Y-74124855D01*
X101001653Y-74161396D01*
X101006000Y-74205538D01*
X101006000Y-75654462D01*
X101001653Y-75698604D01*
X100990568Y-75735145D01*
X100972569Y-75768820D01*
X100948341Y-75798341D01*
X100918820Y-75822569D01*
X100885145Y-75840568D01*
X100848604Y-75851653D01*
X100804462Y-75856000D01*
X99855538Y-75856000D01*
X99811396Y-75851653D01*
X99774855Y-75840568D01*
X99741180Y-75822569D01*
X99711659Y-75798341D01*
X99687431Y-75768820D01*
X99669432Y-75735145D01*
X99658347Y-75698604D01*
X99654000Y-75654462D01*
X99654000Y-74205538D01*
X99658347Y-74161396D01*
X99669432Y-74124855D01*
X99687431Y-74091180D01*
X99711659Y-74061659D01*
X99741180Y-74037431D01*
X99774855Y-74019432D01*
X99811396Y-74008347D01*
X99855538Y-74004000D01*
X100804462Y-74004000D01*
X100848604Y-74008347D01*
X100848604Y-74008347D01*
G37*
M02*
