G04 #@! TF.GenerationSoftware,KiCad,Pcbnew,(5.0.2)-1*
G04 #@! TF.CreationDate,2019-01-31T17:24:24+01:00*
G04 #@! TF.ProjectId,valve_reporter,76616c76-655f-4726-9570-6f727465722e,rev?*
G04 #@! TF.SameCoordinates,Original*
G04 #@! TF.FileFunction,Legend,Top*
G04 #@! TF.FilePolarity,Positive*
%FSLAX46Y46*%
G04 Gerber Fmt 4.6, Leading zero omitted, Abs format (unit mm)*
G04 Created by KiCad (PCBNEW (5.0.2)-1) date 1/31/2019 5:24:24 PM*
%MOMM*%
%LPD*%
G01*
G04 APERTURE LIST*
%ADD10C,0.250000*%
%ADD11C,0.300000*%
%ADD12C,0.120000*%
%ADD13C,0.150000*%
%ADD14C,0.100000*%
G04 APERTURE END LIST*
D10*
X139843809Y-137104380D02*
X139367619Y-137104380D01*
X139367619Y-136104380D01*
X140320000Y-137104380D02*
X140224761Y-137056761D01*
X140177142Y-137009142D01*
X140129523Y-136913904D01*
X140129523Y-136628190D01*
X140177142Y-136532952D01*
X140224761Y-136485333D01*
X140320000Y-136437714D01*
X140462857Y-136437714D01*
X140558095Y-136485333D01*
X140605714Y-136532952D01*
X140653333Y-136628190D01*
X140653333Y-136913904D01*
X140605714Y-137009142D01*
X140558095Y-137056761D01*
X140462857Y-137104380D01*
X140320000Y-137104380D01*
X141510476Y-136437714D02*
X141510476Y-137104380D01*
X141081904Y-136437714D02*
X141081904Y-136961523D01*
X141129523Y-137056761D01*
X141224761Y-137104380D01*
X141367619Y-137104380D01*
X141462857Y-137056761D01*
X141510476Y-137009142D01*
X142605714Y-136104380D02*
X142939047Y-137104380D01*
X143272380Y-136104380D01*
X143986666Y-137056761D02*
X143891428Y-137104380D01*
X143700952Y-137104380D01*
X143605714Y-137056761D01*
X143558095Y-136961523D01*
X143558095Y-136580571D01*
X143605714Y-136485333D01*
X143700952Y-136437714D01*
X143891428Y-136437714D01*
X143986666Y-136485333D01*
X144034285Y-136580571D01*
X144034285Y-136675809D01*
X143558095Y-136771047D01*
X144462857Y-137104380D02*
X144462857Y-136437714D01*
X144462857Y-136628190D02*
X144510476Y-136532952D01*
X144558095Y-136485333D01*
X144653333Y-136437714D01*
X144748571Y-136437714D01*
X144986666Y-136437714D02*
X145224761Y-137104380D01*
X145462857Y-136437714D01*
X146224761Y-137056761D02*
X146129523Y-137104380D01*
X145939047Y-137104380D01*
X145843809Y-137056761D01*
X145796190Y-136961523D01*
X145796190Y-136580571D01*
X145843809Y-136485333D01*
X145939047Y-136437714D01*
X146129523Y-136437714D01*
X146224761Y-136485333D01*
X146272380Y-136580571D01*
X146272380Y-136675809D01*
X145796190Y-136771047D01*
X147129523Y-137056761D02*
X147034285Y-137104380D01*
X146843809Y-137104380D01*
X146748571Y-137056761D01*
X146700952Y-137009142D01*
X146653333Y-136913904D01*
X146653333Y-136628190D01*
X146700952Y-136532952D01*
X146748571Y-136485333D01*
X146843809Y-136437714D01*
X147034285Y-136437714D01*
X147129523Y-136485333D01*
X147558095Y-137104380D02*
X147558095Y-136104380D01*
X147653333Y-136723428D02*
X147939047Y-137104380D01*
X147939047Y-136437714D02*
X147558095Y-136818666D01*
X148748571Y-137056761D02*
X148653333Y-137104380D01*
X148462857Y-137104380D01*
X148367619Y-137056761D01*
X148320000Y-136961523D01*
X148320000Y-136580571D01*
X148367619Y-136485333D01*
X148462857Y-136437714D01*
X148653333Y-136437714D01*
X148748571Y-136485333D01*
X148796190Y-136580571D01*
X148796190Y-136675809D01*
X148320000Y-136771047D01*
X149224761Y-136437714D02*
X149224761Y-137104380D01*
X149224761Y-136532952D02*
X149272380Y-136485333D01*
X149367619Y-136437714D01*
X149510476Y-136437714D01*
X149605714Y-136485333D01*
X149653333Y-136580571D01*
X149653333Y-137104380D01*
X151081904Y-136104380D02*
X151177142Y-136104380D01*
X151272380Y-136152000D01*
X151320000Y-136199619D01*
X151367619Y-136294857D01*
X151415238Y-136485333D01*
X151415238Y-136723428D01*
X151367619Y-136913904D01*
X151320000Y-137009142D01*
X151272380Y-137056761D01*
X151177142Y-137104380D01*
X151081904Y-137104380D01*
X150986666Y-137056761D01*
X150939047Y-137009142D01*
X150891428Y-136913904D01*
X150843809Y-136723428D01*
X150843809Y-136485333D01*
X150891428Y-136294857D01*
X150939047Y-136199619D01*
X150986666Y-136152000D01*
X151081904Y-136104380D01*
X152367619Y-137104380D02*
X151796190Y-137104380D01*
X152081904Y-137104380D02*
X152081904Y-136104380D01*
X151986666Y-136247238D01*
X151891428Y-136342476D01*
X151796190Y-136390095D01*
X153510476Y-136056761D02*
X152653333Y-137342476D01*
X154367619Y-137104380D02*
X153796190Y-137104380D01*
X154081904Y-137104380D02*
X154081904Y-136104380D01*
X153986666Y-136247238D01*
X153891428Y-136342476D01*
X153796190Y-136390095D01*
X154843809Y-137104380D02*
X155034285Y-137104380D01*
X155129523Y-137056761D01*
X155177142Y-137009142D01*
X155272380Y-136866285D01*
X155320000Y-136675809D01*
X155320000Y-136294857D01*
X155272380Y-136199619D01*
X155224761Y-136152000D01*
X155129523Y-136104380D01*
X154939047Y-136104380D01*
X154843809Y-136152000D01*
X154796190Y-136199619D01*
X154748571Y-136294857D01*
X154748571Y-136532952D01*
X154796190Y-136628190D01*
X154843809Y-136675809D01*
X154939047Y-136723428D01*
X155129523Y-136723428D01*
X155224761Y-136675809D01*
X155272380Y-136628190D01*
X155320000Y-136532952D01*
X139073809Y-134072380D02*
X139407142Y-135072380D01*
X139740476Y-134072380D01*
X140502380Y-135072380D02*
X140502380Y-134548571D01*
X140454761Y-134453333D01*
X140359523Y-134405714D01*
X140169047Y-134405714D01*
X140073809Y-134453333D01*
X140502380Y-135024761D02*
X140407142Y-135072380D01*
X140169047Y-135072380D01*
X140073809Y-135024761D01*
X140026190Y-134929523D01*
X140026190Y-134834285D01*
X140073809Y-134739047D01*
X140169047Y-134691428D01*
X140407142Y-134691428D01*
X140502380Y-134643809D01*
X141121428Y-135072380D02*
X141026190Y-135024761D01*
X140978571Y-134929523D01*
X140978571Y-134072380D01*
X141407142Y-134405714D02*
X141645238Y-135072380D01*
X141883333Y-134405714D01*
X142645238Y-135024761D02*
X142550000Y-135072380D01*
X142359523Y-135072380D01*
X142264285Y-135024761D01*
X142216666Y-134929523D01*
X142216666Y-134548571D01*
X142264285Y-134453333D01*
X142359523Y-134405714D01*
X142550000Y-134405714D01*
X142645238Y-134453333D01*
X142692857Y-134548571D01*
X142692857Y-134643809D01*
X142216666Y-134739047D01*
X144454761Y-135072380D02*
X144121428Y-134596190D01*
X143883333Y-135072380D02*
X143883333Y-134072380D01*
X144264285Y-134072380D01*
X144359523Y-134120000D01*
X144407142Y-134167619D01*
X144454761Y-134262857D01*
X144454761Y-134405714D01*
X144407142Y-134500952D01*
X144359523Y-134548571D01*
X144264285Y-134596190D01*
X143883333Y-134596190D01*
X145264285Y-135024761D02*
X145169047Y-135072380D01*
X144978571Y-135072380D01*
X144883333Y-135024761D01*
X144835714Y-134929523D01*
X144835714Y-134548571D01*
X144883333Y-134453333D01*
X144978571Y-134405714D01*
X145169047Y-134405714D01*
X145264285Y-134453333D01*
X145311904Y-134548571D01*
X145311904Y-134643809D01*
X144835714Y-134739047D01*
X145740476Y-134405714D02*
X145740476Y-135405714D01*
X145740476Y-134453333D02*
X145835714Y-134405714D01*
X146026190Y-134405714D01*
X146121428Y-134453333D01*
X146169047Y-134500952D01*
X146216666Y-134596190D01*
X146216666Y-134881904D01*
X146169047Y-134977142D01*
X146121428Y-135024761D01*
X146026190Y-135072380D01*
X145835714Y-135072380D01*
X145740476Y-135024761D01*
X146788095Y-135072380D02*
X146692857Y-135024761D01*
X146645238Y-134977142D01*
X146597619Y-134881904D01*
X146597619Y-134596190D01*
X146645238Y-134500952D01*
X146692857Y-134453333D01*
X146788095Y-134405714D01*
X146930952Y-134405714D01*
X147026190Y-134453333D01*
X147073809Y-134500952D01*
X147121428Y-134596190D01*
X147121428Y-134881904D01*
X147073809Y-134977142D01*
X147026190Y-135024761D01*
X146930952Y-135072380D01*
X146788095Y-135072380D01*
X147550000Y-135072380D02*
X147550000Y-134405714D01*
X147550000Y-134596190D02*
X147597619Y-134500952D01*
X147645238Y-134453333D01*
X147740476Y-134405714D01*
X147835714Y-134405714D01*
X148026190Y-134405714D02*
X148407142Y-134405714D01*
X148169047Y-134072380D02*
X148169047Y-134929523D01*
X148216666Y-135024761D01*
X148311904Y-135072380D01*
X148407142Y-135072380D01*
X149121428Y-135024761D02*
X149026190Y-135072380D01*
X148835714Y-135072380D01*
X148740476Y-135024761D01*
X148692857Y-134929523D01*
X148692857Y-134548571D01*
X148740476Y-134453333D01*
X148835714Y-134405714D01*
X149026190Y-134405714D01*
X149121428Y-134453333D01*
X149169047Y-134548571D01*
X149169047Y-134643809D01*
X148692857Y-134739047D01*
X149597619Y-135072380D02*
X149597619Y-134405714D01*
X149597619Y-134596190D02*
X149645238Y-134500952D01*
X149692857Y-134453333D01*
X149788095Y-134405714D01*
X149883333Y-134405714D01*
X151502380Y-135072380D02*
X150930952Y-135072380D01*
X151216666Y-135072380D02*
X151216666Y-134072380D01*
X151121428Y-134215238D01*
X151026190Y-134310476D01*
X150930952Y-134358095D01*
X151930952Y-134977142D02*
X151978571Y-135024761D01*
X151930952Y-135072380D01*
X151883333Y-135024761D01*
X151930952Y-134977142D01*
X151930952Y-135072380D01*
X152597619Y-134072380D02*
X152692857Y-134072380D01*
X152788095Y-134120000D01*
X152835714Y-134167619D01*
X152883333Y-134262857D01*
X152930952Y-134453333D01*
X152930952Y-134691428D01*
X152883333Y-134881904D01*
X152835714Y-134977142D01*
X152788095Y-135024761D01*
X152692857Y-135072380D01*
X152597619Y-135072380D01*
X152502380Y-135024761D01*
X152454761Y-134977142D01*
X152407142Y-134881904D01*
X152359523Y-134691428D01*
X152359523Y-134453333D01*
X152407142Y-134262857D01*
X152454761Y-134167619D01*
X152502380Y-134120000D01*
X152597619Y-134072380D01*
D11*
X143867428Y-75208000D02*
X143581714Y-75065142D01*
X143153142Y-75065142D01*
X142724571Y-75208000D01*
X142438857Y-75493714D01*
X142296000Y-75779428D01*
X142153142Y-76350857D01*
X142153142Y-76779428D01*
X142296000Y-77350857D01*
X142438857Y-77636571D01*
X142724571Y-77922285D01*
X143153142Y-78065142D01*
X143438857Y-78065142D01*
X143867428Y-77922285D01*
X144010285Y-77779428D01*
X144010285Y-76779428D01*
X143438857Y-76779428D01*
X145153142Y-77922285D02*
X145581714Y-78065142D01*
X146296000Y-78065142D01*
X146581714Y-77922285D01*
X146724571Y-77779428D01*
X146867428Y-77493714D01*
X146867428Y-77208000D01*
X146724571Y-76922285D01*
X146581714Y-76779428D01*
X146296000Y-76636571D01*
X145724571Y-76493714D01*
X145438857Y-76350857D01*
X145296000Y-76208000D01*
X145153142Y-75922285D01*
X145153142Y-75636571D01*
X145296000Y-75350857D01*
X145438857Y-75208000D01*
X145724571Y-75065142D01*
X146438857Y-75065142D01*
X146867428Y-75208000D01*
X147724571Y-75065142D02*
X148724571Y-78065142D01*
X149724571Y-75065142D01*
D12*
G04 #@! TO.C,C2*
X145140000Y-90997936D02*
X145140000Y-92202064D01*
X146960000Y-90997936D02*
X146960000Y-92202064D01*
G04 #@! TO.C,C3*
X146960000Y-98027936D02*
X146960000Y-99232064D01*
X145140000Y-98027936D02*
X145140000Y-99232064D01*
G04 #@! TO.C,C4*
X145140000Y-105777936D02*
X145140000Y-106982064D01*
X146960000Y-105777936D02*
X146960000Y-106982064D01*
G04 #@! TO.C,C5*
X146960000Y-112577936D02*
X146960000Y-113782064D01*
X145140000Y-112577936D02*
X145140000Y-113782064D01*
G04 #@! TO.C,C6*
X145140000Y-120197936D02*
X145140000Y-121402064D01*
X146960000Y-120197936D02*
X146960000Y-121402064D01*
G04 #@! TO.C,C7*
X146960000Y-127127936D02*
X146960000Y-128332064D01*
X145140000Y-127127936D02*
X145140000Y-128332064D01*
G04 #@! TO.C,C8*
X102137936Y-116480000D02*
X103342064Y-116480000D01*
X102137936Y-114660000D02*
X103342064Y-114660000D01*
G04 #@! TO.C,C9*
X106320000Y-133382936D02*
X106320000Y-134587064D01*
X104500000Y-133382936D02*
X104500000Y-134587064D01*
G04 #@! TO.C,D2*
X104340000Y-105545000D02*
X100280000Y-105545000D01*
X100280000Y-105545000D02*
X100280000Y-107815000D01*
X100280000Y-107815000D02*
X104340000Y-107815000D01*
G04 #@! TO.C,D1*
X96385000Y-135715000D02*
X96385000Y-131655000D01*
X96385000Y-131655000D02*
X94115000Y-131655000D01*
X94115000Y-131655000D02*
X94115000Y-135715000D01*
G04 #@! TO.C,R17*
X101127936Y-74020000D02*
X102332064Y-74020000D01*
X101127936Y-75840000D02*
X102332064Y-75840000D01*
G04 #@! TO.C,R16*
X155672064Y-125420000D02*
X154467936Y-125420000D01*
X155672064Y-127240000D02*
X154467936Y-127240000D01*
G04 #@! TO.C,R9*
X141330000Y-128332064D02*
X141330000Y-127127936D01*
X143150000Y-128332064D02*
X143150000Y-127127936D01*
G04 #@! TO.C,R15*
X155412064Y-118620000D02*
X154207936Y-118620000D01*
X155412064Y-120440000D02*
X154207936Y-120440000D01*
G04 #@! TO.C,R14*
X155672064Y-112820000D02*
X154467936Y-112820000D01*
X155672064Y-111000000D02*
X154467936Y-111000000D01*
G04 #@! TO.C,R13*
X155542064Y-104070000D02*
X154337936Y-104070000D01*
X155542064Y-105890000D02*
X154337936Y-105890000D01*
G04 #@! TO.C,R12*
X155542064Y-98270000D02*
X154337936Y-98270000D01*
X155542064Y-96450000D02*
X154337936Y-96450000D01*
G04 #@! TO.C,R11*
X155672064Y-89290000D02*
X154467936Y-89290000D01*
X155672064Y-91110000D02*
X154467936Y-91110000D01*
G04 #@! TO.C,R10*
X155672064Y-83980000D02*
X154467936Y-83980000D01*
X155672064Y-82160000D02*
X154467936Y-82160000D01*
G04 #@! TO.C,R8*
X143150000Y-121402064D02*
X143150000Y-120197936D01*
X141330000Y-121402064D02*
X141330000Y-120197936D01*
G04 #@! TO.C,R6*
X141330000Y-106722064D02*
X141330000Y-105517936D01*
X143150000Y-106722064D02*
X143150000Y-105517936D01*
G04 #@! TO.C,R4*
X143150000Y-92072064D02*
X143150000Y-90867936D01*
X141330000Y-92072064D02*
X141330000Y-90867936D01*
G04 #@! TO.C,R3*
X141330000Y-85072064D02*
X141330000Y-83867936D01*
X143150000Y-85072064D02*
X143150000Y-83867936D01*
G04 #@! TO.C,R2*
X102137936Y-111400000D02*
X103342064Y-111400000D01*
X102137936Y-109580000D02*
X103342064Y-109580000D01*
G04 #@! TO.C,R1*
X99420000Y-134587064D02*
X99420000Y-133382936D01*
X101240000Y-134587064D02*
X101240000Y-133382936D01*
G04 #@! TO.C,R5*
X143150000Y-99102064D02*
X143150000Y-97897936D01*
X141330000Y-99102064D02*
X141330000Y-97897936D01*
G04 #@! TO.C,R7*
X141330000Y-113652064D02*
X141330000Y-112447936D01*
X143150000Y-113652064D02*
X143150000Y-112447936D01*
G04 #@! TO.C,C10*
X162027369Y-136830000D02*
X160432631Y-136830000D01*
X162027369Y-132410000D02*
X160432631Y-132410000D01*
G04 #@! TO.C,D8*
X150710000Y-118900000D02*
X150710000Y-122050000D01*
X149010000Y-118900000D02*
X149010000Y-122050000D01*
X150710000Y-118900000D02*
X149010000Y-118900000D01*
G04 #@! TO.C,D6*
X150710000Y-104350000D02*
X149010000Y-104350000D01*
X149010000Y-104350000D02*
X149010000Y-107500000D01*
X150710000Y-104350000D02*
X150710000Y-107500000D01*
G04 #@! TO.C,D4*
X150710000Y-89570000D02*
X150710000Y-92720000D01*
X149010000Y-89570000D02*
X149010000Y-92720000D01*
X150710000Y-89570000D02*
X149010000Y-89570000D01*
G04 #@! TO.C,D5*
X150710000Y-96560000D02*
X149010000Y-96560000D01*
X149010000Y-96560000D02*
X149010000Y-99710000D01*
X150710000Y-96560000D02*
X150710000Y-99710000D01*
G04 #@! TO.C,D7*
X150710000Y-111280000D02*
X150710000Y-114430000D01*
X149010000Y-111280000D02*
X149010000Y-114430000D01*
X150710000Y-111280000D02*
X149010000Y-111280000D01*
G04 #@! TO.C,D9*
X150710000Y-125700000D02*
X149010000Y-125700000D01*
X149010000Y-125700000D02*
X149010000Y-128850000D01*
X150710000Y-125700000D02*
X150710000Y-128850000D01*
G04 #@! TO.C,D3*
X150710000Y-82440000D02*
X150710000Y-85590000D01*
X149010000Y-82440000D02*
X149010000Y-85590000D01*
X150710000Y-82440000D02*
X149010000Y-82440000D01*
G04 #@! TO.C,J2*
X171604721Y-126109736D02*
G75*
G02X171860000Y-127000000I-1424721J-890264D01*
G01*
X169289807Y-125574495D02*
G75*
G02X171071000Y-125575000I890193J-1425505D01*
G01*
X168754642Y-127889894D02*
G75*
G02X168740000Y-126134000I1425358J889894D01*
G01*
X171069894Y-128425358D02*
G75*
G02X169314000Y-128440000I-889894J1425358D01*
G01*
X171860099Y-126971326D02*
G75*
G02X171620000Y-127866000I-1680099J-28674D01*
G01*
X171860000Y-123500000D02*
G75*
G03X171860000Y-123500000I-1680000J0D01*
G01*
X171860000Y-120000000D02*
G75*
G03X171860000Y-120000000I-1680000J0D01*
G01*
X171860000Y-116500000D02*
G75*
G03X171860000Y-116500000I-1680000J0D01*
G01*
X171860000Y-113000000D02*
G75*
G03X171860000Y-113000000I-1680000J0D01*
G01*
X171860000Y-109500000D02*
G75*
G03X171860000Y-109500000I-1680000J0D01*
G01*
X171860000Y-106000000D02*
G75*
G03X171860000Y-106000000I-1680000J0D01*
G01*
X171860000Y-102500000D02*
G75*
G03X171860000Y-102500000I-1680000J0D01*
G01*
X171860000Y-99000000D02*
G75*
G03X171860000Y-99000000I-1680000J0D01*
G01*
X171860000Y-95500000D02*
G75*
G03X171860000Y-95500000I-1680000J0D01*
G01*
X171860000Y-92000000D02*
G75*
G03X171860000Y-92000000I-1680000J0D01*
G01*
X171860000Y-88500000D02*
G75*
G03X171860000Y-88500000I-1680000J0D01*
G01*
X171860000Y-85000000D02*
G75*
G03X171860000Y-85000000I-1680000J0D01*
G01*
X171860000Y-81500000D02*
G75*
G03X171860000Y-81500000I-1680000J0D01*
G01*
X174280000Y-128810000D02*
X174280000Y-79690000D01*
X173180000Y-128810000D02*
X173180000Y-79690000D01*
X167020000Y-128810000D02*
X167020000Y-79690000D01*
X174740000Y-128810000D02*
X174740000Y-79690000D01*
X167020000Y-128810000D02*
X174740000Y-128810000D01*
X167020000Y-79690000D02*
X174740000Y-79690000D01*
X169111000Y-122225000D02*
X169239000Y-122354000D01*
X171361000Y-124475000D02*
X171454000Y-124569000D01*
X168905000Y-122430000D02*
X168999000Y-122524000D01*
X171121000Y-124645000D02*
X171249000Y-124774000D01*
X169111000Y-118725000D02*
X169239000Y-118854000D01*
X171361000Y-120975000D02*
X171454000Y-121069000D01*
X168905000Y-118930000D02*
X168999000Y-119024000D01*
X171121000Y-121145000D02*
X171249000Y-121274000D01*
X169111000Y-115225000D02*
X169239000Y-115354000D01*
X171361000Y-117475000D02*
X171454000Y-117569000D01*
X168905000Y-115430000D02*
X168999000Y-115524000D01*
X171121000Y-117645000D02*
X171249000Y-117774000D01*
X169111000Y-111725000D02*
X169239000Y-111854000D01*
X171361000Y-113975000D02*
X171454000Y-114069000D01*
X168905000Y-111930000D02*
X168999000Y-112024000D01*
X171121000Y-114145000D02*
X171249000Y-114274000D01*
X169111000Y-108225000D02*
X169239000Y-108354000D01*
X171361000Y-110475000D02*
X171454000Y-110569000D01*
X168905000Y-108430000D02*
X168999000Y-108524000D01*
X171121000Y-110645000D02*
X171249000Y-110774000D01*
X169111000Y-104725000D02*
X169239000Y-104854000D01*
X171361000Y-106975000D02*
X171454000Y-107069000D01*
X168905000Y-104930000D02*
X168999000Y-105024000D01*
X171121000Y-107145000D02*
X171249000Y-107274000D01*
X169111000Y-101225000D02*
X169239000Y-101354000D01*
X171361000Y-103475000D02*
X171454000Y-103569000D01*
X168905000Y-101430000D02*
X168999000Y-101524000D01*
X171121000Y-103645000D02*
X171249000Y-103774000D01*
X169111000Y-97725000D02*
X169239000Y-97854000D01*
X171361000Y-99975000D02*
X171454000Y-100069000D01*
X168905000Y-97930000D02*
X168999000Y-98024000D01*
X171121000Y-100145000D02*
X171249000Y-100274000D01*
X169111000Y-94225000D02*
X169239000Y-94354000D01*
X171361000Y-96475000D02*
X171454000Y-96569000D01*
X168905000Y-94430000D02*
X168999000Y-94524000D01*
X171121000Y-96645000D02*
X171249000Y-96774000D01*
X169111000Y-90725000D02*
X169239000Y-90854000D01*
X171361000Y-92975000D02*
X171454000Y-93069000D01*
X168905000Y-90930000D02*
X168999000Y-91024000D01*
X171121000Y-93145000D02*
X171249000Y-93274000D01*
X169111000Y-87225000D02*
X169239000Y-87354000D01*
X171361000Y-89475000D02*
X171454000Y-89569000D01*
X168905000Y-87430000D02*
X168999000Y-87524000D01*
X171121000Y-89645000D02*
X171249000Y-89774000D01*
X169111000Y-83725000D02*
X169239000Y-83854000D01*
X171361000Y-85975000D02*
X171454000Y-86069000D01*
X168905000Y-83930000D02*
X168999000Y-84024000D01*
X171121000Y-86145000D02*
X171249000Y-86274000D01*
X169111000Y-80225000D02*
X169239000Y-80354000D01*
X171361000Y-82475000D02*
X171454000Y-82569000D01*
X168905000Y-80430000D02*
X168999000Y-80524000D01*
X171121000Y-82645000D02*
X171249000Y-82774000D01*
X174340000Y-129050000D02*
X174980000Y-129050000D01*
X174980000Y-129050000D02*
X174980000Y-128650000D01*
G04 #@! TO.C,J1*
X91080000Y-104775000D02*
G75*
G03X91080000Y-104775000I-2180000J0D01*
G01*
X91080000Y-109775000D02*
G75*
G03X91080000Y-109775000I-2180000J0D01*
G01*
X91080000Y-114775000D02*
G75*
G03X91080000Y-114775000I-2180000J0D01*
G01*
X91080000Y-119775000D02*
G75*
G03X91080000Y-119775000I-2180000J0D01*
G01*
X91080000Y-124775000D02*
G75*
G03X91080000Y-124775000I-2180000J0D01*
G01*
X84300000Y-102215000D02*
X84300000Y-127335000D01*
X85400000Y-102215000D02*
X85400000Y-127335000D01*
X92960000Y-102215000D02*
X92960000Y-127335000D01*
X83840000Y-102215000D02*
X83840000Y-127335000D01*
X92960000Y-102215000D02*
X83840000Y-102215000D01*
X92960000Y-127335000D02*
X83840000Y-127335000D01*
X90288000Y-106429000D02*
X90181000Y-106322000D01*
X87353000Y-103493000D02*
X87246000Y-103387000D01*
X90554000Y-106163000D02*
X90447000Y-106056000D01*
X87619000Y-103227000D02*
X87512000Y-103121000D01*
X90288000Y-111429000D02*
X89892000Y-111034000D01*
X87626000Y-108768000D02*
X87246000Y-108388000D01*
X90554000Y-111163000D02*
X90174000Y-110783000D01*
X87908000Y-108517000D02*
X87512000Y-108122000D01*
X90288000Y-116429000D02*
X89892000Y-116034000D01*
X87626000Y-113768000D02*
X87246000Y-113388000D01*
X90554000Y-116163000D02*
X90174000Y-115783000D01*
X87908000Y-113517000D02*
X87512000Y-113122000D01*
X90288000Y-121429000D02*
X89892000Y-121034000D01*
X87626000Y-118768000D02*
X87246000Y-118388000D01*
X90554000Y-121163000D02*
X90174000Y-120783000D01*
X87908000Y-118517000D02*
X87512000Y-118122000D01*
X90288000Y-126429000D02*
X89892000Y-126034000D01*
X87626000Y-123768000D02*
X87246000Y-123388000D01*
X90554000Y-126163000D02*
X90174000Y-125783000D01*
X87908000Y-123517000D02*
X87512000Y-123122000D01*
X84240000Y-101975000D02*
X83600000Y-101975000D01*
X83600000Y-101975000D02*
X83600000Y-102375000D01*
G04 #@! TO.C,C1*
X146960000Y-83955436D02*
X146960000Y-85159564D01*
X145140000Y-83955436D02*
X145140000Y-85159564D01*
G04 #@! TO.C,D10*
X160870000Y-82440000D02*
X160870000Y-85590000D01*
X159170000Y-82440000D02*
X159170000Y-85590000D01*
X160870000Y-82440000D02*
X159170000Y-82440000D01*
G04 #@! TO.C,D11*
X160870000Y-89550000D02*
X159170000Y-89550000D01*
X159170000Y-89550000D02*
X159170000Y-92700000D01*
X160870000Y-89550000D02*
X160870000Y-92700000D01*
G04 #@! TO.C,D12*
X160870000Y-96710000D02*
X159170000Y-96710000D01*
X159170000Y-96710000D02*
X159170000Y-99860000D01*
X160870000Y-96710000D02*
X160870000Y-99860000D01*
G04 #@! TO.C,D13*
X160870000Y-104330000D02*
X159170000Y-104330000D01*
X159170000Y-104330000D02*
X159170000Y-107480000D01*
X160870000Y-104330000D02*
X160870000Y-107480000D01*
G04 #@! TO.C,D14*
X160870000Y-111260000D02*
X160870000Y-114410000D01*
X159170000Y-111260000D02*
X159170000Y-114410000D01*
X160870000Y-111260000D02*
X159170000Y-111260000D01*
G04 #@! TO.C,D15*
X160870000Y-118900000D02*
X160870000Y-122050000D01*
X159170000Y-118900000D02*
X159170000Y-122050000D01*
X160870000Y-118900000D02*
X159170000Y-118900000D01*
G04 #@! TO.C,D16*
X160870000Y-125680000D02*
X159170000Y-125680000D01*
X159170000Y-125680000D02*
X159170000Y-128830000D01*
X160870000Y-125680000D02*
X160870000Y-128830000D01*
G04 #@! TO.C,K1*
X83455000Y-96615000D02*
X106155000Y-96615000D01*
X106155000Y-96615000D02*
X106155000Y-79915000D01*
X106155000Y-79915000D02*
X83455000Y-79915000D01*
X83455000Y-79915000D02*
X83455000Y-96615000D01*
X101105000Y-87915000D02*
X101505000Y-88615000D01*
X100705000Y-88615000D02*
X101905000Y-88615000D01*
X101905000Y-88615000D02*
X101905000Y-87915000D01*
X101905000Y-87915000D02*
X100705000Y-87915000D01*
X100705000Y-87915000D02*
X100705000Y-88615000D01*
X106415000Y-87265000D02*
X106415000Y-89265000D01*
X101305000Y-83765000D02*
X101305000Y-86915000D01*
X101305000Y-89615000D02*
X101305000Y-92765000D01*
G04 #@! TO.C,Q1*
X104479500Y-98861000D02*
X100879500Y-98861000D01*
X104517978Y-98872522D02*
G75*
G02X102679500Y-103311000I-1838478J-1838478D01*
G01*
X100841022Y-98872522D02*
G75*
G03X102679500Y-103311000I1838478J-1838478D01*
G01*
D13*
G04 #@! TO.C,U1*
X137771052Y-129635001D02*
G75*
G03X137771052Y-129635001I-1796051J0D01*
G01*
X112371052Y-129635001D02*
G75*
G03X112371052Y-129635001I-1796051J0D01*
G01*
X112371052Y-77565001D02*
G75*
G03X112371052Y-77565001I-1796051J0D01*
G01*
X137771052Y-77565001D02*
G75*
G03X137771052Y-77565001I-1796051J0D01*
G01*
X138525001Y-75005001D02*
X108525001Y-75005001D01*
X108525001Y-75005001D02*
X108025001Y-75005001D01*
X108025001Y-75005001D02*
X108025001Y-132005001D01*
X108025001Y-132005001D02*
X138525001Y-132005001D01*
X138525001Y-132005001D02*
X138525001Y-75005001D01*
D14*
G04 #@! TO.C,U2*
X104160000Y-119360000D02*
X104160000Y-129460000D01*
X100470000Y-129560000D02*
X100870000Y-129560000D01*
X100470000Y-129560000D02*
X100470000Y-129160000D01*
X100470000Y-119360000D02*
X104870000Y-119360000D01*
X100470000Y-119360000D02*
X100470000Y-119760000D01*
X105270000Y-119360000D02*
X104870000Y-119360000D01*
X105270000Y-119360000D02*
X105270000Y-119760000D01*
X105270000Y-129160000D02*
X105270000Y-129560000D01*
X105270000Y-129560000D02*
X104870000Y-129560000D01*
G04 #@! TO.C,C2*
D13*
X148227142Y-91766666D02*
X148274761Y-91814285D01*
X148322380Y-91957142D01*
X148322380Y-92052380D01*
X148274761Y-92195238D01*
X148179523Y-92290476D01*
X148084285Y-92338095D01*
X147893809Y-92385714D01*
X147750952Y-92385714D01*
X147560476Y-92338095D01*
X147465238Y-92290476D01*
X147370000Y-92195238D01*
X147322380Y-92052380D01*
X147322380Y-91957142D01*
X147370000Y-91814285D01*
X147417619Y-91766666D01*
X147417619Y-91385714D02*
X147370000Y-91338095D01*
X147322380Y-91242857D01*
X147322380Y-91004761D01*
X147370000Y-90909523D01*
X147417619Y-90861904D01*
X147512857Y-90814285D01*
X147608095Y-90814285D01*
X147750952Y-90861904D01*
X148322380Y-91433333D01*
X148322380Y-90814285D01*
G04 #@! TO.C,C3*
X148227142Y-98796666D02*
X148274761Y-98844285D01*
X148322380Y-98987142D01*
X148322380Y-99082380D01*
X148274761Y-99225238D01*
X148179523Y-99320476D01*
X148084285Y-99368095D01*
X147893809Y-99415714D01*
X147750952Y-99415714D01*
X147560476Y-99368095D01*
X147465238Y-99320476D01*
X147370000Y-99225238D01*
X147322380Y-99082380D01*
X147322380Y-98987142D01*
X147370000Y-98844285D01*
X147417619Y-98796666D01*
X147322380Y-98463333D02*
X147322380Y-97844285D01*
X147703333Y-98177619D01*
X147703333Y-98034761D01*
X147750952Y-97939523D01*
X147798571Y-97891904D01*
X147893809Y-97844285D01*
X148131904Y-97844285D01*
X148227142Y-97891904D01*
X148274761Y-97939523D01*
X148322380Y-98034761D01*
X148322380Y-98320476D01*
X148274761Y-98415714D01*
X148227142Y-98463333D01*
G04 #@! TO.C,C4*
X148227142Y-106546666D02*
X148274761Y-106594285D01*
X148322380Y-106737142D01*
X148322380Y-106832380D01*
X148274761Y-106975238D01*
X148179523Y-107070476D01*
X148084285Y-107118095D01*
X147893809Y-107165714D01*
X147750952Y-107165714D01*
X147560476Y-107118095D01*
X147465238Y-107070476D01*
X147370000Y-106975238D01*
X147322380Y-106832380D01*
X147322380Y-106737142D01*
X147370000Y-106594285D01*
X147417619Y-106546666D01*
X147655714Y-105689523D02*
X148322380Y-105689523D01*
X147274761Y-105927619D02*
X147989047Y-106165714D01*
X147989047Y-105546666D01*
G04 #@! TO.C,C5*
X148227142Y-113346666D02*
X148274761Y-113394285D01*
X148322380Y-113537142D01*
X148322380Y-113632380D01*
X148274761Y-113775238D01*
X148179523Y-113870476D01*
X148084285Y-113918095D01*
X147893809Y-113965714D01*
X147750952Y-113965714D01*
X147560476Y-113918095D01*
X147465238Y-113870476D01*
X147370000Y-113775238D01*
X147322380Y-113632380D01*
X147322380Y-113537142D01*
X147370000Y-113394285D01*
X147417619Y-113346666D01*
X147322380Y-112441904D02*
X147322380Y-112918095D01*
X147798571Y-112965714D01*
X147750952Y-112918095D01*
X147703333Y-112822857D01*
X147703333Y-112584761D01*
X147750952Y-112489523D01*
X147798571Y-112441904D01*
X147893809Y-112394285D01*
X148131904Y-112394285D01*
X148227142Y-112441904D01*
X148274761Y-112489523D01*
X148322380Y-112584761D01*
X148322380Y-112822857D01*
X148274761Y-112918095D01*
X148227142Y-112965714D01*
G04 #@! TO.C,C6*
X148227142Y-120966666D02*
X148274761Y-121014285D01*
X148322380Y-121157142D01*
X148322380Y-121252380D01*
X148274761Y-121395238D01*
X148179523Y-121490476D01*
X148084285Y-121538095D01*
X147893809Y-121585714D01*
X147750952Y-121585714D01*
X147560476Y-121538095D01*
X147465238Y-121490476D01*
X147370000Y-121395238D01*
X147322380Y-121252380D01*
X147322380Y-121157142D01*
X147370000Y-121014285D01*
X147417619Y-120966666D01*
X147322380Y-120109523D02*
X147322380Y-120300000D01*
X147370000Y-120395238D01*
X147417619Y-120442857D01*
X147560476Y-120538095D01*
X147750952Y-120585714D01*
X148131904Y-120585714D01*
X148227142Y-120538095D01*
X148274761Y-120490476D01*
X148322380Y-120395238D01*
X148322380Y-120204761D01*
X148274761Y-120109523D01*
X148227142Y-120061904D01*
X148131904Y-120014285D01*
X147893809Y-120014285D01*
X147798571Y-120061904D01*
X147750952Y-120109523D01*
X147703333Y-120204761D01*
X147703333Y-120395238D01*
X147750952Y-120490476D01*
X147798571Y-120538095D01*
X147893809Y-120585714D01*
G04 #@! TO.C,C7*
X148227142Y-127896666D02*
X148274761Y-127944285D01*
X148322380Y-128087142D01*
X148322380Y-128182380D01*
X148274761Y-128325238D01*
X148179523Y-128420476D01*
X148084285Y-128468095D01*
X147893809Y-128515714D01*
X147750952Y-128515714D01*
X147560476Y-128468095D01*
X147465238Y-128420476D01*
X147370000Y-128325238D01*
X147322380Y-128182380D01*
X147322380Y-128087142D01*
X147370000Y-127944285D01*
X147417619Y-127896666D01*
X147322380Y-127563333D02*
X147322380Y-126896666D01*
X148322380Y-127325238D01*
G04 #@! TO.C,C8*
X102573333Y-114107142D02*
X102525714Y-114154761D01*
X102382857Y-114202380D01*
X102287619Y-114202380D01*
X102144761Y-114154761D01*
X102049523Y-114059523D01*
X102001904Y-113964285D01*
X101954285Y-113773809D01*
X101954285Y-113630952D01*
X102001904Y-113440476D01*
X102049523Y-113345238D01*
X102144761Y-113250000D01*
X102287619Y-113202380D01*
X102382857Y-113202380D01*
X102525714Y-113250000D01*
X102573333Y-113297619D01*
X103144761Y-113630952D02*
X103049523Y-113583333D01*
X103001904Y-113535714D01*
X102954285Y-113440476D01*
X102954285Y-113392857D01*
X103001904Y-113297619D01*
X103049523Y-113250000D01*
X103144761Y-113202380D01*
X103335238Y-113202380D01*
X103430476Y-113250000D01*
X103478095Y-113297619D01*
X103525714Y-113392857D01*
X103525714Y-113440476D01*
X103478095Y-113535714D01*
X103430476Y-113583333D01*
X103335238Y-113630952D01*
X103144761Y-113630952D01*
X103049523Y-113678571D01*
X103001904Y-113726190D01*
X102954285Y-113821428D01*
X102954285Y-114011904D01*
X103001904Y-114107142D01*
X103049523Y-114154761D01*
X103144761Y-114202380D01*
X103335238Y-114202380D01*
X103430476Y-114154761D01*
X103478095Y-114107142D01*
X103525714Y-114011904D01*
X103525714Y-113821428D01*
X103478095Y-113726190D01*
X103430476Y-113678571D01*
X103335238Y-113630952D01*
G04 #@! TO.C,C9*
X107587142Y-134151666D02*
X107634761Y-134199285D01*
X107682380Y-134342142D01*
X107682380Y-134437380D01*
X107634761Y-134580238D01*
X107539523Y-134675476D01*
X107444285Y-134723095D01*
X107253809Y-134770714D01*
X107110952Y-134770714D01*
X106920476Y-134723095D01*
X106825238Y-134675476D01*
X106730000Y-134580238D01*
X106682380Y-134437380D01*
X106682380Y-134342142D01*
X106730000Y-134199285D01*
X106777619Y-134151666D01*
X107682380Y-133675476D02*
X107682380Y-133485000D01*
X107634761Y-133389761D01*
X107587142Y-133342142D01*
X107444285Y-133246904D01*
X107253809Y-133199285D01*
X106872857Y-133199285D01*
X106777619Y-133246904D01*
X106730000Y-133294523D01*
X106682380Y-133389761D01*
X106682380Y-133580238D01*
X106730000Y-133675476D01*
X106777619Y-133723095D01*
X106872857Y-133770714D01*
X107110952Y-133770714D01*
X107206190Y-133723095D01*
X107253809Y-133675476D01*
X107301428Y-133580238D01*
X107301428Y-133389761D01*
X107253809Y-133294523D01*
X107206190Y-133246904D01*
X107110952Y-133199285D01*
G04 #@! TO.C,D2*
X102001904Y-105312380D02*
X102001904Y-104312380D01*
X102240000Y-104312380D01*
X102382857Y-104360000D01*
X102478095Y-104455238D01*
X102525714Y-104550476D01*
X102573333Y-104740952D01*
X102573333Y-104883809D01*
X102525714Y-105074285D01*
X102478095Y-105169523D01*
X102382857Y-105264761D01*
X102240000Y-105312380D01*
X102001904Y-105312380D01*
X102954285Y-104407619D02*
X103001904Y-104360000D01*
X103097142Y-104312380D01*
X103335238Y-104312380D01*
X103430476Y-104360000D01*
X103478095Y-104407619D01*
X103525714Y-104502857D01*
X103525714Y-104598095D01*
X103478095Y-104740952D01*
X102906666Y-105312380D01*
X103525714Y-105312380D01*
G04 #@! TO.C,D1*
X97522380Y-134853095D02*
X96522380Y-134853095D01*
X96522380Y-134615000D01*
X96570000Y-134472142D01*
X96665238Y-134376904D01*
X96760476Y-134329285D01*
X96950952Y-134281666D01*
X97093809Y-134281666D01*
X97284285Y-134329285D01*
X97379523Y-134376904D01*
X97474761Y-134472142D01*
X97522380Y-134615000D01*
X97522380Y-134853095D01*
X97522380Y-133329285D02*
X97522380Y-133900714D01*
X97522380Y-133615000D02*
X96522380Y-133615000D01*
X96665238Y-133710238D01*
X96760476Y-133805476D01*
X96808095Y-133900714D01*
G04 #@! TO.C,R17*
X101087142Y-73562380D02*
X100753809Y-73086190D01*
X100515714Y-73562380D02*
X100515714Y-72562380D01*
X100896666Y-72562380D01*
X100991904Y-72610000D01*
X101039523Y-72657619D01*
X101087142Y-72752857D01*
X101087142Y-72895714D01*
X101039523Y-72990952D01*
X100991904Y-73038571D01*
X100896666Y-73086190D01*
X100515714Y-73086190D01*
X102039523Y-73562380D02*
X101468095Y-73562380D01*
X101753809Y-73562380D02*
X101753809Y-72562380D01*
X101658571Y-72705238D01*
X101563333Y-72800476D01*
X101468095Y-72848095D01*
X102372857Y-72562380D02*
X103039523Y-72562380D01*
X102610952Y-73562380D01*
G04 #@! TO.C,R16*
X154427142Y-128602380D02*
X154093809Y-128126190D01*
X153855714Y-128602380D02*
X153855714Y-127602380D01*
X154236666Y-127602380D01*
X154331904Y-127650000D01*
X154379523Y-127697619D01*
X154427142Y-127792857D01*
X154427142Y-127935714D01*
X154379523Y-128030952D01*
X154331904Y-128078571D01*
X154236666Y-128126190D01*
X153855714Y-128126190D01*
X155379523Y-128602380D02*
X154808095Y-128602380D01*
X155093809Y-128602380D02*
X155093809Y-127602380D01*
X154998571Y-127745238D01*
X154903333Y-127840476D01*
X154808095Y-127888095D01*
X156236666Y-127602380D02*
X156046190Y-127602380D01*
X155950952Y-127650000D01*
X155903333Y-127697619D01*
X155808095Y-127840476D01*
X155760476Y-128030952D01*
X155760476Y-128411904D01*
X155808095Y-128507142D01*
X155855714Y-128554761D01*
X155950952Y-128602380D01*
X156141428Y-128602380D01*
X156236666Y-128554761D01*
X156284285Y-128507142D01*
X156331904Y-128411904D01*
X156331904Y-128173809D01*
X156284285Y-128078571D01*
X156236666Y-128030952D01*
X156141428Y-127983333D01*
X155950952Y-127983333D01*
X155855714Y-128030952D01*
X155808095Y-128078571D01*
X155760476Y-128173809D01*
G04 #@! TO.C,R9*
X140872380Y-127896666D02*
X140396190Y-128230000D01*
X140872380Y-128468095D02*
X139872380Y-128468095D01*
X139872380Y-128087142D01*
X139920000Y-127991904D01*
X139967619Y-127944285D01*
X140062857Y-127896666D01*
X140205714Y-127896666D01*
X140300952Y-127944285D01*
X140348571Y-127991904D01*
X140396190Y-128087142D01*
X140396190Y-128468095D01*
X140872380Y-127420476D02*
X140872380Y-127230000D01*
X140824761Y-127134761D01*
X140777142Y-127087142D01*
X140634285Y-126991904D01*
X140443809Y-126944285D01*
X140062857Y-126944285D01*
X139967619Y-126991904D01*
X139920000Y-127039523D01*
X139872380Y-127134761D01*
X139872380Y-127325238D01*
X139920000Y-127420476D01*
X139967619Y-127468095D01*
X140062857Y-127515714D01*
X140300952Y-127515714D01*
X140396190Y-127468095D01*
X140443809Y-127420476D01*
X140491428Y-127325238D01*
X140491428Y-127134761D01*
X140443809Y-127039523D01*
X140396190Y-126991904D01*
X140300952Y-126944285D01*
G04 #@! TO.C,R15*
X154167142Y-121802380D02*
X153833809Y-121326190D01*
X153595714Y-121802380D02*
X153595714Y-120802380D01*
X153976666Y-120802380D01*
X154071904Y-120850000D01*
X154119523Y-120897619D01*
X154167142Y-120992857D01*
X154167142Y-121135714D01*
X154119523Y-121230952D01*
X154071904Y-121278571D01*
X153976666Y-121326190D01*
X153595714Y-121326190D01*
X155119523Y-121802380D02*
X154548095Y-121802380D01*
X154833809Y-121802380D02*
X154833809Y-120802380D01*
X154738571Y-120945238D01*
X154643333Y-121040476D01*
X154548095Y-121088095D01*
X156024285Y-120802380D02*
X155548095Y-120802380D01*
X155500476Y-121278571D01*
X155548095Y-121230952D01*
X155643333Y-121183333D01*
X155881428Y-121183333D01*
X155976666Y-121230952D01*
X156024285Y-121278571D01*
X156071904Y-121373809D01*
X156071904Y-121611904D01*
X156024285Y-121707142D01*
X155976666Y-121754761D01*
X155881428Y-121802380D01*
X155643333Y-121802380D01*
X155548095Y-121754761D01*
X155500476Y-121707142D01*
G04 #@! TO.C,R14*
X154427142Y-114182380D02*
X154093809Y-113706190D01*
X153855714Y-114182380D02*
X153855714Y-113182380D01*
X154236666Y-113182380D01*
X154331904Y-113230000D01*
X154379523Y-113277619D01*
X154427142Y-113372857D01*
X154427142Y-113515714D01*
X154379523Y-113610952D01*
X154331904Y-113658571D01*
X154236666Y-113706190D01*
X153855714Y-113706190D01*
X155379523Y-114182380D02*
X154808095Y-114182380D01*
X155093809Y-114182380D02*
X155093809Y-113182380D01*
X154998571Y-113325238D01*
X154903333Y-113420476D01*
X154808095Y-113468095D01*
X156236666Y-113515714D02*
X156236666Y-114182380D01*
X155998571Y-113134761D02*
X155760476Y-113849047D01*
X156379523Y-113849047D01*
G04 #@! TO.C,R13*
X154297142Y-107252380D02*
X153963809Y-106776190D01*
X153725714Y-107252380D02*
X153725714Y-106252380D01*
X154106666Y-106252380D01*
X154201904Y-106300000D01*
X154249523Y-106347619D01*
X154297142Y-106442857D01*
X154297142Y-106585714D01*
X154249523Y-106680952D01*
X154201904Y-106728571D01*
X154106666Y-106776190D01*
X153725714Y-106776190D01*
X155249523Y-107252380D02*
X154678095Y-107252380D01*
X154963809Y-107252380D02*
X154963809Y-106252380D01*
X154868571Y-106395238D01*
X154773333Y-106490476D01*
X154678095Y-106538095D01*
X155582857Y-106252380D02*
X156201904Y-106252380D01*
X155868571Y-106633333D01*
X156011428Y-106633333D01*
X156106666Y-106680952D01*
X156154285Y-106728571D01*
X156201904Y-106823809D01*
X156201904Y-107061904D01*
X156154285Y-107157142D01*
X156106666Y-107204761D01*
X156011428Y-107252380D01*
X155725714Y-107252380D01*
X155630476Y-107204761D01*
X155582857Y-107157142D01*
G04 #@! TO.C,R12*
X154297142Y-99632380D02*
X153963809Y-99156190D01*
X153725714Y-99632380D02*
X153725714Y-98632380D01*
X154106666Y-98632380D01*
X154201904Y-98680000D01*
X154249523Y-98727619D01*
X154297142Y-98822857D01*
X154297142Y-98965714D01*
X154249523Y-99060952D01*
X154201904Y-99108571D01*
X154106666Y-99156190D01*
X153725714Y-99156190D01*
X155249523Y-99632380D02*
X154678095Y-99632380D01*
X154963809Y-99632380D02*
X154963809Y-98632380D01*
X154868571Y-98775238D01*
X154773333Y-98870476D01*
X154678095Y-98918095D01*
X155630476Y-98727619D02*
X155678095Y-98680000D01*
X155773333Y-98632380D01*
X156011428Y-98632380D01*
X156106666Y-98680000D01*
X156154285Y-98727619D01*
X156201904Y-98822857D01*
X156201904Y-98918095D01*
X156154285Y-99060952D01*
X155582857Y-99632380D01*
X156201904Y-99632380D01*
G04 #@! TO.C,R11*
X154427142Y-92472380D02*
X154093809Y-91996190D01*
X153855714Y-92472380D02*
X153855714Y-91472380D01*
X154236666Y-91472380D01*
X154331904Y-91520000D01*
X154379523Y-91567619D01*
X154427142Y-91662857D01*
X154427142Y-91805714D01*
X154379523Y-91900952D01*
X154331904Y-91948571D01*
X154236666Y-91996190D01*
X153855714Y-91996190D01*
X155379523Y-92472380D02*
X154808095Y-92472380D01*
X155093809Y-92472380D02*
X155093809Y-91472380D01*
X154998571Y-91615238D01*
X154903333Y-91710476D01*
X154808095Y-91758095D01*
X156331904Y-92472380D02*
X155760476Y-92472380D01*
X156046190Y-92472380D02*
X156046190Y-91472380D01*
X155950952Y-91615238D01*
X155855714Y-91710476D01*
X155760476Y-91758095D01*
G04 #@! TO.C,R10*
X154427142Y-85342380D02*
X154093809Y-84866190D01*
X153855714Y-85342380D02*
X153855714Y-84342380D01*
X154236666Y-84342380D01*
X154331904Y-84390000D01*
X154379523Y-84437619D01*
X154427142Y-84532857D01*
X154427142Y-84675714D01*
X154379523Y-84770952D01*
X154331904Y-84818571D01*
X154236666Y-84866190D01*
X153855714Y-84866190D01*
X155379523Y-85342380D02*
X154808095Y-85342380D01*
X155093809Y-85342380D02*
X155093809Y-84342380D01*
X154998571Y-84485238D01*
X154903333Y-84580476D01*
X154808095Y-84628095D01*
X155998571Y-84342380D02*
X156093809Y-84342380D01*
X156189047Y-84390000D01*
X156236666Y-84437619D01*
X156284285Y-84532857D01*
X156331904Y-84723333D01*
X156331904Y-84961428D01*
X156284285Y-85151904D01*
X156236666Y-85247142D01*
X156189047Y-85294761D01*
X156093809Y-85342380D01*
X155998571Y-85342380D01*
X155903333Y-85294761D01*
X155855714Y-85247142D01*
X155808095Y-85151904D01*
X155760476Y-84961428D01*
X155760476Y-84723333D01*
X155808095Y-84532857D01*
X155855714Y-84437619D01*
X155903333Y-84390000D01*
X155998571Y-84342380D01*
G04 #@! TO.C,R8*
X140872380Y-120966666D02*
X140396190Y-121300000D01*
X140872380Y-121538095D02*
X139872380Y-121538095D01*
X139872380Y-121157142D01*
X139920000Y-121061904D01*
X139967619Y-121014285D01*
X140062857Y-120966666D01*
X140205714Y-120966666D01*
X140300952Y-121014285D01*
X140348571Y-121061904D01*
X140396190Y-121157142D01*
X140396190Y-121538095D01*
X140300952Y-120395238D02*
X140253333Y-120490476D01*
X140205714Y-120538095D01*
X140110476Y-120585714D01*
X140062857Y-120585714D01*
X139967619Y-120538095D01*
X139920000Y-120490476D01*
X139872380Y-120395238D01*
X139872380Y-120204761D01*
X139920000Y-120109523D01*
X139967619Y-120061904D01*
X140062857Y-120014285D01*
X140110476Y-120014285D01*
X140205714Y-120061904D01*
X140253333Y-120109523D01*
X140300952Y-120204761D01*
X140300952Y-120395238D01*
X140348571Y-120490476D01*
X140396190Y-120538095D01*
X140491428Y-120585714D01*
X140681904Y-120585714D01*
X140777142Y-120538095D01*
X140824761Y-120490476D01*
X140872380Y-120395238D01*
X140872380Y-120204761D01*
X140824761Y-120109523D01*
X140777142Y-120061904D01*
X140681904Y-120014285D01*
X140491428Y-120014285D01*
X140396190Y-120061904D01*
X140348571Y-120109523D01*
X140300952Y-120204761D01*
G04 #@! TO.C,R6*
X140872380Y-106286666D02*
X140396190Y-106620000D01*
X140872380Y-106858095D02*
X139872380Y-106858095D01*
X139872380Y-106477142D01*
X139920000Y-106381904D01*
X139967619Y-106334285D01*
X140062857Y-106286666D01*
X140205714Y-106286666D01*
X140300952Y-106334285D01*
X140348571Y-106381904D01*
X140396190Y-106477142D01*
X140396190Y-106858095D01*
X139872380Y-105429523D02*
X139872380Y-105620000D01*
X139920000Y-105715238D01*
X139967619Y-105762857D01*
X140110476Y-105858095D01*
X140300952Y-105905714D01*
X140681904Y-105905714D01*
X140777142Y-105858095D01*
X140824761Y-105810476D01*
X140872380Y-105715238D01*
X140872380Y-105524761D01*
X140824761Y-105429523D01*
X140777142Y-105381904D01*
X140681904Y-105334285D01*
X140443809Y-105334285D01*
X140348571Y-105381904D01*
X140300952Y-105429523D01*
X140253333Y-105524761D01*
X140253333Y-105715238D01*
X140300952Y-105810476D01*
X140348571Y-105858095D01*
X140443809Y-105905714D01*
G04 #@! TO.C,R4*
X140872380Y-91636666D02*
X140396190Y-91970000D01*
X140872380Y-92208095D02*
X139872380Y-92208095D01*
X139872380Y-91827142D01*
X139920000Y-91731904D01*
X139967619Y-91684285D01*
X140062857Y-91636666D01*
X140205714Y-91636666D01*
X140300952Y-91684285D01*
X140348571Y-91731904D01*
X140396190Y-91827142D01*
X140396190Y-92208095D01*
X140205714Y-90779523D02*
X140872380Y-90779523D01*
X139824761Y-91017619D02*
X140539047Y-91255714D01*
X140539047Y-90636666D01*
G04 #@! TO.C,R3*
X140872380Y-84636666D02*
X140396190Y-84970000D01*
X140872380Y-85208095D02*
X139872380Y-85208095D01*
X139872380Y-84827142D01*
X139920000Y-84731904D01*
X139967619Y-84684285D01*
X140062857Y-84636666D01*
X140205714Y-84636666D01*
X140300952Y-84684285D01*
X140348571Y-84731904D01*
X140396190Y-84827142D01*
X140396190Y-85208095D01*
X139872380Y-84303333D02*
X139872380Y-83684285D01*
X140253333Y-84017619D01*
X140253333Y-83874761D01*
X140300952Y-83779523D01*
X140348571Y-83731904D01*
X140443809Y-83684285D01*
X140681904Y-83684285D01*
X140777142Y-83731904D01*
X140824761Y-83779523D01*
X140872380Y-83874761D01*
X140872380Y-84160476D01*
X140824761Y-84255714D01*
X140777142Y-84303333D01*
G04 #@! TO.C,R2*
X102573333Y-109122380D02*
X102240000Y-108646190D01*
X102001904Y-109122380D02*
X102001904Y-108122380D01*
X102382857Y-108122380D01*
X102478095Y-108170000D01*
X102525714Y-108217619D01*
X102573333Y-108312857D01*
X102573333Y-108455714D01*
X102525714Y-108550952D01*
X102478095Y-108598571D01*
X102382857Y-108646190D01*
X102001904Y-108646190D01*
X102954285Y-108217619D02*
X103001904Y-108170000D01*
X103097142Y-108122380D01*
X103335238Y-108122380D01*
X103430476Y-108170000D01*
X103478095Y-108217619D01*
X103525714Y-108312857D01*
X103525714Y-108408095D01*
X103478095Y-108550952D01*
X102906666Y-109122380D01*
X103525714Y-109122380D01*
G04 #@! TO.C,R1*
X98962380Y-134151666D02*
X98486190Y-134485000D01*
X98962380Y-134723095D02*
X97962380Y-134723095D01*
X97962380Y-134342142D01*
X98010000Y-134246904D01*
X98057619Y-134199285D01*
X98152857Y-134151666D01*
X98295714Y-134151666D01*
X98390952Y-134199285D01*
X98438571Y-134246904D01*
X98486190Y-134342142D01*
X98486190Y-134723095D01*
X98962380Y-133199285D02*
X98962380Y-133770714D01*
X98962380Y-133485000D02*
X97962380Y-133485000D01*
X98105238Y-133580238D01*
X98200476Y-133675476D01*
X98248095Y-133770714D01*
G04 #@! TO.C,R5*
X140872380Y-98666666D02*
X140396190Y-99000000D01*
X140872380Y-99238095D02*
X139872380Y-99238095D01*
X139872380Y-98857142D01*
X139920000Y-98761904D01*
X139967619Y-98714285D01*
X140062857Y-98666666D01*
X140205714Y-98666666D01*
X140300952Y-98714285D01*
X140348571Y-98761904D01*
X140396190Y-98857142D01*
X140396190Y-99238095D01*
X139872380Y-97761904D02*
X139872380Y-98238095D01*
X140348571Y-98285714D01*
X140300952Y-98238095D01*
X140253333Y-98142857D01*
X140253333Y-97904761D01*
X140300952Y-97809523D01*
X140348571Y-97761904D01*
X140443809Y-97714285D01*
X140681904Y-97714285D01*
X140777142Y-97761904D01*
X140824761Y-97809523D01*
X140872380Y-97904761D01*
X140872380Y-98142857D01*
X140824761Y-98238095D01*
X140777142Y-98285714D01*
G04 #@! TO.C,R7*
X140872380Y-113216666D02*
X140396190Y-113550000D01*
X140872380Y-113788095D02*
X139872380Y-113788095D01*
X139872380Y-113407142D01*
X139920000Y-113311904D01*
X139967619Y-113264285D01*
X140062857Y-113216666D01*
X140205714Y-113216666D01*
X140300952Y-113264285D01*
X140348571Y-113311904D01*
X140396190Y-113407142D01*
X140396190Y-113788095D01*
X139872380Y-112883333D02*
X139872380Y-112216666D01*
X140872380Y-112645238D01*
G04 #@! TO.C,C10*
X160587142Y-138157142D02*
X160539523Y-138204761D01*
X160396666Y-138252380D01*
X160301428Y-138252380D01*
X160158571Y-138204761D01*
X160063333Y-138109523D01*
X160015714Y-138014285D01*
X159968095Y-137823809D01*
X159968095Y-137680952D01*
X160015714Y-137490476D01*
X160063333Y-137395238D01*
X160158571Y-137300000D01*
X160301428Y-137252380D01*
X160396666Y-137252380D01*
X160539523Y-137300000D01*
X160587142Y-137347619D01*
X161539523Y-138252380D02*
X160968095Y-138252380D01*
X161253809Y-138252380D02*
X161253809Y-137252380D01*
X161158571Y-137395238D01*
X161063333Y-137490476D01*
X160968095Y-137538095D01*
X162158571Y-137252380D02*
X162253809Y-137252380D01*
X162349047Y-137300000D01*
X162396666Y-137347619D01*
X162444285Y-137442857D01*
X162491904Y-137633333D01*
X162491904Y-137871428D01*
X162444285Y-138061904D01*
X162396666Y-138157142D01*
X162349047Y-138204761D01*
X162253809Y-138252380D01*
X162158571Y-138252380D01*
X162063333Y-138204761D01*
X162015714Y-138157142D01*
X161968095Y-138061904D01*
X161920476Y-137871428D01*
X161920476Y-137633333D01*
X161968095Y-137442857D01*
X162015714Y-137347619D01*
X162063333Y-137300000D01*
X162158571Y-137252380D01*
G04 #@! TO.C,D8*
X152162380Y-121538095D02*
X151162380Y-121538095D01*
X151162380Y-121300000D01*
X151210000Y-121157142D01*
X151305238Y-121061904D01*
X151400476Y-121014285D01*
X151590952Y-120966666D01*
X151733809Y-120966666D01*
X151924285Y-121014285D01*
X152019523Y-121061904D01*
X152114761Y-121157142D01*
X152162380Y-121300000D01*
X152162380Y-121538095D01*
X151590952Y-120395238D02*
X151543333Y-120490476D01*
X151495714Y-120538095D01*
X151400476Y-120585714D01*
X151352857Y-120585714D01*
X151257619Y-120538095D01*
X151210000Y-120490476D01*
X151162380Y-120395238D01*
X151162380Y-120204761D01*
X151210000Y-120109523D01*
X151257619Y-120061904D01*
X151352857Y-120014285D01*
X151400476Y-120014285D01*
X151495714Y-120061904D01*
X151543333Y-120109523D01*
X151590952Y-120204761D01*
X151590952Y-120395238D01*
X151638571Y-120490476D01*
X151686190Y-120538095D01*
X151781428Y-120585714D01*
X151971904Y-120585714D01*
X152067142Y-120538095D01*
X152114761Y-120490476D01*
X152162380Y-120395238D01*
X152162380Y-120204761D01*
X152114761Y-120109523D01*
X152067142Y-120061904D01*
X151971904Y-120014285D01*
X151781428Y-120014285D01*
X151686190Y-120061904D01*
X151638571Y-120109523D01*
X151590952Y-120204761D01*
G04 #@! TO.C,D6*
X152162380Y-106988095D02*
X151162380Y-106988095D01*
X151162380Y-106750000D01*
X151210000Y-106607142D01*
X151305238Y-106511904D01*
X151400476Y-106464285D01*
X151590952Y-106416666D01*
X151733809Y-106416666D01*
X151924285Y-106464285D01*
X152019523Y-106511904D01*
X152114761Y-106607142D01*
X152162380Y-106750000D01*
X152162380Y-106988095D01*
X151162380Y-105559523D02*
X151162380Y-105750000D01*
X151210000Y-105845238D01*
X151257619Y-105892857D01*
X151400476Y-105988095D01*
X151590952Y-106035714D01*
X151971904Y-106035714D01*
X152067142Y-105988095D01*
X152114761Y-105940476D01*
X152162380Y-105845238D01*
X152162380Y-105654761D01*
X152114761Y-105559523D01*
X152067142Y-105511904D01*
X151971904Y-105464285D01*
X151733809Y-105464285D01*
X151638571Y-105511904D01*
X151590952Y-105559523D01*
X151543333Y-105654761D01*
X151543333Y-105845238D01*
X151590952Y-105940476D01*
X151638571Y-105988095D01*
X151733809Y-106035714D01*
G04 #@! TO.C,D4*
X152162380Y-92208095D02*
X151162380Y-92208095D01*
X151162380Y-91970000D01*
X151210000Y-91827142D01*
X151305238Y-91731904D01*
X151400476Y-91684285D01*
X151590952Y-91636666D01*
X151733809Y-91636666D01*
X151924285Y-91684285D01*
X152019523Y-91731904D01*
X152114761Y-91827142D01*
X152162380Y-91970000D01*
X152162380Y-92208095D01*
X151495714Y-90779523D02*
X152162380Y-90779523D01*
X151114761Y-91017619D02*
X151829047Y-91255714D01*
X151829047Y-90636666D01*
G04 #@! TO.C,D5*
X152162380Y-99198095D02*
X151162380Y-99198095D01*
X151162380Y-98960000D01*
X151210000Y-98817142D01*
X151305238Y-98721904D01*
X151400476Y-98674285D01*
X151590952Y-98626666D01*
X151733809Y-98626666D01*
X151924285Y-98674285D01*
X152019523Y-98721904D01*
X152114761Y-98817142D01*
X152162380Y-98960000D01*
X152162380Y-99198095D01*
X151162380Y-97721904D02*
X151162380Y-98198095D01*
X151638571Y-98245714D01*
X151590952Y-98198095D01*
X151543333Y-98102857D01*
X151543333Y-97864761D01*
X151590952Y-97769523D01*
X151638571Y-97721904D01*
X151733809Y-97674285D01*
X151971904Y-97674285D01*
X152067142Y-97721904D01*
X152114761Y-97769523D01*
X152162380Y-97864761D01*
X152162380Y-98102857D01*
X152114761Y-98198095D01*
X152067142Y-98245714D01*
G04 #@! TO.C,D7*
X152162380Y-113918095D02*
X151162380Y-113918095D01*
X151162380Y-113680000D01*
X151210000Y-113537142D01*
X151305238Y-113441904D01*
X151400476Y-113394285D01*
X151590952Y-113346666D01*
X151733809Y-113346666D01*
X151924285Y-113394285D01*
X152019523Y-113441904D01*
X152114761Y-113537142D01*
X152162380Y-113680000D01*
X152162380Y-113918095D01*
X151162380Y-113013333D02*
X151162380Y-112346666D01*
X152162380Y-112775238D01*
G04 #@! TO.C,D9*
X152162380Y-128338095D02*
X151162380Y-128338095D01*
X151162380Y-128100000D01*
X151210000Y-127957142D01*
X151305238Y-127861904D01*
X151400476Y-127814285D01*
X151590952Y-127766666D01*
X151733809Y-127766666D01*
X151924285Y-127814285D01*
X152019523Y-127861904D01*
X152114761Y-127957142D01*
X152162380Y-128100000D01*
X152162380Y-128338095D01*
X152162380Y-127290476D02*
X152162380Y-127100000D01*
X152114761Y-127004761D01*
X152067142Y-126957142D01*
X151924285Y-126861904D01*
X151733809Y-126814285D01*
X151352857Y-126814285D01*
X151257619Y-126861904D01*
X151210000Y-126909523D01*
X151162380Y-127004761D01*
X151162380Y-127195238D01*
X151210000Y-127290476D01*
X151257619Y-127338095D01*
X151352857Y-127385714D01*
X151590952Y-127385714D01*
X151686190Y-127338095D01*
X151733809Y-127290476D01*
X151781428Y-127195238D01*
X151781428Y-127004761D01*
X151733809Y-126909523D01*
X151686190Y-126861904D01*
X151590952Y-126814285D01*
G04 #@! TO.C,D3*
X152162380Y-85078095D02*
X151162380Y-85078095D01*
X151162380Y-84840000D01*
X151210000Y-84697142D01*
X151305238Y-84601904D01*
X151400476Y-84554285D01*
X151590952Y-84506666D01*
X151733809Y-84506666D01*
X151924285Y-84554285D01*
X152019523Y-84601904D01*
X152114761Y-84697142D01*
X152162380Y-84840000D01*
X152162380Y-85078095D01*
X151162380Y-84173333D02*
X151162380Y-83554285D01*
X151543333Y-83887619D01*
X151543333Y-83744761D01*
X151590952Y-83649523D01*
X151638571Y-83601904D01*
X151733809Y-83554285D01*
X151971904Y-83554285D01*
X152067142Y-83601904D01*
X152114761Y-83649523D01*
X152162380Y-83744761D01*
X152162380Y-84030476D01*
X152114761Y-84125714D01*
X152067142Y-84173333D01*
G04 #@! TO.C,J2*
X173442380Y-78438333D02*
X174156666Y-78438333D01*
X174299523Y-78485952D01*
X174394761Y-78581190D01*
X174442380Y-78724047D01*
X174442380Y-78819285D01*
X173537619Y-78009761D02*
X173490000Y-77962142D01*
X173442380Y-77866904D01*
X173442380Y-77628809D01*
X173490000Y-77533571D01*
X173537619Y-77485952D01*
X173632857Y-77438333D01*
X173728095Y-77438333D01*
X173870952Y-77485952D01*
X174442380Y-78057380D01*
X174442380Y-77438333D01*
X165552380Y-81494285D02*
X165552380Y-82065714D01*
X165552380Y-81780000D02*
X164552380Y-81780000D01*
X164695238Y-81875238D01*
X164790476Y-81970476D01*
X164838095Y-82065714D01*
X165552380Y-81065714D02*
X164552380Y-81065714D01*
X164552380Y-80684761D01*
X164600000Y-80589523D01*
X164647619Y-80541904D01*
X164742857Y-80494285D01*
X164885714Y-80494285D01*
X164980952Y-80541904D01*
X165028571Y-80589523D01*
X165076190Y-80684761D01*
X165076190Y-81065714D01*
X165552380Y-85328095D02*
X165552380Y-85899523D01*
X165552380Y-85613809D02*
X164552380Y-85613809D01*
X164695238Y-85709047D01*
X164790476Y-85804285D01*
X164838095Y-85899523D01*
X165552380Y-84899523D02*
X164552380Y-84899523D01*
X165552380Y-84328095D01*
X164552380Y-84328095D01*
X164647619Y-89050714D02*
X164600000Y-89003095D01*
X164552380Y-88907857D01*
X164552380Y-88669761D01*
X164600000Y-88574523D01*
X164647619Y-88526904D01*
X164742857Y-88479285D01*
X164838095Y-88479285D01*
X164980952Y-88526904D01*
X165552380Y-89098333D01*
X165552380Y-88479285D01*
X165552380Y-88050714D02*
X164552380Y-88050714D01*
X164552380Y-87669761D01*
X164600000Y-87574523D01*
X164647619Y-87526904D01*
X164742857Y-87479285D01*
X164885714Y-87479285D01*
X164980952Y-87526904D01*
X165028571Y-87574523D01*
X165076190Y-87669761D01*
X165076190Y-88050714D01*
X164647619Y-92884523D02*
X164600000Y-92836904D01*
X164552380Y-92741666D01*
X164552380Y-92503571D01*
X164600000Y-92408333D01*
X164647619Y-92360714D01*
X164742857Y-92313095D01*
X164838095Y-92313095D01*
X164980952Y-92360714D01*
X165552380Y-92932142D01*
X165552380Y-92313095D01*
X165552380Y-91884523D02*
X164552380Y-91884523D01*
X165552380Y-91313095D01*
X164552380Y-91313095D01*
X164552380Y-96083333D02*
X164552380Y-95464285D01*
X164933333Y-95797619D01*
X164933333Y-95654761D01*
X164980952Y-95559523D01*
X165028571Y-95511904D01*
X165123809Y-95464285D01*
X165361904Y-95464285D01*
X165457142Y-95511904D01*
X165504761Y-95559523D01*
X165552380Y-95654761D01*
X165552380Y-95940476D01*
X165504761Y-96035714D01*
X165457142Y-96083333D01*
X165552380Y-95035714D02*
X164552380Y-95035714D01*
X164552380Y-94654761D01*
X164600000Y-94559523D01*
X164647619Y-94511904D01*
X164742857Y-94464285D01*
X164885714Y-94464285D01*
X164980952Y-94511904D01*
X165028571Y-94559523D01*
X165076190Y-94654761D01*
X165076190Y-95035714D01*
X164552380Y-99917142D02*
X164552380Y-99298095D01*
X164933333Y-99631428D01*
X164933333Y-99488571D01*
X164980952Y-99393333D01*
X165028571Y-99345714D01*
X165123809Y-99298095D01*
X165361904Y-99298095D01*
X165457142Y-99345714D01*
X165504761Y-99393333D01*
X165552380Y-99488571D01*
X165552380Y-99774285D01*
X165504761Y-99869523D01*
X165457142Y-99917142D01*
X165552380Y-98869523D02*
X164552380Y-98869523D01*
X165552380Y-98298095D01*
X164552380Y-98298095D01*
X164885714Y-102544523D02*
X165552380Y-102544523D01*
X164504761Y-102782619D02*
X165219047Y-103020714D01*
X165219047Y-102401666D01*
X165552380Y-102020714D02*
X164552380Y-102020714D01*
X164552380Y-101639761D01*
X164600000Y-101544523D01*
X164647619Y-101496904D01*
X164742857Y-101449285D01*
X164885714Y-101449285D01*
X164980952Y-101496904D01*
X165028571Y-101544523D01*
X165076190Y-101639761D01*
X165076190Y-102020714D01*
X164885714Y-106378333D02*
X165552380Y-106378333D01*
X164504761Y-106616428D02*
X165219047Y-106854523D01*
X165219047Y-106235476D01*
X165552380Y-105854523D02*
X164552380Y-105854523D01*
X165552380Y-105283095D01*
X164552380Y-105283095D01*
X164552380Y-109481904D02*
X164552380Y-109958095D01*
X165028571Y-110005714D01*
X164980952Y-109958095D01*
X164933333Y-109862857D01*
X164933333Y-109624761D01*
X164980952Y-109529523D01*
X165028571Y-109481904D01*
X165123809Y-109434285D01*
X165361904Y-109434285D01*
X165457142Y-109481904D01*
X165504761Y-109529523D01*
X165552380Y-109624761D01*
X165552380Y-109862857D01*
X165504761Y-109958095D01*
X165457142Y-110005714D01*
X165552380Y-109005714D02*
X164552380Y-109005714D01*
X164552380Y-108624761D01*
X164600000Y-108529523D01*
X164647619Y-108481904D01*
X164742857Y-108434285D01*
X164885714Y-108434285D01*
X164980952Y-108481904D01*
X165028571Y-108529523D01*
X165076190Y-108624761D01*
X165076190Y-109005714D01*
X164552380Y-113315714D02*
X164552380Y-113791904D01*
X165028571Y-113839523D01*
X164980952Y-113791904D01*
X164933333Y-113696666D01*
X164933333Y-113458571D01*
X164980952Y-113363333D01*
X165028571Y-113315714D01*
X165123809Y-113268095D01*
X165361904Y-113268095D01*
X165457142Y-113315714D01*
X165504761Y-113363333D01*
X165552380Y-113458571D01*
X165552380Y-113696666D01*
X165504761Y-113791904D01*
X165457142Y-113839523D01*
X165552380Y-112839523D02*
X164552380Y-112839523D01*
X165552380Y-112268095D01*
X164552380Y-112268095D01*
X164552380Y-116514523D02*
X164552380Y-116705000D01*
X164600000Y-116800238D01*
X164647619Y-116847857D01*
X164790476Y-116943095D01*
X164980952Y-116990714D01*
X165361904Y-116990714D01*
X165457142Y-116943095D01*
X165504761Y-116895476D01*
X165552380Y-116800238D01*
X165552380Y-116609761D01*
X165504761Y-116514523D01*
X165457142Y-116466904D01*
X165361904Y-116419285D01*
X165123809Y-116419285D01*
X165028571Y-116466904D01*
X164980952Y-116514523D01*
X164933333Y-116609761D01*
X164933333Y-116800238D01*
X164980952Y-116895476D01*
X165028571Y-116943095D01*
X165123809Y-116990714D01*
X165552380Y-115990714D02*
X164552380Y-115990714D01*
X164552380Y-115609761D01*
X164600000Y-115514523D01*
X164647619Y-115466904D01*
X164742857Y-115419285D01*
X164885714Y-115419285D01*
X164980952Y-115466904D01*
X165028571Y-115514523D01*
X165076190Y-115609761D01*
X165076190Y-115990714D01*
X164552380Y-120348333D02*
X164552380Y-120538809D01*
X164600000Y-120634047D01*
X164647619Y-120681666D01*
X164790476Y-120776904D01*
X164980952Y-120824523D01*
X165361904Y-120824523D01*
X165457142Y-120776904D01*
X165504761Y-120729285D01*
X165552380Y-120634047D01*
X165552380Y-120443571D01*
X165504761Y-120348333D01*
X165457142Y-120300714D01*
X165361904Y-120253095D01*
X165123809Y-120253095D01*
X165028571Y-120300714D01*
X164980952Y-120348333D01*
X164933333Y-120443571D01*
X164933333Y-120634047D01*
X164980952Y-120729285D01*
X165028571Y-120776904D01*
X165123809Y-120824523D01*
X165552380Y-119824523D02*
X164552380Y-119824523D01*
X165552380Y-119253095D01*
X164552380Y-119253095D01*
X164552380Y-124023333D02*
X164552380Y-123356666D01*
X165552380Y-123785238D01*
X165552380Y-122975714D02*
X164552380Y-122975714D01*
X164552380Y-122594761D01*
X164600000Y-122499523D01*
X164647619Y-122451904D01*
X164742857Y-122404285D01*
X164885714Y-122404285D01*
X164980952Y-122451904D01*
X165028571Y-122499523D01*
X165076190Y-122594761D01*
X165076190Y-122975714D01*
X164552380Y-127857142D02*
X164552380Y-127190476D01*
X165552380Y-127619047D01*
X165552380Y-126809523D02*
X164552380Y-126809523D01*
X165552380Y-126238095D01*
X164552380Y-126238095D01*
G04 #@! TO.C,J1*
X93412380Y-115108333D02*
X94126666Y-115108333D01*
X94269523Y-115155952D01*
X94364761Y-115251190D01*
X94412380Y-115394047D01*
X94412380Y-115489285D01*
X94412380Y-114108333D02*
X94412380Y-114679761D01*
X94412380Y-114394047D02*
X93412380Y-114394047D01*
X93555238Y-114489285D01*
X93650476Y-114584523D01*
X93698095Y-114679761D01*
X95702380Y-105394047D02*
X95702380Y-105965476D01*
X95702380Y-105679761D02*
X94702380Y-105679761D01*
X94845238Y-105775000D01*
X94940476Y-105870238D01*
X94988095Y-105965476D01*
X94797619Y-105013095D02*
X94750000Y-104965476D01*
X94702380Y-104870238D01*
X94702380Y-104632142D01*
X94750000Y-104536904D01*
X94797619Y-104489285D01*
X94892857Y-104441666D01*
X94988095Y-104441666D01*
X95130952Y-104489285D01*
X95702380Y-105060714D01*
X95702380Y-104441666D01*
X94702380Y-104155952D02*
X95702380Y-103822619D01*
X94702380Y-103489285D01*
X94750000Y-110616904D02*
X94702380Y-110712142D01*
X94702380Y-110855000D01*
X94750000Y-110997857D01*
X94845238Y-111093095D01*
X94940476Y-111140714D01*
X95130952Y-111188333D01*
X95273809Y-111188333D01*
X95464285Y-111140714D01*
X95559523Y-111093095D01*
X95654761Y-110997857D01*
X95702380Y-110855000D01*
X95702380Y-110759761D01*
X95654761Y-110616904D01*
X95607142Y-110569285D01*
X95273809Y-110569285D01*
X95273809Y-110759761D01*
X95702380Y-110140714D02*
X94702380Y-110140714D01*
X95702380Y-109569285D01*
X94702380Y-109569285D01*
X95702380Y-109093095D02*
X94702380Y-109093095D01*
X94702380Y-108855000D01*
X94750000Y-108712142D01*
X94845238Y-108616904D01*
X94940476Y-108569285D01*
X95130952Y-108521666D01*
X95273809Y-108521666D01*
X95464285Y-108569285D01*
X95559523Y-108616904D01*
X95654761Y-108712142D01*
X95702380Y-108855000D01*
X95702380Y-109093095D01*
X95702380Y-116292142D02*
X95226190Y-116625476D01*
X95702380Y-116863571D02*
X94702380Y-116863571D01*
X94702380Y-116482619D01*
X94750000Y-116387380D01*
X94797619Y-116339761D01*
X94892857Y-116292142D01*
X95035714Y-116292142D01*
X95130952Y-116339761D01*
X95178571Y-116387380D01*
X95226190Y-116482619D01*
X95226190Y-116863571D01*
X95654761Y-115482619D02*
X95702380Y-115577857D01*
X95702380Y-115768333D01*
X95654761Y-115863571D01*
X95559523Y-115911190D01*
X95178571Y-115911190D01*
X95083333Y-115863571D01*
X95035714Y-115768333D01*
X95035714Y-115577857D01*
X95083333Y-115482619D01*
X95178571Y-115435000D01*
X95273809Y-115435000D01*
X95369047Y-115911190D01*
X95702380Y-114863571D02*
X95654761Y-114958809D01*
X95559523Y-115006428D01*
X94702380Y-115006428D01*
X94702380Y-114292142D02*
X94702380Y-114101666D01*
X94750000Y-114006428D01*
X94845238Y-113911190D01*
X95035714Y-113863571D01*
X95369047Y-113863571D01*
X95559523Y-113911190D01*
X95654761Y-114006428D01*
X95702380Y-114101666D01*
X95702380Y-114292142D01*
X95654761Y-114387380D01*
X95559523Y-114482619D01*
X95369047Y-114530238D01*
X95035714Y-114530238D01*
X94845238Y-114482619D01*
X94750000Y-114387380D01*
X94702380Y-114292142D01*
X95035714Y-113435000D02*
X95702380Y-113435000D01*
X95130952Y-113435000D02*
X95083333Y-113387380D01*
X95035714Y-113292142D01*
X95035714Y-113149285D01*
X95083333Y-113054047D01*
X95178571Y-113006428D01*
X95702380Y-113006428D01*
X95702380Y-121491190D02*
X95226190Y-121824523D01*
X95702380Y-122062619D02*
X94702380Y-122062619D01*
X94702380Y-121681666D01*
X94750000Y-121586428D01*
X94797619Y-121538809D01*
X94892857Y-121491190D01*
X95035714Y-121491190D01*
X95130952Y-121538809D01*
X95178571Y-121586428D01*
X95226190Y-121681666D01*
X95226190Y-122062619D01*
X95654761Y-120681666D02*
X95702380Y-120776904D01*
X95702380Y-120967380D01*
X95654761Y-121062619D01*
X95559523Y-121110238D01*
X95178571Y-121110238D01*
X95083333Y-121062619D01*
X95035714Y-120967380D01*
X95035714Y-120776904D01*
X95083333Y-120681666D01*
X95178571Y-120634047D01*
X95273809Y-120634047D01*
X95369047Y-121110238D01*
X95702380Y-120062619D02*
X95654761Y-120157857D01*
X95559523Y-120205476D01*
X94702380Y-120205476D01*
X94702380Y-119491190D02*
X94702380Y-119300714D01*
X94750000Y-119205476D01*
X94845238Y-119110238D01*
X95035714Y-119062619D01*
X95369047Y-119062619D01*
X95559523Y-119110238D01*
X95654761Y-119205476D01*
X95702380Y-119300714D01*
X95702380Y-119491190D01*
X95654761Y-119586428D01*
X95559523Y-119681666D01*
X95369047Y-119729285D01*
X95035714Y-119729285D01*
X94845238Y-119681666D01*
X94750000Y-119586428D01*
X94702380Y-119491190D01*
X95035714Y-118776904D02*
X95035714Y-118395952D01*
X95702380Y-118634047D02*
X94845238Y-118634047D01*
X94750000Y-118586428D01*
X94702380Y-118491190D01*
X94702380Y-118395952D01*
X95035714Y-118205476D02*
X95035714Y-117824523D01*
X95702380Y-118062619D02*
X94845238Y-118062619D01*
X94750000Y-118015000D01*
X94702380Y-117919761D01*
X94702380Y-117824523D01*
X95702380Y-126166428D02*
X95226190Y-126499761D01*
X95702380Y-126737857D02*
X94702380Y-126737857D01*
X94702380Y-126356904D01*
X94750000Y-126261666D01*
X94797619Y-126214047D01*
X94892857Y-126166428D01*
X95035714Y-126166428D01*
X95130952Y-126214047D01*
X95178571Y-126261666D01*
X95226190Y-126356904D01*
X95226190Y-126737857D01*
X95654761Y-125356904D02*
X95702380Y-125452142D01*
X95702380Y-125642619D01*
X95654761Y-125737857D01*
X95559523Y-125785476D01*
X95178571Y-125785476D01*
X95083333Y-125737857D01*
X95035714Y-125642619D01*
X95035714Y-125452142D01*
X95083333Y-125356904D01*
X95178571Y-125309285D01*
X95273809Y-125309285D01*
X95369047Y-125785476D01*
X95702380Y-124737857D02*
X95654761Y-124833095D01*
X95559523Y-124880714D01*
X94702380Y-124880714D01*
X95702380Y-124356904D02*
X94702380Y-124356904D01*
X95035714Y-123880714D02*
X95702380Y-123880714D01*
X95130952Y-123880714D02*
X95083333Y-123833095D01*
X95035714Y-123737857D01*
X95035714Y-123595000D01*
X95083333Y-123499761D01*
X95178571Y-123452142D01*
X95702380Y-123452142D01*
G04 #@! TO.C,H5*
X135191595Y-126205880D02*
X135191595Y-125205880D01*
X135191595Y-125682071D02*
X135763023Y-125682071D01*
X135763023Y-126205880D02*
X135763023Y-125205880D01*
X136715404Y-125205880D02*
X136239214Y-125205880D01*
X136191595Y-125682071D01*
X136239214Y-125634452D01*
X136334452Y-125586833D01*
X136572547Y-125586833D01*
X136667785Y-125634452D01*
X136715404Y-125682071D01*
X136763023Y-125777309D01*
X136763023Y-126015404D01*
X136715404Y-126110642D01*
X136667785Y-126158261D01*
X136572547Y-126205880D01*
X136334452Y-126205880D01*
X136239214Y-126158261D01*
X136191595Y-126110642D01*
G04 #@! TO.C,H7*
X135191595Y-74135880D02*
X135191595Y-73135880D01*
X135191595Y-73612071D02*
X135763023Y-73612071D01*
X135763023Y-74135880D02*
X135763023Y-73135880D01*
X136143976Y-73135880D02*
X136810642Y-73135880D01*
X136382071Y-74135880D01*
G04 #@! TO.C,H8*
X109855095Y-126269380D02*
X109855095Y-125269380D01*
X109855095Y-125745571D02*
X110426523Y-125745571D01*
X110426523Y-126269380D02*
X110426523Y-125269380D01*
X111045571Y-125697952D02*
X110950333Y-125650333D01*
X110902714Y-125602714D01*
X110855095Y-125507476D01*
X110855095Y-125459857D01*
X110902714Y-125364619D01*
X110950333Y-125317000D01*
X111045571Y-125269380D01*
X111236047Y-125269380D01*
X111331285Y-125317000D01*
X111378904Y-125364619D01*
X111426523Y-125459857D01*
X111426523Y-125507476D01*
X111378904Y-125602714D01*
X111331285Y-125650333D01*
X111236047Y-125697952D01*
X111045571Y-125697952D01*
X110950333Y-125745571D01*
X110902714Y-125793190D01*
X110855095Y-125888428D01*
X110855095Y-126078904D01*
X110902714Y-126174142D01*
X110950333Y-126221761D01*
X111045571Y-126269380D01*
X111236047Y-126269380D01*
X111331285Y-126221761D01*
X111378904Y-126174142D01*
X111426523Y-126078904D01*
X111426523Y-125888428D01*
X111378904Y-125793190D01*
X111331285Y-125745571D01*
X111236047Y-125697952D01*
G04 #@! TO.C,H6*
X109855095Y-74199380D02*
X109855095Y-73199380D01*
X109855095Y-73675571D02*
X110426523Y-73675571D01*
X110426523Y-74199380D02*
X110426523Y-73199380D01*
X111331285Y-73199380D02*
X111140809Y-73199380D01*
X111045571Y-73247000D01*
X110997952Y-73294619D01*
X110902714Y-73437476D01*
X110855095Y-73627952D01*
X110855095Y-74008904D01*
X110902714Y-74104142D01*
X110950333Y-74151761D01*
X111045571Y-74199380D01*
X111236047Y-74199380D01*
X111331285Y-74151761D01*
X111378904Y-74104142D01*
X111426523Y-74008904D01*
X111426523Y-73770809D01*
X111378904Y-73675571D01*
X111331285Y-73627952D01*
X111236047Y-73580333D01*
X111045571Y-73580333D01*
X110950333Y-73627952D01*
X110902714Y-73675571D01*
X110855095Y-73770809D01*
G04 #@! TO.C,C1*
X148227142Y-84724166D02*
X148274761Y-84771785D01*
X148322380Y-84914642D01*
X148322380Y-85009880D01*
X148274761Y-85152738D01*
X148179523Y-85247976D01*
X148084285Y-85295595D01*
X147893809Y-85343214D01*
X147750952Y-85343214D01*
X147560476Y-85295595D01*
X147465238Y-85247976D01*
X147370000Y-85152738D01*
X147322380Y-85009880D01*
X147322380Y-84914642D01*
X147370000Y-84771785D01*
X147417619Y-84724166D01*
X148322380Y-83771785D02*
X148322380Y-84343214D01*
X148322380Y-84057500D02*
X147322380Y-84057500D01*
X147465238Y-84152738D01*
X147560476Y-84247976D01*
X147608095Y-84343214D01*
G04 #@! TO.C,D10*
X162322380Y-85554285D02*
X161322380Y-85554285D01*
X161322380Y-85316190D01*
X161370000Y-85173333D01*
X161465238Y-85078095D01*
X161560476Y-85030476D01*
X161750952Y-84982857D01*
X161893809Y-84982857D01*
X162084285Y-85030476D01*
X162179523Y-85078095D01*
X162274761Y-85173333D01*
X162322380Y-85316190D01*
X162322380Y-85554285D01*
X162322380Y-84030476D02*
X162322380Y-84601904D01*
X162322380Y-84316190D02*
X161322380Y-84316190D01*
X161465238Y-84411428D01*
X161560476Y-84506666D01*
X161608095Y-84601904D01*
X161322380Y-83411428D02*
X161322380Y-83316190D01*
X161370000Y-83220952D01*
X161417619Y-83173333D01*
X161512857Y-83125714D01*
X161703333Y-83078095D01*
X161941428Y-83078095D01*
X162131904Y-83125714D01*
X162227142Y-83173333D01*
X162274761Y-83220952D01*
X162322380Y-83316190D01*
X162322380Y-83411428D01*
X162274761Y-83506666D01*
X162227142Y-83554285D01*
X162131904Y-83601904D01*
X161941428Y-83649523D01*
X161703333Y-83649523D01*
X161512857Y-83601904D01*
X161417619Y-83554285D01*
X161370000Y-83506666D01*
X161322380Y-83411428D01*
G04 #@! TO.C,D11*
X162322380Y-92664285D02*
X161322380Y-92664285D01*
X161322380Y-92426190D01*
X161370000Y-92283333D01*
X161465238Y-92188095D01*
X161560476Y-92140476D01*
X161750952Y-92092857D01*
X161893809Y-92092857D01*
X162084285Y-92140476D01*
X162179523Y-92188095D01*
X162274761Y-92283333D01*
X162322380Y-92426190D01*
X162322380Y-92664285D01*
X162322380Y-91140476D02*
X162322380Y-91711904D01*
X162322380Y-91426190D02*
X161322380Y-91426190D01*
X161465238Y-91521428D01*
X161560476Y-91616666D01*
X161608095Y-91711904D01*
X162322380Y-90188095D02*
X162322380Y-90759523D01*
X162322380Y-90473809D02*
X161322380Y-90473809D01*
X161465238Y-90569047D01*
X161560476Y-90664285D01*
X161608095Y-90759523D01*
G04 #@! TO.C,D12*
X162322380Y-99824285D02*
X161322380Y-99824285D01*
X161322380Y-99586190D01*
X161370000Y-99443333D01*
X161465238Y-99348095D01*
X161560476Y-99300476D01*
X161750952Y-99252857D01*
X161893809Y-99252857D01*
X162084285Y-99300476D01*
X162179523Y-99348095D01*
X162274761Y-99443333D01*
X162322380Y-99586190D01*
X162322380Y-99824285D01*
X162322380Y-98300476D02*
X162322380Y-98871904D01*
X162322380Y-98586190D02*
X161322380Y-98586190D01*
X161465238Y-98681428D01*
X161560476Y-98776666D01*
X161608095Y-98871904D01*
X161417619Y-97919523D02*
X161370000Y-97871904D01*
X161322380Y-97776666D01*
X161322380Y-97538571D01*
X161370000Y-97443333D01*
X161417619Y-97395714D01*
X161512857Y-97348095D01*
X161608095Y-97348095D01*
X161750952Y-97395714D01*
X162322380Y-97967142D01*
X162322380Y-97348095D01*
G04 #@! TO.C,D13*
X162322380Y-107444285D02*
X161322380Y-107444285D01*
X161322380Y-107206190D01*
X161370000Y-107063333D01*
X161465238Y-106968095D01*
X161560476Y-106920476D01*
X161750952Y-106872857D01*
X161893809Y-106872857D01*
X162084285Y-106920476D01*
X162179523Y-106968095D01*
X162274761Y-107063333D01*
X162322380Y-107206190D01*
X162322380Y-107444285D01*
X162322380Y-105920476D02*
X162322380Y-106491904D01*
X162322380Y-106206190D02*
X161322380Y-106206190D01*
X161465238Y-106301428D01*
X161560476Y-106396666D01*
X161608095Y-106491904D01*
X161322380Y-105587142D02*
X161322380Y-104968095D01*
X161703333Y-105301428D01*
X161703333Y-105158571D01*
X161750952Y-105063333D01*
X161798571Y-105015714D01*
X161893809Y-104968095D01*
X162131904Y-104968095D01*
X162227142Y-105015714D01*
X162274761Y-105063333D01*
X162322380Y-105158571D01*
X162322380Y-105444285D01*
X162274761Y-105539523D01*
X162227142Y-105587142D01*
G04 #@! TO.C,D14*
X162322380Y-114374285D02*
X161322380Y-114374285D01*
X161322380Y-114136190D01*
X161370000Y-113993333D01*
X161465238Y-113898095D01*
X161560476Y-113850476D01*
X161750952Y-113802857D01*
X161893809Y-113802857D01*
X162084285Y-113850476D01*
X162179523Y-113898095D01*
X162274761Y-113993333D01*
X162322380Y-114136190D01*
X162322380Y-114374285D01*
X162322380Y-112850476D02*
X162322380Y-113421904D01*
X162322380Y-113136190D02*
X161322380Y-113136190D01*
X161465238Y-113231428D01*
X161560476Y-113326666D01*
X161608095Y-113421904D01*
X161655714Y-111993333D02*
X162322380Y-111993333D01*
X161274761Y-112231428D02*
X161989047Y-112469523D01*
X161989047Y-111850476D01*
G04 #@! TO.C,D15*
X162322380Y-122014285D02*
X161322380Y-122014285D01*
X161322380Y-121776190D01*
X161370000Y-121633333D01*
X161465238Y-121538095D01*
X161560476Y-121490476D01*
X161750952Y-121442857D01*
X161893809Y-121442857D01*
X162084285Y-121490476D01*
X162179523Y-121538095D01*
X162274761Y-121633333D01*
X162322380Y-121776190D01*
X162322380Y-122014285D01*
X162322380Y-120490476D02*
X162322380Y-121061904D01*
X162322380Y-120776190D02*
X161322380Y-120776190D01*
X161465238Y-120871428D01*
X161560476Y-120966666D01*
X161608095Y-121061904D01*
X161322380Y-119585714D02*
X161322380Y-120061904D01*
X161798571Y-120109523D01*
X161750952Y-120061904D01*
X161703333Y-119966666D01*
X161703333Y-119728571D01*
X161750952Y-119633333D01*
X161798571Y-119585714D01*
X161893809Y-119538095D01*
X162131904Y-119538095D01*
X162227142Y-119585714D01*
X162274761Y-119633333D01*
X162322380Y-119728571D01*
X162322380Y-119966666D01*
X162274761Y-120061904D01*
X162227142Y-120109523D01*
G04 #@! TO.C,D16*
X162322380Y-128794285D02*
X161322380Y-128794285D01*
X161322380Y-128556190D01*
X161370000Y-128413333D01*
X161465238Y-128318095D01*
X161560476Y-128270476D01*
X161750952Y-128222857D01*
X161893809Y-128222857D01*
X162084285Y-128270476D01*
X162179523Y-128318095D01*
X162274761Y-128413333D01*
X162322380Y-128556190D01*
X162322380Y-128794285D01*
X162322380Y-127270476D02*
X162322380Y-127841904D01*
X162322380Y-127556190D02*
X161322380Y-127556190D01*
X161465238Y-127651428D01*
X161560476Y-127746666D01*
X161608095Y-127841904D01*
X161322380Y-126413333D02*
X161322380Y-126603809D01*
X161370000Y-126699047D01*
X161417619Y-126746666D01*
X161560476Y-126841904D01*
X161750952Y-126889523D01*
X162131904Y-126889523D01*
X162227142Y-126841904D01*
X162274761Y-126794285D01*
X162322380Y-126699047D01*
X162322380Y-126508571D01*
X162274761Y-126413333D01*
X162227142Y-126365714D01*
X162131904Y-126318095D01*
X161893809Y-126318095D01*
X161798571Y-126365714D01*
X161750952Y-126413333D01*
X161703333Y-126508571D01*
X161703333Y-126699047D01*
X161750952Y-126794285D01*
X161798571Y-126841904D01*
X161893809Y-126889523D01*
G04 #@! TO.C,H1*
X171958095Y-131222380D02*
X171958095Y-130222380D01*
X171958095Y-130698571D02*
X172529523Y-130698571D01*
X172529523Y-131222380D02*
X172529523Y-130222380D01*
X173529523Y-131222380D02*
X172958095Y-131222380D01*
X173243809Y-131222380D02*
X173243809Y-130222380D01*
X173148571Y-130365238D01*
X173053333Y-130460476D01*
X172958095Y-130508095D01*
G04 #@! TO.C,H2*
X85598095Y-131222380D02*
X85598095Y-130222380D01*
X85598095Y-130698571D02*
X86169523Y-130698571D01*
X86169523Y-131222380D02*
X86169523Y-130222380D01*
X86598095Y-130317619D02*
X86645714Y-130270000D01*
X86740952Y-130222380D01*
X86979047Y-130222380D01*
X87074285Y-130270000D01*
X87121904Y-130317619D01*
X87169523Y-130412857D01*
X87169523Y-130508095D01*
X87121904Y-130650952D01*
X86550476Y-131222380D01*
X87169523Y-131222380D01*
G04 #@! TO.C,H3*
X85598095Y-70262380D02*
X85598095Y-69262380D01*
X85598095Y-69738571D02*
X86169523Y-69738571D01*
X86169523Y-70262380D02*
X86169523Y-69262380D01*
X86550476Y-69262380D02*
X87169523Y-69262380D01*
X86836190Y-69643333D01*
X86979047Y-69643333D01*
X87074285Y-69690952D01*
X87121904Y-69738571D01*
X87169523Y-69833809D01*
X87169523Y-70071904D01*
X87121904Y-70167142D01*
X87074285Y-70214761D01*
X86979047Y-70262380D01*
X86693333Y-70262380D01*
X86598095Y-70214761D01*
X86550476Y-70167142D01*
G04 #@! TO.C,H4*
X171958095Y-70262380D02*
X171958095Y-69262380D01*
X171958095Y-69738571D02*
X172529523Y-69738571D01*
X172529523Y-70262380D02*
X172529523Y-69262380D01*
X173434285Y-69595714D02*
X173434285Y-70262380D01*
X173196190Y-69214761D02*
X172958095Y-69929047D01*
X173577142Y-69929047D01*
G04 #@! TO.C,K1*
X107757380Y-89003095D02*
X106757380Y-89003095D01*
X107757380Y-88431666D02*
X107185952Y-88860238D01*
X106757380Y-88431666D02*
X107328809Y-89003095D01*
X107757380Y-87479285D02*
X107757380Y-88050714D01*
X107757380Y-87765000D02*
X106757380Y-87765000D01*
X106900238Y-87860238D01*
X106995476Y-87955476D01*
X107043095Y-88050714D01*
G04 #@! TO.C,Q1*
X98774261Y-101258619D02*
X98679023Y-101211000D01*
X98583785Y-101115761D01*
X98440928Y-100972904D01*
X98345690Y-100925285D01*
X98250452Y-100925285D01*
X98298071Y-101163380D02*
X98202833Y-101115761D01*
X98107595Y-101020523D01*
X98059976Y-100830047D01*
X98059976Y-100496714D01*
X98107595Y-100306238D01*
X98202833Y-100211000D01*
X98298071Y-100163380D01*
X98488547Y-100163380D01*
X98583785Y-100211000D01*
X98679023Y-100306238D01*
X98726642Y-100496714D01*
X98726642Y-100830047D01*
X98679023Y-101020523D01*
X98583785Y-101115761D01*
X98488547Y-101163380D01*
X98298071Y-101163380D01*
X99679023Y-101163380D02*
X99107595Y-101163380D01*
X99393309Y-101163380D02*
X99393309Y-100163380D01*
X99298071Y-100306238D01*
X99202833Y-100401476D01*
X99107595Y-100449095D01*
G04 #@! TO.C,U1*
X122513096Y-104957381D02*
X122513096Y-105766905D01*
X122560715Y-105862143D01*
X122608334Y-105909762D01*
X122703572Y-105957381D01*
X122894048Y-105957381D01*
X122989286Y-105909762D01*
X123036905Y-105862143D01*
X123084524Y-105766905D01*
X123084524Y-104957381D01*
X124084524Y-105957381D02*
X123513096Y-105957381D01*
X123798810Y-105957381D02*
X123798810Y-104957381D01*
X123703572Y-105100239D01*
X123608334Y-105195477D01*
X123513096Y-105243096D01*
X110749762Y-120197381D02*
X111083096Y-121197381D01*
X111416429Y-120197381D01*
X111749762Y-121197381D02*
X111749762Y-120197381D01*
X112225953Y-121197381D02*
X112225953Y-120197381D01*
X112797381Y-121197381D01*
X112797381Y-120197381D01*
X112106905Y-117705001D02*
X112011667Y-117657381D01*
X111868810Y-117657381D01*
X111725953Y-117705001D01*
X111630715Y-117800239D01*
X111583096Y-117895477D01*
X111535477Y-118085953D01*
X111535477Y-118228810D01*
X111583096Y-118419286D01*
X111630715Y-118514524D01*
X111725953Y-118609762D01*
X111868810Y-118657381D01*
X111964048Y-118657381D01*
X112106905Y-118609762D01*
X112154524Y-118562143D01*
X112154524Y-118228810D01*
X111964048Y-118228810D01*
X111297381Y-116117381D02*
X110964048Y-115641191D01*
X110725953Y-116117381D02*
X110725953Y-115117381D01*
X111106905Y-115117381D01*
X111202143Y-115165001D01*
X111249762Y-115212620D01*
X111297381Y-115307858D01*
X111297381Y-115450715D01*
X111249762Y-115545953D01*
X111202143Y-115593572D01*
X111106905Y-115641191D01*
X110725953Y-115641191D01*
X111678334Y-116069762D02*
X111821191Y-116117381D01*
X112059286Y-116117381D01*
X112154524Y-116069762D01*
X112202143Y-116022143D01*
X112249762Y-115926905D01*
X112249762Y-115831667D01*
X112202143Y-115736429D01*
X112154524Y-115688810D01*
X112059286Y-115641191D01*
X111868810Y-115593572D01*
X111773572Y-115545953D01*
X111725953Y-115498334D01*
X111678334Y-115403096D01*
X111678334Y-115307858D01*
X111725953Y-115212620D01*
X111773572Y-115165001D01*
X111868810Y-115117381D01*
X112106905Y-115117381D01*
X112249762Y-115165001D01*
X112535477Y-115117381D02*
X113106905Y-115117381D01*
X112821191Y-116117381D02*
X112821191Y-115117381D01*
X111106905Y-113053572D02*
X111440239Y-113053572D01*
X111583096Y-113577381D02*
X111106905Y-113577381D01*
X111106905Y-112577381D01*
X111583096Y-112577381D01*
X112011667Y-113577381D02*
X112011667Y-112577381D01*
X112583096Y-113577381D01*
X112583096Y-112577381D01*
X111083096Y-110037381D02*
X111702143Y-110037381D01*
X111368810Y-110418334D01*
X111511667Y-110418334D01*
X111606905Y-110465953D01*
X111654524Y-110513572D01*
X111702143Y-110608810D01*
X111702143Y-110846905D01*
X111654524Y-110942143D01*
X111606905Y-110989762D01*
X111511667Y-111037381D01*
X111225953Y-111037381D01*
X111130715Y-110989762D01*
X111083096Y-110942143D01*
X111987858Y-110037381D02*
X112321191Y-111037381D01*
X112654524Y-110037381D01*
X112106905Y-107545001D02*
X112011667Y-107497381D01*
X111868810Y-107497381D01*
X111725953Y-107545001D01*
X111630715Y-107640239D01*
X111583096Y-107735477D01*
X111535477Y-107925953D01*
X111535477Y-108068810D01*
X111583096Y-108259286D01*
X111630715Y-108354524D01*
X111725953Y-108449762D01*
X111868810Y-108497381D01*
X111964048Y-108497381D01*
X112106905Y-108449762D01*
X112154524Y-108402143D01*
X112154524Y-108068810D01*
X111964048Y-108068810D01*
X111059286Y-105909762D02*
X111202143Y-105957381D01*
X111440239Y-105957381D01*
X111535477Y-105909762D01*
X111583096Y-105862143D01*
X111630715Y-105766905D01*
X111630715Y-105671667D01*
X111583096Y-105576429D01*
X111535477Y-105528810D01*
X111440239Y-105481191D01*
X111249762Y-105433572D01*
X111154524Y-105385953D01*
X111106905Y-105338334D01*
X111059286Y-105243096D01*
X111059286Y-105147858D01*
X111106905Y-105052620D01*
X111154524Y-105005001D01*
X111249762Y-104957381D01*
X111487858Y-104957381D01*
X111630715Y-105005001D01*
X112059286Y-105957381D02*
X112059286Y-104957381D01*
X112630715Y-105957381D02*
X112202143Y-105385953D01*
X112630715Y-104957381D02*
X112059286Y-105528810D01*
X111035477Y-103369762D02*
X111178334Y-103417381D01*
X111416429Y-103417381D01*
X111511667Y-103369762D01*
X111559286Y-103322143D01*
X111606905Y-103226905D01*
X111606905Y-103131667D01*
X111559286Y-103036429D01*
X111511667Y-102988810D01*
X111416429Y-102941191D01*
X111225953Y-102893572D01*
X111130715Y-102845953D01*
X111083096Y-102798334D01*
X111035477Y-102703096D01*
X111035477Y-102607858D01*
X111083096Y-102512620D01*
X111130715Y-102465001D01*
X111225953Y-102417381D01*
X111464048Y-102417381D01*
X111606905Y-102465001D01*
X112225953Y-102417381D02*
X112416429Y-102417381D01*
X112511667Y-102465001D01*
X112606905Y-102560239D01*
X112654524Y-102750715D01*
X112654524Y-103084048D01*
X112606905Y-103274524D01*
X112511667Y-103369762D01*
X112416429Y-103417381D01*
X112225953Y-103417381D01*
X112130715Y-103369762D01*
X112035477Y-103274524D01*
X111987858Y-103084048D01*
X111987858Y-102750715D01*
X112035477Y-102560239D01*
X112130715Y-102465001D01*
X112225953Y-102417381D01*
X111059286Y-100829762D02*
X111202143Y-100877381D01*
X111440239Y-100877381D01*
X111535477Y-100829762D01*
X111583096Y-100782143D01*
X111630715Y-100686905D01*
X111630715Y-100591667D01*
X111583096Y-100496429D01*
X111535477Y-100448810D01*
X111440239Y-100401191D01*
X111249762Y-100353572D01*
X111154524Y-100305953D01*
X111106905Y-100258334D01*
X111059286Y-100163096D01*
X111059286Y-100067858D01*
X111106905Y-99972620D01*
X111154524Y-99925001D01*
X111249762Y-99877381D01*
X111487858Y-99877381D01*
X111630715Y-99925001D01*
X112630715Y-100782143D02*
X112583096Y-100829762D01*
X112440239Y-100877381D01*
X112345001Y-100877381D01*
X112202143Y-100829762D01*
X112106905Y-100734524D01*
X112059286Y-100639286D01*
X112011667Y-100448810D01*
X112011667Y-100305953D01*
X112059286Y-100115477D01*
X112106905Y-100020239D01*
X112202143Y-99925001D01*
X112345001Y-99877381D01*
X112440239Y-99877381D01*
X112583096Y-99925001D01*
X112630715Y-99972620D01*
X111083096Y-98289762D02*
X111225953Y-98337381D01*
X111464048Y-98337381D01*
X111559286Y-98289762D01*
X111606905Y-98242143D01*
X111654524Y-98146905D01*
X111654524Y-98051667D01*
X111606905Y-97956429D01*
X111559286Y-97908810D01*
X111464048Y-97861191D01*
X111273572Y-97813572D01*
X111178334Y-97765953D01*
X111130715Y-97718334D01*
X111083096Y-97623096D01*
X111083096Y-97527858D01*
X111130715Y-97432620D01*
X111178334Y-97385001D01*
X111273572Y-97337381D01*
X111511667Y-97337381D01*
X111654524Y-97385001D01*
X112606905Y-98337381D02*
X112035477Y-98337381D01*
X112321191Y-98337381D02*
X112321191Y-97337381D01*
X112225953Y-97480239D01*
X112130715Y-97575477D01*
X112035477Y-97623096D01*
X111083096Y-95749762D02*
X111225953Y-95797381D01*
X111464048Y-95797381D01*
X111559286Y-95749762D01*
X111606905Y-95702143D01*
X111654524Y-95606905D01*
X111654524Y-95511667D01*
X111606905Y-95416429D01*
X111559286Y-95368810D01*
X111464048Y-95321191D01*
X111273572Y-95273572D01*
X111178334Y-95225953D01*
X111130715Y-95178334D01*
X111083096Y-95083096D01*
X111083096Y-94987858D01*
X111130715Y-94892620D01*
X111178334Y-94845001D01*
X111273572Y-94797381D01*
X111511667Y-94797381D01*
X111654524Y-94845001D01*
X112035477Y-94892620D02*
X112083096Y-94845001D01*
X112178334Y-94797381D01*
X112416429Y-94797381D01*
X112511667Y-94845001D01*
X112559286Y-94892620D01*
X112606905Y-94987858D01*
X112606905Y-95083096D01*
X112559286Y-95225953D01*
X111987858Y-95797381D01*
X112606905Y-95797381D01*
X111083096Y-93209762D02*
X111225953Y-93257381D01*
X111464048Y-93257381D01*
X111559286Y-93209762D01*
X111606905Y-93162143D01*
X111654524Y-93066905D01*
X111654524Y-92971667D01*
X111606905Y-92876429D01*
X111559286Y-92828810D01*
X111464048Y-92781191D01*
X111273572Y-92733572D01*
X111178334Y-92685953D01*
X111130715Y-92638334D01*
X111083096Y-92543096D01*
X111083096Y-92447858D01*
X111130715Y-92352620D01*
X111178334Y-92305001D01*
X111273572Y-92257381D01*
X111511667Y-92257381D01*
X111654524Y-92305001D01*
X111987858Y-92257381D02*
X112606905Y-92257381D01*
X112273572Y-92638334D01*
X112416429Y-92638334D01*
X112511667Y-92685953D01*
X112559286Y-92733572D01*
X112606905Y-92828810D01*
X112606905Y-93066905D01*
X112559286Y-93162143D01*
X112511667Y-93209762D01*
X112416429Y-93257381D01*
X112130715Y-93257381D01*
X112035477Y-93209762D01*
X111987858Y-93162143D01*
X110987858Y-89717381D02*
X111321191Y-90717381D01*
X111654524Y-89717381D01*
X111987858Y-89717381D02*
X111987858Y-90526905D01*
X112035477Y-90622143D01*
X112083096Y-90669762D01*
X112178334Y-90717381D01*
X112368810Y-90717381D01*
X112464048Y-90669762D01*
X112511667Y-90622143D01*
X112559286Y-90526905D01*
X112559286Y-89717381D01*
X112106905Y-87225001D02*
X112011667Y-87177381D01*
X111868810Y-87177381D01*
X111725953Y-87225001D01*
X111630715Y-87320239D01*
X111583096Y-87415477D01*
X111535477Y-87605953D01*
X111535477Y-87748810D01*
X111583096Y-87939286D01*
X111630715Y-88034524D01*
X111725953Y-88129762D01*
X111868810Y-88177381D01*
X111964048Y-88177381D01*
X112106905Y-88129762D01*
X112154524Y-88082143D01*
X112154524Y-87748810D01*
X111964048Y-87748810D01*
X111130715Y-85351667D02*
X111606905Y-85351667D01*
X111035477Y-85637381D02*
X111368810Y-84637381D01*
X111702143Y-85637381D01*
X112225953Y-84637381D02*
X112321191Y-84637381D01*
X112416429Y-84685001D01*
X112464048Y-84732620D01*
X112511667Y-84827858D01*
X112559286Y-85018334D01*
X112559286Y-85256429D01*
X112511667Y-85446905D01*
X112464048Y-85542143D01*
X112416429Y-85589762D01*
X112321191Y-85637381D01*
X112225953Y-85637381D01*
X112130715Y-85589762D01*
X112083096Y-85542143D01*
X112035477Y-85446905D01*
X111987858Y-85256429D01*
X111987858Y-85018334D01*
X112035477Y-84827858D01*
X112083096Y-84732620D01*
X112130715Y-84685001D01*
X112225953Y-84637381D01*
X133943096Y-120197381D02*
X134562143Y-120197381D01*
X134228810Y-120578334D01*
X134371667Y-120578334D01*
X134466905Y-120625953D01*
X134514524Y-120673572D01*
X134562143Y-120768810D01*
X134562143Y-121006905D01*
X134514524Y-121102143D01*
X134466905Y-121149762D01*
X134371667Y-121197381D01*
X134085953Y-121197381D01*
X133990715Y-121149762D01*
X133943096Y-121102143D01*
X134847858Y-120197381D02*
X135181191Y-121197381D01*
X135514524Y-120197381D01*
X134966905Y-117705001D02*
X134871667Y-117657381D01*
X134728810Y-117657381D01*
X134585953Y-117705001D01*
X134490715Y-117800239D01*
X134443096Y-117895477D01*
X134395477Y-118085953D01*
X134395477Y-118228810D01*
X134443096Y-118419286D01*
X134490715Y-118514524D01*
X134585953Y-118609762D01*
X134728810Y-118657381D01*
X134824048Y-118657381D01*
X134966905Y-118609762D01*
X135014524Y-118562143D01*
X135014524Y-118228810D01*
X134824048Y-118228810D01*
X133943096Y-115117381D02*
X134514524Y-115117381D01*
X134228810Y-116117381D02*
X134228810Y-115117381D01*
X134752620Y-115117381D02*
X135419286Y-116117381D01*
X135419286Y-115117381D02*
X134752620Y-116117381D01*
X134538334Y-113577381D02*
X134205001Y-113101191D01*
X133966905Y-113577381D02*
X133966905Y-112577381D01*
X134347858Y-112577381D01*
X134443096Y-112625001D01*
X134490715Y-112672620D01*
X134538334Y-112767858D01*
X134538334Y-112910715D01*
X134490715Y-113005953D01*
X134443096Y-113053572D01*
X134347858Y-113101191D01*
X133966905Y-113101191D01*
X134871667Y-112577381D02*
X135538334Y-113577381D01*
X135538334Y-112577381D02*
X134871667Y-113577381D01*
X133966905Y-111037381D02*
X133966905Y-110037381D01*
X134205001Y-110037381D01*
X134347858Y-110085001D01*
X134443096Y-110180239D01*
X134490715Y-110275477D01*
X134538334Y-110465953D01*
X134538334Y-110608810D01*
X134490715Y-110799286D01*
X134443096Y-110894524D01*
X134347858Y-110989762D01*
X134205001Y-111037381D01*
X133966905Y-111037381D01*
X135109762Y-110465953D02*
X135014524Y-110418334D01*
X134966905Y-110370715D01*
X134919286Y-110275477D01*
X134919286Y-110227858D01*
X134966905Y-110132620D01*
X135014524Y-110085001D01*
X135109762Y-110037381D01*
X135300239Y-110037381D01*
X135395477Y-110085001D01*
X135443096Y-110132620D01*
X135490715Y-110227858D01*
X135490715Y-110275477D01*
X135443096Y-110370715D01*
X135395477Y-110418334D01*
X135300239Y-110465953D01*
X135109762Y-110465953D01*
X135014524Y-110513572D01*
X134966905Y-110561191D01*
X134919286Y-110656429D01*
X134919286Y-110846905D01*
X134966905Y-110942143D01*
X135014524Y-110989762D01*
X135109762Y-111037381D01*
X135300239Y-111037381D01*
X135395477Y-110989762D01*
X135443096Y-110942143D01*
X135490715Y-110846905D01*
X135490715Y-110656429D01*
X135443096Y-110561191D01*
X135395477Y-110513572D01*
X135300239Y-110465953D01*
X133966905Y-108497381D02*
X133966905Y-107497381D01*
X134205001Y-107497381D01*
X134347858Y-107545001D01*
X134443096Y-107640239D01*
X134490715Y-107735477D01*
X134538334Y-107925953D01*
X134538334Y-108068810D01*
X134490715Y-108259286D01*
X134443096Y-108354524D01*
X134347858Y-108449762D01*
X134205001Y-108497381D01*
X133966905Y-108497381D01*
X134871667Y-107497381D02*
X135538334Y-107497381D01*
X135109762Y-108497381D01*
X133966905Y-105957381D02*
X133966905Y-104957381D01*
X134205001Y-104957381D01*
X134347858Y-105005001D01*
X134443096Y-105100239D01*
X134490715Y-105195477D01*
X134538334Y-105385953D01*
X134538334Y-105528810D01*
X134490715Y-105719286D01*
X134443096Y-105814524D01*
X134347858Y-105909762D01*
X134205001Y-105957381D01*
X133966905Y-105957381D01*
X135395477Y-104957381D02*
X135205001Y-104957381D01*
X135109762Y-105005001D01*
X135062143Y-105052620D01*
X134966905Y-105195477D01*
X134919286Y-105385953D01*
X134919286Y-105766905D01*
X134966905Y-105862143D01*
X135014524Y-105909762D01*
X135109762Y-105957381D01*
X135300239Y-105957381D01*
X135395477Y-105909762D01*
X135443096Y-105862143D01*
X135490715Y-105766905D01*
X135490715Y-105528810D01*
X135443096Y-105433572D01*
X135395477Y-105385953D01*
X135300239Y-105338334D01*
X135109762Y-105338334D01*
X135014524Y-105385953D01*
X134966905Y-105433572D01*
X134919286Y-105528810D01*
X133966905Y-103417381D02*
X133966905Y-102417381D01*
X134205001Y-102417381D01*
X134347858Y-102465001D01*
X134443096Y-102560239D01*
X134490715Y-102655477D01*
X134538334Y-102845953D01*
X134538334Y-102988810D01*
X134490715Y-103179286D01*
X134443096Y-103274524D01*
X134347858Y-103369762D01*
X134205001Y-103417381D01*
X133966905Y-103417381D01*
X135443096Y-102417381D02*
X134966905Y-102417381D01*
X134919286Y-102893572D01*
X134966905Y-102845953D01*
X135062143Y-102798334D01*
X135300239Y-102798334D01*
X135395477Y-102845953D01*
X135443096Y-102893572D01*
X135490715Y-102988810D01*
X135490715Y-103226905D01*
X135443096Y-103322143D01*
X135395477Y-103369762D01*
X135300239Y-103417381D01*
X135062143Y-103417381D01*
X134966905Y-103369762D01*
X134919286Y-103322143D01*
X134966905Y-99925001D02*
X134871667Y-99877381D01*
X134728810Y-99877381D01*
X134585953Y-99925001D01*
X134490715Y-100020239D01*
X134443096Y-100115477D01*
X134395477Y-100305953D01*
X134395477Y-100448810D01*
X134443096Y-100639286D01*
X134490715Y-100734524D01*
X134585953Y-100829762D01*
X134728810Y-100877381D01*
X134824048Y-100877381D01*
X134966905Y-100829762D01*
X135014524Y-100782143D01*
X135014524Y-100448810D01*
X134824048Y-100448810D01*
X133943096Y-97337381D02*
X134562143Y-97337381D01*
X134228810Y-97718334D01*
X134371667Y-97718334D01*
X134466905Y-97765953D01*
X134514524Y-97813572D01*
X134562143Y-97908810D01*
X134562143Y-98146905D01*
X134514524Y-98242143D01*
X134466905Y-98289762D01*
X134371667Y-98337381D01*
X134085953Y-98337381D01*
X133990715Y-98289762D01*
X133943096Y-98242143D01*
X134847858Y-97337381D02*
X135181191Y-98337381D01*
X135514524Y-97337381D01*
X133966905Y-95797381D02*
X133966905Y-94797381D01*
X134205001Y-94797381D01*
X134347858Y-94845001D01*
X134443096Y-94940239D01*
X134490715Y-95035477D01*
X134538334Y-95225953D01*
X134538334Y-95368810D01*
X134490715Y-95559286D01*
X134443096Y-95654524D01*
X134347858Y-95749762D01*
X134205001Y-95797381D01*
X133966905Y-95797381D01*
X135395477Y-95130715D02*
X135395477Y-95797381D01*
X135157381Y-94749762D02*
X134919286Y-95464048D01*
X135538334Y-95464048D01*
X133966905Y-93257381D02*
X133966905Y-92257381D01*
X134205001Y-92257381D01*
X134347858Y-92305001D01*
X134443096Y-92400239D01*
X134490715Y-92495477D01*
X134538334Y-92685953D01*
X134538334Y-92828810D01*
X134490715Y-93019286D01*
X134443096Y-93114524D01*
X134347858Y-93209762D01*
X134205001Y-93257381D01*
X133966905Y-93257381D01*
X134871667Y-92257381D02*
X135490715Y-92257381D01*
X135157381Y-92638334D01*
X135300239Y-92638334D01*
X135395477Y-92685953D01*
X135443096Y-92733572D01*
X135490715Y-92828810D01*
X135490715Y-93066905D01*
X135443096Y-93162143D01*
X135395477Y-93209762D01*
X135300239Y-93257381D01*
X135014524Y-93257381D01*
X134919286Y-93209762D01*
X134871667Y-93162143D01*
X133966905Y-90717381D02*
X133966905Y-89717381D01*
X134205001Y-89717381D01*
X134347858Y-89765001D01*
X134443096Y-89860239D01*
X134490715Y-89955477D01*
X134538334Y-90145953D01*
X134538334Y-90288810D01*
X134490715Y-90479286D01*
X134443096Y-90574524D01*
X134347858Y-90669762D01*
X134205001Y-90717381D01*
X133966905Y-90717381D01*
X134919286Y-89812620D02*
X134966905Y-89765001D01*
X135062143Y-89717381D01*
X135300239Y-89717381D01*
X135395477Y-89765001D01*
X135443096Y-89812620D01*
X135490715Y-89907858D01*
X135490715Y-90003096D01*
X135443096Y-90145953D01*
X134871667Y-90717381D01*
X135490715Y-90717381D01*
X133966905Y-88177381D02*
X133966905Y-87177381D01*
X134205001Y-87177381D01*
X134347858Y-87225001D01*
X134443096Y-87320239D01*
X134490715Y-87415477D01*
X134538334Y-87605953D01*
X134538334Y-87748810D01*
X134490715Y-87939286D01*
X134443096Y-88034524D01*
X134347858Y-88129762D01*
X134205001Y-88177381D01*
X133966905Y-88177381D01*
X135490715Y-88177381D02*
X134919286Y-88177381D01*
X135205001Y-88177381D02*
X135205001Y-87177381D01*
X135109762Y-87320239D01*
X135014524Y-87415477D01*
X134919286Y-87463096D01*
X133966905Y-85637381D02*
X133966905Y-84637381D01*
X134205001Y-84637381D01*
X134347858Y-84685001D01*
X134443096Y-84780239D01*
X134490715Y-84875477D01*
X134538334Y-85065953D01*
X134538334Y-85208810D01*
X134490715Y-85399286D01*
X134443096Y-85494524D01*
X134347858Y-85589762D01*
X134205001Y-85637381D01*
X133966905Y-85637381D01*
X135157381Y-84637381D02*
X135252620Y-84637381D01*
X135347858Y-84685001D01*
X135395477Y-84732620D01*
X135443096Y-84827858D01*
X135490715Y-85018334D01*
X135490715Y-85256429D01*
X135443096Y-85446905D01*
X135395477Y-85542143D01*
X135347858Y-85589762D01*
X135252620Y-85637381D01*
X135157381Y-85637381D01*
X135062143Y-85589762D01*
X135014524Y-85542143D01*
X134966905Y-85446905D01*
X134919286Y-85256429D01*
X134919286Y-85018334D01*
X134966905Y-84827858D01*
X135014524Y-84732620D01*
X135062143Y-84685001D01*
X135157381Y-84637381D01*
G04 #@! TO.C,U2*
X105542380Y-125301904D02*
X106351904Y-125301904D01*
X106447142Y-125254285D01*
X106494761Y-125206666D01*
X106542380Y-125111428D01*
X106542380Y-124920952D01*
X106494761Y-124825714D01*
X106447142Y-124778095D01*
X106351904Y-124730476D01*
X105542380Y-124730476D01*
X105637619Y-124301904D02*
X105590000Y-124254285D01*
X105542380Y-124159047D01*
X105542380Y-123920952D01*
X105590000Y-123825714D01*
X105637619Y-123778095D01*
X105732857Y-123730476D01*
X105828095Y-123730476D01*
X105970952Y-123778095D01*
X106542380Y-124349523D01*
X106542380Y-123730476D01*
G04 #@! TD*
M02*
